<svg width="460" height="380" viewBox="0 0 460 380" fill="none" xmlns="http://www.w3.org/2000/svg">
<path d="M221 190C221 224.794 190.036 253 155.156 253C120.276 253 92 224.794 92 190C92 174.343 97.726 160.019 107.203 149C118.786 135.532 134.816 145 154 145C167.363 145 181.308 131.14 192 138.204C209.217 149.579 221 168.536 221 190Z" fill="url(#paint0_linear_2052_38503)"/>
<path d="M403 194C403 228.794 372.036 257 337.156 257C302.276 257 274 228.794 274 194C274 159.206 302.276 131 337.156 131C372.036 131 403 159.206 403 194Z" fill="url(#paint1_linear_2052_38503)"/>
<circle cx="244" cy="93" r="11" fill="white"/>
<circle cx="367" cy="155" r="12" fill="white"/>
<circle cx="342" cy="144" r="13" fill="white"/>
<ellipse cx="166" cy="163.5" rx="13" ry="12.5" fill="white"/>
<ellipse cx="144.5" cy="165" rx="13.5" ry="14" fill="white"/>
<circle cx="256" cy="116" r="8" fill="white"/>
<circle cx="285" cy="128" r="8" fill="white"/>
<path fill-rule="evenodd" clip-rule="evenodd" d="M194 63.5C194 63.7752 193.996 64.0495 193.989 64.3228C209.057 68.0544 220 79.2583 220 92.5C220 108.792 203.435 122 183 122C180.68 122 178.41 121.83 176.208 121.504C172.413 131.163 163.005 138 152 138C140.804 138 131.261 130.923 127.599 120.999C99.065 120.848 76 104.565 76 84.5C76 65.7602 96.1197 50.319 122.024 48.2384C122.417 41.9658 127.628 37 134 37C138.154 37 141.814 39.1103 143.968 42.3173C149.279 37.169 156.519 34 164.5 34C180.792 34 194 47.2076 194 63.5Z" fill="white"/>
<path d="M59.0008 237C54.2008 231.4 83.6675 225 99.0008 222.5L102 223.5L110.5 235.5L109 238C86.6 262.8 88 250 91.5 240.5C64.5 254.5 89 233.5 83 237C77 240.5 65.0008 244 59.0008 237Z" fill="url(#paint2_linear_2052_38503)"/>
<g clip-path="url(#clip0_2052_38503)">
<path fill-rule="evenodd" clip-rule="evenodd" d="M219.299 85.9201C219.728 87.4161 220.036 88.9444 220.219 90.4901C220.841 95.931 219.831 101.434 217.319 106.3C216.643 108.181 215.707 109.958 214.539 111.58C211.779 115.26 207.959 117.43 203.779 118.91C198.657 121.031 193.199 122.226 187.659 122.44C183.348 122.989 179.005 123.246 174.659 123.21C174.079 127.21 171.039 130.62 167.939 133.04C164.758 135.573 161.034 137.336 157.059 138.189C153.083 139.043 148.964 138.964 145.023 137.96C141.083 136.955 137.429 135.052 134.347 132.4C131.265 129.747 128.839 126.417 127.259 122.67C127.212 122.556 127.188 122.434 127.189 122.31C117.029 120.84 106.619 119.24 97.4491 114.38C82.4991 106.45 69.7791 86.46 77.7791 69.63C81.5191 61.87 88.7691 56.03 96.5191 52.63C104.241 49.2455 112.759 48.1052 121.099 49.34C122.069 43.88 126.629 39.94 131.819 38.34C133.23 37.8291 134.728 37.6031 136.226 37.6752C137.725 37.7473 139.194 38.116 140.549 38.76C142.317 39.7052 143.642 41.3069 144.239 43.22C147.214 40.0768 150.926 37.7257 155.039 36.38C163.679 33.49 173.309 35.3 180.869 40.2C187.319 44.39 193.119 51.69 191.709 59.69C196.543 61.7174 201.149 64.2516 205.449 67.25C207.723 68.5405 209.911 69.9768 211.999 71.55C214.749 73.62 217.089 76.03 218.239 79.34C218.908 81.4708 219.265 83.6871 219.299 85.9201ZM157.019 136.04C160.72 135.183 164.174 133.489 167.119 131.09C169.599 129.04 172.059 126.32 172.599 123.14H171.509C170.219 123.14 170.219 121.14 171.509 121.14H172.729C172.73 120.938 172.805 120.743 172.939 120.592C173.074 120.441 173.258 120.344 173.459 120.32C173.606 120.252 173.768 120.222 173.929 120.23C178.04 120.56 182.166 120.67 186.289 120.56C190.047 120.123 193.774 119.455 197.449 118.56C199.229 118.13 201.009 117.65 202.739 117.05C207.493 115.04 211.551 111.677 214.409 107.38C214.749 106.79 215.089 106.18 215.409 105.57C217.488 100.016 217.372 93.7667 217.262 87.8982L217.259 87.72V86.15C215.069 78.71 210.129 73.14 204.069 68.79C199.688 66.2997 195.051 64.2881 190.239 62.79C190.06 62.8265 189.874 62.8171 189.699 62.763C189.525 62.7088 189.366 62.6115 189.239 62.48L188.739 62.33C188.539 62.272 188.362 62.1527 188.233 61.9891C188.104 61.8254 188.029 61.6255 188.019 61.4172C188.009 61.209 188.064 61.0028 188.177 60.8276C188.29 60.6524 188.455 60.5169 188.649 60.44H188.539C187.349 59.94 188.369 58.22 189.539 58.71L189.779 58.82C190.137 55.109 189.099 51.3978 186.869 48.41C182.169 41.79 173.619 37.59 165.619 37.04C161.711 36.734 157.786 37.3511 154.161 38.8415C150.536 40.3319 147.312 42.6539 144.749 45.62C144.635 45.7681 144.473 45.8726 144.291 45.9163C144.11 45.9599 143.918 45.9401 143.749 45.86C143.606 45.8924 143.458 45.893 143.316 45.8619C143.173 45.8308 143.038 45.7687 142.922 45.6801C142.806 45.5914 142.71 45.4783 142.642 45.3487C142.574 45.2191 142.536 45.0762 142.529 44.93C142.443 43.8819 142.059 42.8801 141.423 42.0423C140.787 41.2045 139.925 40.5654 138.939 40.2C136.546 39.4123 133.949 39.5189 131.629 40.5C127.159 42.11 123.169 45.8 122.919 50.8C122.925 51.0248 122.855 51.245 122.72 51.425C122.585 51.605 122.394 51.7343 122.176 51.7921C121.959 51.8499 121.729 51.8328 121.522 51.7435C121.316 51.6542 121.146 51.498 121.039 51.3C111.841 49.8684 102.427 51.4912 94.2391 55.92C87.2291 59.73 80.7491 65.79 78.3291 73.6C75.6591 82.22 78.6591 91.57 83.4391 98.87C88.0946 105.929 94.7928 111.399 102.639 114.55C110.729 117.85 119.479 119.13 128.069 120.37C128.18 120.378 128.287 120.409 128.384 120.462C128.482 120.514 128.567 120.587 128.634 120.675C128.701 120.763 128.749 120.864 128.774 120.972C128.799 121.08 128.801 121.191 128.779 121.3C128.872 121.386 128.944 121.492 128.989 121.61C130.586 125.368 133.078 128.678 136.249 131.25C139.113 133.586 142.475 135.233 146.076 136.064C149.678 136.894 153.422 136.886 157.019 136.04ZM392.721 155.47C390.651 152.785 388.334 150.301 385.801 148.05C386.001 147.56 386.205 147.084 386.407 146.611L386.407 146.611L386.407 146.61C386.618 146.118 386.827 145.629 387.031 145.13C387.531 143.94 385.601 143.43 385.101 144.6C384.956 144.95 384.808 145.297 384.661 145.644C384.513 145.992 384.366 146.34 384.221 146.69C378.428 142.032 372.104 138.078 365.381 134.91C365.355 134.72 365.335 134.53 365.315 134.339C365.295 134.15 365.275 133.96 365.251 133.77C366.551 130.36 367.951 126.83 370.361 124.07C371.611 122.63 373.201 121.84 375.031 122.77C375.53 123.035 375.988 123.372 376.391 123.77C376.15 123.935 375.896 124.078 375.631 124.2C375.405 124.332 375.239 124.547 375.171 124.8C375.107 125.06 375.143 125.334 375.271 125.57C375.403 125.796 375.618 125.961 375.871 126.03H376.141C376.316 126.031 376.488 125.986 376.641 125.9C376.993 125.733 377.327 125.532 377.641 125.3C378.051 125.93 378.421 126.6 378.771 127.3C378.909 127.518 379.126 127.673 379.377 127.735C379.627 127.796 379.892 127.758 380.115 127.629C380.338 127.5 380.503 127.29 380.575 127.042C380.647 126.794 380.62 126.528 380.501 126.3C380.054 125.464 379.563 124.653 379.031 123.87C379.186 123.638 379.324 123.394 379.441 123.14C379.509 123.027 379.55 122.901 379.561 122.77C379.596 122.639 379.596 122.501 379.561 122.37C379.492 122.117 379.326 121.902 379.101 121.77C378.985 121.703 378.858 121.659 378.726 121.642C378.593 121.625 378.459 121.634 378.331 121.67C378.078 121.739 377.863 121.904 377.731 122.13C377.724 122.146 377.718 122.162 377.71 122.178C377.704 122.19 377.698 122.203 377.691 122.215C377.685 122.227 377.678 122.238 377.671 122.25C377.165 121.753 376.584 121.338 375.951 121.02C374.977 120.51 373.87 120.31 372.78 120.448C371.689 120.585 370.667 121.054 369.851 121.79C368.163 123.411 366.805 125.343 365.851 127.48C365.561 128.05 365.281 128.63 365.021 129.22V129.219C365.021 128.079 365.021 126.95 365.131 125.82C365.351 123 365.911 119.93 368.271 118.08C370.631 116.23 373.931 115.7 376.801 115.79C376.801 115.841 376.763 115.897 376.727 115.951L376.726 115.953L376.713 115.974C376.708 115.981 376.704 115.988 376.699 115.995L376.691 116.01C376.618 116.124 376.57 116.251 376.548 116.384C376.526 116.517 376.531 116.653 376.563 116.784C376.595 116.915 376.653 117.038 376.734 117.146C376.815 117.254 376.917 117.345 377.034 117.412C377.151 117.48 377.28 117.523 377.414 117.539C377.548 117.555 377.684 117.544 377.813 117.507C377.943 117.469 378.063 117.406 378.168 117.32C378.272 117.235 378.358 117.129 378.421 117.01C378.591 116.689 378.735 116.354 378.851 116.01C379.979 116.21 381.057 116.633 382.02 117.255C382.984 117.876 383.813 118.684 384.461 119.63C385.161 120.71 386.891 119.71 386.191 118.63C385.397 117.449 384.377 116.438 383.189 115.655C382.001 114.872 380.669 114.333 379.271 114.07C379.291 113.764 379.291 113.456 379.271 113.15C379.271 112.885 379.165 112.63 378.978 112.443C378.79 112.255 378.536 112.15 378.271 112.15C378.005 112.15 377.751 112.255 377.563 112.443C377.376 112.63 377.271 112.885 377.271 113.15V113.81C373.859 113.499 370.439 114.31 367.531 116.12C364.681 118.12 363.631 121.23 363.231 124.54C362.898 127.531 362.898 130.549 363.231 133.54C363.193 133.621 363.16 133.705 363.131 133.79L361.701 133.11L359.761 132.23C361.514 129.789 362.499 126.88 362.588 123.876C362.677 120.872 361.867 117.91 360.261 115.37C358.567 112.888 356.339 110.817 353.741 109.31C353.121 108.93 352.471 108.54 351.741 108.15C351.894 107.859 352.028 107.559 352.141 107.25C352.176 107.121 352.185 106.987 352.168 106.855C352.151 106.723 352.108 106.595 352.041 106.48C351.974 106.366 351.886 106.267 351.782 106.187C351.677 106.107 351.558 106.049 351.43 106.016C351.303 105.982 351.17 105.974 351.04 105.992C350.91 106.01 350.784 106.053 350.671 106.12C350.454 106.262 350.292 106.474 350.211 106.72V106.83C350.211 106.857 350.148 106.972 350.086 107.088C350.055 107.145 350.024 107.203 350.001 107.25C348.427 106.448 346.66 106.102 344.901 106.25C343.63 106.42 344.171 108.35 345.431 108.18C346.598 108.119 347.758 108.397 348.771 108.98C348.611 109.14 348.451 109.29 348.271 109.44C348.178 109.533 348.104 109.644 348.055 109.766C348.005 109.888 347.98 110.018 347.981 110.15C347.982 110.412 348.086 110.664 348.271 110.85C348.363 110.944 348.474 111.02 348.595 111.071C348.717 111.123 348.848 111.149 348.981 111.15C349.244 111.131 349.494 111.026 349.691 110.85C350.036 110.545 350.354 110.211 350.641 109.85C351.401 110.24 352.161 110.65 352.891 111.11C355.133 112.421 357.058 114.21 358.531 116.35C359.98 118.611 360.698 121.264 360.587 123.948C360.476 126.631 359.541 129.216 357.911 131.35C356.251 130.6 354.591 129.87 352.911 129.14C352.61 129.005 352.274 128.968 351.951 129.034C351.628 129.1 351.334 129.267 351.111 129.51C341.309 127.85 331.283 128.04 321.551 130.07C321.413 129.54 321.272 129.036 321.133 128.537L321.132 128.534C321.009 128.092 320.888 127.656 320.771 127.21C320.7 126.954 320.531 126.736 320.301 126.605C320.07 126.474 319.796 126.44 319.541 126.51C319.285 126.58 319.067 126.749 318.936 126.98C318.805 127.211 318.77 127.484 318.841 127.74L319.591 130.51C318.257 130.843 316.907 131.213 315.541 131.62C303.039 135.283 292.039 142.853 284.15 153.22C276.621 163.601 272.378 176.002 271.971 188.82C271.528 201.734 274.875 214.496 281.601 225.53C288.261 236.522 297.793 245.491 309.171 251.47C311.192 252.517 313.264 253.461 315.381 254.3C313.429 267.765 314.54 281.23 315.651 294.705V294.705V294.705V294.706V294.706V294.706V294.706V294.707V294.707V294.707V294.707V294.708V294.708V294.708V294.709V294.709V294.709V294.709V294.71C316.334 302.989 317.017 311.271 316.991 319.56C316.995 325.001 316.577 330.434 315.741 335.81C315.371 334.863 314.769 334.024 313.991 333.37C312.95 332.422 311.862 331.528 310.731 330.69C308.502 329.007 306.074 327.606 303.501 326.52C303.374 326.485 303.241 326.475 303.111 326.492C302.981 326.508 302.855 326.55 302.74 326.615C302.626 326.68 302.526 326.767 302.445 326.871C302.365 326.974 302.305 327.093 302.271 327.22C302.236 327.347 302.226 327.479 302.242 327.609C302.259 327.74 302.3 327.866 302.365 327.98C302.431 328.094 302.517 328.195 302.621 328.275C302.725 328.356 302.844 328.415 302.971 328.45C305.188 329.407 307.288 330.615 309.231 332.05C310.231 332.74 311.091 333.48 311.971 334.24C312.009 334.282 312.053 334.319 312.101 334.35C305.321 331.18 297.101 332.08 289.741 333.1C288.471 333.28 289.011 335.2 290.271 335.03C297.561 334.03 306.04 333.03 312.59 336.85C309.828 336.388 307.011 336.361 304.241 336.77C300.401 337.35 296.461 338.77 293.691 341.58C292.791 342.5 294.201 343.92 295.111 343C297.651 340.4 301.311 339.2 304.84 338.69C308.596 338.173 312.42 338.536 316.011 339.75C316.141 339.796 316.28 339.812 316.418 339.796C316.555 339.78 316.687 339.732 316.804 339.657C316.92 339.581 317.017 339.48 317.087 339.361C317.158 339.242 317.2 339.108 317.211 338.97V338.85C317.211 338.8 317.211 338.67 317.261 338.57C317.271 338.504 317.271 338.436 317.261 338.37C319.935 323.899 318.747 309.343 317.558 294.786C316.969 287.574 316.38 280.362 316.261 273.16C316.108 267.096 316.443 261.03 317.261 255.02C328.051 258.913 339.615 260.171 350.991 258.69C355.904 258.044 360.739 256.898 365.421 255.27C363.478 277.687 362.873 300.201 363.611 322.69C363.817 328.997 364.131 335.297 364.551 341.59C364.515 341.707 364.505 341.83 364.522 341.951C364.54 342.072 364.583 342.188 364.651 342.29C364.711 342.485 364.829 342.656 364.989 342.782C365.149 342.908 365.344 342.981 365.547 342.993C365.751 343.005 365.953 342.955 366.127 342.849C366.301 342.743 366.438 342.586 366.521 342.4C370.441 339.4 376.221 339.16 380.941 339.06C381.1 339.057 381.264 339.053 381.431 339.049C385.788 338.951 392.691 338.795 394.521 343.6C394.971 344.79 396.911 344.27 396.451 343.07C394.241 337.27 387.151 337.07 381.891 337.07C378.423 337 374.96 337.335 371.571 338.07C373.873 336.848 376.338 335.959 378.891 335.43C383.709 334.313 388.693 334.096 393.591 334.79C394.85 334.96 395.391 333.04 394.121 332.86C388.873 332.101 383.53 332.318 378.361 333.5C374.969 334.172 371.744 335.508 368.871 337.43C370.902 333.928 374.035 331.196 377.781 329.66C381.332 328.235 385.138 327.819 388.932 327.404C390.917 327.187 392.9 326.971 394.841 326.61C396.1 326.38 395.57 324.45 394.311 324.68C392.354 325.045 390.363 325.27 388.37 325.496L388.37 325.496L388.369 325.496L388.369 325.496L388.368 325.496L388.368 325.496L388.367 325.497L388.367 325.497L388.366 325.497L388.366 325.497C384.077 325.983 379.786 326.469 375.841 328.34C371.67 330.366 368.318 333.757 366.341 337.95C365.061 316.708 364.98 295.411 366.101 274.16C366.441 267.72 366.891 261.29 367.451 254.87C367.466 254.77 367.466 254.669 367.451 254.57C368.831 254.05 370.201 253.48 371.551 252.87C377.781 250.01 383.721 246.06 388.081 240.71C392.721 235 395.201 228.03 397.081 221.01C399.281 213.304 400.908 205.446 401.951 197.5C403.671 182.98 401.821 167.42 392.721 155.47ZM344.381 131.69C347.455 131.947 350.51 132.392 353.531 133.02C353.764 133.07 354.007 133.07 354.241 133.02C364.361 137.46 374.601 142.29 383.001 149.54C381.961 152 380.904 154.457 379.831 156.91C380.511 153.4 379.881 149.71 377.331 147.19C377.321 146.978 377.243 146.775 377.111 146.61C373.431 142.17 366.401 140.88 361.021 142.31C359.327 142.753 357.757 143.578 356.431 144.72C357.021 139.97 353.481 135.47 349.081 133.43C347.36 132.635 345.556 132.037 343.701 131.65L344.381 131.69ZM363.881 157.69C363.851 157.514 363.811 157.341 363.761 157.17C363.995 156.391 363.995 155.559 363.761 154.78C363.444 153.811 362.888 152.937 362.146 152.238C361.403 151.539 360.497 151.037 359.511 150.78C359.294 150.668 359.066 150.581 358.831 150.52C358.364 150.416 357.88 150.414 357.412 150.515C356.945 150.615 356.504 150.814 356.121 151.1C355.811 151.311 355.543 151.561 355.27 151.816C355.04 152.03 354.806 152.249 354.541 152.45C354.7 150.702 355.348 149.034 356.408 147.636C357.469 146.238 358.901 145.165 360.541 144.54C362.752 143.774 365.112 143.536 367.432 143.845C369.752 144.154 371.967 145.002 373.901 146.32C373.832 146.523 373.838 146.744 373.919 146.942C374 147.14 374.149 147.303 374.341 147.4C378.831 149.93 378.951 155.71 376.781 159.84C375.691 161.94 374.07 164.18 371.871 165.21C369.671 166.24 366.711 165.95 364.331 165.29C362.522 164.791 360.826 163.953 359.331 162.82L359.591 162.71L359.691 162.66C360.237 162.445 360.771 162.202 361.291 161.93C362.161 161.49 363.081 161 363.351 159.93V159.73C363.466 159.605 363.567 159.468 363.651 159.32C363.9 158.815 363.981 158.244 363.881 157.69ZM345.121 134.13C347.991 134.792 350.589 136.321 352.561 138.51C353.51 139.585 354.134 140.908 354.361 142.324C354.587 143.741 354.407 145.192 353.841 146.51C353.718 146.57 353.612 146.66 353.533 146.772C353.454 146.884 353.405 147.014 353.391 147.15C353.211 148.219 352.916 149.265 352.511 150.27C352.253 149.582 351.741 149.02 351.081 148.7C350.69 148.518 350.276 148.39 349.851 148.32C349.632 148.171 349.401 148.04 349.161 147.93C346.061 146.48 341.911 147.14 340.091 150.26C339.841 150.684 339.656 151.142 339.541 151.62C339.123 152.031 338.86 152.574 338.794 153.156C338.729 153.739 338.865 154.326 339.181 154.82C339.359 155.484 339.667 156.106 340.088 156.65C340.509 157.194 341.033 157.65 341.631 157.99C341.792 158.083 341.959 158.167 342.131 158.24C337.541 158.38 333.661 155.19 331.231 151.35C328.501 147.04 327.601 141.35 330.761 136.99C334.081 132.45 340.251 132.81 345.121 134.13ZM336.321 131.46C334.476 131.773 332.736 132.532 331.251 133.67C326.431 137.46 325.791 144.26 328.081 149.67C330.371 155.08 335.481 160.32 341.731 160.32C343.851 160.295 345.935 159.76 347.806 158.761C349.677 157.762 351.28 156.328 352.481 154.58V155.01C353.141 160.72 357.361 165.08 362.661 166.95C365.342 167.971 368.256 168.217 371.071 167.66C373.572 166.915 375.722 165.297 377.131 163.1C370.811 177.36 364.144 191.467 357.131 205.42C354.637 210.36 352.104 215.277 349.531 220.17C341.177 196.51 333.54 172.617 326.621 148.49C325.147 143.363 323.714 138.223 322.321 133.07C326.926 132.092 331.613 131.553 336.321 131.46ZM397.111 208.32C395.581 215.5 393.921 222.92 391.111 229.72C388.52 236.071 384.156 241.542 378.541 245.48C373.027 249.252 366.914 252.062 360.461 253.79C347.058 257.554 332.833 257.206 319.631 252.79C307.7 248.664 297.183 241.24 289.301 231.38C281.521 221.82 276.66 210.22 275.301 197.97C274.026 185.792 276.322 173.505 281.911 162.61C287.645 151.699 296.819 142.986 308.011 137.82C311.992 135.975 316.15 134.538 320.421 133.53C326.721 156.603 333.671 179.483 341.271 202.17C343.604 209.11 345.997 216.033 348.451 222.94C348.502 223.13 348.609 223.301 348.758 223.431C348.906 223.561 349.09 223.644 349.286 223.669C349.481 223.695 349.68 223.662 349.857 223.575C350.034 223.488 350.181 223.351 350.281 223.18C360.767 203.3 370.554 183.077 379.641 162.51C381.321 158.69 382.987 154.857 384.641 151.01C388.985 154.958 392.521 159.713 395.051 165.01C397.923 171.53 399.444 178.565 399.521 185.69C399.624 193.303 398.808 200.902 397.091 208.32H397.111ZM185.799 144.57C187.446 153.109 184.155 161.028 179.93 168.4C179.523 167.095 179.004 165.827 178.38 164.61C178.879 162.711 178.943 160.724 178.567 158.797C178.191 156.87 177.386 155.052 176.21 153.48C174.769 151.694 172.818 150.389 170.618 149.739C170.271 149.637 169.921 149.551 169.569 149.483C170.318 149.307 171.065 149.12 171.81 148.92C172.93 148.68 174.05 148.43 175.16 148.14C177.891 147.447 180.526 146.485 183.169 145.52C184.044 145.2 184.919 144.88 185.799 144.57ZM187.706 143.921C189.039 150.675 187.426 157.536 184.76 163.72C183.568 166.277 182.233 168.764 180.76 171.17C181.567 175.349 181.312 179.664 180.02 183.72L179.96 183.81C179.965 183.89 179.965 183.97 179.96 184.05C179.965 184.249 179.928 184.447 179.852 184.631C179.776 184.815 179.663 184.982 179.52 185.12C179.417 185.235 179.291 185.327 179.15 185.39C178.935 185.498 178.7 185.563 178.46 185.58C178.144 185.604 177.827 185.534 177.55 185.38C177.259 185.227 177.024 184.986 176.88 184.69C176.768 184.458 176.7 184.207 176.68 183.95C176.655 183.784 176.655 183.616 176.68 183.45C176.743 183.111 176.899 182.796 177.13 182.54C177.245 182.408 177.376 182.29 177.52 182.19C177.601 182.13 177.688 182.08 177.78 182.04C177.94 181.957 178.107 181.89 178.28 181.84H178.38C179.041 179.252 179.258 176.57 179.02 173.91C178.561 174.654 178.098 175.396 177.636 176.137L177.635 176.14L177.634 176.141L177.634 176.141L177.633 176.141L177.633 176.142L177.633 176.142L177.633 176.142L177.633 176.143L177.632 176.143L177.632 176.143L177.632 176.144L177.632 176.144L177.632 176.144L177.631 176.145C176.666 177.693 175.702 179.24 174.77 180.8C171.487 186.368 168.754 192.242 166.61 198.34C162.32 210.48 160.18 223.26 159.18 236.07C159.214 236.335 159.142 236.603 158.979 236.815C158.816 237.027 158.575 237.165 158.31 237.2C158.045 237.234 157.777 237.162 157.565 236.999C157.353 236.836 157.214 236.595 157.18 236.33C154.533 229.723 151.83 223.137 149.07 216.57C142.03 199.877 134.63 183.35 126.87 166.99C125.429 169.676 124.417 172.571 123.87 175.57C124.241 175.507 124.615 175.464 124.99 175.44C125.255 175.44 125.51 175.545 125.697 175.733C125.885 175.92 125.99 176.175 125.99 176.44C125.983 176.528 125.966 176.615 125.94 176.7C126.179 176.892 126.356 177.149 126.45 177.441C126.544 177.732 126.551 178.045 126.47 178.34C126.38 178.612 126.235 178.862 126.044 179.075C125.853 179.289 125.62 179.46 125.36 179.58C124.881 179.817 124.362 179.962 123.83 180.01C123.305 180.081 122.771 179.968 122.32 179.69C122.046 179.505 121.822 179.254 121.668 178.961C121.515 178.668 121.436 178.341 121.44 178.01C121.441 177.732 121.495 177.457 121.6 177.2C122.147 172.799 123.593 168.558 125.85 164.74C123.291 159.481 120.732 154.241 118.173 149.02C115.957 149.482 113.823 150.327 111.87 151.53C108.374 153.411 105.47 156.225 103.48 159.66C101.825 162.677 100.938 166.026 100.058 169.348L100.058 169.349C99.9488 169.76 99.8401 170.171 99.73 170.58C99.6879 170.806 99.5872 171.018 99.4381 171.193C99.289 171.369 99.0966 171.502 98.88 171.58C97.9254 177.493 97.3144 183.456 97.05 189.44C96.7316 196.483 97.2994 203.538 98.74 210.44C98.82 210.78 98.89 211.11 98.9599 211.44L98.96 211.44C99.9297 215.616 101.369 219.668 103.25 223.52C107.59 232.33 114.53 239.84 123.53 243.97C123.679 243.951 123.831 243.951 123.98 243.97C133.04 245.97 142.13 247.97 151.37 248.97C151.98 249.04 152.59 249.09 153.2 249.14C158.07 249.15 162.95 248.96 167.8 248.69C172.544 248.495 177.265 247.926 181.92 246.99C186.004 245.809 189.926 244.129 193.6 241.99C199.342 238.611 204.246 233.977 207.944 228.436C211.643 222.895 214.042 216.589 214.96 209.99C214.968 209.625 215.105 209.273 215.346 208.999C215.588 208.725 215.918 208.544 216.28 208.49C216.44 207.64 216.57 206.79 216.69 205.93C217.295 197.528 217.295 189.093 216.69 180.69C216.07 172.71 215.03 164.36 212.15 156.85C209.72 150.48 204.97 144.38 198.02 142.85C194.556 142.088 191.026 142.848 187.706 143.921ZM120.243 148.702C122.549 153.378 124.825 158.071 127.07 162.78C129.574 159.157 132.802 156.093 136.55 153.78C137.644 152.63 138.907 151.66 140.291 150.902C139.36 150.826 138.43 150.739 137.5 150.64C135.399 150.415 133.298 150.062 131.193 149.709L131.193 149.709L131.192 149.709C128.809 149.309 126.42 148.908 124.02 148.69C122.756 148.572 121.492 148.577 120.243 148.702ZM153.748 151.401C154.732 152.076 155.619 152.892 156.38 153.83C156.952 153.213 157.578 152.647 158.25 152.14C158.26 152.031 158.294 151.926 158.347 151.831C158.401 151.736 158.474 151.653 158.562 151.588C158.649 151.523 158.75 151.477 158.856 151.454C158.963 151.43 159.073 151.428 159.18 151.45H159.28C159.507 151.314 159.737 151.185 159.972 151.065C157.904 151.265 155.828 151.377 153.748 151.401ZM164.4 151.78H164.59C164.778 151.761 164.958 151.692 165.11 151.58C166.577 151.189 168.118 151.167 169.596 151.516C171.074 151.865 172.442 152.574 173.58 153.58C174.699 154.66 175.567 155.974 176.122 157.427C176.677 158.881 176.905 160.438 176.79 161.99C173.531 157.322 168.78 153.901 163.32 152.29C163.668 152.096 164.029 151.925 164.4 151.78ZM159.71 153.52L160.12 153.58C160.253 153.7 160.417 153.782 160.593 153.817C160.769 153.852 160.951 153.839 161.12 153.78C166.924 155.049 172.017 158.505 175.34 163.43C175.571 163.788 175.791 164.168 176 164.529L176 164.529L176.002 164.532L176.111 164.721C176.144 164.778 176.177 164.834 176.21 164.89C176.022 165.477 175.781 166.046 175.49 166.59C174.053 169.193 171.811 171.26 169.1 172.48C169.293 171.398 169.087 170.282 168.52 169.34C167.948 168.41 167.1 167.681 166.095 167.255C165.09 166.828 163.976 166.725 162.91 166.96C162.61 167.028 162.318 167.129 162.04 167.26C161.251 167.327 160.486 167.562 159.796 167.95C159.105 168.339 158.507 168.87 158.04 169.51C157.581 170.205 157.35 171.027 157.38 171.86C157.129 171.645 156.892 171.415 156.67 171.17C156.763 171.032 156.846 170.889 156.92 170.74C159.18 166.53 160.08 160.01 157.48 155.68C158.112 154.853 158.863 154.125 159.71 153.52ZM156.17 157.58C157.58 160.72 157.17 164.9 156.01 167.95C155.84 168.38 155.65 168.81 155.44 169.23C154.801 167.684 154.488 166.023 154.52 164.35C154.505 161.992 155.072 159.667 156.17 157.58ZM152.94 160.58C152.84 161.01 152.75 161.45 152.69 161.9C152.26 165.01 152.53 168.58 154.24 171.3C152.949 173.146 151.285 174.701 149.356 175.863C147.427 177.026 145.275 177.771 143.04 178.05H142.88C142.971 171.688 144.208 165.394 146.53 159.47C146.779 160.027 147.152 160.519 147.62 160.91C149.09 162.07 150.87 161.54 152.41 160.83L152.94 160.58ZM133.23 167.44C133.247 162.966 134.897 158.653 137.87 155.31C137.935 155.254 137.992 155.19 138.04 155.12C138.857 154.287 139.774 153.558 140.77 152.95C142.144 152.127 143.675 151.601 145.265 151.404C146.854 151.208 148.467 151.346 150 151.81C149.244 152.053 148.544 152.444 147.94 152.96C146.819 153.971 146.144 155.383 146.06 156.89V157.08C145.846 157.076 145.636 157.137 145.458 157.255C145.279 157.373 145.141 157.542 145.06 157.74C142.357 164.213 140.927 171.146 140.85 178.16C139.775 178.215 138.701 178.036 137.703 177.633C136.704 177.231 135.806 176.615 135.07 175.83C133.32 173.54 133.15 170.14 133.23 167.39V167.44ZM133.16 158.88C131.212 160.671 129.506 162.708 128.083 164.94C128.2 165.204 128.33 165.47 128.462 165.74L128.462 165.74C128.61 166.041 128.76 166.349 128.9 166.67L131.53 172.28C131.145 170.044 131.087 167.763 131.36 165.51C131.607 163.219 132.215 160.981 133.16 158.88ZM173.12 179.65C166.765 190.618 162.316 202.585 159.96 215.04C158.85 220.62 158.06 226.26 157.51 231.93C150.097 213.61 142.25 195.473 133.97 177.52C135.673 179.129 137.908 180.055 140.25 180.12H140.88C140.985 184.787 141.688 189.421 142.97 193.91C142.919 194.008 142.882 194.112 142.86 194.22C142.765 194.653 142.822 195.106 143.02 195.503C143.218 195.899 143.547 196.216 143.95 196.4C144.198 196.509 144.461 196.58 144.73 196.61C144.942 196.64 145.158 196.64 145.37 196.61C145.79 196.523 146.18 196.326 146.5 196.04C146.879 195.769 147.152 195.373 147.271 194.922C147.389 194.471 147.347 193.993 147.15 193.57C146.964 193.258 146.664 193.03 146.313 192.934C145.962 192.839 145.588 192.884 145.27 193.06C145.198 193.006 145.116 192.966 145.03 192.94C144.937 192.925 144.843 192.925 144.75 192.94C143.605 188.766 142.98 184.467 142.89 180.14C145.379 179.885 147.789 179.118 149.967 177.888C152.146 176.658 154.047 174.99 155.55 172.99C157.157 174.434 159.174 175.342 161.32 175.59C164.162 175.96 167.051 175.563 169.688 174.442C172.326 173.32 174.615 171.514 176.32 169.21C176.754 168.605 177.139 167.967 177.47 167.3C177.94 168.443 178.312 169.624 178.58 170.83C178.071 171.642 177.562 172.448 177.057 173.248L177.056 173.25L177.055 173.252L177.055 173.252C175.694 175.408 174.359 177.522 173.12 179.6V179.65ZM208.08 204.86C207.972 203.356 207.847 201.847 207.721 200.34C207.66 199.603 207.599 198.866 207.54 198.13C207.44 196.85 205.44 196.84 205.54 198.13C205.603 198.946 205.691 199.771 205.78 200.601C205.969 202.376 206.161 204.169 206.12 205.92C206.12 207.09 205.55 208.2 204.18 207.72C203.079 207.335 202.466 206.125 201.956 205.118C201.91 205.027 201.864 204.937 201.82 204.85C201.698 204.638 201.504 204.477 201.272 204.399C201.041 204.321 200.789 204.33 200.564 204.424C200.338 204.519 200.156 204.693 200.05 204.913C199.944 205.134 199.923 205.385 199.99 205.62C200.733 207.885 200.802 210.316 200.19 212.62C199.7 214.46 198.45 217.55 196.19 217.76C194.19 217.96 193.44 215.48 193.37 213.92C193.335 213.079 193.392 212.25 193.448 211.426C193.553 209.897 193.657 208.387 193.17 206.86C192.9 206.01 191.39 205.81 191.24 206.86C190.685 211.155 189.386 215.321 187.4 219.17L187.366 219.232C187.049 219.816 186.371 221.064 185.61 220.65C184.898 220.263 185.006 219.154 185.071 218.484V218.484L185.071 218.479C185.075 218.438 185.079 218.398 185.083 218.361C185.085 218.333 185.088 218.306 185.09 218.28C185.363 216.104 186.089 214.009 187.22 212.13C191.474 204.768 196.81 198.086 203.05 192.31C203.99 191.42 202.57 190 201.64 190.89C195.7 196.49 190.528 202.852 186.26 209.81C184.51 212.69 182.44 216.6 183.18 220.1C183.253 220.747 183.534 221.352 183.982 221.824C184.429 222.297 185.018 222.611 185.66 222.72C187.17 222.86 188.28 221.72 188.97 220.47C189.998 218.646 190.839 216.723 191.48 214.73C191.521 215.243 191.621 215.75 191.78 216.24C192.51 218.39 194.37 220.19 196.78 219.68C199.39 219.13 200.97 216.47 201.78 214.14C202.339 212.534 202.6 210.84 202.55 209.14C202.779 209.297 203.024 209.431 203.28 209.54C203.913 209.833 204.621 209.927 205.309 209.807C205.997 209.687 206.632 209.36 207.13 208.87C208.16 207.79 208.17 206.22 208.08 204.86ZM109.939 238.05C105.206 243.725 100.078 249.651 93.0999 252.55C91.5899 253.17 89.7999 253.54 88.3999 252.45C87.8266 251.923 87.3863 251.268 87.1152 250.537C86.844 249.807 86.7497 249.024 86.8399 248.25C86.8795 247.364 87.0204 246.484 87.2599 245.63L87.1299 245.69C85.4668 246.341 83.736 246.804 81.9699 247.07C81.7276 247.115 81.4759 247.168 81.2185 247.223C80.1478 247.451 78.9776 247.7 77.9699 247.41C75.1199 246.58 76.3599 242.94 77.1999 241.09C77.2685 240.94 77.3448 240.795 77.4217 240.648C77.4681 240.559 77.5147 240.47 77.5599 240.38C74.9588 241.469 72.1866 242.091 69.3699 242.22C67.011 242.319 64.6508 242.059 62.3699 241.45L62.3326 241.441C60.599 241.02 57.7694 240.333 57.7099 238.03C57.6585 236.043 59.8886 234.606 61.5475 233.537L61.5477 233.537L61.548 233.537L61.55 233.536C61.827 233.357 62.0881 233.189 62.3199 233.03C64.5632 231.506 66.9013 230.127 69.3199 228.9C78.5812 224.182 88.8173 221.712 99.1995 221.682C97.0837 216.606 95.6805 211.214 94.9 205.76C94.51 203.01 94.28 200.26 94.16 197.5C93.7053 195.019 93.4246 192.51 93.32 189.99C93.0747 183.417 93.9955 176.852 96.04 170.6C96.1438 169.936 96.2475 169.291 96.3545 168.626L96.4312 168.149L96.5 167.72C96.5256 167.458 96.6378 167.211 96.8188 167.019C96.9998 166.827 97.2394 166.701 97.5 166.66C97.595 166.44 97.685 166.215 97.775 165.99C97.865 165.765 97.955 165.54 98.05 165.32C98.86 162.319 100.096 159.45 101.72 156.8C104.127 153.321 107.356 150.49 111.12 148.56C115.032 146.327 119.533 145.343 124.02 145.74C126.508 145.966 128.975 146.375 131.443 146.784C133.777 147.17 136.113 147.557 138.47 147.79C142.16 148.15 145.87 148.33 149.58 148.33C149.639 148.017 149.816 147.738 150.075 147.552C150.334 147.365 150.654 147.286 150.97 147.33C160.643 148.089 170.369 146.861 179.55 143.72C180.621 143.352 181.685 142.954 182.749 142.557L182.749 142.557L182.749 142.557C185.56 141.507 188.374 140.455 191.34 139.94C195.01 139.227 198.81 139.642 202.24 141.13C209.11 144.16 213.37 150.82 215.68 157.7C218.38 165.72 219.37 174.46 219.89 182.86C220.398 191.694 220.282 200.553 219.54 209.37C219.509 209.773 219.323 210.149 219.021 210.417C218.719 210.686 218.324 210.827 217.92 210.81C217.895 210.926 217.872 211.044 217.848 211.162C217.805 211.379 217.762 211.596 217.71 211.81C216.516 218.976 213.682 225.769 209.43 231.66C203.376 239.984 194.965 245.604 185.553 248.902C185.5 249.034 185.409 249.162 185.27 249.28C182.81 251.39 179.98 253.83 179.56 257.28C179.371 258.873 179.952 260.126 180.587 261.497L180.587 261.497L180.69 261.72C180.727 261.8 180.764 261.88 180.8 261.96C181.443 263.271 181.746 264.722 181.68 266.18C181.51 268.96 180.16 271.4 178.77 273.75C177.243 276.044 176.193 278.622 175.68 281.33C175.319 283.882 175.552 286.483 176.36 288.93C176.792 290.241 177.39 291.491 178.14 292.65C178.817 293.487 179.41 294.388 179.91 295.34C180.79 297.59 179.12 298.97 177.51 300.21C174.902 302.213 175.707 305.023 176.491 307.761L176.51 307.83C177.94 312.83 177.39 317.83 176.39 322.83C178.532 320.168 181.528 318.327 184.87 317.62C189.496 316.431 194.3 316.088 199.03 315.75L199.627 315.707L199.87 315.69C201.16 315.6 201.15 317.6 199.87 317.69C195.449 317.896 191.048 318.414 186.7 319.24C184.326 319.673 182.064 320.581 180.05 321.91C182.15 321.278 184.328 320.941 186.52 320.91C191.21 320.77 196.46 320.77 200.39 323.69C201.41 324.42 200.42 326.15 199.39 325.47C195.84 322.83 191.23 322.87 187 322.95C184.973 322.955 182.955 323.231 181 323.77C184.15 323.98 187.35 325.66 190 327.22C190.218 327.358 190.374 327.576 190.435 327.826C190.496 328.077 190.459 328.341 190.33 328.564C190.201 328.788 189.99 328.952 189.742 329.024C189.495 329.096 189.229 329.07 189 328.95C185.43 326.83 180.66 324.13 176.66 326.95C176.533 327.051 176.379 327.112 176.217 327.126C176.056 327.141 175.893 327.107 175.75 327.03C175.61 327.145 175.441 327.22 175.261 327.246C175.082 327.273 174.898 327.25 174.731 327.18C174.563 327.11 174.418 326.996 174.311 326.85C174.203 326.703 174.137 326.531 174.12 326.35C173.998 326.237 173.908 326.092 173.86 325.932C173.813 325.772 173.809 325.602 173.85 325.44C174.787 321.843 175.33 318.154 175.47 314.44C175.481 312.649 175.26 310.864 174.81 309.13C174.306 307.607 173.944 306.04 173.73 304.45C173.619 303.279 173.832 302.101 174.345 301.043C174.858 299.984 175.652 299.088 176.64 298.45C177.73 297.62 178.61 296.92 177.73 295.54C177.49 295.17 177.233 294.81 176.976 294.449L176.976 294.449C176.537 293.833 176.096 293.214 175.73 292.54C174.55 290.338 173.826 287.921 173.601 285.433C173.376 282.946 173.655 280.438 174.42 278.06C175.018 276.254 175.965 274.637 176.916 273.015C177.366 272.248 177.816 271.48 178.23 270.69C179.063 269.259 179.565 267.66 179.7 266.01C179.639 264.489 179.207 263.005 178.44 261.69C177.88 260.541 177.584 259.28 177.574 258.002C177.563 256.723 177.839 255.458 178.38 254.3C179.075 252.745 180.124 251.423 181.306 250.216C178.478 250.981 175.581 251.553 172.65 251.94C163.055 253.204 153.469 252.518 143.96 251.031C143.918 251.126 143.858 251.219 143.781 251.31C142.965 252.212 142.356 253.282 141.999 254.445C141.641 255.608 141.543 256.835 141.711 258.04C141.938 259.536 142.687 260.781 143.434 262.02C143.905 262.801 144.374 263.581 144.711 264.42C145.581 266.59 145.111 268.83 144.361 270.96C143.424 273.343 142.818 275.843 142.561 278.39C142.277 282.567 142.969 286.702 143.656 290.812C143.841 291.916 144.025 293.019 144.191 294.12C145.699 304.249 144.983 314.586 142.091 324.41C141.909 324.661 141.665 324.86 141.382 324.986C141.1 325.113 140.789 325.162 140.481 325.13C136.061 323.9 130.621 323.11 126.981 326.61C126.051 327.5 124.641 326.09 125.571 325.19C128.911 321.98 133.471 321.72 137.801 322.47C136.501 320.49 134.673 318.914 132.524 317.919C130.375 316.924 127.991 316.55 125.641 316.84C125.375 316.84 125.121 316.735 124.934 316.547C124.746 316.359 124.641 316.105 124.641 315.84C124.641 315.575 124.746 315.32 124.934 315.133C125.121 314.945 125.375 314.84 125.641 314.84C128.116 314.568 130.621 314.932 132.917 315.898C135.212 316.864 137.224 318.4 138.761 320.36C138.358 317.621 137.152 315.062 135.296 313.008C133.439 310.954 131.015 309.497 128.331 308.82C128.204 308.785 128.085 308.726 127.982 308.645C127.878 308.564 127.791 308.464 127.726 308.35C127.661 308.236 127.619 308.11 127.603 307.979C127.586 307.849 127.596 307.717 127.631 307.59C127.665 307.463 127.725 307.345 127.805 307.241C127.886 307.137 127.986 307.05 128.101 306.985C128.215 306.92 128.341 306.878 128.471 306.862C128.602 306.846 128.734 306.855 128.861 306.89C132.118 307.722 135.03 309.559 137.185 312.141C139.339 314.722 140.625 317.916 140.861 321.27C142.152 316.231 142.86 311.06 142.971 305.86C142.961 300.54 142.469 295.231 141.501 290C140.681 284.97 139.941 279.73 141.061 274.73C141.283 273.726 141.654 272.73 142.024 271.733C142.569 270.269 143.113 268.803 143.191 267.31C143.28 265.577 142.431 264.206 141.567 262.812C141.18 262.188 140.79 261.558 140.481 260.89C139.704 259.07 139.468 257.064 139.802 255.113C140.075 253.517 140.719 252.013 141.677 250.719C140.084 250.569 138.492 250.379 136.9 250.15C133.42 249.623 129.993 248.79 126.66 247.66L123.31 246.92C123.04 246.949 122.767 246.904 122.52 246.79C117.822 244.667 113.559 241.703 109.939 238.05ZM108.539 236.566C104.69 241.174 100.714 245.861 95.5399 248.99C94.2754 249.861 92.8863 250.535 91.4199 250.99C89.4199 251.49 88.7599 249.99 88.8399 248.21C88.9245 246.726 89.3342 245.278 90.0399 243.97C91.3806 242.983 92.4448 241.667 93.1299 240.15C93.2508 239.94 93.2915 239.694 93.2445 239.456C93.1974 239.219 93.0658 239.006 92.874 238.858C92.6822 238.711 92.4433 238.637 92.2016 238.652C91.9599 238.667 91.7319 238.77 91.5599 238.94C90.3531 239.975 89.3376 241.214 88.5599 242.6C86.1799 244.27 82.9999 244.93 80.1399 245.39C80.0576 245.403 79.9552 245.425 79.8414 245.45C79.4298 245.54 78.8698 245.662 78.5799 245.49C78.1014 245.201 78.226 244.619 78.3283 244.141C78.3393 244.089 78.3501 244.039 78.3599 243.99C78.6094 242.98 78.9999 242.011 79.5199 241.11C80.1916 239.928 81.0569 238.866 82.0799 237.97C82.7399 237.51 83.3799 237.03 83.9899 236.51C84.8499 235.77 83.7299 234.34 82.7699 234.94C82.0415 235.403 81.3525 235.924 80.7099 236.5C77.8568 238.445 74.5781 239.677 71.1499 240.09C69.1047 240.339 67.0348 240.302 64.9999 239.98C64.0086 239.808 63.0297 239.571 62.0699 239.27C61.9806 239.241 61.8841 239.212 61.7831 239.181L61.7774 239.18L61.7762 239.179C60.7471 238.866 59.263 238.415 60.1899 237.27C60.9258 236.486 61.7712 235.812 62.6999 235.27C63.6999 234.57 64.6999 233.91 65.6999 233.27C76.0192 226.874 87.9445 223.551 100.08 223.685C102.225 228.325 104.998 232.662 108.47 236.49L108.539 236.566ZM379.85 205.75C379.4 204.54 381.34 204.02 381.77 205.22C384.24 211.95 386.88 220.09 382.62 226.72C381.38 228.61 377.96 232.43 375.38 230.79C375.08 230.575 374.825 230.303 374.631 229.989C374.437 229.674 374.308 229.325 374.25 228.96C373.49 230.552 372.302 231.902 370.82 232.86C370.42 233.113 369.947 233.225 369.476 233.178C369.004 233.131 368.562 232.927 368.22 232.6C368.027 232.397 367.874 232.16 367.77 231.9C367.744 231.94 367.718 231.98 367.691 232.02L367.64 232.1L367.589 232.179C367.492 232.33 367.395 232.482 367.29 232.63C365.477 235.218 362.946 237.22 360.01 238.39C359.311 238.737 358.53 238.885 357.752 238.818C356.974 238.751 356.23 238.471 355.6 238.01C355.125 237.521 354.794 236.91 354.642 236.245C354.49 235.581 354.524 234.887 354.74 234.24C355.384 231.327 356.57 228.445 357.728 225.633L357.728 225.632L357.729 225.631C358.045 224.862 358.36 224.098 358.66 223.34C360.013 219.725 361.686 216.237 363.66 212.92C364.33 211.81 366.06 212.82 365.38 213.92C363.312 217.421 361.564 221.103 360.16 224.92C359.44 226.78 358.73 228.65 358.05 230.53C357.73 231.4 357.43 232.27 357.14 233.14C356.753 233.972 356.565 234.883 356.59 235.8C357.05 238.01 360.42 236.06 361.49 235.4C362.975 234.476 364.28 233.29 365.34 231.9C366.31 230.613 367.072 229.182 367.6 227.66C367.753 225.413 368.087 223.183 368.6 220.99C368.636 220.725 368.776 220.485 368.989 220.322C369.202 220.16 369.47 220.089 369.735 220.125C370.001 220.161 370.241 220.3 370.403 220.513C370.565 220.726 370.636 220.995 370.6 221.26C370.643 223.583 370.288 225.897 369.55 228.1C369.401 228.922 369.381 229.762 369.49 230.59C369.752 231.507 370.487 230.639 370.962 230.078C370.994 230.041 371.024 230.005 371.053 229.971C371.088 229.931 371.12 229.894 371.15 229.86C372.673 228.108 373.632 225.936 373.9 223.63V220.54C373.9 220.275 374.006 220.02 374.193 219.833C374.381 219.645 374.635 219.54 374.9 219.54C375.166 219.54 375.42 219.645 375.607 219.833C375.795 220.02 375.9 220.275 375.9 220.54C376.03 221.626 376.03 222.724 375.9 223.81V225.26L375.902 225.294C375.941 226.063 375.981 226.841 376.05 227.61C376.14 228.56 376.27 229.43 377.47 228.83C379.647 227.612 381.285 225.62 382.06 223.25C384.13 217.496 381.894 211.359 379.908 205.909L379.908 205.909L379.85 205.75ZM328.521 221.07C326.611 217.07 323.731 213.59 320.911 210.19C320.091 209.19 318.681 210.62 319.501 211.6C324.501 217.6 330.551 225.2 328.221 233.6C327.751 235.27 326.801 237.6 325.221 238.6C323.553 239.59 321.645 236.938 320.694 235.616L320.628 235.525C320.594 235.478 320.562 235.433 320.531 235.39C318.354 232.178 316.55 228.729 315.151 225.11C314.711 224.11 312.941 224.82 313.331 225.88C314.135 227.885 314.751 229.961 315.171 232.08L315.177 232.12L315.188 232.179C315.193 232.209 315.199 232.24 315.204 232.271C315.214 232.324 315.225 232.381 315.236 232.439C315.364 233.103 315.549 234.059 315.241 234.55C314.912 235.074 314.544 234.668 314.221 234.311L314.22 234.31L314.166 234.251L314.132 234.214L314.101 234.18C313.799 233.863 313.515 233.529 313.251 233.18C311.106 230.298 310.181 226.719 309.295 223.29L309.251 223.12C308.921 221.84 307.141 222.42 307.321 223.65C307.757 226.347 307.854 229.089 307.611 231.81C307.551 232.41 307.451 233.03 306.771 233.16C306.193 233.168 305.627 232.997 305.151 232.67C304.198 232.157 303.314 231.526 302.521 230.79C300.995 229.369 299.803 227.628 299.03 225.691C298.257 223.755 297.923 221.671 298.051 219.59C298.131 218.3 296.131 218.31 296.051 219.59C295.902 222.35 296.468 225.102 297.694 227.579C298.921 230.056 300.766 232.175 303.051 233.73C304.961 235.02 308.341 236.26 309.371 233.25C309.59 232.544 309.708 231.81 309.721 231.07C310.601 233.02 312.011 235.69 313.991 236.67C315.971 237.65 317.161 235.85 317.311 234.15C317.701 234.81 318.111 235.45 318.551 236.08C320.151 238.33 323.041 242.3 326.221 240.34C328.951 238.66 330.221 234.78 330.591 231.78C330.92 228.086 330.202 224.375 328.521 221.07ZM279.841 119.18C283.991 119.57 288.761 120.47 291.071 124.37C292.002 125.904 292.299 127.74 291.901 129.49C291.68 130.304 291.296 131.064 290.771 131.724C290.247 132.385 289.593 132.931 288.851 133.33C285.861 135.03 281.561 134.92 278.981 132.51C277.731 131.294 276.98 129.656 276.874 127.915C276.769 126.175 277.317 124.458 278.411 123.1C279.025 122.332 279.8 121.707 280.681 121.27L279.841 121.18C278.571 121.06 278.561 119.06 279.841 119.18ZM285.28 132.449C286.594 132.283 287.831 131.737 288.841 130.88C290.881 128.93 290.151 125.85 288.311 124.06C288.081 123.847 287.837 123.649 287.581 123.47C287.377 123.489 287.173 123.44 287.001 123.33C286.373 122.919 285.665 122.645 284.924 122.526C284.183 122.407 283.425 122.446 282.7 122.641C281.975 122.835 281.299 123.181 280.716 123.654C280.134 124.128 279.659 124.72 279.321 125.39C278.786 126.53 278.708 127.831 279.102 129.026C279.497 130.222 280.333 131.222 281.441 131.82C282.632 132.398 283.967 132.616 285.28 132.449ZM261.571 109.95C261.458 109.713 261.257 109.53 261.011 109.44C259.114 108.74 257.103 108.401 255.081 108.44C253.279 108.385 251.492 108.791 249.891 109.62C249.146 110.097 248.523 110.741 248.071 111.502C247.62 112.262 247.353 113.118 247.291 114C246.991 115.896 247.18 117.838 247.841 119.64C250.661 126.38 261.451 124.4 264.101 118.58C265.521 115.44 264.581 111.51 261.571 109.95ZM262.461 117.32C261.461 119.89 258.781 121.41 256.161 121.76C253.881 122.06 251.101 121.45 249.901 119.29C249.29 117.983 249.048 116.534 249.201 115.1C249.251 113.74 249.501 112.25 250.711 111.43C252.087 110.672 253.653 110.325 255.221 110.43C256.546 110.424 257.866 110.605 259.141 110.97C259.204 111.086 259.291 111.186 259.396 111.266C259.502 111.345 259.622 111.401 259.751 111.43C262.381 112.04 263.321 114.95 262.461 117.32ZM255.08 90.96C252.78 84.96 246.54 82.79 240.87 81.18C240.743 81.1452 240.611 81.1357 240.481 81.1521C240.35 81.1684 240.224 81.2103 240.11 81.2753C239.996 81.3403 239.896 81.4271 239.815 81.5309C239.734 81.6347 239.675 81.7533 239.64 81.88C239.605 82.0067 239.596 82.1391 239.612 82.2695C239.628 82.3999 239.67 82.5258 239.735 82.64C239.8 82.7542 239.887 82.8545 239.991 82.9351C240.095 83.0158 240.213 83.0752 240.34 83.11L241.54 83.46C239.819 83.3147 238.091 83.6591 236.557 84.4536C235.023 85.248 233.745 86.4602 232.87 87.95C230.51 92.08 231.96 97.63 235.41 100.7C239.22 104.07 244.97 104.58 249.58 102.7C251.955 101.824 253.91 100.08 255.05 97.82C255.507 96.735 255.745 95.5703 255.75 94.393C255.755 93.2157 255.527 92.049 255.08 90.96ZM250.72 99.82C248.953 100.968 246.918 101.637 244.815 101.764C242.712 101.89 240.612 101.468 238.72 100.54C235.32 98.74 233.04 94.69 233.94 90.82C234.84 86.95 239.49 84.11 243.29 85.91C244.29 86.4 245.22 85.12 244.62 84.43C247.48 85.43 250.21 86.87 251.99 89.33C254.43 92.75 254.45 97.31 250.72 99.82ZM247.94 325.48C232.424 340.582 211.757 349.234 190.11 349.69C185.18 349.807 180.249 349.472 175.38 348.69L185.06 344.55C186.14 344.09 185.35 342.47 184.29 342.72C166.612 346.954 148.105 346.186 130.84 340.5C133.03 337.385 136.127 335.021 139.71 333.73C140.71 333.37 140.64 331.73 139.45 331.73L75.8498 335.49L57.9598 336.55C56.6798 336.63 56.6698 338.63 57.9598 338.55L121.56 334.79L134.69 334.01C132.142 335.682 129.997 337.899 128.41 340.5C128.332 340.632 128.286 340.781 128.275 340.934C128.264 341.087 128.289 341.241 128.347 341.383C128.405 341.525 128.495 341.652 128.61 341.754C128.725 341.856 128.862 341.93 129.01 341.97C144.02 347.109 160.037 348.607 175.74 346.34L171.43 348.19C171.262 348.29 171.128 348.437 171.043 348.613C170.958 348.789 170.926 348.985 170.952 349.179C170.977 349.372 171.059 349.554 171.187 349.702C171.314 349.849 171.482 349.957 171.67 350.01C193.447 354.256 216.024 350.078 234.84 338.32C240.072 335.054 244.928 331.221 249.32 326.89C249.46 326.699 249.527 326.464 249.51 326.228C249.493 325.992 249.393 325.769 249.227 325.6C249.062 325.431 248.841 325.326 248.606 325.304C248.37 325.282 248.134 325.344 247.94 325.48ZM396.489 355.77C410.049 352.39 420.559 342.61 430.489 333.34C431.429 332.46 432.849 333.87 431.889 334.7C426.109 340.1 420.279 345.52 413.699 349.95C402.789 357.28 388.469 361.87 375.699 356.63C374.431 356.127 373.192 355.533 371.953 354.938C370.163 354.08 368.37 353.221 366.479 352.63C362.769 351.44 358.889 351.56 355.059 351.92C349.773 352.415 344.487 353 339.204 353.584C336.591 353.873 333.98 354.162 331.369 354.44C331.192 354.442 331.017 354.396 330.863 354.308C330.709 354.22 330.582 354.093 330.493 353.939C330.404 353.786 330.358 353.611 330.359 353.434C330.361 353.256 330.409 353.082 330.499 352.93C331.946 350.443 333.389 347.95 334.829 345.45C331.619 345.07 328.899 347.86 326.969 350.21C324.719 352.91 322.539 355.45 319.229 356.91C313.819 359.32 307.559 358.86 301.819 357.97C296.747 357.192 291.699 356.196 286.655 355.202C284.44 354.765 282.225 354.328 280.009 353.91C279.253 353.768 278.452 353.636 277.622 353.5C272.484 352.655 266.299 351.638 263.569 347.04C262.854 345.76 262.49 344.313 262.514 342.846C262.539 341.38 262.951 339.946 263.709 338.69L236.649 340.8C235.359 340.9 235.369 338.9 236.649 338.8L267.389 336.43C268.509 336.38 268.759 338.24 267.649 338.43C265.209 338.86 264.309 341.4 264.519 343.64C264.799 346.57 267.169 348.44 269.729 349.51C272.438 350.495 275.244 351.189 278.099 351.58L288.839 353.58C290.3 353.855 291.765 354.152 293.233 354.449C298.066 355.428 302.938 356.414 307.839 356.66C313.459 356.92 319.159 355.96 323.159 351.66C323.821 350.948 324.436 350.192 325.051 349.436C326.293 347.907 327.534 346.381 329.159 345.23C330.195 344.403 331.418 343.843 332.72 343.601C334.023 343.358 335.366 343.44 336.629 343.84C336.777 343.882 336.912 343.956 337.026 344.059C337.14 344.161 337.229 344.288 337.286 344.43C337.343 344.572 337.366 344.725 337.355 344.878C337.343 345.03 337.297 345.178 337.219 345.31L333.219 352.24C335.33 352.007 337.444 351.761 339.558 351.514C345.357 350.837 351.166 350.158 356.969 349.77C360.564 349.428 364.19 349.819 367.629 350.92C369.315 351.523 370.925 352.298 372.535 353.072C374.02 353.786 375.505 354.499 377.049 355.08C383.31 357.275 390.089 357.516 396.489 355.77Z" fill="#1F2224"/>
</g>
<path d="M130.337 102.755C129.456 102.755 128.639 102.55 127.884 102.141C127.161 101.733 126.532 101.183 125.998 100.491C125.526 99.8308 125.102 98.9976 124.725 97.9916C124.347 96.9541 124.065 95.8852 123.876 94.7849C123.499 92.93 123.247 90.4935 123.121 87.4754C123.09 86.7523 123.074 85.5105 123.074 83.7499V80.779C123.106 79.9301 123.121 79.0498 123.121 78.1381C123.121 76.2833 123.231 74.8214 123.451 73.7524C123.357 73.2809 123.31 72.7936 123.31 72.2905C123.31 70.4042 124.017 68.8795 125.432 67.7162C126.847 66.553 128.639 65.9714 130.808 65.9714C131.626 65.9714 132.38 66.1915 133.072 66.6316C133.763 67.0717 134.109 67.6219 134.109 68.2821C134.109 68.5965 133.983 68.848 133.732 69.0367C133.48 69.2253 133.166 69.3196 132.789 69.3196C132.474 69.3196 132.129 69.2724 131.751 69.1781C131.405 69.0838 131.185 68.9423 131.091 68.7537H130.478V68.6594C129.315 68.6594 128.34 68.9109 127.554 69.4139C126.988 69.8226 126.548 70.4985 126.234 71.4417C126.108 71.7875 126.014 72.2277 125.951 72.7621C125.888 73.2966 125.857 73.7839 125.857 74.224C125.825 74.4755 125.809 74.9785 125.809 75.7331L125.904 77.3836L125.951 78.987C125.951 79.4585 125.888 80.0087 125.762 80.6375C125.605 81.4235 125.526 81.9736 125.526 82.288V83.4198C125.526 84.6459 125.574 86.3279 125.668 88.4657C125.699 90.2577 125.904 92.0497 126.281 93.8417C126.564 95.508 127.098 96.9227 127.884 98.0859C128.639 99.2806 129.661 99.8779 130.95 99.8779C131.484 99.8779 132.144 99.595 132.93 99.0291C133.779 98.4632 134.376 98.1802 134.722 98.1802C135.162 98.1802 135.618 98.416 136.09 98.8876C136.09 100.051 135.65 100.947 134.769 101.576C133.952 102.142 132.977 102.503 131.846 102.66C131.217 102.723 130.714 102.755 130.337 102.755Z" fill="#1F2224"/>
<path d="M143.301 101.906C143.772 100.428 144.008 95.1936 144.008 86.2021C144.008 85.0075 143.993 83.9857 143.961 83.1369L143.914 80.5432C142.153 80.1345 140.707 79.2856 139.575 77.9967C138.475 76.6762 137.925 75.1357 137.925 73.3752C137.925 71.8661 138.082 70.4514 138.396 69.131C138.617 68.2507 138.884 67.5276 139.198 66.9617C139.544 66.3644 139.984 65.8614 140.519 65.4527C141.053 65.044 141.713 64.8396 142.499 64.8396C144.008 64.8396 145.046 65.1854 145.612 65.8771C146.178 66.5373 146.46 67.6848 146.46 69.3196C146.46 72.3377 146.366 76.8649 146.178 82.9011C145.989 88.9687 145.895 93.5116 145.895 96.5297C145.895 96.8755 145.847 97.4257 145.753 98.1802C145.627 98.9033 145.564 99.4849 145.564 99.9251C145.564 100.082 145.58 100.224 145.612 100.349V100.868C145.612 101.434 145.47 101.89 145.187 102.236C144.904 102.613 144.511 102.802 144.008 102.802L143.301 101.906ZM143.961 78.7512C144.118 76.1418 144.197 72.935 144.197 69.131C144.197 68.345 144.071 67.7634 143.82 67.3861C143.6 67.0089 143.159 66.8202 142.499 66.8202C142.091 66.8202 141.713 67.0875 141.367 67.6219C141.053 68.1249 140.817 68.7694 140.66 69.5554C140.377 71.0959 140.236 72.3377 140.236 73.2809C140.236 74.004 140.283 74.6327 140.377 75.1672C140.44 75.4816 140.519 75.7174 140.613 75.8745L140.849 76.4404C140.912 76.5976 141.037 76.7548 141.226 76.912L141.65 77.3364C141.808 77.4622 141.996 77.6037 142.216 77.7609C142.436 77.8866 142.594 77.9809 142.688 78.0438C142.719 78.0753 142.782 78.1224 142.876 78.1853C142.971 78.2167 143.112 78.2796 143.301 78.3739L143.961 78.7512Z" fill="#1F2224"/>
<path d="M156.564 101.906C157.036 100.428 157.271 95.1936 157.271 86.2021C157.271 85.0075 157.256 83.9857 157.224 83.1369L157.177 80.5432C155.417 80.1345 153.97 79.2856 152.839 77.9967C151.738 76.6762 151.188 75.1357 151.188 73.3752C151.188 71.8661 151.345 70.4514 151.66 69.131C151.88 68.2507 152.147 67.5276 152.461 66.9617C152.807 66.3644 153.247 65.8614 153.782 65.4527C154.316 65.044 154.976 64.8396 155.762 64.8396C157.271 64.8396 158.309 65.1854 158.875 65.8771C159.441 66.5373 159.724 67.6848 159.724 69.3196C159.724 72.3377 159.629 76.8649 159.441 82.9011C159.252 88.9687 159.158 93.5116 159.158 96.5297C159.158 96.8755 159.111 97.4257 159.016 98.1802C158.891 98.9033 158.828 99.4849 158.828 99.9251C158.828 100.082 158.843 100.224 158.875 100.349V100.868C158.875 101.434 158.733 101.89 158.45 102.236C158.167 102.613 157.774 102.802 157.271 102.802L156.564 101.906ZM157.224 78.7512C157.381 76.1418 157.46 72.935 157.46 69.131C157.46 68.345 157.334 67.7634 157.083 67.3861C156.863 67.0089 156.423 66.8202 155.762 66.8202C155.354 66.8202 154.976 67.0875 154.631 67.6219C154.316 68.1249 154.08 68.7694 153.923 69.5554C153.64 71.0959 153.499 72.3377 153.499 73.2809C153.499 74.004 153.546 74.6327 153.64 75.1672C153.703 75.4816 153.782 75.7174 153.876 75.8745L154.112 76.4404C154.175 76.5976 154.3 76.7548 154.489 76.912L154.914 77.3364C155.071 77.4622 155.259 77.6037 155.479 77.7609C155.7 77.8866 155.857 77.9809 155.951 78.0438C155.982 78.0753 156.045 78.1224 156.14 78.1853C156.234 78.2167 156.375 78.2796 156.564 78.3739L157.224 78.7512Z" fill="#1F2224"/>
<path d="M169.827 101.906C170.299 100.428 170.535 95.1936 170.535 86.2021C170.535 85.0075 170.519 83.9857 170.487 83.1369L170.44 80.5432C168.68 80.1345 167.234 79.2856 166.102 77.9967C165.001 76.6762 164.451 75.1357 164.451 73.3752C164.451 71.8661 164.608 70.4514 164.923 69.131C165.143 68.2507 165.41 67.5276 165.724 66.9617C166.07 66.3644 166.51 65.8614 167.045 65.4527C167.579 65.044 168.24 64.8396 169.026 64.8396C170.535 64.8396 171.572 65.1854 172.138 65.8771C172.704 66.5373 172.987 67.6848 172.987 69.3196C172.987 72.3377 172.892 76.8649 172.704 82.9011C172.515 88.9687 172.421 93.5116 172.421 96.5297C172.421 96.8755 172.374 97.4257 172.279 98.1802C172.154 98.9033 172.091 99.4849 172.091 99.9251C172.091 100.082 172.107 100.224 172.138 100.349V100.868C172.138 101.434 171.996 101.89 171.714 102.236C171.431 102.613 171.038 102.802 170.535 102.802L169.827 101.906ZM170.487 78.7512C170.645 76.1418 170.723 72.935 170.723 69.131C170.723 68.345 170.597 67.7634 170.346 67.3861C170.126 67.0089 169.686 66.8202 169.026 66.8202C168.617 66.8202 168.24 67.0875 167.894 67.6219C167.579 68.1249 167.344 68.7694 167.186 69.5554C166.903 71.0959 166.762 72.3377 166.762 73.2809C166.762 74.004 166.809 74.6327 166.903 75.1672C166.966 75.4816 167.045 75.7174 167.139 75.8745L167.375 76.4404C167.438 76.5976 167.564 76.7548 167.752 76.912L168.177 77.3364C168.334 77.4622 168.523 77.6037 168.743 77.7609C168.963 77.8866 169.12 77.9809 169.214 78.0438C169.246 78.0753 169.308 78.1224 169.403 78.1853C169.497 78.2167 169.639 78.2796 169.827 78.3739L170.487 78.7512Z" fill="#1F2224"/>
<defs>
<linearGradient id="paint0_linear_2052_38503" x1="121.542" y1="145.252" x2="165.723" y2="247.932" gradientUnits="userSpaceOnUse">
<stop offset="0.0350253" stop-color="#F5AEDD"/>
<stop offset="0.521771" stop-color="#E493C9"/>
<stop offset="1" stop-color="#C97FB0"/>
</linearGradient>
<linearGradient id="paint1_linear_2052_38503" x1="321.265" y1="124.378" x2="338.803" y2="256.782" gradientUnits="userSpaceOnUse">
<stop offset="0.0350253" stop-color="#FFCC81"/>
<stop offset="0.521771" stop-color="#E7914F"/>
<stop offset="1" stop-color="#DD6843"/>
</linearGradient>
<linearGradient id="paint2_linear_2052_38503" x1="70.3918" y1="224.817" x2="78.3033" y2="253.795" gradientUnits="userSpaceOnUse">
<stop offset="0.0350253" stop-color="#F5AEDD"/>
<stop offset="0.521771" stop-color="#E493C9"/>
<stop offset="1" stop-color="#C97FB0"/>
</linearGradient>
<clipPath id="clip0_2052_38503">
<rect width="375.22" height="323.94" fill="white" transform="translate(57 35)"/>
</clipPath>
</defs>
</svg>
