<svg width="1440" height="104" viewBox="0 0 1440 104" fill="none" xmlns="http://www.w3.org/2000/svg">
<path d="M1439.06 0H0.998047V98.7862C33.0643 96.7834 65.1286 97.458 97.2016 98.1327C117.738 98.5648 138.279 98.9969 158.826 98.7263C173.692 98.5341 188.536 97.8553 203.378 97.1766C214.619 96.6626 225.86 96.1486 237.109 95.8459C258.468 95.2702 279.583 96.3607 300.818 97.4572C305.814 97.7153 310.818 97.9736 315.831 98.2107C359.557 100.271 403.359 100.26 447.144 100.248L456.909 100.246C460.737 100.246 464.567 100.256 468.398 100.265C487.021 100.309 505.683 100.353 524.276 99.3575L529.698 99.0738C551.113 97.9488 572.189 96.8416 593.742 97.5795C640.908 99.1975 687.754 100.629 734.989 99.9442C782.573 99.2508 830.169 98.6907 877.794 98.6907C894.633 98.6972 911.471 98.7281 928.31 98.759C957.988 98.8135 987.666 98.8679 1017.34 98.7885C1022.53 98.7747 1027.72 98.7564 1032.91 98.7381C1074.66 98.5907 1116.4 98.4433 1158.15 100.673C1205.54 103.207 1252.68 104.567 1300.18 103.678C1311.27 103.468 1322.34 103.128 1333.42 102.788C1345.82 102.407 1358.21 102.026 1370.62 101.829C1382.68 101.642 1394.67 101.491 1406.65 102.38C1408.56 102.525 1410.47 102.68 1412.38 102.836C1421.25 103.559 1430.09 104.279 1439.04 103.891C1439.05 103.891 1439.05 103.891 1439.06 103.891V0Z" fill="#F9F0E7"/>
<path d="M1439.04 101.877C1428.17 102.348 1417.46 101.183 1406.65 100.366C1394.67 99.4766 1382.68 99.6277 1370.62 99.8144C1347.13 100.188 1323.69 101.219 1300.18 101.664C1252.68 102.552 1205.54 101.192 1158.15 98.6587C1111.22 96.1517 1064.28 96.6496 1017.34 96.774C970.827 96.8985 924.311 96.694 877.794 96.6762C830.169 96.6762 782.574 97.2363 734.989 97.9297C687.754 98.6143 640.908 97.183 593.742 95.565C570.374 94.7649 547.566 96.134 524.277 97.343C501.858 98.5431 479.339 98.232 456.909 98.232C409.874 98.232 362.808 98.4098 315.832 96.1962C289.508 94.9516 263.494 93.1203 237.11 93.8315C211.005 94.5338 184.951 96.374 158.827 96.7118C106.179 97.4052 53.5706 93.4848 0.962439 96.774C-0.315815 96.854 -0.325801 98.632 0.962439 98.552C47.8983 95.6183 94.944 98.2142 141.95 98.552C188.616 98.8543 235.282 93.467 281.939 96.0184C328.974 98.5876 375.81 99.9922 422.976 100.046C445.555 100.046 468.144 100.134 490.723 100.046C514.051 99.9211 537.15 97.583 560.428 97.0585C583.706 96.534 606.725 97.9475 629.843 98.961C653.431 99.9922 677.039 100.223 700.656 100.108C748.321 99.8766 795.966 98.6143 843.641 98.5165C890.177 98.4276 936.714 98.6143 983.25 98.632C1030.3 98.632 1077.38 97.8853 1124.42 99.1476C1150.9 99.8588 1177.26 102.152 1203.71 103.068C1230.16 103.984 1256.8 103.806 1283.32 103.69C1309.64 103.584 1335.94 102.366 1362.21 101.797C1375.19 101.512 1388.29 101.077 1401.25 101.797C1413.87 102.517 1426.37 104.242 1439.07 103.69C1440.32 103.602 1440.32 101.824 1439.04 101.877Z" fill="#1F2224"/>
</svg>
