<svg width="560" height="480" viewBox="0 0 560 480" fill="none" xmlns="http://www.w3.org/2000/svg">
<path d="M452.5 278C446.9 281.2 440.833 295 438.5 301.5L447.5 313L461 308.5C468.6 305.3 462.167 301.167 458 299.5C462.8 293.9 455.667 292.5 451.5 292.5C452.7 291.3 463 281.333 468 276.5C470 272 467 272.5 462 273C457 273.5 459.5 274 452.5 278Z" fill="url(#paint0_linear_2059_42834)"/>
<path d="M468.447 55.9029C469.432 53.3136 470 50.2642 470 47C470 37.6112 465.299 30 459.5 30C453.701 30 449 37.6112 449 47C449 52.5435 450.639 57.4673 453.175 60.5706C453.458 62.2355 454.12 64.0303 455.163 65.7594C455.758 66.7477 456.431 67.6365 457.148 68.4084C457.415 70.1186 458.086 71.974 459.163 73.7594C462 78.4659 466.58 80.9125 469.422 79.2511C471.958 78.9151 474.864 77.2128 477.174 74.4581C480.89 70.0242 481.652 64.5427 478.876 62.2149C477.341 60.9284 475.047 60.8744 472.674 61.8318C472.469 58.4392 471.376 55.9743 469.703 55.7043C469.289 55.6376 468.867 55.7093 468.447 55.9029Z" fill="url(#paint1_linear_2059_42834)"/>
<path d="M458.5 158.5C459 158.5 466 150.5 473 150.5C480 150.5 482 151.5 481 153.5C480 155.5 482 156 478 156.5C474 157 471.5 157 471 157C470.5 157 481.5 158 478 161.5C472 164.5 471.5 164.5 470 164C468.971 163.657 468.113 163.534 467.679 163.507C468.058 163.674 469.109 164.408 471.5 166.5C475.5 170 478 168.5 476 172C474 175.5 475 176 471.5 176C468 176 469.5 177 466.5 175.5C463.5 174 463.5 175 462 173C460.5 171 459.5 170.5 459.5 170C459.5 169.6 457.167 167.833 456 167L458.5 158.5Z" fill="url(#paint2_linear_2059_42834)"/>
<path d="M361.41 378.557C340.746 359.697 341.518 325.208 361.258 303.579C380.999 281.949 413.753 279.704 434.417 298.563C440.989 304.561 446.521 310.228 449.618 317.219L521.5 331.5L499.5 335.5L481 339.5L471 341L463.5 339.5L457.5 340L440.5 344.5L437.285 344.669C436.379 345.63 435.462 346.601 434.543 347.574C433.897 348.258 433.25 348.943 432.605 349.626L429.5 357L431.5 358.5L438 357H444L455.5 363L469 371L491 385.5L499 392L425 368.5L419.5 374.5L406.5 383C404.255 383.591 400.319 384.6 397.932 385.138C395.737 387.094 393.856 388.627 392.5 389.5C381.5 390.5 374.157 390.191 361.41 378.557Z" fill="url(#paint3_linear_2059_42834)"/>
<circle cx="441" cy="329" r="11" fill="white"/>
<circle cx="422" cy="318" r="12" fill="white"/>
<path d="M445 118.5C412.833 117 347.9 113.9 345.5 113.5C347 107.5 350.1 91.5 350.5 75.5C350.9 59.5 347.333 48.8333 345.5 45.5C346.833 46.5 350.7 49.3 355.5 52.5C361.5 56.5 368.5 71 370 77.5C371.2 82.7 374.5 89.3333 376 92C378.667 87.3333 384.7 74.4 387.5 60C390.3 45.6 396.333 37.3333 399 35C400.5 39.8333 403.7 50.1 404.5 52.5C405.3 54.9 409.167 79.1667 411 91L420 80C422.167 74.5 426.7 61.3 427.5 52.5C428.3 43.7 434.5 39.5 437.5 38.5C438.5 41 441.5 80.5 442 89C442.4 95.8 444.167 111.5 445 118.5Z" fill="url(#paint4_linear_2059_42834)"/>
<path d="M353 28.5C353 30.9853 350.36 33 347.385 33C344.411 33 342 30.9853 342 28.5C342 26.0147 344.411 24 347.385 24C350.36 24 353 26.0147 353 28.5Z" fill="url(#paint5_linear_2059_42834)"/>
<path d="M404 26C404 27.6569 402.32 29 400.427 29C398.534 29 397 27.6569 397 26C397 24.3431 398.534 23 400.427 23C402.32 23 404 24.3431 404 26Z" fill="url(#paint6_linear_2059_42834)"/>
<path d="M441 28C441 30.2091 439.56 32 437.938 32C436.315 32 435 30.2091 435 28C435 25.7909 436.315 24 437.938 24C439.56 24 441 25.7909 441 28Z" fill="url(#paint7_linear_2059_42834)"/>
<path d="M457 148.917C457 176.577 428.197 199 395.75 199C363.303 199 337 176.577 337 148.917C337 136.469 338.012 125.985 346.828 117.225C348.897 115.169 374.499 116.323 392.345 116.323C404.776 116.323 435.793 116.323 444.069 118.28C450.276 126.721 457 131.853 457 148.917Z" fill="url(#paint8_linear_2059_42834)"/>
<path d="M393 116.168L350 115C352.73 118.699 360.443 126.446 369.452 127.847C378.462 129.249 388.905 120.645 393 116.168Z" fill="white"/>
<path d="M447 118.182L393 117C396.429 120.742 404.88 130 417.429 130C434.58 130 441.857 122.712 447 118.182Z" fill="white"/>
<path d="M260 175C253.2 167 130.5 177 70 183C79.2 195.8 73.8333 275 70 313L272.5 317C271.167 273 266.8 183 260 175Z" fill="url(#paint9_linear_2059_42834)"/>
<path d="M83 219C83 202.431 96.4315 189 113 189H218C240.091 189 258 206.909 258 229V265C258 287.091 240.091 305 218 305H123C100.909 305 83 287.091 83 265V219Z" fill="white"/>
<path fill-rule="evenodd" clip-rule="evenodd" d="M300.51 179.37C290.323 189.468 279.304 198.69 267.57 206.94C267.52 206.49 267.48 206.04 267.44 205.59C266.38 195.65 265.197 185.73 263.89 175.83C264.18 175.667 264.41 175.415 264.544 175.111C264.679 174.807 264.712 174.467 264.637 174.143C264.563 173.819 264.386 173.528 264.132 173.312C263.879 173.097 263.562 172.97 263.23 172.95C249.003 172.49 234.773 172.27 220.54 172.29C220.622 172.108 220.643 171.905 220.6 171.71C217.72 159.26 215.811 146.605 214.89 133.86L223.31 132.86C224.632 137.522 226.655 141.956 229.31 146.01C230.01 147.08 231.74 146.08 231.03 145.01C228.515 141.189 226.577 137.017 225.28 132.63L234.89 131.44C237.32 138.855 240.878 145.85 245.44 152.18C246.19 153.18 247.92 152.18 247.17 151.18C242.761 145.071 239.305 138.327 236.92 131.18L249.92 129.57C252.474 136.229 255.8 142.566 259.83 148.45C260.55 149.51 262.28 148.51 261.55 147.45C257.668 141.782 254.454 135.685 251.97 129.28L264.75 127.71C266.31 131.35 267.99 134.95 269.75 138.48C270.33 139.63 272.06 138.62 271.48 137.48C269.8 134.187 268.23 130.853 266.77 127.48L273.18 126.69L275.91 126.36C276.028 126.686 276.145 127.012 276.263 127.339L276.264 127.34L276.264 127.342C276.818 128.877 277.374 130.419 277.91 131.96C277.982 132.216 278.152 132.433 278.384 132.563C278.615 132.694 278.889 132.727 279.145 132.655C279.401 132.583 279.618 132.413 279.748 132.181C279.879 131.95 279.912 131.676 279.84 131.42L278.02 126.04L289.83 124.58C291.09 124.42 291.1 122.42 289.83 122.58L277.33 124.12L275.69 119.6C275.655 119.473 275.596 119.355 275.515 119.251C275.435 119.147 275.335 119.06 275.22 118.995C275.106 118.93 274.98 118.888 274.85 118.872C274.719 118.855 274.587 118.865 274.46 118.9C274.206 118.972 273.991 119.142 273.861 119.373C273.732 119.603 273.699 119.875 273.77 120.13L275.3 124.37L266.05 125.51C265.05 123.03 264.05 120.511 263.05 117.991L263.05 117.991V117.991L263.05 117.99C262.61 116.79 260.68 117.31 261.12 118.52C262.01 120.96 262.97 123.37 263.96 125.76L251.24 127.33C250.32 124.81 249.513 122.25 248.82 119.65C248.75 119.394 248.581 119.176 248.35 119.045C248.119 118.914 247.846 118.88 247.59 118.95C247.334 119.02 247.117 119.189 246.985 119.42C246.854 119.651 246.82 119.924 246.89 120.18C247.557 122.68 248.323 125.147 249.19 127.58L236.29 129.18C235.279 125.798 234.504 122.35 233.97 118.86C233.78 117.59 231.85 118.13 232.05 119.39C232.573 122.796 233.335 126.161 234.33 129.46L231.25 129.84L224.81 130.64C224.233 128.385 223.836 126.088 223.62 123.77C223.5 122.49 221.5 122.48 221.62 123.77C221.848 126.166 222.25 128.542 222.82 130.88L214.69 131.88C214.31 130.95 212.69 131.05 212.78 132.21C213.674 145.68 215.65 159.057 218.69 172.21V172.26C208.31 172.26 197.93 172.413 187.55 172.72C162.497 173.387 137.48 174.81 112.5 176.99C98.5601 178.203 84.6468 179.643 70.7601 181.31C70.6701 180.8 70.5901 180.31 70.5101 179.79C70.1801 177.89 67.2901 178.7 67.6101 180.59C70.5416 197.546 72.3589 214.676 73.0501 231.87C73.3768 239.957 73.4535 248.053 73.2801 256.16C58.1868 264.613 43.5368 273.793 29.3301 283.7C26.1901 285.89 29.1801 291.09 32.3301 288.88C45.5101 279.693 59.0801 271.13 73.0401 263.19C72.7801 269.923 72.3535 276.64 71.7601 283.34C70.8935 293.053 69.6601 302.72 68.0601 312.34C68.0046 312.563 67.9998 312.795 68.0463 313.02C68.0927 313.245 68.1891 313.456 68.3284 313.639C68.4676 313.821 68.6461 313.97 68.8507 314.074C69.0553 314.178 69.2807 314.235 69.5101 314.24L148.97 315.69L186.72 316.36C186.633 316.501 186.588 316.664 186.59 316.83C186.237 343.048 183.654 369.189 178.87 394.97C177.537 402.15 176.033 409.297 174.36 416.41C174.33 416.558 174.33 416.711 174.36 416.86C173.73 417.79 175.03 419.02 175.87 418.13C176.71 417.24 177.61 416.39 178.53 415.57C178.651 415.541 178.764 415.486 178.861 415.408C178.958 415.33 179.036 415.232 179.09 415.12L179.16 415.01C187.219 408.135 197.477 404.381 208.07 404.43C208.335 404.43 208.59 404.325 208.777 404.137C208.965 403.95 209.07 403.695 209.07 403.43C209.07 403.165 208.965 402.91 208.777 402.723C208.59 402.535 208.335 402.43 208.07 402.43C198.938 402.396 190.001 405.072 182.39 410.12C187.507 403.515 194.631 398.753 202.69 396.55C202.946 396.48 203.164 396.311 203.295 396.08C203.426 395.849 203.46 395.576 203.39 395.32C203.32 395.064 203.151 394.847 202.92 394.715C202.689 394.584 202.416 394.55 202.16 394.62C196.46 396.181 191.169 398.969 186.66 402.79C189.546 399.786 192.822 397.183 196.4 395.05C196.618 394.912 196.774 394.694 196.835 394.444C196.896 394.193 196.859 393.929 196.729 393.706C196.6 393.482 196.39 393.318 196.142 393.246C195.895 393.174 195.629 393.2 195.4 393.32C187.761 397.86 181.517 404.412 177.35 412.26C182.748 388.224 186.232 363.797 187.77 339.21C188.23 331.757 188.51 324.297 188.61 316.83C188.611 316.678 188.577 316.527 188.51 316.39L228.38 317.1L272.82 317.89C273.216 317.885 273.595 317.725 273.875 317.445C274.155 317.165 274.315 316.786 274.32 316.39C274 297.89 273.277 279.397 272.15 260.91C271.177 245.177 269.9 229.467 268.32 213.78C281.366 204.845 293.579 194.751 304.81 183.62C307.5 180.89 303.26 176.65 300.51 179.37ZM74.5101 209.11C73.6901 200.797 72.6101 192.52 71.2701 184.28C95.9701 181.327 120.74 179.097 145.58 177.59C170.6 176.077 195.647 175.307 220.72 175.28C234.127 175.28 247.53 175.483 260.93 175.89C262.37 186.87 263.657 197.87 264.79 208.89C261.457 211.143 258.1 213.32 254.72 215.42C254.088 213.19 253.306 211.005 252.38 208.88C249.41 201.82 244.341 195.843 237.86 191.76C231.51 187.9 224.15 186.16 216.86 185.41C209.342 184.639 201.779 184.919 194.24 185.198L193.09 185.24L163.88 186.33L134.67 187.42L119.95 187.97L119.285 187.994C115.617 188.125 111.95 188.256 108.31 188.68C101.31 189.5 94.0001 191.41 88.9001 196.61C83.5801 202.03 81.9001 209.74 81.3001 217.05C80.5919 226.28 80.4683 235.545 80.9301 244.79C81.0201 247.14 81.1501 249.48 81.3001 251.79C79.961 252.517 78.6219 253.257 77.2882 253.994L77.2862 253.995L76.3901 254.49C76.6175 239.339 75.9798 224.188 74.4801 209.11H74.5101ZM255.57 248.64C255.45 264.36 254.63 282.77 241.57 293.76C235.23 299.1 226.89 300.67 218.87 301.56C209.74 302.56 200.57 303.3 191.41 303.85C172.905 305.09 154.335 305.02 135.84 303.64C121.7 302.49 106.37 300.56 94.6001 291.95C91.9299 289.988 89.544 287.666 87.5101 285.05C85.7455 275.882 84.4538 266.63 83.6401 257.33C88.3068 254.823 93.0035 252.387 97.7301 250.02C98.3065 252.326 99.6024 254.39 101.43 255.91C105.74 259.56 111.37 259.02 116.16 256.62C121.133 254.13 125.536 250.237 129.822 246.447C131.303 245.139 132.769 243.842 134.24 242.62L150.56 229.15C152.29 236.04 156.84 241.77 165.3 238.34C169.647 236.585 173.611 233.299 177.402 230.156L177.403 230.156C178.774 229.019 180.124 227.9 181.46 226.88L195.99 215.8C197.74 223.52 201.43 231.09 208.59 234.98C219.59 240.98 231.83 234.71 241.76 229.57C246 227.383 250.177 225.07 254.29 222.63C255.699 230.985 255.635 239.717 255.575 247.919L255.57 248.64ZM249.33 218.64C248.111 219.346 246.85 220.099 245.554 220.874C237.543 225.658 228.19 231.245 219.23 231.46C207.63 231.73 202.32 220.46 201.09 210.51C200.85 208.56 198.61 206.37 196.58 207.92L173.17 225.77C172.405 226.355 171.59 227.05 170.735 227.777C168.071 230.045 165.029 232.634 161.97 233.24C156.341 234.356 155.973 227.361 155.772 223.552L155.77 223.51C155.77 222.917 155.593 222.337 155.264 221.845C154.934 221.352 154.466 220.968 153.918 220.741C153.37 220.514 152.767 220.455 152.186 220.57C151.604 220.686 151.07 220.971 150.65 221.39L126.34 241.45C125.393 242.235 124.449 243.051 123.499 243.872C120.651 246.336 117.75 248.845 114.54 250.69C112.24 252 109.54 253.15 106.86 252.22C104.46 251.36 102.65 248.53 104.22 246.22C106.08 243.55 102.57 240.92 100.12 242.12C94.4068 244.887 88.7601 247.767 83.1801 250.76C82.7735 244.213 82.6001 237.653 82.6601 231.08C82.6664 230.53 82.6717 229.978 82.6771 229.424L82.6771 229.423L82.6772 229.421C82.7495 221.976 82.8252 214.19 85.0401 207.08C86.0655 203.565 87.9407 200.358 90.5001 197.74C93.0885 195.291 96.2106 193.476 99.6201 192.44C105.944 190.388 112.675 190.167 119.286 189.949L119.287 189.949C120.151 189.921 121.012 189.892 121.87 189.86L150.08 188.86L178.29 187.81C180.721 187.72 183.154 187.618 185.587 187.516L185.588 187.515L185.589 187.515L185.59 187.515L185.59 187.515L185.591 187.515L185.592 187.515L185.592 187.515L185.593 187.515L185.594 187.515C191.835 187.253 198.075 186.99 204.29 186.94C218.74 186.82 234.75 188.54 244.71 200.28C248.62 204.997 251.44 210.518 252.97 216.45C252.596 216.676 252.222 216.904 251.849 217.131C251.015 217.64 250.18 218.15 249.33 218.64ZM266.78 229.77C268.38 248.21 269.567 266.677 270.34 285.17C270.76 295.07 271.053 304.967 271.22 314.86L193.37 313.48L113.97 312.04L71.2701 311.28C73.9284 294.788 75.5516 278.145 76.1301 261.45C77.5562 260.645 78.994 259.863 80.43 259.083L80.4326 259.081L80.4364 259.079L80.4401 259.077L80.4406 259.077L80.4411 259.077C80.8744 258.841 81.3075 258.606 81.7401 258.37C82.1901 263.25 82.7401 268.12 83.4601 272.97C84.1268 277.57 84.9101 282.143 85.8101 286.69C85.8278 286.81 85.8712 286.925 85.9374 287.026C86.0036 287.128 86.091 287.214 86.1936 287.279C86.2962 287.343 86.4116 287.385 86.5319 287.401C86.6521 287.416 86.7743 287.406 86.8901 287.37C95.9601 298.18 110.33 302.37 123.89 304.37C142.18 306.98 160.89 307.13 179.36 306.46C189 306.11 198.63 305.46 208.25 304.61C209.411 304.508 210.582 304.414 211.759 304.319L211.763 304.319C219.257 303.715 226.983 303.092 234 300.43C241.092 297.688 246.986 292.527 250.64 285.86C254.75 278.65 256.46 270.44 257.13 262.24C257.51 257.57 257.57 252.87 257.6 248.18L257.607 247.135V247.135V247.134V247.134V247.133V247.133V247.132V247.132V247.131V247.131C257.636 242.792 257.665 238.461 257.48 234.13C257.326 229.928 256.885 225.742 256.16 221.6C259.31 219.69 262.43 217.72 265.49 215.68C265.937 220.367 266.367 225.063 266.78 229.77ZM531.22 406.16C529.132 406.669 526.921 406.773 524.709 406.876C520.799 407.059 516.885 407.243 513.64 409.67C513.194 409.999 512.776 410.363 512.39 410.76C513.598 407.609 515.772 404.921 518.6 403.08C519.69 402.4 518.6 400.74 517.48 401.42C512.57 404.42 510.3 409.62 508.93 415C508.53 410.47 508.85 405.93 511.42 402C512.13 400.93 510.33 400 509.64 401.1C505.78 407.01 506.64 414.24 507.71 420.86V421.12C507.699 421.203 507.699 421.287 507.71 421.37C493.591 415.116 481.783 404.601 473.94 391.3C473.887 391.203 473.816 391.118 473.73 391.05C473.644 390.981 473.545 390.93 473.44 390.9C473.342 390.808 473.224 390.74 473.096 390.702C472.967 390.664 472.832 390.656 472.7 390.68C467.786 391.347 462.856 391.89 457.91 392.31C455.54 392.5 453.15 392.68 450.77 392.77C449.734 392.874 448.688 392.758 447.7 392.43C446.719 391.889 445.882 391.121 445.26 390.19C443.658 388.29 441.569 387.362 439.445 386.417L439.444 386.417C438.292 385.905 437.13 385.388 436.03 384.71C435.019 384.084 434.156 383.27 433.293 382.457L433.293 382.456L433.292 382.456L433.292 382.456L433.292 382.456L433.291 382.456L433.291 382.456L433.291 382.455L433.291 382.455L433.29 382.455C432.584 381.789 431.877 381.123 431.09 380.56C429.533 379.485 427.774 378.736 425.92 378.36C423.014 377.824 420.031 377.885 417.15 378.54C419.046 377.189 420.807 375.659 422.41 373.97C423.414 372.899 424.33 371.748 425.15 370.53C444.913 375.39 464.404 381.299 483.54 388.23C489 390.23 494.426 392.293 499.82 394.42C500.19 394.571 500.603 394.574 500.975 394.429C501.347 394.284 501.65 394.001 501.82 393.64C502.007 393.523 502.163 393.363 502.275 393.172C502.386 392.982 502.449 392.767 502.459 392.546C502.469 392.326 502.425 392.106 502.331 391.906C502.237 391.707 502.096 391.533 501.92 391.4C493.386 384.733 484.556 378.493 475.43 372.68C470.83 369.74 466.163 366.913 461.43 364.2C456.885 361.4 452.165 358.895 447.3 356.7C444.56 355.498 441.576 354.96 438.59 355.13C436.223 355.36 433.891 355.863 431.64 356.63C432.64 351.63 437.04 347.93 441.51 345.88C444.472 344.593 447.536 343.553 450.67 342.77C453.987 341.751 457.422 341.17 460.89 341.04C463.107 341.04 465.215 341.512 467.333 341.986C468.492 342.246 469.655 342.506 470.84 342.69C474.219 343.119 477.651 342.718 480.84 341.52C481.607 341.265 482.371 341.005 483.136 340.744C485.67 339.881 488.205 339.018 490.84 338.35C494.137 337.515 497.475 336.848 500.84 336.35C508.491 335.157 516.22 334.644 523.95 334.132L524.28 334.11C524.648 333.962 524.97 333.716 525.21 333.4C525.45 333.084 525.6 332.708 525.644 332.313C525.689 331.919 525.625 331.519 525.46 331.158C525.296 330.796 525.036 330.486 524.71 330.26C505.376 327.173 486.113 323.563 466.92 319.43C461.486 318.257 456.066 317.043 450.66 315.79C450.53 315.776 450.399 315.776 450.27 315.79C447.339 310.478 443.478 305.736 438.87 301.79C440.408 297.744 442.274 293.831 444.45 290.09C446.603 286.212 449.219 282.609 452.24 279.36C455.06 276.47 459.07 273.52 463.24 273.36C465.24 273.27 467.04 274.36 466.52 276.64C466.091 278.52 464.52 279.808 463.097 280.976C462.793 281.225 462.497 281.468 462.22 281.71L449.62 292.71C449.415 292.844 449.267 293.048 449.202 293.284C449.138 293.52 449.162 293.771 449.27 293.99C449.379 294.209 449.564 294.381 449.79 294.473C450.017 294.565 450.269 294.571 450.5 294.49C452.118 293.987 453.838 293.897 455.5 294.23C456.8 294.6 458.07 295.67 457.86 297.16C457.825 297.398 457.739 297.626 457.608 297.828C457.477 298.03 457.303 298.201 457.1 298.33C454.252 297.955 451.358 298.498 448.84 299.88C447.95 300.36 448.52 301.78 449.46 301.71C451.979 301.612 454.481 301.24 456.92 300.6C457.1 300.54 457.27 300.47 457.45 300.39C459.5 300.79 462.53 301.88 463.08 304.04C463.673 306.403 460.19 307.504 458.142 308.151C457.841 308.246 457.571 308.332 457.35 308.41C454.574 309.365 451.75 310.173 448.89 310.83C447.64 311.11 448.29 313 449.54 312.72C453.322 311.865 457.035 310.732 460.65 309.33C463.23 308.33 466.09 306.2 464.84 303.05C463.98 300.86 461.6 299.51 459.32 298.81C459.72 298.163 459.912 297.409 459.87 296.65C459.799 295.76 459.481 294.908 458.951 294.191C458.421 293.473 457.699 292.918 456.87 292.59C455.787 292.147 454.617 291.959 453.45 292.04L463.96 282.84C464.158 282.666 464.359 282.493 464.561 282.318C466.119 280.976 467.744 279.576 468.39 277.55C468.731 276.652 468.787 275.67 468.549 274.739C468.31 273.808 467.79 272.974 467.06 272.35C463.69 269.73 458.27 272.3 455.25 274.27C451.05 277.01 447.94 281.04 445.25 285.16C442.07 289.948 439.421 295.068 437.35 300.43C435.22 298.726 432.967 297.182 430.61 295.81C433 294.22 435.41 292.45 436.71 289.81C437.963 287.198 438.135 284.198 437.19 281.46C436.782 280.097 436.028 278.863 435 277.88C434.264 277.268 433.287 277.299 432.335 277.329C431.903 277.343 431.476 277.357 431.08 277.31C429.829 277.161 428.612 276.803 427.48 276.25C427.53 276.25 427.59 276.19 427.62 276.14C427.712 276.05 427.778 275.935 427.81 275.81C427.868 275.689 427.889 275.553 427.87 275.42V275.15C427.811 274.99 427.715 274.846 427.59 274.73L427.38 274.59C427.219 274.51 427.04 274.472 426.86 274.48H426.77C426.635 274.481 426.504 274.519 426.39 274.59C426.269 274.635 426.162 274.711 426.08 274.81C425.991 274.906 425.929 275.023 425.9 275.15V275.26C424.936 274.568 424.089 273.728 423.39 272.77C422.63 271.77 420.97 272.84 421.73 273.88C423.272 276.022 425.421 277.652 427.9 278.56C429.066 278.991 430.289 279.25 431.53 279.33C432.196 279.283 432.864 279.283 433.53 279.33C434.026 279.437 434.385 280.051 434.67 280.537C434.73 280.639 434.786 280.735 434.84 280.82C435.478 282.006 435.84 283.321 435.897 284.667C435.954 286.013 435.706 287.354 435.17 288.59C433.988 291.203 431.532 292.847 429.213 294.4L428.93 294.59C428.915 294.6 428.901 294.61 428.888 294.621C428.881 294.627 428.873 294.633 428.866 294.639C428.86 294.644 428.855 294.649 428.849 294.654C428.824 294.678 428.801 294.703 428.78 294.73L428.24 294.43C428.726 292.332 428.814 290.161 428.5 288.03L428.469 287.833L428.465 287.806C428.24 286.35 427.935 284.372 426.7 283.45C425.728 282.725 424.619 282.989 423.504 283.255C422.897 283.399 422.288 283.544 421.7 283.53C420.798 283.485 419.911 283.282 419.08 282.93C419.033 282.769 418.948 282.622 418.834 282.501C418.719 282.379 418.577 282.286 418.42 282.23C416.63 281.63 416.05 279.52 415.92 277.84C415.863 277.085 415.863 276.33 415.864 275.581C415.864 274.345 415.865 273.123 415.61 271.94C415.226 270.256 414.341 268.729 413.07 267.56C412.721 267.221 412.362 266.892 412.004 266.563L412.003 266.563L412.001 266.561L412 266.56C412.265 266.521 412.504 266.379 412.664 266.165C412.825 265.95 412.893 265.68 412.855 265.415C412.816 265.15 412.674 264.911 412.459 264.75C412.245 264.59 411.975 264.521 411.71 264.56C411.484 264.569 411.27 264.661 411.108 264.817C410.946 264.974 410.847 265.185 410.83 265.41C410.3 264.83 409.4 263.77 409.66 263.74C410.93 263.6 410.82 261.6 409.53 261.74C409.032 261.778 408.564 261.996 408.215 262.353C407.865 262.709 407.657 263.181 407.63 263.68C407.645 264.195 407.769 264.7 407.993 265.164C408.217 265.627 408.536 266.038 408.93 266.37C409.394 266.864 409.915 267.326 410.437 267.789L410.437 267.789L410.438 267.789L410.438 267.789L410.438 267.79L410.438 267.79L410.439 267.79L410.439 267.79L410.439 267.791L410.44 267.791C411.703 268.911 412.976 270.04 413.5 271.66C413.939 273.033 413.928 274.47 413.917 275.91V275.91C413.908 277.124 413.899 278.34 414.16 279.52C414.175 279.604 414.195 279.688 414.22 279.77C411.65 277.83 409.17 276.06 405.77 275.69C404.885 275.674 404.014 275.471 403.215 275.093C402.415 274.715 401.704 274.173 401.13 273.5C401.338 273.396 401.504 273.222 401.598 273.008C401.691 272.795 401.708 272.555 401.644 272.331C401.58 272.107 401.439 271.912 401.247 271.78C401.054 271.649 400.822 271.588 400.59 271.61C400.408 271.624 400.234 271.69 400.09 271.8C399.547 270.518 399.161 269.175 398.94 267.8C399.085 267.655 399.185 267.472 399.229 267.271C399.272 267.071 399.256 266.862 399.183 266.671C399.11 266.479 398.983 266.313 398.817 266.192C398.651 266.071 398.454 266.001 398.25 265.99H397.71C397.446 266.008 397.2 266.129 397.026 266.328C396.852 266.527 396.763 266.786 396.78 267.05C397.41 270.49 398.22 274.29 401.33 276.39C402.513 277.198 403.757 277.363 405.064 277.536C405.602 277.608 406.15 277.68 406.71 277.8C408.698 278.306 410.542 279.265 412.1 280.6C412.361 280.799 412.623 281.001 412.887 281.204C415.584 283.284 418.45 285.495 422.03 285.44C422.536 285.44 423.014 285.315 423.489 285.191C423.906 285.082 424.32 284.973 424.75 284.95C425.84 284.879 426.058 285.986 426.24 286.907L426.24 286.908L426.24 286.908L426.24 286.908C426.263 287.026 426.286 287.141 426.31 287.25C426.735 289.285 426.735 291.385 426.31 293.42C421.943 291.335 417.33 289.813 412.58 288.89C396.28 285.74 379.48 290.39 366.34 300.32C359.753 305.297 354.156 311.463 349.84 318.5C345.02 326.36 341.43 335.74 342.34 345.1C343.323 354.768 348.659 363.226 353.725 371.256L353.725 371.256L353.98 371.66C358.79 379.29 364.46 387.33 373.27 390.58C377.823 392.147 382.73 392.376 387.41 391.24C386.261 393.386 384.56 395.195 382.863 396.999C380.205 399.827 377.558 402.642 377.07 406.72C376.673 410.03 378.337 412.301 380.176 414.81L380.36 415.06C382.379 417.824 383.379 421.202 383.19 424.62C360.431 424.533 337.986 429.925 317.75 440.34C317.75 440.34 317.7 440.34 317.67 440.4C317.5 440.444 317.346 440.532 317.221 440.655C317.097 440.778 317.006 440.931 316.96 441.1C316.836 441.556 316.779 442.028 316.79 442.5C315.39 445.7 314.46 449.25 315.38 452.71C315.748 454.278 316.547 455.712 317.686 456.85C318.826 457.988 320.261 458.784 321.83 459.15C322.078 459.18 322.329 459.116 322.533 458.971C322.736 458.825 322.878 458.608 322.929 458.363C322.981 458.118 322.939 457.863 322.811 457.647C322.683 457.432 322.479 457.272 322.24 457.2C319.59 456.71 317.8 454.36 317.24 451.83C316.899 450.201 316.951 448.515 317.39 446.91C317.625 449.276 318.535 451.525 320.01 453.39C322.34 456.16 325.72 456.76 329.13 457.09C330.4 457.22 330.83 455.26 329.55 455.09C326.66 454.81 323.5 454.48 321.55 452.09C320.434 450.659 319.717 448.958 319.47 447.16C320.681 448.181 321.957 449.123 323.29 449.98C326.746 452.339 330.369 454.444 334.13 456.28C334.367 456.399 334.642 456.419 334.894 456.336C335.147 456.253 335.355 456.072 335.475 455.835C335.594 455.598 335.614 455.323 335.531 455.07C335.447 454.818 335.267 454.609 335.03 454.49C331.69 452.865 328.46 451.025 325.36 448.98C323.83 448.009 322.358 446.95 320.95 445.81C320.208 445.221 319.604 444.477 319.18 443.63V442.86C319.177 442.7 319.14 442.543 319.07 442.4L319.14 442.24C319.203 442.105 319.24 441.959 319.25 441.81C334.825 433.912 351.732 428.978 369.11 427.26C374.032 426.782 378.975 426.558 383.92 426.59C384.047 426.594 384.175 426.57 384.292 426.52C384.41 426.47 384.514 426.394 384.599 426.299C384.684 426.203 384.747 426.09 384.784 425.968C384.82 425.845 384.829 425.716 384.81 425.59C384.93 425.496 385.029 425.378 385.102 425.244C385.174 425.11 385.218 424.962 385.23 424.81C385.429 421.715 384.761 418.626 383.3 415.89C382.82 414.998 382.2 414.17 381.583 413.345C380.206 411.505 378.842 409.682 379.07 407.21C379.38 403.94 381.61 401.26 383.78 398.97C383.963 398.777 384.146 398.585 384.328 398.393L384.329 398.393L384.329 398.392C386.311 396.312 388.236 394.291 389.49 391.7C389.572 391.562 389.615 391.405 389.615 391.245C389.615 391.085 389.572 390.928 389.49 390.79C393.501 389.667 397.439 388.294 401.28 386.68C404.862 385.315 408.364 383.749 411.77 381.99C411.833 381.994 411.896 381.994 411.96 381.99L412.028 381.971C416.388 380.726 420.983 379.415 425.52 380.31C427.584 380.688 429.51 381.61 431.1 382.98C432.493 384.366 434.017 385.616 435.65 386.71C436.56 387.23 437.521 387.641 438.477 388.051C439.213 388.365 439.945 388.679 440.65 389.04C442.31 389.969 443.769 391.22 444.94 392.72C447.368 395.359 451.246 394.97 454.663 394.627C455.299 394.563 455.918 394.501 456.51 394.46C461.9 394.07 467.28 393.46 472.64 392.75C480.85 406.511 493.207 417.317 507.94 423.62C508.072 423.679 508.215 423.707 508.36 423.7C508.475 423.845 508.628 423.956 508.802 424.019C508.976 424.083 509.164 424.097 509.346 424.059C509.527 424.022 509.695 423.935 509.83 423.808C509.965 423.681 510.062 423.519 510.11 423.34C510.71 418.9 511.46 413.55 515.58 410.94C518.562 409.053 522.137 408.908 525.688 408.763H525.688C527.876 408.674 530.055 408.586 532.08 408.09C533.12 407.75 532.46 405.86 531.22 406.16ZM405.04 381.77C401.19 383.46 397.24 384.98 393.28 386.39C388.85 387.95 384.16 389.3 379.42 388.95C370.42 388.29 363.87 381.28 359.1 374.27C356.55 370.53 354.1 366.66 351.86 362.75C349.437 358.806 347.528 354.568 346.18 350.14C343.61 341.04 345.96 331.82 350.18 323.62C353.769 316.757 358.609 310.625 364.45 305.54C376.01 295.46 391.45 289.54 406.85 291.11C421.85 292.61 436.27 300.41 444.93 312.83C446.025 314.382 447.027 315.998 447.93 317.67C448.049 317.936 448.26 318.15 448.525 318.271C448.79 318.393 449.09 318.414 449.37 318.33C449.554 318.488 449.774 318.601 450.01 318.66C469.11 323.08 488.316 326.987 507.63 330.38L515.22 331.68C510.81 332.02 506.41 332.44 502.03 333.07C494.781 334.142 487.652 335.907 480.74 338.34C477.17 339.58 473.88 340.25 470.13 339.48C469.577 339.366 469.029 339.247 468.484 339.129C465.599 338.504 462.798 337.897 459.77 338.04C456.179 338.306 452.63 338.977 449.19 340.04C445.932 340.868 442.755 341.989 439.7 343.39C433.65 346.34 428.42 351.73 428.38 358.84C428.398 359.07 428.469 359.293 428.586 359.492C428.704 359.691 428.865 359.861 429.058 359.988C429.25 360.115 429.47 360.197 429.699 360.227C429.928 360.256 430.161 360.234 430.38 360.16C432.929 359.206 435.574 358.536 438.27 358.16C440.878 357.917 443.505 358.333 445.91 359.37C450.562 361.466 455.078 363.854 459.43 366.52C468.476 371.667 477.27 377.23 485.81 383.21C488.39 385.017 490.943 386.863 493.47 388.75C476.59 382.317 459.433 376.677 442 371.83C436.626 370.337 431.236 368.927 425.83 367.6C425.66 367.424 425.452 367.288 425.223 367.204C424.993 367.12 424.748 367.088 424.504 367.112C424.261 367.136 424.026 367.215 423.817 367.343C423.609 367.471 423.432 367.644 423.3 367.85C419.15 374.57 412.08 378.67 405.04 381.77ZM143.508 316.333C143.696 316.52 143.801 316.775 143.801 317.04C143.881 323.973 143.878 330.907 143.791 337.84C143.518 362.2 142.331 386.5 140.231 410.74C140.221 410.875 140.185 411.007 140.123 411.127C140.061 411.247 139.975 411.354 139.871 411.44C139.819 411.595 139.727 411.734 139.605 411.842C139.482 411.95 139.334 412.024 139.173 412.057C139.013 412.089 138.847 412.079 138.692 412.027C138.537 411.975 138.399 411.883 138.291 411.76C137.771 411.18 137.221 410.63 136.641 410.1C136.545 410.114 136.447 410.114 136.351 410.1C130.09 408.012 123.257 408.494 117.351 411.44C116.221 412.02 115.201 410.29 116.351 409.71C121.373 407.188 127.055 406.29 132.611 407.14C129.821 405.466 126.704 404.409 123.471 404.04C117.49 403.425 111.5 405.113 106.721 408.76C105.721 409.53 104.721 407.8 105.721 407.03C109.847 403.983 114.799 402.256 119.926 402.078C125.052 401.899 130.113 403.277 134.441 406.03C129.374 399.228 122.588 393.895 114.781 390.58C113.611 390.09 114.131 388.16 115.311 388.65C124.867 392.657 132.943 399.534 138.421 408.33C138.941 402.237 139.401 396.14 139.801 390.04C141.394 365.707 142.061 341.373 141.801 317.04C141.801 316.775 141.906 316.52 142.094 316.333C142.281 316.145 142.536 316.04 142.801 316.04C143.066 316.04 143.32 316.145 143.508 316.333ZM127.48 420.49L121.82 421.75L125.87 416.54C126.031 416.383 126.135 416.176 126.164 415.953C126.193 415.729 126.146 415.503 126.031 415.31C125.915 415.116 125.737 414.968 125.527 414.888C125.316 414.808 125.085 414.802 124.87 414.87C119.279 416.012 113.811 417.686 108.54 419.87L109.35 418.8C109.85 418.13 109.15 417.35 108.49 417.29C94.8761 416.136 81.1684 417.675 68.1498 421.82C66.9298 422.21 67.4498 424.14 68.6798 423.75C80.9163 419.854 93.7771 418.297 106.59 419.16L104.59 421.79C103.92 422.68 105.16 423.53 105.96 423.16C111.314 420.678 116.906 418.745 122.65 417.39L118.65 422.61C118.482 422.766 118.373 422.974 118.341 423.201C118.309 423.427 118.355 423.658 118.472 423.854C118.589 424.05 118.769 424.201 118.984 424.28C119.198 424.36 119.433 424.363 119.65 424.29L128.06 422.41C129.27 422.14 128.73 420.21 127.48 420.49ZM466.365 456.346L472.025 455.086C473.275 454.806 473.815 456.736 472.605 457.006L464.195 458.886C463.978 458.959 463.743 458.955 463.529 458.876C463.314 458.797 463.133 458.646 463.017 458.45C462.9 458.253 462.853 458.023 462.886 457.796C462.918 457.57 463.027 457.362 463.195 457.206L467.195 451.986C461.451 453.341 455.859 455.274 450.505 457.756C449.705 458.126 448.465 457.276 449.135 456.386L451.135 453.756C438.322 452.893 425.461 454.45 413.225 458.346C411.995 458.736 411.475 456.806 412.695 456.416C425.713 452.271 439.421 450.732 453.035 451.886C453.695 451.946 454.395 452.726 453.895 453.396L453.085 454.466C458.356 452.282 463.824 450.607 469.415 449.466C469.629 449.398 469.861 449.404 470.072 449.484C470.282 449.563 470.46 449.712 470.576 449.905C470.691 450.098 470.738 450.325 470.709 450.549C470.68 450.772 470.576 450.979 470.415 451.136L466.365 456.346ZM172.85 419.04L168.05 415.04C167.79 414.831 167.523 414.59 167.248 414.34C166.21 413.401 165.049 412.35 163.65 412.46C162.644 412.625 161.658 412.897 160.71 413.27L157.61 414.22L152.73 415.73C152.811 414.867 152.787 413.998 152.66 413.14C152.625 413.013 152.566 412.895 152.485 412.791C152.404 412.687 152.304 412.6 152.19 412.535C152.075 412.47 151.95 412.428 151.819 412.412C151.689 412.396 151.556 412.405 151.43 412.44C144.033 414.116 136.883 416.741 130.16 420.25C129.01 420.85 130.02 422.58 131.16 421.98C137.382 418.743 143.978 416.281 150.8 414.65C150.807 415.412 150.699 416.171 150.48 416.9C150.433 417.071 150.432 417.25 150.477 417.421C150.522 417.592 150.611 417.748 150.736 417.873C150.861 417.998 151.017 418.088 151.188 418.133C151.359 418.178 151.539 418.177 151.71 418.13L162.43 414.83C162.87 414.61 163.366 414.528 163.854 414.596C164.341 414.664 164.797 414.878 165.16 415.21L167.16 416.92L171.41 420.48C172.42 421.3 173.84 419.89 172.85 419.04ZM532.595 439.636L537.395 443.636C538.385 444.486 536.965 445.896 535.955 445.076L531.705 441.516L529.705 439.806C529.341 439.474 528.886 439.259 528.399 439.191C527.911 439.124 527.415 439.205 526.975 439.426L516.255 442.726C516.084 442.773 515.904 442.774 515.733 442.729C515.562 442.684 515.406 442.594 515.281 442.469C515.156 442.344 515.067 442.188 515.022 442.017C514.977 441.846 514.977 441.666 515.025 441.496C515.244 440.766 515.352 440.008 515.345 439.246C508.523 440.877 501.927 443.339 495.705 446.576C494.565 447.176 493.555 445.446 494.705 444.846C501.428 441.337 508.578 438.712 515.975 437.036C516.101 437.001 516.234 436.991 516.364 437.008C516.494 437.024 516.62 437.066 516.735 437.131C516.849 437.196 516.949 437.283 517.03 437.387C517.11 437.49 517.17 437.609 517.205 437.736C517.332 438.593 517.356 439.463 517.275 440.326L522.155 438.816L525.255 437.866C526.203 437.493 527.189 437.221 528.195 437.056C529.594 436.945 530.755 437.997 531.793 438.936C532.068 439.185 532.335 439.426 532.595 439.636ZM453.111 327.81C452.458 324.865 450.941 322.183 448.752 320.107C446.564 318.031 443.806 316.657 440.831 316.16C439.561 315.95 439.151 317.91 440.421 318.16C441.181 318.293 441.927 318.494 442.651 318.76C439.672 318.347 436.637 318.713 433.841 319.82C434.012 318.455 434.012 317.075 433.841 315.71C433.368 312.567 431.977 309.634 429.841 307.28C427.841 305.02 424.951 302.9 421.761 303.53C421.628 303.549 421.502 303.602 421.394 303.682C421.286 303.763 421.2 303.869 421.143 303.991C421.087 304.113 421.061 304.247 421.07 304.381C421.078 304.516 421.12 304.646 421.191 304.76C419.281 304.704 417.381 305.057 415.618 305.795C413.855 306.533 412.271 307.64 410.971 309.04C409.187 311.002 408.199 313.559 408.199 316.21C408.199 318.862 409.187 321.418 410.971 323.38C413.104 325.612 415.643 327.417 418.451 328.7C421.101 330.05 424.181 331.09 427.131 330.11C427.372 330.029 427.609 329.935 427.841 329.83C427.984 332.018 428.837 334.1 430.271 335.76C434.181 340.27 440.951 340.17 446.351 339.22C448.901 338.77 451.221 337.76 452.491 335.37C453.555 332.995 453.774 330.327 453.111 327.81ZM419.701 327.1C417.41 326.057 415.282 324.69 413.381 323.04C409.881 319.8 409.021 315.04 411.901 311.04C415.191 306.53 421.231 305.92 426.241 307.42C426.382 307.471 426.535 307.481 426.682 307.449C426.828 307.417 426.963 307.345 427.071 307.24C427.614 307.73 428.125 308.254 428.601 308.81C430.064 310.543 431.093 312.6 431.601 314.81C432.042 316.883 432.042 319.027 431.601 321.1C431.29 321.343 430.993 321.604 430.711 321.88C429.188 323.382 428.192 325.336 427.871 327.45C427.675 327.588 427.471 327.715 427.261 327.83C424.871 329.18 421.971 328.22 419.701 327.1ZM447.251 336.97C444.828 337.586 442.327 337.836 439.831 337.71C437.443 337.72 435.105 337.024 433.111 335.71C432 334.896 431.113 333.815 430.531 332.567C429.949 331.319 429.691 329.944 429.781 328.57C431.568 326.888 432.814 324.712 433.361 322.32C437.201 319.7 442.671 320.6 447.011 321.37C447.057 321.375 447.104 321.375 447.151 321.37C448.569 322.618 449.687 324.17 450.421 325.91C452.051 329.81 452.181 335.6 447.251 336.97ZM443.171 326.92C443.464 327.07 443.712 327.294 443.891 327.57C444.144 327.953 444.274 328.405 444.264 328.865C444.253 329.324 444.102 329.769 443.83 330.14C443.711 330.759 443.351 331.305 442.83 331.66C441.912 332.222 440.813 332.409 439.76 332.18C438.702 331.963 437.758 331.371 437.102 330.513C436.447 329.654 436.123 328.588 436.19 327.51C436.215 327.225 436.297 326.948 436.431 326.696C436.565 326.443 436.748 326.22 436.97 326.04C437.461 325.7 438.044 325.519 438.641 325.52C439.738 325.458 440.839 325.59 441.891 325.91C442.076 325.968 442.245 326.071 442.38 326.21L442.55 326.31C442.79 326.477 443 326.683 443.171 326.92ZM425.29 315.52C424.8 314.861 424.174 314.316 423.455 313.921C422.735 313.526 421.939 313.29 421.12 313.23C420.499 313.042 419.844 312.988 419.2 313.07C418.56 313.129 417.951 313.374 417.446 313.773C416.942 314.173 416.565 314.71 416.36 315.32C416.064 316.463 416.138 317.671 416.57 318.77C416.96 319.915 417.651 320.934 418.57 321.72C419.474 322.537 420.637 323.008 421.855 323.048C423.073 323.088 424.265 322.696 425.22 321.94C427.06 320.27 426.68 317.37 425.29 315.52ZM392.396 298.45C394.014 298.764 395.544 299.426 396.881 300.39C399.631 302.59 400.281 306.43 400.571 309.75C400.811 313.647 400.302 317.555 399.071 321.26C398.621 322.46 396.661 322.07 397.071 320.85C398.359 317.038 398.832 312.997 398.461 308.99C398.111 305.34 396.971 301.68 393.041 300.68C391.196 300.099 389.213 300.12 387.381 300.74C385.211 301.71 385.451 303.74 386.311 305.59C387.927 309.078 390.523 312.038 393.035 314.903L393.191 315.08C393.37 315.242 393.484 315.463 393.513 315.702C393.542 315.941 393.483 316.183 393.348 316.382C393.213 316.582 393.01 316.726 392.778 316.788C392.545 316.85 392.297 316.826 392.081 316.72C389.015 315.487 385.887 314.413 382.711 313.5C382.497 313.439 382.24 313.359 381.953 313.27C379.498 312.505 374.795 311.041 375.341 314.81C375.741 317.54 378.631 319.85 380.971 320.93C382.504 321.64 384.182 321.982 385.871 321.93C387.361 321.64 388.821 321.35 390.251 321.01C390.499 320.935 390.766 320.959 390.996 321.077C391.227 321.194 391.403 321.397 391.487 321.642C391.571 321.887 391.557 322.155 391.448 322.389C391.338 322.624 391.142 322.807 390.901 322.9C389.34 323.533 387.675 323.872 385.991 323.9C383.053 324.396 380.151 325.081 377.301 325.95C373.982 326.927 370.961 328.718 368.511 331.16C367.264 332.405 366.335 333.931 365.801 335.61C365.131 338.24 368.211 337.88 369.901 337.66C373.971 337.12 378.131 335.46 381.971 333.92C385.805 332.385 389.538 330.611 393.151 328.61C394.271 328 395.391 329.65 394.271 330.27C389.484 332.917 384.495 335.18 379.351 337.04C377.065 337.907 374.727 338.632 372.351 339.21C370.361 339.67 367.961 340.18 365.961 339.54C361.571 338.16 364.451 332.83 366.351 330.54C370.021 326.1 375.241 324.24 380.661 322.99C380.271 322.83 379.881 322.66 379.491 322.47C376.641 320.98 373.321 317.92 373.241 314.47C373.196 313.713 373.365 312.958 373.727 312.292C374.089 311.626 374.631 311.074 375.291 310.7C376.906 309.865 378.78 310.374 380.449 310.827C380.578 310.862 380.705 310.896 380.831 310.93C383.661 311.66 386.441 312.52 389.191 313.52C387.213 311.266 385.558 308.749 384.271 306.04C383.873 305.31 383.641 304.503 383.589 303.673C383.537 302.844 383.667 302.014 383.971 301.24C384.333 300.566 384.837 299.978 385.448 299.517C386.059 299.056 386.763 298.733 387.511 298.57C389.111 298.177 390.778 298.136 392.396 298.45Z" fill="#1F2224"/>
<path fill-rule="evenodd" clip-rule="evenodd" d="M403.759 21.5V21.67C405.349 22.92 406.289 25.14 405.019 27.09C403.749 29.04 400.949 29.39 398.829 29.04C398.217 28.9467 397.638 28.6983 397.148 28.3186C396.658 27.9388 396.273 27.4402 396.029 26.87C395.842 26.3341 395.767 25.765 395.81 25.1988C395.853 24.6325 396.013 24.0813 396.279 23.58C396.291 23.5561 396.311 23.5337 396.331 23.5117C396.361 23.4785 396.389 23.4461 396.389 23.41C395.76 23.365 395.138 23.2407 394.539 23.04C394.161 22.928 393.84 22.674 393.645 22.3311C393.449 21.9882 393.393 21.5829 393.489 21.2C393.595 20.817 393.847 20.4914 394.192 20.2946C394.537 20.0978 394.946 20.0458 395.329 20.15C395.655 20.2642 395.99 20.3512 396.329 20.41H396.599C396.759 20.4199 396.92 20.4199 397.079 20.41H398.979C399.683 20.4061 400.386 20.463 401.079 20.58L401.909 20.45C402.294 20.356 402.699 20.4123 403.043 20.6075C403.387 20.8027 403.643 21.122 403.759 21.5ZM401.739 25.92L401.969 25.84L402.169 25.6C402.203 25.586 402.234 25.5656 402.259 25.54L402.369 25.44L402.459 25.29V25.19V25.04V25.02V24.95C402.456 24.9732 402.456 24.9968 402.459 25.02C402.454 24.9936 402.454 24.9663 402.459 24.94V24.8L402.379 24.61V24.54C402.339 24.46 402.249 24.32 402.249 24.32L401.969 24.04C401.91 23.9999 401.854 23.9565 401.799 23.91C401.716 23.8607 401.629 23.8173 401.539 23.78H401.449L401.229 23.7H401.049C400.708 23.7687 400.373 23.8691 400.049 24L399.819 24.12L399.579 24.26C399.574 24.2629 399.54 24.2877 399.5 24.3164L399.5 24.3167L399.5 24.3167C399.426 24.3709 399.333 24.439 399.369 24.4034L399.249 24.51C399.214 24.54 399.15 24.625 399.117 24.6675C399.084 24.71 399.084 24.71 399.179 24.57L399.039 24.77C398.987 24.8602 398.94 24.9537 398.899 25.05L398.809 25.39V25.65C398.814 25.7065 398.814 25.7634 398.809 25.82L398.86 25.9C398.88 25.9258 398.904 25.9492 398.929 25.97C398.979 25.987 399.026 26.0105 399.069 26.04H399.169H399.519H399.799C399.979 26.05 400.16 26.05 400.339 26.04H400.969L401.189 26.05L401.739 25.92ZM437.551 23.8801C438.856 23.9853 440.101 24.4722 441.131 25.2801C441.98 25.957 442.548 26.9244 442.725 27.9956C442.902 29.0668 442.676 30.1657 442.091 31.0801C440.671 32.9701 437.951 33.0401 435.951 32.1901C434.912 31.8262 434.027 31.1212 433.441 30.1901C433.184 29.7255 433.036 29.2086 433.008 28.6785C432.98 28.1484 433.074 27.6189 433.281 27.1301C433.043 27.0609 432.827 26.933 432.653 26.7582C432.478 26.5834 432.35 26.3674 432.281 26.1301C432.179 25.7469 432.233 25.3393 432.429 24.995C432.625 24.6508 432.949 24.3976 433.331 24.2901C434.709 23.9446 436.132 23.8064 437.551 23.8801ZM438.331 29.7001C438.514 29.7102 438.698 29.7102 438.881 29.7001L438.991 29.8101L439.241 29.7601C439.296 29.7239 439.352 29.6905 439.411 29.6601L439.471 29.6001V29.5401L439.479 29.5286C439.503 29.4929 439.551 29.4235 439.551 29.3701L439.611 29.1301V28.7901C439.606 28.7636 439.606 28.7365 439.611 28.7101C439.615 28.6502 439.615 28.59 439.611 28.5301C439.59 28.4748 439.573 28.418 439.561 28.3601L439.421 28.1101C439.315 27.9861 439.202 27.8692 439.081 27.7601C438.781 27.6801 438.431 27.6801 438.081 27.6801C437.828 27.6652 437.574 27.6652 437.321 27.6801H437.261L436.901 27.7601C436.878 27.7601 436.853 27.7661 436.828 27.7749L436.851 27.7601L436.671 27.8501C436.584 27.8856 436.5 27.9291 436.421 27.9801C436.394 28.0067 436.367 28.0323 436.341 28.0579C436.287 28.109 436.234 28.1601 436.181 28.2201L436.121 28.3201L436.041 28.4301V28.5101V28.6201C436.039 28.6467 436.039 28.6734 436.041 28.7001V28.7601C436.067 28.7933 436.087 28.8304 436.101 28.8701L436.201 28.9801L436.341 29.1101H436.401C436.538 29.2029 436.682 29.2865 436.831 29.3601L436.971 29.4301H437.021L437.491 29.5701C437.685 29.624 437.882 29.6674 438.081 29.7001H438.331ZM436.703 27.8442C436.69 27.8571 436.719 27.8468 436.828 27.7749C436.771 27.7955 436.716 27.8314 436.703 27.8442ZM351.701 26.1399C351.543 26.0718 351.379 26.0215 351.21 25.9899C351.307 25.6123 351.258 25.2122 351.072 24.8694C350.887 24.5265 350.579 24.2661 350.21 24.1399C349.065 23.6098 347.799 23.3943 346.542 23.5155C345.285 23.6368 344.084 24.0905 343.06 24.8299C342.143 25.5428 341.509 26.5594 341.272 27.6974C341.036 28.8354 341.212 30.0203 341.77 31.0399C342.384 32.047 343.203 32.9126 344.176 33.5797C345.148 34.2468 346.25 34.7001 347.411 34.9099C348.563 35.1454 349.761 35.0259 350.844 34.567C351.928 34.1082 352.847 33.3317 353.481 32.3399C354.661 30.2699 354.021 27.1399 351.701 26.1399ZM350.971 30.6599C350.915 30.7773 350.851 30.8909 350.78 30.9999C350.78 30.9999 350.62 31.1899 350.58 31.2399L350.351 31.4399C350.191 31.5532 350.03 31.6532 349.87 31.7399L349.721 31.8099H349.641C349.521 31.8499 349.401 31.881 349.281 31.9121C349.221 31.9277 349.161 31.9432 349.101 31.9599L348.971 32.0399H348.861C348.628 32.0599 348.393 32.0599 348.161 32.0399L347.71 31.9599C347.163 31.8219 346.64 31.5992 346.161 31.2999C345.991 31.1999 345.831 31.09 345.671 30.98L345.671 30.9799L345.571 30.9099L345.361 30.7399L344.971 30.3399L344.761 30.1199L344.631 29.9699C344.541 29.8499 344.461 29.7199 344.381 29.5899L344.381 29.5899C344.33 29.5086 344.308 29.4625 344.286 29.4173C344.272 29.3903 344.259 29.3636 344.24 29.3299C344.24 29.2373 344.206 29.1408 344.171 29.0406L344.171 29.0406C344.148 28.9785 344.126 28.9149 344.111 28.8499V28.5099V28.5098C344.111 28.3899 344.111 28.3599 344.161 28.2799C344.181 28.2012 344.208 28.1243 344.24 28.0499V27.9899C344.273 27.9398 344.302 27.8898 344.332 27.8402L344.332 27.8401C344.384 27.751 344.436 27.6634 344.5 27.5799C344.579 27.4884 344.662 27.4016 344.75 27.3199L344.971 27.0399L345.041 26.9899C345.12 26.9341 345.204 26.8839 345.291 26.8399L345.49 26.7299L345.661 26.6599L346.071 26.5399C346.217 26.4973 346.368 26.4737 346.52 26.4699C347.49 26.4214 348.457 26.6066 349.34 27.0099H349.481C349.386 27.3255 349.402 27.6639 349.526 27.9692C349.649 28.2746 349.873 28.5287 350.161 28.6899C350.309 28.7566 350.453 28.8335 350.59 28.9199L350.59 28.9198C350.52 28.8831 350.493 28.8689 350.492 28.8703C350.491 28.8711 350.502 28.8783 350.518 28.8899C350.56 28.9199 350.646 28.9799 350.701 29.0399L350.77 29.1199V29.1699C350.807 29.2453 350.847 29.3187 350.891 29.3899C350.913 29.5299 350.95 29.6673 351 29.7999V30.0299C351.005 30.0998 351.005 30.17 351 30.2399L350.971 30.6599ZM477.37 148.693C474.3 148.206 471.155 148.587 468.29 149.793L469.13 104.573C469.922 105.836 471.167 106.748 472.61 107.123C473.566 107.363 474.575 107.28 475.479 106.888C476.383 106.496 477.132 105.815 477.61 104.953C478.61 103.123 478.91 100.213 477.79 98.3727C476.35 96.0027 473.34 96.4827 471.14 97.2227C469.92 97.6327 470.44 99.5627 471.67 99.1527C473.72 98.4627 476.29 98.0527 476.45 100.913C476.54 102.513 476.11 104.913 474.2 105.223C472.29 105.533 470.71 103.783 470.06 102.123C469.716 101.182 469.462 100.211 469.3 99.2227C469.431 98.3351 469.505 97.4399 469.52 96.5427C469.57 94.2603 469.389 91.9786 468.98 89.7327C469.09 88.9778 469.257 88.2323 469.48 87.5027C469.514 87.4228 469.537 87.3387 469.55 87.2527C469.983 85.8079 470.75 84.4855 471.79 83.3927C472.61 82.5527 474.07 81.8127 475.07 82.8327C475.347 83.1909 475.54 83.6074 475.634 84.0507C475.727 84.4941 475.719 84.9529 475.61 85.3927C475.427 86.2533 475 87.0432 474.382 87.6689C473.763 88.2946 472.978 88.7297 472.12 88.9227C470.87 89.2127 471.4 91.1427 472.65 90.8427C476.33 89.9727 479.44 85.0527 476.65 81.6727C475.18 79.8527 472.59 80.0927 470.89 81.4627C469.944 82.2743 469.175 83.2716 468.63 84.3927C468.192 83.259 467.678 82.1564 467.09 81.0927C470.17 80.8519 473.1 79.666 475.48 77.6972C477.861 75.7284 479.575 73.0726 480.39 70.0927C481.14 67.2727 481.25 63.7427 479.39 61.2927C478.579 60.2417 477.402 59.5354 476.093 59.3148C474.784 59.0942 473.44 59.3756 472.33 60.1027C472.415 58.6459 472.101 57.1935 471.42 55.9027C471.15 55.4042 470.728 55.0047 470.215 54.762C469.703 54.5193 469.127 54.446 468.57 54.5527C469.86 50.8475 470.358 46.9125 470.03 43.0027C469.42 37.1527 466.31 30.2427 460.25 28.3227C458.795 27.9007 457.252 27.8924 455.793 28.2987C454.334 28.705 453.017 29.5097 451.99 30.6227C449.6 33.0527 448.6 36.5227 448.08 39.8027C447.101 46.9399 448.119 54.2086 451.02 60.8027C454.14 68.2527 459.02 74.8027 464.37 80.8027C464.452 80.8932 464.55 80.9677 464.66 81.0227C465.219 81.9265 465.727 82.8614 466.18 83.8227C464.49 82.8227 462.06 83.2227 460.43 84.1427C459.462 84.7303 458.649 85.5405 458.057 86.5058C457.466 87.4712 457.114 88.5638 457.03 89.6927C456.89 90.9627 458.89 90.9527 459.03 89.6927C459.126 88.7738 459.475 87.8995 460.038 87.1669C460.601 86.4344 461.357 85.8722 462.22 85.5427C462.679 85.3371 463.174 85.2242 463.677 85.2105C464.18 85.1968 464.68 85.2825 465.15 85.4627C465.785 85.9566 466.213 86.6699 466.35 87.4627C466.59 88.2327 466.8 89.0427 466.97 89.8627C466.725 91.6992 466.684 93.5573 466.85 95.4027C466.95 96.6927 467.07 98.0427 467.29 99.4027C467.081 101.058 466.385 102.614 465.29 103.873C464.21 105.003 462.11 106.113 461.01 104.403C460.031 102.902 459.63 101.097 459.88 99.3227L459.887 99.2958C459.958 99.0189 460.088 98.5163 460.34 98.3227C460.791 98.0431 460.949 98.3494 461.152 98.7424C461.174 98.785 461.196 98.8287 461.22 98.8727C461.5 99.5768 461.91 100.221 462.43 100.773C463.38 101.633 464.8 100.223 463.84 99.3627C463.469 99.0311 463.262 98.5857 463.055 98.1385C462.893 97.7901 462.731 97.4405 462.49 97.1427C462.252 96.8004 461.928 96.5274 461.55 96.3517C461.172 96.1759 460.755 96.1038 460.34 96.1427C458.45 96.3827 457.73 98.6827 457.78 100.313C457.846 102.284 458.481 104.195 459.61 105.813C460.187 106.495 460.977 106.965 461.852 107.146C462.728 107.327 463.639 107.21 464.44 106.813C465.499 106.365 466.428 105.656 467.14 104.753L466.28 150.693C462.901 152.288 459.968 154.693 457.74 157.693C457.99 150.693 456.54 143.803 454.74 137.113C454.17 135.053 453.56 133.004 452.95 130.954L452.95 130.954L452.95 130.953C452.4 129.103 449.51 129.893 450.06 131.753C452.36 139.453 454.7 147.323 454.83 155.423C455.005 162.333 453.042 169.129 449.21 174.883C441.51 186.353 428.28 192.353 414.97 194.333C407.265 195.352 399.472 195.524 391.73 194.843C385.019 194.47 378.367 193.377 371.89 191.583C365.484 189.859 359.545 186.722 354.51 182.403C349.344 177.564 345.578 171.422 343.61 164.623C341.25 157.073 340.77 149.113 341.09 141.243C341.107 140.835 341.123 140.421 341.139 140.003C341.401 133.185 341.714 125.064 346.51 119.873C347.496 118.804 348.673 117.929 349.98 117.293C350.782 119.095 351.97 120.699 353.46 121.993C353.469 122.161 353.524 122.324 353.62 122.463L381.91 166.073C384.576 170.173 387.243 174.276 389.91 178.383C389.987 178.514 390.094 178.627 390.221 178.711C390.349 178.795 390.494 178.849 390.646 178.868C390.797 178.888 390.951 178.872 391.096 178.822C391.241 178.773 391.372 178.691 391.48 178.583C396.956 173.317 402.124 167.817 407.318 162.29C407.815 161.761 408.312 161.232 408.81 160.703C412.932 165.019 416.227 170.056 418.53 175.563C418.566 175.828 418.705 176.068 418.918 176.23C419.131 176.393 419.4 176.464 419.665 176.428C419.93 176.392 420.17 176.252 420.332 176.039C420.495 175.827 420.566 175.558 420.53 175.293C422.14 156.433 436.23 142.153 448.87 129.453C452.74 125.553 456.61 121.643 460.23 117.513C460.4 117.341 460.502 117.113 460.517 116.871C460.532 116.629 460.459 116.39 460.311 116.199C460.164 116.007 459.951 115.875 459.714 115.828C459.476 115.781 459.23 115.822 459.02 115.943C438.518 126.323 422.6 143.187 407.062 159.649C406.374 160.378 405.687 161.106 405 161.833C400.38 166.723 395.73 171.593 390.92 176.303L363.31 133.763L357.31 124.553C361.351 126.355 365.698 127.373 370.12 127.553C374.63 127.964 379.167 127.134 383.24 125.153C386.675 123.269 389.829 120.913 392.61 118.153C396.1 124.553 403.28 127.463 410.23 128.793C418.54 130.383 427.36 130.333 435.23 127.003C439.156 125.421 442.696 123.013 445.61 119.943H445.73C447.65 120.103 447.64 117.103 445.73 116.943H445.24C443.627 105.717 443.315 94.3991 443.003 83.0817V83.0816C442.734 73.3483 442.466 63.6156 441.37 53.9427C440.734 47.9992 439.712 42.1034 438.31 36.2927C438.246 36.0721 438.133 35.8688 437.979 35.6981C437.826 35.5274 437.636 35.3938 437.423 35.3072C437.21 35.2206 436.981 35.1833 436.752 35.1981C436.522 35.2129 436.3 35.2794 436.1 35.3927C428.8 39.9527 425.98 48.3927 424.72 56.4927C424.204 60.6189 423.365 64.6981 422.21 68.6927C419.892 75.9436 416.084 82.63 411.03 88.3227C409.65 74.1227 408.09 59.8627 404.26 46.0927C403.103 41.8834 401.707 37.7434 400.08 33.6927C400.005 33.443 399.868 33.2167 399.68 33.0356C399.493 32.8544 399.262 32.7244 399.01 32.6582C398.758 32.5919 398.493 32.5915 398.241 32.6571C397.989 32.7227 397.758 32.8521 397.57 33.0327C389.432 41.7846 386.711 53.1432 384.002 64.4529C382.826 69.361 381.653 74.26 380.04 78.9327C378.795 82.666 377.117 86.2404 375.04 89.5827C373.51 86.4852 372.381 83.2055 371.68 79.8227C370.894 76.2511 369.762 72.7646 368.3 69.4127C365.407 62.7499 361.281 56.6937 356.14 51.5627C353.186 48.6184 349.916 46.0092 346.39 43.7827C346.132 43.6388 345.838 43.5735 345.544 43.5949C345.249 43.6164 344.968 43.7237 344.733 43.9035C344.499 44.0833 344.323 44.3277 344.227 44.6066C344.13 44.8855 344.117 45.1866 344.19 45.4727C349.146 62.3104 350.203 80.0558 347.28 97.3627C346.432 102.285 345.27 107.149 343.8 111.923V112.023C343.465 112.136 343.18 112.363 342.995 112.664C342.81 112.965 342.737 113.322 342.788 113.672C342.839 114.022 343.012 114.343 343.275 114.579C343.538 114.815 343.876 114.95 344.23 114.963L347.84 115.033C341.52 118.553 339.44 126.213 338.71 133.033C337.639 141.606 337.78 150.288 339.13 158.823C340.348 166.342 343.356 173.459 347.9 179.573C352.299 185.115 358.055 189.427 364.61 192.093C371.18 194.707 378.084 196.39 385.12 197.093L387.01 197.293C386.979 197.444 386.979 197.601 387.01 197.753C388.696 210.251 389.514 222.851 389.46 235.463C387.17 231.663 384.4 227.803 379.89 226.623C379.644 226.578 379.391 226.627 379.18 226.76C378.968 226.893 378.814 227.1 378.748 227.341C378.682 227.581 378.708 227.838 378.821 228.06C378.934 228.283 379.126 228.455 379.36 228.543C382.59 229.393 384.77 231.873 386.56 234.543C380.73 230.493 373.31 229.103 366.35 228.013C365.09 227.823 364.54 229.753 365.81 229.943C373.32 231.113 381.43 232.543 387.27 237.623C384.338 237.059 381.341 236.917 378.37 237.203C374.608 237.814 371.041 239.293 367.95 241.523C366.88 242.223 367.88 243.953 368.95 243.253C371.95 241.253 375.13 239.553 378.76 239.153C382.59 238.743 386.41 239.453 390.16 240.153C390.33 240.181 390.504 240.169 390.667 240.116C390.831 240.063 390.98 239.971 391.1 239.848C391.221 239.725 391.31 239.575 391.361 239.411C391.411 239.246 391.421 239.072 391.39 238.903C391.52 230.443 391.29 221.973 390.64 213.543C390.23 208.153 389.64 202.793 388.93 197.443C394.147 197.951 399.39 198.135 404.63 197.993C403.95 208.123 403.63 218.273 403.57 228.433V228.436C403.57 231.855 403.57 235.284 403.52 238.703H403.61C403.529 238.895 403.511 239.107 403.556 239.31C403.602 239.513 403.71 239.697 403.865 239.836C404.021 239.974 404.215 240.061 404.422 240.084C404.629 240.107 404.838 240.064 405.02 239.963L405.35 239.773C405.461 239.872 405.594 239.945 405.738 239.987C405.881 240.029 406.032 240.037 406.18 240.013C411.81 239.153 417.98 238.273 423.18 241.193C423.405 241.295 423.661 241.309 423.897 241.234C424.132 241.158 424.332 240.998 424.456 240.784C424.581 240.57 424.621 240.317 424.57 240.075C424.519 239.833 424.38 239.618 424.18 239.473C419.79 237.003 414.87 236.953 410.02 237.473C416.176 234.962 422.89 234.14 429.47 235.093C430.73 235.283 431.27 233.353 430 233.163C422.66 232.068 415.159 233.052 408.35 236.003C412.48 232.313 417.35 229.243 423.06 229.453C424.35 229.503 424.35 227.503 423.06 227.453C416.13 227.203 410.34 231.303 405.52 235.893C405.52 228.943 405.61 221.993 405.81 215.043C405.98 209.333 406.24 203.613 406.63 197.913L408.95 197.783C423.66 196.723 438.51 191.783 448.45 180.423C453.055 175.282 456.107 168.939 457.25 162.133C457.423 161.053 457.543 159.973 457.61 158.893C457.722 158.995 457.854 159.073 457.998 159.121C458.142 159.17 458.294 159.188 458.445 159.175C458.597 159.162 458.744 159.118 458.877 159.045C459.01 158.972 459.127 158.873 459.22 158.753C461.069 156.251 463.459 154.2 466.213 152.752C468.966 151.305 472.011 150.498 475.12 150.393C476.378 150.259 477.64 150.617 478.64 151.393C479.82 152.623 478.77 154.333 477.5 154.993C476.004 155.767 474.176 155.536 472.542 155.329L472.532 155.328C472.356 155.305 472.181 155.283 472.01 155.263C470.319 154.985 468.59 155.06 466.93 155.483C466.718 155.54 466.531 155.666 466.398 155.84C466.264 156.015 466.192 156.228 466.192 156.448C466.192 156.667 466.264 156.881 466.398 157.055C466.531 157.229 466.718 157.355 466.93 157.413C468.243 157.762 469.524 157.668 470.819 157.573H470.819C471.565 157.518 472.316 157.463 473.08 157.493C474.38 157.493 476.45 157.983 476.67 159.543C477 161.783 474.05 162.343 472.44 162.233C471.571 162.17 470.721 162.008 469.873 161.846C468.681 161.618 467.493 161.39 466.26 161.443C466.063 161.444 465.871 161.502 465.708 161.612C465.544 161.721 465.417 161.876 465.341 162.057C465.265 162.239 465.245 162.438 465.282 162.631C465.319 162.825 465.412 163.002 465.55 163.143C466.768 164.256 468.203 164.967 469.643 165.681C470.661 166.186 471.681 166.692 472.63 167.343C474.92 168.913 476.57 172.343 473.46 173.973C468.73 176.543 462.46 173.063 460.09 168.853C459.951 168.635 459.734 168.479 459.484 168.418C459.233 168.357 458.969 168.394 458.745 168.523C458.522 168.652 458.357 168.863 458.286 169.111C458.214 169.358 458.24 169.624 458.36 169.853C459.954 172.645 462.477 174.79 465.49 175.913C465.79 176.023 466.1 176.123 466.41 176.213C466.382 176.29 466.365 176.371 466.36 176.453C466.08 187.719 465.803 198.993 465.53 210.273C465.428 210.338 465.334 210.415 465.25 210.503C465.172 210.593 465.102 210.69 465.04 210.793C464.962 210.938 464.914 211.098 464.9 211.263C464.895 211.326 464.895 211.389 464.9 211.453C464.889 211.552 464.889 211.653 464.9 211.753C464.928 211.874 464.972 211.992 465.03 212.103C465.088 212.213 465.162 212.314 465.25 212.403L465.34 212.503L465.63 212.723C465.745 212.783 465.866 212.833 465.99 212.873C466.148 212.928 466.313 212.958 466.48 212.963C466.649 212.988 466.821 212.988 466.99 212.963C467.152 212.928 467.307 212.867 467.45 212.783C467.489 212.769 467.527 212.749 467.56 212.723C467.662 212.657 467.756 212.58 467.84 212.493C468.122 212.202 468.286 211.817 468.3 211.413V211.303C468.294 211.177 468.274 211.053 468.24 210.933C468.201 210.786 468.137 210.647 468.05 210.523C467.988 210.421 467.914 210.327 467.83 210.243C467.741 210.167 467.647 210.097 467.55 210.033L468.41 176.693C470.611 177.089 472.882 176.704 474.83 175.603C477.68 173.813 477.91 170.403 475.96 167.823C474.673 166.11 472.852 165.202 471.034 164.295C470.954 164.255 470.875 164.216 470.795 164.176C470.687 164.122 470.578 164.067 470.47 164.013C471.781 164.31 473.134 164.384 474.47 164.233C476.6 163.893 478.71 162.293 478.79 159.973C478.804 159.456 478.707 158.942 478.505 158.466C478.303 157.989 478.001 157.562 477.62 157.213C478.511 156.944 479.315 156.444 479.95 155.763C482.53 153.033 480.8 149.443 477.37 148.693ZM465.69 79.1327C457.34 69.7227 449.89 58.4027 449.76 45.3827C449.7 40.2527 450.76 30.9427 457.24 30.0127C460.3 29.5727 463.07 31.8427 464.8 34.1427C466.462 36.4423 467.549 39.1067 467.97 41.9127C468.83 47.1027 467.6 52.2427 465.62 57.0427C464.471 58.8493 463.557 60.795 462.9 62.8327C462.833 63.0677 462.854 63.3191 462.96 63.5393C463.066 63.7596 463.249 63.9335 463.474 64.0283C463.699 64.123 463.951 64.132 464.182 64.0536C464.414 63.9753 464.609 63.8148 464.73 63.6027C465.62 61.9227 466.46 60.1827 467.22 58.4027C467.233 58.3807 467.247 58.3585 467.26 58.336C467.269 58.3222 467.277 58.3082 467.286 58.2943C467.344 58.1969 467.404 58.0972 467.47 58.0027C467.496 57.9638 467.523 57.922 467.551 57.878C467.958 57.2539 468.657 56.1804 469.47 56.5727C470.06 56.8627 470.21 57.9227 470.29 58.5027C470.427 59.6408 470.453 60.7895 470.37 61.9327C468.59 64.2427 468.26 67.4327 468.07 70.3427C468.068 70.5641 468.14 70.7798 468.274 70.9559C468.409 71.132 468.598 71.2586 468.811 71.3158C469.025 71.373 469.252 71.3575 469.456 71.2719C469.661 71.1863 469.831 71.0354 469.94 70.8427C471.142 68.3987 471.92 65.7678 472.24 63.0627V62.7327C472.686 62.261 473.219 61.8806 473.81 61.6127C477.44 59.9427 479.02 63.9227 478.91 66.8627C478.736 70.2261 477.258 73.3894 474.79 75.6805C472.321 77.9716 469.057 79.2101 465.69 79.1327ZM443.61 127.883C447.137 125.248 450.809 122.814 454.61 120.593C452.189 123.155 449.692 125.669 447.193 128.186C437.462 137.986 427.694 147.825 422.18 160.683C420.645 164.228 419.541 167.945 418.89 171.753C416.613 167.168 413.656 162.954 410.12 159.253C420.61 148.093 431.25 137.033 443.61 127.883ZM383.02 123.093C379.36 125.055 375.224 125.956 371.08 125.693C363.77 125.383 353.92 123.383 351.34 115.413C351.307 115.316 351.26 115.225 351.2 115.143C355.44 115.236 359.68 115.346 363.92 115.473C366.91 118.111 370.688 119.688 374.667 119.957C378.645 120.227 382.601 119.174 385.92 116.963C386.035 116.887 386.134 116.789 386.21 116.674C386.286 116.558 386.337 116.429 386.36 116.293L391.64 116.523C389.042 119.065 386.136 121.273 382.99 123.093H383.02ZM425.57 127.613C421.514 128.081 417.415 128.004 413.38 127.383C409.562 126.934 405.832 125.923 402.31 124.383C398.741 122.825 395.824 120.074 394.06 116.603L398.06 116.813C398.091 116.907 398.138 116.995 398.2 117.073C399.489 118.825 401.137 120.282 403.034 121.348C404.931 122.413 407.033 123.063 409.2 123.253C411.438 123.407 413.682 123.062 415.771 122.244C417.86 121.426 419.741 120.155 421.28 118.523C421.379 118.419 421.457 118.297 421.51 118.163L423.51 118.283C430.016 118.723 436.523 119.209 443.03 119.743C438.186 124.161 432.059 126.918 425.54 127.613H425.57ZM346.91 112.023C351.989 94.9983 353.192 77.0527 350.43 59.5027C349.86 55.8527 349.1 52.2327 348.18 48.6627C358.556 56.4216 365.834 67.6194 368.71 80.2527C369.639 84.8213 371.297 89.2106 373.62 93.2527C373.756 93.474 373.946 93.6568 374.173 93.7835C374.4 93.9103 374.655 93.9769 374.915 93.9769C375.175 93.9769 375.43 93.9103 375.657 93.7835C375.883 93.6568 376.074 93.474 376.21 93.2527C382.208 85.0178 384.497 75.3295 386.79 65.6228L386.79 65.6227C388.32 59.1455 389.852 52.6601 392.49 46.5927C393.946 43.1566 395.856 39.9311 398.17 37.0027C404.72 54.5227 406.61 73.2827 408.4 91.7827C408.407 92.0759 408.499 92.3608 408.665 92.6029C408.83 92.845 409.063 93.034 409.333 93.1471C409.604 93.2602 409.901 93.2926 410.19 93.2404C410.479 93.1881 410.746 93.0535 410.96 92.8527C416.597 87.183 421.006 80.4121 423.91 72.9627C425.396 69.181 426.463 65.2474 427.09 61.2327C427.18 60.654 427.267 60.0752 427.354 59.4969L427.354 59.4935C427.925 55.6963 428.494 51.918 429.83 48.2827C431.043 44.7994 433.15 41.6959 435.94 39.2827C439.204 53.719 439.625 68.4986 440.045 83.2607C440.203 88.8069 440.361 94.3506 440.67 99.8727C440.99 105.503 441.48 111.123 442.25 116.723C417.05 114.723 391.81 113.323 366.53 112.523C359.97 112.296 353.42 112.129 346.88 112.023H346.91ZM376.5 171.71C376.007 169.725 375.243 167.817 374.23 166.04C372.146 162.445 369.112 159.493 365.46 157.51C361.2 155.15 356.46 153.91 351.75 152.72C351.623 152.685 351.491 152.676 351.361 152.692C351.23 152.708 351.104 152.75 350.99 152.815C350.876 152.88 350.776 152.967 350.695 153.071C350.614 153.175 350.555 153.293 350.52 153.42C350.485 153.547 350.476 153.679 350.492 153.81C350.508 153.94 350.55 154.066 350.615 154.18C350.68 154.294 350.767 154.395 350.871 154.475C350.975 154.556 351.093 154.615 351.22 154.65C358.02 156.38 365.34 158.28 370.17 163.76C372.468 166.392 374.042 169.576 374.74 173C374.918 173.87 375.032 174.753 375.08 175.64C375.13 176.72 375.01 177.94 373.58 177.33C371.981 176.583 370.488 175.628 369.14 174.49C367.341 173.043 365.743 171.361 364.39 169.49C363.838 167.92 362.959 166.485 361.81 165.28C360.99 164.41 359.81 165.51 360.24 166.49C360.918 167.887 361.711 169.225 362.61 170.49C362.827 171.195 362.955 171.924 362.99 172.66C363.06 174.41 362.38 176.91 360.08 176.22C358.18 175.63 356.89 173.22 356.22 171.48C355.437 169.44 355.172 167.238 355.45 165.07C355.6 163.8 353.6 163.81 353.45 165.07C353.102 168.045 353.659 171.057 355.05 173.71C356.26 176.01 358.38 178.61 361.28 178.31C363.76 178.04 364.87 175.6 364.98 173.36C365.876 174.331 366.845 175.23 367.88 176.05C369.88 177.65 375.75 182.18 376.96 177.46C377.41 175.66 376.97 173.46 376.5 171.71Z" fill="#1F2224"/>
<path d="M149.262 286.915C148.382 286.915 147.565 286.711 146.81 286.302C146.087 285.893 145.458 285.343 144.924 284.651C144.452 283.991 144.028 283.158 143.651 282.152C143.273 281.115 142.99 280.046 142.802 278.945C142.424 277.09 142.173 274.654 142.047 271.636C142.016 270.913 142 269.671 142 267.91V264.939C142.031 264.091 142.047 263.21 142.047 262.299C142.047 260.444 142.157 258.982 142.377 257.913C142.283 257.441 142.236 256.954 142.236 256.451C142.236 254.565 142.943 253.04 144.358 251.877C145.773 250.713 147.565 250.132 149.734 250.132C150.551 250.132 151.306 250.352 151.997 250.792C152.689 251.232 153.035 251.782 153.035 252.443C153.035 252.757 152.909 253.008 152.658 253.197C152.406 253.386 152.092 253.48 151.715 253.48C151.4 253.48 151.054 253.433 150.677 253.339C150.331 253.244 150.111 253.103 150.017 252.914H149.404V252.82C148.241 252.82 147.266 253.071 146.48 253.574C145.914 253.983 145.474 254.659 145.16 255.602C145.034 255.948 144.94 256.388 144.877 256.923C144.814 257.457 144.782 257.944 144.782 258.384C144.751 258.636 144.735 259.139 144.735 259.893L144.829 261.544L144.877 263.147C144.877 263.619 144.814 264.169 144.688 264.798C144.531 265.584 144.452 266.134 144.452 266.448V267.58C144.452 268.806 144.499 270.488 144.594 272.626C144.625 274.418 144.829 276.21 145.207 278.002C145.49 279.668 146.024 281.083 146.81 282.246C147.565 283.441 148.586 284.038 149.875 284.038C150.41 284.038 151.07 283.755 151.856 283.189C152.705 282.624 153.302 282.341 153.648 282.341C154.088 282.341 154.544 282.576 155.016 283.048C155.016 284.211 154.575 285.107 153.695 285.736C152.878 286.302 151.903 286.663 150.771 286.821C150.143 286.884 149.64 286.915 149.262 286.915Z" fill="#1F2224"/>
<path d="M162.227 286.066C162.698 284.588 162.934 279.354 162.934 270.363C162.934 269.168 162.918 268.146 162.887 267.297L162.84 264.704C161.079 264.295 159.633 263.446 158.501 262.157C157.401 260.837 156.851 259.296 156.851 257.536C156.851 256.027 157.008 254.612 157.322 253.291C157.542 252.411 157.81 251.688 158.124 251.122C158.47 250.525 158.91 250.022 159.444 249.613C159.979 249.204 160.639 249 161.425 249C162.934 249 163.972 249.346 164.537 250.037C165.103 250.698 165.386 251.845 165.386 253.48C165.386 256.498 165.292 261.025 165.103 267.061C164.915 273.129 164.82 277.672 164.82 280.69C164.82 281.036 164.773 281.586 164.679 282.341C164.553 283.064 164.49 283.645 164.49 284.085C164.49 284.243 164.506 284.384 164.537 284.51V285.029C164.537 285.595 164.396 286.05 164.113 286.396C163.83 286.773 163.437 286.962 162.934 286.962L162.227 286.066ZM162.887 262.912C163.044 260.302 163.123 257.095 163.123 253.291C163.123 252.505 162.997 251.924 162.745 251.547C162.525 251.169 162.085 250.981 161.425 250.981C161.016 250.981 160.639 251.248 160.293 251.782C159.979 252.285 159.743 252.93 159.586 253.716C159.303 255.256 159.161 256.498 159.161 257.441C159.161 258.164 159.209 258.793 159.303 259.328C159.366 259.642 159.444 259.878 159.539 260.035L159.774 260.601C159.837 260.758 159.963 260.915 160.152 261.072L160.576 261.497C160.733 261.623 160.922 261.764 161.142 261.921C161.362 262.047 161.519 262.141 161.614 262.204C161.645 262.236 161.708 262.283 161.802 262.346C161.897 262.377 162.038 262.44 162.227 262.534L162.887 262.912Z" fill="#1F2224"/>
<path d="M175.49 286.066C175.961 284.588 176.197 279.354 176.197 270.363C176.197 269.168 176.181 268.146 176.15 267.297L176.103 264.704C174.342 264.295 172.896 263.446 171.764 262.157C170.664 260.837 170.114 259.296 170.114 257.536C170.114 256.027 170.271 254.612 170.585 253.291C170.805 252.411 171.073 251.688 171.387 251.122C171.733 250.525 172.173 250.022 172.708 249.613C173.242 249.204 173.902 249 174.688 249C176.197 249 177.235 249.346 177.801 250.037C178.366 250.698 178.649 251.845 178.649 253.48C178.649 256.498 178.555 261.025 178.366 267.061C178.178 273.129 178.084 277.672 178.084 280.69C178.084 281.036 178.036 281.586 177.942 282.341C177.816 283.064 177.753 283.645 177.753 284.085C177.753 284.243 177.769 284.384 177.801 284.51V285.029C177.801 285.595 177.659 286.05 177.376 286.396C177.093 286.773 176.7 286.962 176.197 286.962L175.49 286.066ZM176.15 262.912C176.307 260.302 176.386 257.095 176.386 253.291C176.386 252.505 176.26 251.924 176.009 251.547C175.789 251.169 175.348 250.981 174.688 250.981C174.279 250.981 173.902 251.248 173.556 251.782C173.242 252.285 173.006 252.93 172.849 253.716C172.566 255.256 172.425 256.498 172.425 257.441C172.425 258.164 172.472 258.793 172.566 259.328C172.629 259.642 172.708 259.878 172.802 260.035L173.038 260.601C173.101 260.758 173.226 260.915 173.415 261.072L173.839 261.497C173.997 261.623 174.185 261.764 174.405 261.921C174.625 262.047 174.782 262.141 174.877 262.204C174.908 262.236 174.971 262.283 175.065 262.346C175.16 262.377 175.301 262.44 175.49 262.534L176.15 262.912Z" fill="#1F2224"/>
<path d="M188.753 286.066C189.225 284.588 189.46 279.354 189.46 270.363C189.46 269.168 189.445 268.146 189.413 267.297L189.366 264.704C187.605 264.295 186.159 263.446 185.028 262.157C183.927 260.837 183.377 259.296 183.377 257.536C183.377 256.027 183.534 254.612 183.849 253.291C184.069 252.411 184.336 251.688 184.65 251.122C184.996 250.525 185.436 250.022 185.971 249.613C186.505 249.204 187.165 249 187.951 249C189.46 249 190.498 249.346 191.064 250.037C191.63 250.698 191.913 251.845 191.913 253.48C191.913 256.498 191.818 261.025 191.63 267.061C191.441 273.129 191.347 277.672 191.347 280.69C191.347 281.036 191.3 281.586 191.205 282.341C191.079 283.064 191.017 283.645 191.017 284.085C191.017 284.243 191.032 284.384 191.064 284.51V285.029C191.064 285.595 190.922 286.05 190.639 286.396C190.356 286.773 189.963 286.962 189.46 286.962L188.753 286.066ZM189.413 262.912C189.57 260.302 189.649 257.095 189.649 253.291C189.649 252.505 189.523 251.924 189.272 251.547C189.052 251.169 188.612 250.981 187.951 250.981C187.543 250.981 187.165 251.248 186.82 251.782C186.505 252.285 186.269 252.93 186.112 253.716C185.829 255.256 185.688 256.498 185.688 257.441C185.688 258.164 185.735 258.793 185.829 259.328C185.892 259.642 185.971 259.878 186.065 260.035L186.301 260.601C186.364 260.758 186.489 260.915 186.678 261.072L187.102 261.497C187.26 261.623 187.448 261.764 187.668 261.921C187.888 262.047 188.046 262.141 188.14 262.204C188.171 262.236 188.234 262.283 188.329 262.346C188.423 262.377 188.564 262.44 188.753 262.534L189.413 262.912Z" fill="#1F2224"/>
<defs>
<linearGradient id="paint0_linear_2059_42834" x1="445.399" y1="275.809" x2="464.419" y2="305.717" gradientUnits="userSpaceOnUse">
<stop offset="0.0350253" stop-color="#F5AEDD"/>
<stop offset="0.521771" stop-color="#E493C9"/>
<stop offset="1" stop-color="#C97FB0"/>
</linearGradient>
<linearGradient id="paint1_linear_2059_42834" x1="452.371" y1="36.1732" x2="474.588" y2="49.6445" gradientUnits="userSpaceOnUse">
<stop offset="0.0350253" stop-color="#FDF0B7"/>
<stop offset="0.521771" stop-color="#FFEA8C"/>
<stop offset="1" stop-color="#FDDE56"/>
</linearGradient>
<linearGradient id="paint2_linear_2059_42834" x1="458.698" y1="153.703" x2="471.669" y2="165.832" gradientUnits="userSpaceOnUse">
<stop offset="0.0350253" stop-color="#FDF0B7"/>
<stop offset="0.521771" stop-color="#FFEA8C"/>
<stop offset="1" stop-color="#FDDE56"/>
</linearGradient>
<linearGradient id="paint3_linear_2059_42834" x1="386.331" y1="294.001" x2="415.762" y2="396.206" gradientUnits="userSpaceOnUse">
<stop offset="0.0350253" stop-color="#F5AEDD"/>
<stop offset="0.521771" stop-color="#E493C9"/>
<stop offset="1" stop-color="#C97FB0"/>
</linearGradient>
<linearGradient id="paint4_linear_2059_42834" x1="412.936" y1="105.288" x2="345.377" y2="42.2752" gradientUnits="userSpaceOnUse">
<stop stop-color="#DD6843"/>
<stop offset="1" stop-color="#F0A36D"/>
</linearGradient>
<linearGradient id="paint5_linear_2059_42834" x1="352.886" y1="32.7722" x2="342.166" y2="24.5884" gradientUnits="userSpaceOnUse">
<stop stop-color="#DD6843"/>
<stop offset="1" stop-color="#E68C4E"/>
</linearGradient>
<linearGradient id="paint6_linear_2059_42834" x1="403.927" y1="28.8481" x2="396.875" y2="23.7088" gradientUnits="userSpaceOnUse">
<stop stop-color="#DD6843"/>
<stop offset="1" stop-color="#E68C4E"/>
</linearGradient>
<linearGradient id="paint7_linear_2059_42834" x1="440.938" y1="31.7975" x2="433.348" y2="28.242" gradientUnits="userSpaceOnUse">
<stop stop-color="#DD6843"/>
<stop offset="1" stop-color="#E68C4E"/>
</linearGradient>
<linearGradient id="paint8_linear_2059_42834" x1="349.824" y1="126.295" x2="389.502" y2="181.173" gradientUnits="userSpaceOnUse">
<stop offset="0.0350253" stop-color="#FDF0B7"/>
<stop offset="0.521771" stop-color="#FFEA8C"/>
<stop offset="1" stop-color="#FDDE56"/>
</linearGradient>
<linearGradient id="paint9_linear_2059_42834" x1="270.395" y1="313.33" x2="93.0461" y2="158.595" gradientUnits="userSpaceOnUse">
<stop stop-color="#DD6843"/>
<stop offset="1" stop-color="#E68C4E"/>
</linearGradient>
</defs>
</svg>
