<svg width="1440" height="380" viewBox="0 0 1440 380" fill="none" xmlns="http://www.w3.org/2000/svg">
<path d="M296 111.5C296 147.122 264.556 176 229.135 176C193.714 176 165 147.122 165 111.5C165 75.8776 193.714 47 229.135 47C264.556 47 296 75.8776 296 111.5Z" fill="url(#paint0_linear_2069_40708)"/>
<path d="M500 235.5C500 271.122 468.556 300 433.135 300C397.714 300 369 271.122 369 235.5C369 199.878 397.714 171 433.135 171C468.556 171 500 199.878 500 235.5Z" fill="url(#paint1_linear_2069_40708)"/>
<path d="M774 111.5C774 147.122 742.556 176 707.135 176C671.714 176 643 147.122 643 111.5C643 75.8776 671.714 47 707.135 47C742.556 47 774 75.8776 774 111.5Z" fill="url(#paint2_linear_2069_40708)"/>
<path d="M1036 235.5C1036 271.122 1004.56 300 969.135 300C933.714 300 905 271.122 905 235.5C905 199.878 933.714 171 969.135 171C1004.56 171 1036 199.878 1036 235.5Z" fill="url(#paint3_linear_2069_40708)"/>
<path d="M1256 111.5C1256 147.122 1224.56 176 1189.14 176C1153.71 176 1125 147.122 1125 111.5C1125 75.8776 1153.71 47 1189.14 47C1224.56 47 1256 75.8776 1256 111.5Z" fill="url(#paint4_linear_2069_40708)"/>
<g clip-path="url(#clip0_2069_40708)">
<path d="M1392 152.5C1407.2 115.3 1398 95.3333 1391.5 90C1371.9 100 1380.67 135.833 1387.5 152.5H1392Z" fill="url(#paint5_linear_2069_40708)"/>
<path d="M1385.26 163C1370.06 200.2 1379.26 220.167 1385.76 225.5C1405.36 215.5 1396.59 179.667 1389.76 163L1385.26 163Z" fill="url(#paint6_linear_2069_40708)"/>
<circle cx="244.5" cy="72.5" r="12.5" fill="white"/>
<ellipse cx="439" cy="195.5" rx="11" ry="12.5" fill="white"/>
<ellipse cx="702.5" cy="65" rx="10.5" ry="10" fill="white"/>
<ellipse cx="973" cy="194" rx="14" ry="11" fill="white"/>
<ellipse cx="1197" cy="63.5001" rx="12" ry="9.5" transform="rotate(23.575 1197 63.5001)" fill="white"/>
<circle cx="267" cy="82" r="12" fill="white"/>
<circle cx="459" cy="204" r="12" fill="white"/>
<ellipse cx="725" cy="71" rx="14" ry="9" fill="white"/>
<ellipse cx="999.5" cy="203.5" rx="13.5" ry="10.5" fill="white"/>
<ellipse cx="1217" cy="68.5" rx="11" ry="10.5" fill="white"/>
<path d="M1012.83 195.88C1013.09 195.95 1013.36 195.916 1013.59 195.785C1013.82 195.653 1013.99 195.436 1014.06 195.18C1014.13 194.924 1014.1 194.651 1013.97 194.42C1013.83 194.189 1013.62 194.02 1013.36 193.95L1011.9 193.59L1011.45 192.59C1010.98 191.59 1009.71 192.18 1009.63 193.06C1004.76 191.99 999.701 191.36 994.901 193.01C993.105 193.615 991.442 194.559 990.001 195.79C989.909 194.633 989.621 193.501 989.151 192.44C987.311 188.26 983.811 185.33 979.951 182.97C979.843 182.851 979.705 182.764 979.551 182.72C977.611 181.57 975.601 180.55 973.671 179.58C972.521 179.01 971.511 180.73 972.671 181.31L973.831 181.89C969.161 181.5 964.421 182 960.921 185.5C956.361 190.07 957.921 197.33 962.521 201.23C967.521 205.47 974.791 206.57 981.031 205.09C982.509 204.753 983.935 204.218 985.271 203.5C985.262 204.539 985.55 205.559 986.101 206.44C987.101 210.83 991.291 213.44 995.601 214.65C1001.14 216.27 1007.06 215.58 1010.76 210.78C1014.13 206.42 1014.29 200.89 1012.76 195.85L1012.83 195.88ZM982.431 193.37C981.463 193.553 980.555 193.968 979.783 194.579C979.012 195.19 978.4 195.98 978.001 196.88C977.709 197.743 977.679 198.674 977.914 199.554C978.149 200.435 978.638 201.226 979.321 201.83C979.943 202.365 980.695 202.727 981.501 202.88C976.381 204.406 970.865 203.841 966.161 201.31C961.671 198.8 958.091 192.96 961.351 188.06C965.121 182.4 973.081 183.55 978.771 184.56C981.128 185.92 983.251 187.648 985.061 189.68C986.052 190.819 986.862 192.104 987.461 193.49C985.841 192.904 984.074 192.865 982.431 193.38V193.37ZM1010.08 208.2C1007.51 212.7 1002.75 214.2 997.821 213.15C994.651 212.48 990.941 211.09 989.071 208.39C990.354 208.59 991.663 208.55 992.931 208.27C994.05 208.132 995.103 207.662 995.953 206.921C996.803 206.179 997.412 205.2 997.701 204.11C998.231 201.52 997.011 199.11 995.471 197.11C995.033 196.496 994.483 195.97 993.851 195.56C994.359 195.296 994.888 195.072 995.431 194.89C1000.34 193.2 1005.5 194.07 1010.43 195.25C1012.02 199.48 1012.36 204.22 1010.08 208.21V208.2Z" fill="#1F2224"/>
<path d="M730.73 61.2502C730.547 61.2382 730.364 61.2838 730.208 61.3806C730.052 61.4775 729.93 61.6207 729.86 61.7902C725 61.4002 720 61.5002 715.7 64.0602C715.286 64.3125 714.885 64.5862 714.5 64.8802C714.16 61.2102 711.86 58.0502 708.97 55.6702C709.001 55.5585 709.007 55.4414 708.988 55.327C708.969 55.2126 708.925 55.1038 708.859 55.0084C708.794 54.9129 708.708 54.8331 708.607 54.7747C708.507 54.7163 708.395 54.6806 708.28 54.6702L707.46 54.5502C707.34 54.4589 707.198 54.4014 707.049 54.3838C706.899 54.3662 706.747 54.3892 706.61 54.4502C702.04 53.8502 697.2 53.6702 693.42 56.7202C689.29 60.0402 689.67 65.4602 692.1 69.7202C693.216 71.7948 694.969 73.4564 697.1 74.4602C699.417 75.337 701.92 75.6055 704.37 75.2402C706.454 75.0538 708.476 74.4375 710.31 73.4302C710.465 74.6306 710.953 75.7635 711.72 76.7002C714.72 80.4702 720.93 80.9502 725.37 80.6002C730.54 80.2002 735.75 77.6902 737.7 72.6002C739.65 67.5102 736.35 61.3802 730.73 61.2502ZM694.73 70.1002C692.28 66.9702 690.89 61.9702 694.01 58.8302C697.33 55.4702 702.34 55.8302 706.69 56.4502C709.69 58.5802 712.46 61.6702 712.57 65.5402C712.582 65.988 712.558 66.4361 712.5 66.8802C712.33 67.0802 712.19 67.2902 712.04 67.5002C711.159 66.882 710.116 66.5344 709.04 66.5002C708.148 66.4778 707.257 66.572 706.39 66.7802C705.543 66.9483 704.752 67.3266 704.09 67.8802C703.593 68.3017 703.252 68.8776 703.122 69.5158C702.991 70.154 703.079 70.8175 703.37 71.4002C703.44 71.742 703.589 72.0624 703.806 72.3353C704.024 72.6081 704.302 72.8257 704.62 72.9702C704.781 73.0385 704.949 73.092 705.12 73.1302C701.31 73.7402 697.23 73.3502 694.7 70.1002H694.73ZM735.79 71.8802C734.2 76.1602 729.6 78.2502 725.32 78.5802C722.283 78.9189 719.209 78.5773 716.32 77.5802C716.815 77.5885 717.309 77.5141 717.78 77.3602C718.477 77.1555 719.068 76.6899 719.43 76.0602C719.776 75.3516 719.854 74.5419 719.65 73.7802C719.452 73.0027 719.156 72.2534 718.77 71.5502C718.426 70.8347 717.955 70.1875 717.38 69.6402C716.95 69.2387 716.44 68.9324 715.883 68.7412C715.327 68.5499 714.736 68.478 714.15 68.5302C714.236 68.2783 714.306 68.0211 714.36 67.7602C715.139 66.8887 716.054 66.1492 717.07 65.5702C721.93 62.8702 727.75 63.5102 733.07 64.0802C733.192 64.1015 733.317 64.1015 733.44 64.0802C734.623 64.9512 735.491 66.1823 735.915 67.5886C736.338 68.995 736.294 70.5008 735.79 71.8802V71.8802Z" fill="#1F2224"/>
<path d="M470.639 201.96C470.429 199.632 469.701 197.381 468.509 195.37C468.574 195.122 468.545 194.859 468.429 194.631C468.313 194.402 468.118 194.224 467.879 194.13L467.369 193.94C467.269 193.835 467.145 193.756 467.007 193.709C466.87 193.662 466.723 193.649 466.579 193.67C462.049 192.16 456.329 191.67 452.129 194.05C451.748 194.261 451.387 194.505 451.049 194.78C449.749 188.99 446.169 183.52 440.349 181.59C440.2 181.539 440.04 181.528 439.885 181.556C439.73 181.584 439.584 181.652 439.462 181.752C439.34 181.852 439.246 181.981 439.187 182.128C439.129 182.274 439.109 182.433 439.129 182.59C434.839 182.2 430.929 185.16 429.339 189.14C427.489 193.78 428.129 200.14 431.659 203.83C433.493 205.59 435.738 206.862 438.189 207.53C440.759 208.37 443.629 208.96 446.189 207.83C446.78 207.563 447.337 207.227 447.849 206.83C448.512 209.075 449.807 211.081 451.581 212.608C453.355 214.135 455.531 215.118 457.849 215.44C460.036 215.73 462.259 215.385 464.256 214.447C466.252 213.509 467.937 212.018 469.109 210.15C470.554 207.68 471.095 204.785 470.639 201.96V201.96ZM447.409 204.54C447.289 204.67 447.179 204.79 447.049 204.91C445.259 206.59 442.919 206.7 440.619 206.16C438.971 205.793 437.376 205.222 435.869 204.46C436.361 204.436 436.847 204.338 437.309 204.17C438.443 203.784 439.41 203.022 440.049 202.01C440.375 201.437 440.578 200.802 440.647 200.147C440.716 199.491 440.648 198.828 440.449 198.2C439.972 196.61 438.976 195.227 437.619 194.27C437.684 194.141 437.72 194.001 437.726 193.857C437.731 193.713 437.705 193.57 437.65 193.437C437.595 193.304 437.512 193.185 437.407 193.087C437.301 192.989 437.176 192.915 437.039 192.87C435.593 192.363 434.05 192.199 432.529 192.39C431.737 192.545 431.001 192.911 430.399 193.45C430.399 193.02 430.479 192.6 430.559 192.18C431.329 187.74 435.189 183.46 440.049 184.78C440.297 184.839 440.558 184.802 440.779 184.676C441 184.549 441.165 184.344 441.239 184.1C444.603 185.909 447.14 188.947 448.319 192.58C448.789 193.875 449.124 195.216 449.319 196.58C447.747 198.918 447.07 201.743 447.409 204.54V204.54ZM468.029 207.97C467.271 209.664 466.031 211.099 464.466 212.096C462.9 213.093 461.076 213.609 459.219 213.58C456.961 213.529 454.786 212.715 453.049 211.27C453.982 211.553 454.985 211.496 455.879 211.11C456.977 210.545 457.851 209.625 458.359 208.5C459.106 207.249 459.426 205.789 459.269 204.34C459.167 203.759 458.917 203.214 458.545 202.757C458.172 202.3 457.688 201.947 457.139 201.73C457.117 201.544 457.038 201.369 456.913 201.229C456.788 201.089 456.622 200.992 456.439 200.95C454.998 200.62 453.501 200.62 452.059 200.95C451.748 201.048 451.447 201.175 451.159 201.33C451.434 199.958 451.515 198.554 451.399 197.16C451.744 196.788 452.126 196.453 452.539 196.16C454.539 194.76 457.209 194.5 459.539 194.52C461.805 194.555 464.05 194.953 466.189 195.7C467.406 197.263 468.179 199.125 468.429 201.09C468.995 203.371 468.856 205.77 468.029 207.97V207.97Z" fill="#1F2224"/>
<path d="M1399.06 100.88C1398.45 98.8113 1397.65 96.8029 1396.67 94.8799C1395.82 92.9587 1394.63 91.2022 1393.17 89.6899C1389.78 86.6399 1386.37 91.6899 1384.69 94.2099C1379.58 101.98 1378.78 111.63 1379.23 120.69C1379.76 131.025 1381.95 141.206 1385.73 150.84C1384.95 150.947 1384.24 151.339 1383.73 151.94C1383.3 152.481 1382.93 153.068 1382.62 153.69H1367.22C1367.27 148.943 1367.32 144.193 1367.36 139.44C1367.36 135.98 1363.8 134.85 1361.42 136.04C1360.89 135.793 1360.31 135.663 1359.72 135.66L1251.5 134.2C1252.9 129.441 1253.85 124.564 1254.35 119.63C1255.86 105.36 1254.62 90.4399 1248.47 77.3199C1245.26 70.4442 1240.59 64.3474 1234.79 59.4499L1235.27 58.1899C1235.72 56.9799 1233.79 56.4599 1233.34 57.6599L1233.16 58.1399C1229.73 55.4903 1225.94 53.3483 1221.9 51.7799C1219.91 51.0174 1217.86 50.422 1215.77 49.9999C1215.87 49.8133 1215.91 49.5997 1215.88 49.3899C1215.83 48.95 1215.84 48.5044 1215.93 48.0699C1216.14 48.0047 1216.31 47.8749 1216.44 47.6999C1219.03 44.2299 1224.29 46.9799 1227.3 48.2199L1239.5 53.2799C1240.69 53.7699 1241.21 51.8399 1240.03 51.3499L1235.5 49.4399C1235.58 49.2899 1235.62 49.1221 1235.62 48.9522C1235.62 48.7822 1235.57 48.6159 1235.48 48.4688C1235.4 48.3217 1235.28 48.1986 1235.13 48.1114C1234.99 48.0241 1234.82 47.9754 1234.65 47.9699C1234.43 47.9616 1234.22 48.0319 1234.05 48.1679C1233.88 48.3039 1233.77 48.4963 1233.73 48.7099C1231.06 47.5999 1228.38 46.4899 1225.73 45.3999C1223.58 44.4091 1221.2 44.0055 1218.84 44.2299C1220.69 43.2325 1222.83 42.8807 1224.9 43.2299C1229.52 43.8199 1233.66 46.2299 1238.3 46.7999C1239.57 46.9599 1239.56 44.9499 1238.3 44.7999C1237.02 44.6246 1235.76 44.3437 1234.53 43.9599C1234.56 43.8192 1234.55 43.6747 1234.52 43.536C1234.48 43.3973 1234.42 43.2677 1234.33 43.1558C1234.24 43.044 1234.13 42.9526 1234 42.8877C1233.87 42.8229 1233.73 42.7861 1233.59 42.7799C1233.4 42.7732 1233.21 42.8278 1233.05 42.9357C1232.89 43.0436 1232.77 43.1992 1232.71 43.3799C1229.17 42.1699 1225.71 40.7699 1221.85 41.1999C1220.21 41.3814 1218.64 41.9728 1217.28 42.9199C1216.28 39.7099 1211.87 37.5099 1208.94 36.3999C1205.8 35.3161 1202.61 34.3916 1199.37 33.6299C1199.52 33.4962 1199.63 33.3196 1199.68 33.1236C1199.73 32.9275 1199.72 32.7211 1199.65 32.5316C1199.58 32.3421 1199.45 32.1784 1199.28 32.062C1199.12 31.9457 1198.92 31.8822 1198.72 31.8799C1198.57 31.8861 1198.42 31.9281 1198.28 32.0025C1198.14 32.0768 1198.03 32.1816 1197.94 32.3085C1197.85 32.4355 1197.79 32.5811 1197.77 32.734C1197.75 32.8869 1197.76 33.043 1197.81 33.1899C1196.07 32.7095 1194.37 32.1183 1192.71 31.4199C1191.54 30.9099 1190.52 32.6399 1191.71 33.1499C1196.1 35.0499 1200.79 35.9399 1205.35 37.2999C1207.66 37.9414 1209.9 38.8474 1212 39.9999C1213.65 40.9399 1215.69 42.6699 1215.44 44.6899C1214.33 46.1053 1213.81 47.9003 1214.01 49.6899L1213.36 49.5799C1212.97 49.5201 1212.57 49.5829 1212.21 49.7599C1201.32 47.0899 1189.95 44.5299 1178.69 45.0299L1178.51 43.5899C1178.35 42.3299 1176.35 42.3199 1176.51 43.5899C1176.57 44.1099 1176.64 44.5899 1176.7 45.1399C1174.01 45.3452 1171.33 45.7496 1168.7 46.3499C1155.13 49.4999 1143.94 58.9899 1136.11 70.2299C1128.27 81.4427 1123.85 94.6928 1123.39 108.37C1123.16 117.064 1124.7 125.714 1127.9 133.8C1112.9 135.74 1099.15 141.36 1092.9 157.06C1085.46 175.73 1092.63 197.06 1094.5 216.15C1095.41 225.51 1095.73 235.75 1091.3 244.35C1084.94 256.69 1071.16 260.54 1058.3 261.55C1048.66 262.31 1038.93 262.36 1029.21 262.31C1031.94 256.106 1033.74 249.531 1034.54 242.8C1036.05 229.658 1033.42 216.373 1027.01 204.8C1020.67 193.286 1011.11 183.869 999.501 177.7C998.661 177.26 997.791 176.86 996.931 176.45C997.015 176.275 997.041 176.078 997.005 175.887C996.969 175.696 996.873 175.522 996.731 175.39C996.502 175.181 996.323 174.924 996.204 174.638C996.085 174.352 996.029 174.044 996.042 173.735C996.054 173.425 996.134 173.122 996.275 172.847C996.417 172.572 996.616 172.33 996.861 172.14C997.341 171.825 997.919 171.692 998.49 171.765C999.06 171.838 999.585 172.113 999.971 172.54C1001.61 174.01 1002.58 175.96 1004.51 177.15C1007.81 179.15 1011.62 179.1 1015.31 178.4C1015.3 178.54 1015.31 178.682 1015.35 178.816C1015.4 178.951 1015.47 179.074 1015.56 179.179C1015.66 179.284 1015.77 179.368 1015.9 179.425C1016.03 179.482 1016.17 179.511 1016.31 179.51C1016.48 179.503 1016.65 179.452 1016.79 179.362C1016.94 179.273 1017.06 179.147 1017.14 178.997C1017.23 178.848 1017.27 178.679 1017.27 178.508C1017.27 178.337 1017.22 178.169 1017.14 178.02C1018.01 177.81 1018.86 177.59 1019.7 177.36C1019.96 177.288 1020.17 177.118 1020.3 176.886C1020.43 176.655 1020.47 176.381 1020.4 176.125C1020.32 175.869 1020.15 175.652 1019.92 175.522C1019.69 175.391 1019.42 175.358 1019.16 175.43C1015.85 176.33 1012.34 177.33 1008.89 176.67C1008.69 176.634 1008.5 176.587 1008.31 176.53C1011.48 176.131 1014.54 175.097 1017.31 173.489C1020.07 171.881 1022.49 169.731 1024.4 167.17C1025.17 166.17 1023.4 165.17 1022.67 166.17C1021.9 167.21 1021.02 168.171 1020.06 169.04C1019.98 168.919 1019.86 168.822 1019.73 168.758C1019.6 168.693 1019.45 168.663 1019.3 168.67C1019.11 168.673 1018.93 168.73 1018.77 168.833C1018.61 168.937 1018.49 169.082 1018.41 169.254C1018.33 169.425 1018.3 169.615 1018.33 169.802C1018.35 169.989 1018.43 170.165 1018.55 170.31C1014.99 173.006 1010.69 174.546 1006.23 174.72C1006.05 174.719 1005.87 174.773 1005.71 174.875C1005.56 174.976 1005.44 175.121 1005.37 175.29C1005.23 175.19 1005.07 175.1 1004.93 174.99C1003.93 174.084 1003.01 173.079 1002.21 171.99C1000.61 170.14 998.211 168.99 995.901 170.46C995.115 170.976 994.537 171.751 994.266 172.651C993.996 173.55 994.05 174.517 994.421 175.38C993.801 175.12 993.181 174.84 992.541 174.6C992.493 174.337 992.375 174.092 992.199 173.891C992.023 173.69 991.795 173.541 991.541 173.46L991.381 173.41C994.071 169.41 991.591 164.48 988.381 161.65C986.501 160 984.381 158.72 982.381 157.2C982.041 156.94 981.707 156.67 981.381 156.39C981.564 156.277 981.705 156.107 981.784 155.907C981.864 155.707 981.876 155.486 981.82 155.279C981.764 155.071 981.642 154.887 981.473 154.754C981.303 154.62 981.096 154.546 980.881 154.54C980.7 154.534 980.521 154.583 980.368 154.679C980.215 154.775 980.094 154.915 980.021 155.08C979.881 154.93 979.731 154.77 979.601 154.61C979.039 154.043 978.686 153.303 978.601 152.51C978.601 152.06 978.931 151.51 979.411 151.86C980.411 152.63 981.411 150.86 980.411 150.14C980 149.858 979.508 149.718 979.011 149.739C978.513 149.761 978.036 149.944 977.651 150.26C977.197 150.611 976.859 151.091 976.681 151.636C976.503 152.182 976.492 152.768 976.651 153.32C977.291 155.96 980.051 157.97 982.121 159.48C984.511 161.2 987.191 162.74 988.971 165.15C990.591 167.35 991.221 170.4 989.471 172.71V172.77C976.897 168.971 963.488 168.929 950.891 172.65C937.571 176.517 925.844 184.554 917.431 195.58C909.21 206.48 904.46 219.603 903.801 233.24C903.373 243.515 905.431 253.741 909.801 263.05H908.501C895.451 263.14 881.951 263.72 869.331 259.78C842.861 251.53 844.941 225.08 847.881 202.73C850.481 182.96 853.351 159.31 835.161 145.73C825.561 138.58 813.231 136.86 801.591 136.24C790.821 135.66 780.001 135.48 769.191 135.32C771.07 129.943 772.41 124.392 773.191 118.75C775.111 104.95 773.611 90.5299 767.331 77.9599C764.288 71.8534 760.196 66.3293 755.241 61.6399C759.181 58.0399 752.38 63.9 756.5 60.5C757.5 59.68 756.07 58.27 755.09 59.08C750.923 62.52 757.694 56.6865 753.741 60.2999C750.385 57.3559 746.66 54.8616 742.661 52.8799C740.229 51.6703 737.7 50.6668 735.101 49.8799C735.063 49.6098 734.949 49.3562 734.771 49.1489C734.594 48.9416 734.361 48.7892 734.101 48.7099C733.473 47.2174 733.266 45.5817 733.501 43.9799C733.638 43.1987 734.048 42.4915 734.658 41.9843C735.267 41.477 736.037 41.2026 736.831 41.2099C737.661 41.2099 738.501 41.2099 739.351 41.2099C740.685 43.0017 742.38 44.4943 744.326 45.5914C746.272 46.6885 748.427 47.3659 750.651 47.5799C750.916 47.5799 751.17 47.4745 751.358 47.287C751.545 47.0994 751.651 46.8451 751.651 46.5799C751.651 46.3146 751.545 46.0603 751.358 45.8728C751.17 45.6852 750.916 45.5799 750.651 45.5799C750.177 45.5359 749.706 45.4624 749.241 45.3599C749.296 45.2107 749.316 45.0504 749.297 44.8922C749.278 44.734 749.222 44.5826 749.133 44.4506C749.044 44.3185 748.925 44.2096 748.785 44.133C748.646 44.0563 748.49 44.0141 748.331 44.0099C748.1 44.0013 747.875 44.0816 747.702 44.2342C747.529 44.3868 747.421 44.6 747.401 44.8299C745.339 44.091 743.482 42.8745 741.981 41.2799H742.801C744.974 41.3865 747.137 41.5499 749.291 41.7699C750.571 41.8899 750.561 39.8899 749.291 39.7699C748.441 39.6799 747.591 39.6199 746.741 39.5499C746.814 39.4003 746.849 39.2347 746.842 39.0682C746.835 38.9017 746.787 38.7395 746.701 38.5964C746.616 38.4533 746.496 38.3339 746.353 38.2489C746.209 38.1639 746.047 38.1161 745.881 38.1099C745.726 38.1161 745.575 38.1581 745.44 38.2325C745.304 38.3068 745.188 38.4116 745.1 38.5385C745.012 38.6655 744.954 38.8111 744.932 38.964C744.909 39.1169 744.923 39.273 744.971 39.4199C743.911 39.3499 742.861 39.2799 741.801 39.2399C740.521 39.2399 739.241 39.1499 737.961 39.1399C736.922 39.0813 735.88 39.1996 734.881 39.4899C734.024 39.8033 733.263 40.3325 732.671 41.0262C732.079 41.72 731.676 42.5548 731.501 43.4499C731.211 44.9714 731.3 46.541 731.761 48.0199C730.321 47.6099 728.861 47.2399 727.391 46.9099C728.072 45.4613 728.42 43.8784 728.409 42.2776C728.398 40.6768 728.028 39.0989 727.327 37.6599C726.625 36.2208 725.61 34.9573 724.356 33.9622C723.102 32.9672 721.641 32.2658 720.081 31.9099C718.831 31.6199 718.301 33.5499 719.551 33.8399C720.333 34.0229 721.087 34.3123 721.791 34.6999C721.721 34.8494 721.69 35.0137 721.699 35.1783C721.709 35.3428 721.759 35.5024 721.845 35.643C721.931 35.7835 722.051 35.9006 722.193 35.9838C722.335 36.067 722.496 36.1137 722.661 36.1199C722.798 36.1247 722.936 36.0984 723.062 36.043C723.188 35.9876 723.301 35.9045 723.391 35.7999C724.349 36.6041 725.12 37.6073 725.651 38.7399C726.201 39.9745 726.46 41.3191 726.408 42.6698C726.356 44.0205 725.994 45.3412 725.351 46.5299C714.495 44.3173 703.286 44.5051 692.511 47.0799C688.887 47.9643 685.345 49.1518 681.921 50.6299C681.201 49.1099 680.491 47.6299 679.761 46.0699C679.211 44.9099 677.481 45.9199 678.031 47.0699C678.731 48.5232 679.421 49.9799 680.101 51.4399C672.525 54.9584 665.698 59.9016 659.991 65.9999C651.203 75.3516 645.626 87.2618 644.071 99.9999C643.245 107.549 643.477 115.175 644.761 122.66C645.288 126.035 646.022 129.375 646.961 132.66C631.661 132.28 616.151 131.18 600.861 131.94C588.961 132.54 576.791 135.58 568.861 145.06C556.281 160 561.021 181.39 564.211 198.8C567.821 218.59 572.911 244.73 552.061 256.99C541.171 263.39 527.691 264.15 515.361 264.18C507.691 264.18 500.021 264.04 492.361 263.82C493.776 258.458 494.779 252.995 495.361 247.48C497.031 233.57 498.131 218.43 491.571 205.53C488.393 199.561 483.994 194.327 478.661 190.17C478.861 189.48 479.071 188.8 479.261 188.11C479.295 187.983 479.305 187.851 479.289 187.72C479.272 187.59 479.23 187.464 479.165 187.35C479.1 187.236 479.014 187.135 478.91 187.055C478.806 186.974 478.687 186.915 478.561 186.88C478.434 186.845 478.302 186.836 478.171 186.852C478.041 186.868 477.915 186.91 477.801 186.975C477.686 187.04 477.586 187.127 477.505 187.231C477.425 187.335 477.365 187.453 477.331 187.58C477.221 188 477.091 188.41 476.971 188.83C472.754 185.672 468.316 182.822 463.691 180.3C460.981 178.79 458.241 177.35 455.501 175.93C455.354 175.85 455.195 175.796 455.031 175.77C449.163 172.518 442.702 170.478 436.031 169.77C436.048 169.589 436.02 169.407 435.951 169.24C435.608 168.443 435.493 167.567 435.619 166.709C435.744 165.852 436.105 165.045 436.661 164.38C437.758 163.246 439.193 162.499 440.751 162.25C444.451 161.44 448.331 162.3 451.911 160.83C453.081 160.35 452.571 158.41 451.381 158.9C449.42 159.596 447.351 159.935 445.271 159.9C445.317 159.747 445.326 159.586 445.297 159.43C445.268 159.273 445.203 159.125 445.106 158.999C445.008 158.873 444.882 158.772 444.738 158.704C444.594 158.637 444.436 158.605 444.277 158.611C444.117 158.616 443.962 158.66 443.823 158.738C443.684 158.816 443.566 158.927 443.479 159.06C443.391 159.193 443.336 159.345 443.319 159.503C443.302 159.661 443.323 159.821 443.381 159.97C441.75 159.999 440.134 160.282 438.591 160.81C436.826 161.397 435.331 162.601 434.381 164.2C434.082 164.756 433.867 165.352 433.741 165.97C431.252 164.674 428.888 163.151 426.681 161.42C424.521 159.61 421.881 156.94 421.781 153.94C421.722 153.25 421.867 152.559 422.2 151.952C422.533 151.345 423.038 150.851 423.651 150.53C425.149 149.942 426.733 149.604 428.341 149.53L429.421 149.43C429.404 149.567 429.418 149.707 429.462 149.838C429.505 149.97 429.578 150.09 429.673 150.191C429.769 150.291 429.885 150.369 430.015 150.419C430.144 150.469 430.282 150.49 430.421 150.48C430.566 150.473 430.708 150.435 430.836 150.367C430.965 150.3 431.078 150.206 431.166 150.09C431.255 149.975 431.317 149.842 431.349 149.7C431.381 149.559 431.381 149.412 431.351 149.27C433.885 149.115 436.426 149.115 438.961 149.27C440.251 149.35 440.241 147.35 438.961 147.27C435.792 147.061 432.612 147.108 429.451 147.41C426.841 147.66 423.401 147.72 421.451 149.68C419.501 151.64 419.551 154.4 420.511 156.68C421.638 159.115 423.336 161.241 425.461 162.88L425.621 163C422.484 162.143 419.482 160.854 416.701 159.17C414.051 157.4 409.201 152.22 413.341 149.5C414.59 148.713 415.909 148.044 417.281 147.5C417.325 147.708 417.442 147.893 417.611 148.023C417.779 148.153 417.988 148.219 418.201 148.21C418.365 148.205 418.525 148.159 418.668 148.077C418.81 147.995 418.93 147.879 419.017 147.74C419.104 147.6 419.155 147.442 419.167 147.278C419.178 147.114 419.148 146.95 419.081 146.8C421.321 146.01 423.641 145.38 425.831 144.73C426.087 144.66 426.304 144.491 426.435 144.26C426.567 144.029 426.601 143.756 426.531 143.5C426.46 143.244 426.291 143.026 426.061 142.895C425.83 142.764 425.557 142.73 425.301 142.8C422.931 143.51 420.571 144.21 418.251 145.07C416.048 145.778 413.947 146.77 412.001 148.02C408.471 150.55 409.781 154.87 412.131 157.76C414.651 160.87 418.381 162.64 422.081 163.94C424.341 164.75 426.661 165.4 428.911 166.26C430.471 166.85 433.111 167.74 433.791 169.53C428.172 169.141 422.527 169.589 417.041 170.86L415.501 167.23C415.041 166.05 413.101 166.56 413.571 167.77L414.921 171.26C402.542 174.779 391.562 182.058 383.501 192.09C368.331 210.53 361.301 238.03 370.421 260.65L366.621 260.55C353.251 260.22 337.971 260.91 326.001 253.96C315.721 247.96 312.451 237.39 312.921 226.13C313.751 206.19 324.551 184.3 315.861 164.82C310.021 151.72 298.211 146.49 285.101 144.49C290.513 135.303 293.835 125.036 294.831 114.42C295.504 107.5 295.316 100.523 294.271 93.6499C293.538 88.405 292.195 83.2635 290.271 78.3299C292.011 76.5165 293.741 74.6965 295.461 72.8699C300.321 67.6965 293.267 75.2933 298 70C298.85 69 297.44 67.62 296.58 68.58C290.36 75.5533 295.877 69.5832 289.431 76.3299C289.111 75.6099 288.771 74.8999 288.431 74.1899C285.442 68.3454 281.093 63.3041 275.751 59.4899C270.486 55.8849 264.77 52.9868 258.751 50.8699C257.891 50.5399 257.021 50.2399 256.161 49.8699C254.401 48.0099 255.811 45.3599 257.871 44.4099C258.375 44.1918 258.907 44.0405 259.451 43.9599C259.495 43.9872 259.542 44.0106 259.591 44.0299C260.821 44.3757 262.114 44.4339 263.371 44.1999C264.337 44.4425 265.288 44.7396 266.221 45.0899C271.311 46.9699 276.161 49.8499 281.791 48.8299C283.051 48.5999 282.521 46.6699 281.261 46.8999C280.532 47.033 279.791 47.0933 279.051 47.0799C279.081 46.9371 279.081 46.7893 279.048 46.6469C279.016 46.5046 278.952 46.371 278.863 46.2557C278.773 46.1403 278.659 46.046 278.529 45.9794C278.4 45.9127 278.257 45.8753 278.111 45.8699C277.977 45.8675 277.843 45.8939 277.72 45.9472C277.597 46.0006 277.487 46.0796 277.397 46.1791C277.307 46.2785 277.239 46.3961 277.199 46.5239C277.158 46.6516 277.145 46.7867 277.161 46.9199C273.461 46.3399 269.991 44.3599 266.391 43.0599C267.041 42.6555 267.627 42.1568 268.131 41.5799C269.172 40.353 269.842 38.8546 270.061 37.2604C270.281 35.6663 270.041 34.0426 269.371 32.5799C269.304 32.4661 269.216 32.3665 269.112 32.2868C269.007 32.2072 268.888 32.1489 268.76 32.1155C268.633 32.082 268.5 32.074 268.37 32.092C268.24 32.1099 268.114 32.1533 268.001 32.2199C267.887 32.286 267.787 32.374 267.708 32.4787C267.628 32.5834 267.57 32.7029 267.536 32.8301C267.503 32.9574 267.495 33.09 267.513 33.2204C267.531 33.3508 267.574 33.4763 267.641 33.5899C268.012 34.4191 268.189 35.3218 268.161 36.2299H268.041C267.908 36.233 267.78 36.2747 267.671 36.3499C267.454 36.4923 267.292 36.7037 267.211 36.9499V37.2099C267.211 37.3893 267.259 37.5655 267.351 37.7199L267.501 37.9199C267.608 38.0175 267.734 38.0924 267.871 38.1399C267.622 38.9334 267.21 39.666 266.661 40.2899C265.782 41.2404 264.634 41.8999 263.371 42.1799C262.78 42.055 262.182 41.9648 261.581 41.9099C258.871 41.6899 255.901 42.5499 254.321 44.9099C253.931 45.4909 253.661 46.1442 253.527 46.8311C253.393 47.518 253.397 48.2248 253.541 48.9099L252.961 48.7099C253.005 48.5563 253.005 48.3934 252.961 48.2399C251.101 42.1699 245.251 39.1199 239.651 37.1799C236.415 36.2222 233.251 35.0393 230.181 33.6399C228.622 32.9322 227.173 32.0025 225.881 30.8799C224.821 29.8799 223.351 28.1599 224.071 26.5799C224.601 25.4099 222.881 24.3999 222.341 25.5799C221.091 28.3099 222.861 30.8799 224.881 32.6799C224.813 32.8305 224.783 32.9955 224.795 33.1602C224.807 33.3249 224.859 33.4842 224.947 33.6239C225.035 33.7635 225.156 33.8792 225.3 33.9605C225.444 34.0418 225.606 34.0862 225.771 34.0899C225.992 34.0916 226.207 34.0094 226.371 33.8599C228.84 35.508 231.535 36.7912 234.371 37.6699C240.311 39.7199 248.081 41.6699 250.651 48.0499C250.55 47.8946 250.416 47.7637 250.259 47.6668C250.102 47.5699 249.924 47.5095 249.741 47.4899C239.071 45.8799 228.111 44.7699 217.401 45.8799L216.801 43.9899C216.411 42.7699 214.481 43.2899 214.871 44.5199L215.381 46.1199C211.85 46.5778 208.362 47.3203 204.951 48.3399C198.587 50.2179 192.631 53.2705 187.391 57.3399C182.481 61.2726 178.433 66.1744 175.501 71.7399C169.441 83.0899 167.501 96.1899 166.761 108.88C166.121 120.7 166.831 133.02 171.381 144.02L148.531 144.17L100.841 144.48C100.661 144.48 100.501 144.48 100.311 144.42H96.3106C93.8563 140.857 90.1872 138.312 85.9906 137.26C85.174 134.489 84.9302 131.582 85.2741 128.714C85.6179 125.846 86.5422 123.079 87.9906 120.58C89.5652 117.984 91.6907 115.765 94.217 114.08C96.7432 112.395 99.6086 111.286 102.611 110.83C105.721 110.301 108.913 110.538 111.911 111.52C115.211 112.67 116.771 115.27 117.041 118.66C117.131 120.082 117.131 121.508 117.041 122.93C117.114 124.964 116.76 126.991 116.001 128.88C115.441 130.164 114.4 131.177 113.101 131.7C111.371 132.31 109.461 131.64 107.941 130.78C106.349 129.861 104.936 128.662 103.771 127.24C102.771 125.98 100.911 123.68 102.211 122.05C103.121 120.91 104.951 120.67 106.311 120.9C107.251 121.07 108.411 121.53 108.621 122.59C108.691 122.96 108.691 123.49 108.301 123.71C108.061 123.84 107.521 123.86 107.401 123.54C106.941 122.36 105.001 122.87 105.471 124.07C105.593 124.403 105.782 124.708 106.025 124.966C106.268 125.224 106.561 125.43 106.886 125.572C107.211 125.714 107.562 125.789 107.917 125.792C108.271 125.795 108.623 125.726 108.951 125.59C109.318 125.418 109.647 125.174 109.918 124.872C110.188 124.57 110.395 124.216 110.525 123.832C110.654 123.448 110.705 123.041 110.674 122.637C110.642 122.233 110.529 121.839 110.341 121.48C108.871 118.11 103.341 118.11 101.001 120.42C97.6706 123.65 101.791 128.51 104.381 130.69C107.381 133.23 111.931 135.37 115.501 132.63C119.071 129.89 119.121 124.87 119.141 120.79C119.161 116.71 118.311 112.66 114.561 110.55C111.021 108.55 106.431 108.29 102.481 108.87C98.421 109.484 94.5936 111.153 91.3806 113.71C88.073 116.47 85.6069 120.103 84.2633 124.196C82.9196 128.289 82.7524 132.677 83.7806 136.86C79.9881 136.302 76.1272 137.238 73.0106 139.47C68.5906 132.2 64.1906 124.92 60.2506 117.38C58.085 113.463 56.1647 109.415 54.5006 105.26C53.1706 101.69 52.7806 96.3899 57.3606 95.0699C61.1106 93.9999 65.7506 95.1499 69.1306 96.8599C72.5622 98.598 75.4197 101.289 77.3606 104.61C79.2606 107.86 80.8906 112.5 78.9906 116.08C76.9906 119.88 71.9906 119.46 69.3706 116.64C67.9897 115.091 67.0625 113.191 66.6906 111.15C66.3206 109.41 65.9306 106.78 67.4006 105.41C69.2506 103.66 72.1106 105.3 73.7006 106.6C74.1197 106.874 74.478 107.231 74.7532 107.649C75.0285 108.067 75.2148 108.537 75.3006 109.03C75.3606 109.97 74.1706 111.2 73.6306 109.91C73.0906 108.62 71.4006 109.75 71.9006 110.91C72.0947 111.291 72.3738 111.622 72.7163 111.878C73.0588 112.134 73.4556 112.308 73.8761 112.387C74.2965 112.465 74.7293 112.445 75.141 112.33C75.5528 112.214 75.9324 112.006 76.2506 111.72C77.8706 110.24 77.4306 107.77 76.1806 106.23C73.6606 103.14 67.3906 100.59 65.0506 105.23C64.0506 107.23 64.3206 109.57 64.7606 111.63C65.222 113.949 66.288 116.105 67.8506 117.88C70.7706 121.07 76.2306 122.11 79.4706 118.8C83.1506 115.05 81.9106 109.16 79.8506 104.94C77.6645 100.524 74.0483 96.9786 69.5906 94.8799C67.2994 93.8121 64.8454 93.136 62.3306 92.8799C59.9706 92.6399 57.3306 92.6699 55.2006 93.8799C50.5006 96.4699 51.2006 102.55 52.9406 106.72C57.8206 118.72 64.7706 129.79 71.4706 140.8C70.9518 141.318 70.4706 141.873 70.0306 142.46C68.8437 144.003 68.1266 145.856 67.9652 147.796C67.8039 149.736 68.205 151.682 69.1206 153.4C67.7606 155.4 64.7006 155.99 62.4706 156.16C59.8764 156.334 57.2756 155.938 54.8506 155C52.3321 153.987 50.0497 152.465 48.1466 150.529C46.2435 148.593 44.7605 146.285 43.7906 143.75C42.7976 141.277 42.2133 138.66 42.0606 136C41.9006 133.5 41.7406 130.14 44.6706 129.26C47.1406 128.51 50.0906 129.38 52.2306 130.65C53.4925 131.359 54.5689 132.356 55.3718 133.561C56.1747 134.765 56.6814 136.142 56.8506 137.58C57.0706 140.28 55.4506 143.48 52.3006 142.73C51.6198 142.552 50.9999 142.194 50.5068 141.692C50.0137 141.19 49.666 140.564 49.5006 139.88C49.1706 138.61 49.3206 135.99 50.8606 135.46C49.6506 135.88 50.1706 137.81 51.3906 137.39C51.7114 137.295 52.0008 137.115 52.2286 136.87C52.4564 136.625 52.6143 136.323 52.6858 135.997C52.7573 135.67 52.7398 135.33 52.6351 135.012C52.5304 134.694 52.3424 134.41 52.0906 134.19C50.8806 133.19 49.2106 133.86 48.4106 135.02C47.9417 135.735 47.6191 136.536 47.4613 137.377C47.3035 138.217 47.3136 139.081 47.4912 139.918C47.6687 140.754 48.0102 141.548 48.4958 142.252C48.9814 142.956 49.6016 143.557 50.3206 144.02C51.0004 144.418 51.7572 144.666 52.5405 144.749C53.3239 144.831 54.1158 144.745 54.8634 144.497C55.611 144.249 56.2972 143.845 56.8761 143.311C57.455 142.777 57.9134 142.125 58.2206 141.4C59.7506 138 58.5506 134.01 56.2206 131.3C54.9809 129.922 53.4625 128.824 51.766 128.077C50.0696 127.331 48.2339 126.953 46.3806 126.97C44.7145 126.931 43.0932 127.512 41.8306 128.6C40.6488 129.922 40.019 131.647 40.0706 133.42C39.7306 140.93 42.7706 148.98 48.7406 153.71C52.029 156.323 56.0389 157.865 60.2306 158.13C63.4506 158.32 68.0206 157.76 70.3406 155.13C70.6476 155.535 70.9817 155.92 71.3406 156.28C73.262 158.439 75.7384 160.03 78.5006 160.88C78.8739 164.671 79.0175 168.481 78.9306 172.29C78.7706 176 78.2406 180.02 76.4906 183.36C72.4906 191 63.4906 187.16 58.0006 183.61C55.1006 181.74 51.8706 179.71 50.2206 176.61C48.6906 173.67 48.9306 169.93 51.9606 168.07C55.1806 166.07 59.4006 166.73 62.9606 166.79C65.7106 166.85 70.8106 167.43 70.5406 171.32C70.2206 175.97 64.5406 176.32 61.2406 175.12C60.0806 174.73 56.5506 173.21 58.0306 171.47C59.5106 169.73 61.9106 171.47 63.2206 172.33C64.3106 173.03 65.3106 171.33 64.2206 170.6C62.5006 169.5 60.5106 168.38 58.4006 168.99C57.5958 169.184 56.8858 169.657 56.397 170.326C55.9081 170.994 55.672 171.814 55.7306 172.64C55.9406 174.49 57.6606 175.76 59.2406 176.47C61.3068 177.482 63.6077 177.917 65.9006 177.73C69.5806 177.32 73.2406 174.07 72.4306 170.06C71.5206 165.53 66.2606 164.84 62.4906 164.79C58.0706 164.73 52.8606 164.13 49.4006 167.51C46.4006 170.42 46.8006 175.17 48.9506 178.45C51.4006 182.19 55.7106 184.81 59.5406 186.96C63.3706 189.11 68.0006 190.78 72.3606 189.46C77.3606 187.95 79.3606 182.78 80.2406 178.1C81.2406 172.62 80.9406 167.03 80.5006 161.51C85.5906 162.68 91.4306 162.09 95.0006 158.19C100.731 158.19 106.591 158.72 111.411 162.07C116.571 165.64 118.631 172.24 115.411 177.86C113.859 180.435 111.391 182.329 108.502 183.162C105.612 183.995 102.515 183.705 99.8306 182.35C97.2283 180.956 95.1998 178.69 94.1006 175.95C93.1606 173.63 92.0306 168.36 95.6906 167.88C97.3797 167.783 99.0726 167.986 100.691 168.48C102.391 168.89 104.181 169.61 105.021 171.26C105.227 171.58 105.358 171.942 105.404 172.32C105.451 172.697 105.412 173.081 105.29 173.441C105.168 173.801 104.966 174.13 104.699 174.401C104.433 174.673 104.109 174.881 103.751 175.01C103.042 175.26 102.279 175.319 101.541 175.18C101.232 175.127 100.93 175.04 100.641 174.92C100.415 174.824 100.198 174.711 99.9906 174.58C99.7547 174.407 99.5825 174.161 99.5006 173.88C100.631 174.51 101.641 172.78 100.501 172.15C100.17 171.95 99.7894 171.851 99.4037 171.863C99.018 171.875 98.644 171.998 98.3269 172.218C98.0098 172.438 97.763 172.745 97.6164 173.102C97.4698 173.459 97.4296 173.851 97.5006 174.23C97.7706 176.03 99.8806 176.94 101.501 177.16C104.961 177.63 108.411 175.01 107.241 171.29C105.931 167.13 100.961 166.16 97.1706 165.86C96.2639 165.705 95.3324 165.791 94.4691 166.108C93.6058 166.426 92.8408 166.964 92.2506 167.67C91.0906 169.25 91.1106 171.42 91.3606 173.27C91.6295 175.233 92.3058 177.118 93.3461 178.804C94.3865 180.49 95.7679 181.939 97.4017 183.06C99.0355 184.181 100.886 184.947 102.833 185.311C104.781 185.674 106.783 185.626 108.711 185.17C110.617 184.675 112.394 183.773 113.92 182.527C115.445 181.28 116.683 179.719 117.548 177.949C118.414 176.179 118.886 174.244 118.933 172.274C118.98 170.305 118.601 168.349 117.821 166.54C114.071 158.25 104.821 156.54 96.4206 156.23C97.0866 155.06 97.4925 153.761 97.6106 152.42H97.8406C98.1291 152.488 98.4242 152.525 98.7206 152.53L175.551 152.02C178.58 156.804 182.588 160.894 187.311 164.02C193.071 167.74 199.771 169.72 206.441 171.02H206.541C206.741 192.633 206.684 214.24 206.371 235.84C206.291 241.3 206.191 246.76 206.071 252.22C201.519 247.688 195.411 245.063 188.991 244.88C188.725 244.88 188.471 244.985 188.284 245.173C188.096 245.36 187.991 245.615 187.991 245.88C187.991 246.145 188.096 246.399 188.284 246.587C188.471 246.775 188.725 246.88 188.991 246.88C194.365 247.043 199.515 249.069 203.561 252.61C200.166 252.223 196.735 252.297 193.361 252.83C189.761 253.39 185.211 254.23 183.021 257.47C182.301 258.53 184.021 259.54 184.751 258.47C185.778 257.177 187.218 256.277 188.831 255.92C192.828 254.668 197.019 254.15 201.201 254.39C197.871 255.453 194.892 257.398 192.581 260.02C191.741 261.02 193.151 262.41 193.991 261.43C195.548 259.64 197.453 258.185 199.589 257.153C201.726 256.122 204.05 255.536 206.421 255.43C206.622 255.421 206.815 255.347 206.971 255.22C207.109 255.231 207.247 255.213 207.378 255.168C207.509 255.123 207.629 255.051 207.73 254.957C207.832 254.863 207.912 254.749 207.968 254.622C208.023 254.495 208.051 254.358 208.051 254.22C208.511 232.487 208.714 210.747 208.661 189C208.661 183.12 208.624 177.24 208.551 171.36C215.241 172.648 222.009 173.49 228.811 173.88C236.129 174.359 243.477 173.632 250.561 171.73C252.282 171.229 253.978 170.641 255.641 169.97C257.538 191.107 258.063 212.345 257.211 233.55C256.964 239.55 256.607 245.55 256.141 251.55C256.128 251.679 256.145 251.809 256.19 251.93C256.235 252.051 256.307 252.161 256.401 252.25C256.419 252.387 256.466 252.519 256.539 252.637C256.611 252.755 256.707 252.857 256.821 252.936C256.935 253.015 257.064 253.069 257.2 253.096C257.336 253.122 257.476 253.12 257.611 253.09C263.17 251.712 268.988 251.767 274.521 253.25C274.777 253.32 275.05 253.286 275.281 253.155C275.511 253.023 275.68 252.806 275.751 252.55C275.821 252.294 275.787 252.021 275.655 251.79C275.524 251.559 275.307 251.39 275.051 251.32C270.696 250.15 266.161 249.811 261.681 250.32C265.403 248.266 269.47 246.91 273.681 246.32C273.807 246.285 273.926 246.226 274.03 246.145C274.134 246.065 274.221 245.964 274.286 245.85C274.351 245.736 274.392 245.61 274.409 245.479C274.425 245.349 274.416 245.217 274.381 245.09C274.346 244.963 274.287 244.844 274.206 244.741C274.125 244.637 274.025 244.55 273.911 244.485C273.797 244.42 273.671 244.378 273.54 244.362C273.41 244.345 273.277 244.355 273.151 244.39C269.324 244.93 265.609 246.085 262.151 247.81C263.783 245.759 265.73 243.98 267.921 242.54C268.991 241.84 267.991 240.11 266.921 240.82C263.363 243.132 260.408 246.258 258.301 249.94C259.84 229.191 260.061 208.366 258.961 187.59C258.641 181.59 258.211 175.59 257.671 169.59C257.654 169.429 257.6 169.275 257.511 169.14C266.291 165.189 274.011 159.216 280.041 151.71C284.772 152.164 289.424 153.23 293.881 154.88C319.491 164.53 309.331 194.33 306.191 214.36C304.721 223.77 303.781 233.74 306.971 242.92C310.611 253.36 318.971 260.52 329.221 264.2C341.091 268.45 354.161 268.27 366.591 268.58L374.511 268.78C380.931 279.05 390.891 286.78 401.921 291.62C404.354 292.683 406.845 293.611 409.381 294.4C405.771 296.63 401.971 298.9 397.721 299.56C393.161 300.26 388.721 297.92 384.221 298.69C382.233 299.181 380.332 299.97 378.581 301.03C376.592 301.998 374.493 302.724 372.331 303.19C368.031 304.19 363.601 304.67 359.451 306.26C358.391 306.67 358.691 308.26 359.621 308.26C359.645 308.315 359.683 308.363 359.731 308.4C365.631 313.56 371.641 318.8 378.731 322.33C382.391 324.16 386.021 325.67 389.161 328.33C392.301 330.99 395.451 334.21 398.561 337.17L407.381 345.56C404.981 344.93 402.581 344.34 400.151 343.83C397.59 341.372 394.542 339.479 391.204 338.273C387.865 337.067 384.311 336.575 380.771 336.83C379.501 336.93 379.491 338.93 380.771 338.83C386.218 338.422 391.636 339.929 396.091 343.09L395.601 343C391.051 342.29 386.191 341.86 382.031 344.23C381.813 344.368 381.657 344.585 381.596 344.836C381.534 345.086 381.572 345.351 381.701 345.574C381.83 345.798 382.041 345.962 382.288 346.034C382.536 346.106 382.802 346.079 383.031 345.96C387.101 343.64 392.091 344.4 396.491 345.17C396.971 345.25 397.491 345.36 397.931 345.45C393.618 346.284 389.632 348.331 386.441 351.35C385.511 352.24 386.931 353.66 387.861 352.77C391.731 349.101 396.858 347.051 402.191 347.04C402.36 347.043 402.526 346.999 402.671 346.913C402.816 346.826 402.934 346.7 403.011 346.55C405.721 347.2 408.411 347.92 411.091 348.64C411.347 348.711 411.62 348.678 411.852 348.548C412.084 348.418 412.254 348.201 412.326 347.945C412.397 347.689 412.364 347.415 412.234 347.183C412.104 346.952 411.887 346.781 411.631 346.71L411.131 346.58C411.087 346.415 410.997 346.265 410.871 346.15C404.501 340.09 398.231 333.91 391.741 327.98C388.834 325.373 385.538 323.237 381.971 321.65C378.359 319.985 374.916 317.976 371.691 315.65C368.251 313.15 365.041 310.37 361.841 307.58C365.511 306.45 369.351 305.97 373.101 305.08C375.148 304.62 377.141 303.949 379.051 303.08C381.121 302.08 383.051 300.77 385.391 300.59C387.731 300.41 390.131 301.11 392.481 301.47C394.538 301.831 396.643 301.831 398.701 301.47C403.121 300.66 407.091 298.24 410.861 295.91C411.014 295.821 411.138 295.69 411.218 295.532C411.298 295.374 411.33 295.196 411.311 295.02C421.996 297.941 433.132 298.853 444.151 297.71C449.021 297.281 453.858 296.533 458.631 295.47C473.631 302.67 490.571 302.82 506.441 306.99C494.631 318.16 479.971 325.69 467.621 336.22C464.01 339.262 460.683 342.626 457.681 346.27C457.582 346.385 457.51 346.522 457.472 346.669C457.434 346.817 457.43 346.971 457.461 347.12C457.422 347.301 457.431 347.49 457.487 347.667C457.543 347.844 457.644 348.003 457.78 348.129C457.916 348.255 458.083 348.344 458.263 348.386C458.444 348.428 458.633 348.423 458.811 348.37C458.896 348.49 459.014 348.583 459.15 348.637C459.287 348.692 459.436 348.707 459.581 348.68C467.575 347.684 475.692 348.575 483.281 351.28C484.501 351.71 485.021 349.78 483.811 349.35C478.15 347.338 472.188 346.303 466.181 346.29C475.461 344.94 485.181 347.9 493.991 350.68C495.221 351.06 495.751 349.13 494.521 348.75C485.971 346.06 476.831 343.4 467.901 344.15C474.667 341.639 481.797 340.248 489.011 340.03C490.291 340.03 490.301 338.03 489.011 338.03C479.615 338.31 470.377 340.519 461.871 344.52C472.351 333.17 486.161 325.61 498.401 316.35C502.171 313.531 505.756 310.472 509.131 307.19C509.254 307.066 509.343 306.912 509.388 306.744C509.434 306.575 509.434 306.397 509.39 306.229C509.345 306.06 509.257 305.905 509.135 305.781C509.012 305.657 508.859 305.567 508.691 305.52C493.251 301.14 476.561 301.1 461.691 294.69C469.811 292.44 477.451 288.69 482.971 282.36C485.612 279.268 487.78 275.8 489.401 272.07C498.641 272.25 507.881 272.33 517.101 272.22C538.401 271.98 563.101 267.46 572.191 245.43C579.901 226.65 573.041 205.16 570.031 186.11C568.531 176.62 567.221 165.89 570.971 156.74C576.121 144.22 589.441 140.46 601.871 139.96C617.801 139.31 633.871 140.4 649.871 140.78C650.141 141.4 650.401 142.02 650.691 142.64C656.315 154.445 666.008 163.825 677.991 169.06C680.494 170.184 683.07 171.139 685.701 171.92C686.901 192.56 687.501 213.257 687.501 234.01C687.501 239.39 687.454 244.773 687.361 250.16C683.889 244.43 678.98 239.708 673.121 236.46C671.991 235.84 670.981 237.57 672.121 238.19C676.399 240.552 680.16 243.748 683.181 247.59C680.156 246.165 676.8 245.594 673.474 245.937C670.148 246.281 666.98 247.527 664.311 249.54C663.311 250.31 664.311 252.05 665.311 251.27C667.783 249.366 670.746 248.205 673.853 247.922C676.961 247.638 680.085 248.245 682.861 249.67C677.815 249.424 672.807 250.665 668.461 253.24C668.243 253.378 668.087 253.595 668.026 253.846C667.964 254.096 668.002 254.361 668.131 254.584C668.26 254.808 668.471 254.972 668.718 255.044C668.966 255.116 669.232 255.089 669.461 254.97C674.548 251.944 680.583 250.927 686.381 252.12C686.651 252.36 686.911 252.59 687.161 252.85C687.279 252.961 687.422 253.041 687.578 253.085C687.735 253.128 687.899 253.133 688.058 253.098C688.216 253.064 688.364 252.991 688.488 252.887C688.612 252.783 688.709 252.65 688.771 252.5C688.936 252.429 689.077 252.31 689.175 252.158C689.273 252.007 689.323 251.83 689.321 251.65C689.681 230.837 689.427 210.023 688.561 189.21C688.331 183.6 688.041 177.99 687.721 172.38C698.295 175.024 709.31 175.399 720.041 173.48C725.324 172.6 730.52 171.262 735.571 169.48C735.124 190.38 734.957 211.28 735.071 232.18C735.111 238.24 735.174 244.307 735.261 250.38C735.254 250.608 735.334 250.831 735.484 251.003C735.634 251.175 735.844 251.285 736.071 251.31C736.123 251.429 736.202 251.535 736.301 251.619C736.4 251.704 736.516 251.765 736.642 251.799C736.767 251.832 736.899 251.837 737.027 251.813C737.155 251.789 737.276 251.737 737.381 251.66C741.061 249.138 745.513 247.999 749.952 248.441C754.391 248.884 758.531 250.881 761.641 254.08C762.541 255 763.961 253.59 763.061 252.66C759.956 249.487 755.923 247.383 751.544 246.651C747.166 245.92 742.668 246.599 738.701 248.59C740.761 245.31 745.471 244.59 749.011 244.21C749.276 244.21 749.53 244.105 749.718 243.917C749.905 243.729 750.011 243.475 750.011 243.21C750.011 242.945 749.905 242.69 749.718 242.503C749.53 242.315 749.276 242.21 749.011 242.21C746.255 242.393 743.55 243.042 741.011 244.13C740.331 244.469 739.69 244.881 739.101 245.36L742.551 239.29C743.931 236.88 745.551 233.56 748.751 233.37C750.031 233.29 750.041 231.29 748.751 231.37C745.221 231.58 743.041 234.43 741.411 237.26C740.011 239.69 738.631 242.14 737.241 244.58C737.021 225.153 737.041 205.723 737.301 186.29C737.387 180.437 737.494 174.587 737.621 168.74C744.798 166.109 751.332 161.981 756.791 156.63C760.67 152.563 763.835 147.871 766.151 142.75C778.621 143.03 791.071 143.47 803.471 144.29C815.871 145.11 829.711 147.81 836.941 159.01C842.791 168.07 842.401 179.54 841.431 189.85C839.581 209.55 832.791 232.85 844.371 250.85C858.431 272.79 888.231 271.07 910.991 270.91H914.091C920.775 281.37 930.238 289.763 941.421 295.15C939.361 298.4 935.141 299.15 931.581 299.53C926.841 299.99 922.071 299.78 917.321 299.87C909.471 300.01 901.141 301.2 895.141 306.72C894.351 307.45 895.211 308.55 896.071 308.38C896.096 308.447 896.13 308.511 896.171 308.57C907.666 321.706 920.792 333.32 935.231 343.13C936.641 344.08 938.071 345.02 939.501 345.94C933.771 343.817 927.846 342.266 921.811 341.31C920.551 341.11 920.011 343.04 921.281 343.24C928.176 344.35 934.923 346.243 941.391 348.88C936.034 348.347 930.627 348.712 925.391 349.96C924.141 350.26 924.671 352.19 925.921 351.89C930.449 350.807 935.115 350.416 939.761 350.73C937.933 351.248 936.168 351.969 934.501 352.88C934.283 353.018 934.127 353.235 934.066 353.486C934.004 353.736 934.042 354.001 934.171 354.224C934.3 354.448 934.511 354.612 934.758 354.684C935.006 354.756 935.272 354.729 935.501 354.61C938.844 352.762 942.6 351.789 946.421 351.78C946.523 351.775 946.624 351.755 946.721 351.72C946.911 351.77 947.111 351.8 947.301 351.84C947.429 351.871 947.562 351.877 947.692 351.856C947.822 351.836 947.947 351.79 948.06 351.721C948.172 351.653 948.27 351.562 948.347 351.456C948.425 351.349 948.48 351.228 948.511 351.1C948.694 351.041 948.856 350.931 948.978 350.783C949.101 350.634 949.177 350.454 949.199 350.263C949.222 350.072 949.188 349.878 949.103 349.706C949.018 349.533 948.885 349.389 948.721 349.29C933.775 340.635 919.997 330.107 907.721 317.96C904.247 314.52 900.914 310.96 897.721 307.28C904.131 302.2 912.911 301.9 920.781 301.9C925.381 301.9 930.051 302.01 934.591 301.2C938.001 300.59 941.421 299.2 943.291 296.11C943.291 296.11 943.291 296.11 943.291 296.05C956.142 301.482 970.376 302.738 983.981 299.64C987.468 298.863 990.886 297.803 994.201 296.47C994.37 296.62 994.585 296.708 994.811 296.72C999.067 296.816 1003.31 297.24 1007.5 297.99C1009.55 298.398 1011.56 298.994 1013.5 299.77C1015.37 300.649 1017.27 301.43 1019.22 302.11C1023.22 303.27 1027.46 302.78 1031.54 303.37C1035.55 303.949 1039.45 305.094 1043.13 306.77C1038.03 313.275 1031.79 318.801 1024.72 323.08C1017.23 327.59 1008.72 330.44 1002 336.18C998.657 338.957 996.076 342.539 994.501 346.59C994.421 346.761 994.403 346.954 994.45 347.137C994.498 347.319 994.608 347.48 994.761 347.59C994.804 347.743 994.882 347.883 994.991 348C994.99 348.152 995.024 348.303 995.091 348.44C995.1 348.584 995.141 348.725 995.21 348.852C995.279 348.979 995.375 349.09 995.491 349.176C995.607 349.263 995.74 349.323 995.882 349.353C996.023 349.383 996.17 349.382 996.311 349.35C999.244 348.82 1002.26 348.907 1005.15 349.606C1008.05 350.305 1010.77 351.601 1013.14 353.41C1014.14 354.19 1015.57 352.78 1014.56 351.99C1010.8 349.087 1006.25 347.38 1001.5 347.09C1006.08 346.028 1010.89 346.513 1015.17 348.47C1016.33 349.01 1017.35 347.28 1016.17 346.74C1011.41 344.533 1006.05 343.984 1000.94 345.18C1003.77 343.855 1006.82 343.062 1009.94 342.84C1011.22 342.75 1011.22 340.75 1009.94 340.84C1005.51 341.142 1001.22 342.514 997.441 344.84C1000.89 338.3 1007.63 334.16 1014.07 330.84C1018.12 328.78 1022.25 326.89 1026.13 324.52C1033.58 319.973 1040.1 314.067 1045.37 307.11C1045.51 306.953 1045.58 306.748 1045.56 306.54C1045.55 306.333 1045.46 306.138 1045.3 306C1045.3 305.839 1045.26 305.682 1045.17 305.548C1045.08 305.414 1044.95 305.31 1044.8 305.25C1040.92 303.398 1036.8 302.111 1032.55 301.43C1028.35 300.78 1023.88 301.31 1019.79 300.11C1017.66 299.49 1015.71 298.41 1013.65 297.61C1011.71 296.862 1009.7 296.29 1007.65 295.9C1004.4 295.315 1001.12 294.954 997.821 294.82C1005.87 291.044 1013.02 285.608 1018.82 278.87C1021.12 276.151 1023.21 273.256 1025.06 270.21C1036.79 270.31 1048.59 270.44 1060.19 269.31C1071.52 268.2 1083.19 265.31 1091.58 257.2C1106.3 242.98 1103.58 221.2 1100.8 202.87C1097.93 183.65 1092.04 156.52 1113.49 145.59C1119.07 142.919 1125.11 141.347 1131.28 140.96C1132.01 142.29 1132.77 143.6 1133.59 144.88C1140.58 155.906 1150.9 164.418 1163.05 169.18C1163.87 169.51 1164.7 169.81 1165.54 170.09C1165.47 170.222 1165.43 170.369 1165.42 170.52C1164.16 192.52 1163.57 214.56 1163.65 236.64C1163.65 240.3 1163.69 243.967 1163.76 247.64C1162.42 245.32 1160.39 243.469 1157.96 242.34C1157.85 242.273 1157.72 242.23 1157.59 242.212C1157.46 242.194 1157.33 242.202 1157.2 242.235C1157.07 242.269 1156.95 242.327 1156.85 242.407C1156.74 242.487 1156.66 242.586 1156.59 242.7C1156.52 242.813 1156.48 242.939 1156.46 243.069C1156.44 243.2 1156.45 243.332 1156.49 243.46C1156.52 243.587 1156.58 243.706 1156.66 243.811C1156.74 243.916 1156.84 244.004 1156.95 244.07C1158.67 244.855 1160.17 246.059 1161.31 247.571C1162.45 249.084 1163.19 250.857 1163.47 252.73C1160.28 248.951 1155.91 246.355 1151.06 245.36C1149.8 245.12 1149.26 247.04 1150.52 247.29C1154.91 248.169 1158.88 250.48 1161.81 253.86C1155.81 252.09 1148.92 251.16 1144.19 256.1C1143.3 257.02 1144.71 258.44 1145.6 257.51C1150.48 252.43 1158.08 254.65 1163.89 256.61C1164 256.727 1164.14 256.815 1164.3 256.866C1164.45 256.917 1164.62 256.929 1164.78 256.901C1164.94 256.874 1165.09 256.807 1165.22 256.708C1165.35 256.608 1165.45 256.478 1165.52 256.33C1165.64 256.245 1165.74 256.131 1165.8 255.998C1165.86 255.864 1165.89 255.717 1165.88 255.57C1165.42 233.523 1165.63 211.477 1166.5 189.43C1166.75 183.203 1167.06 176.97 1167.41 170.73C1178.58 174.038 1190.37 174.722 1201.85 172.73C1206.29 172.009 1210.66 170.939 1214.93 169.53C1215.32 190.33 1215.32 211.133 1214.93 231.94C1214.81 237.77 1214.65 243.6 1214.48 249.44C1214.47 249.607 1214.51 249.774 1214.59 249.919C1214.68 250.065 1214.8 250.183 1214.95 250.26C1215.05 250.44 1215.19 250.592 1215.36 250.7C1215.4 250.8 1215.46 250.891 1215.54 250.967C1215.62 251.044 1215.71 251.104 1215.81 251.145C1215.91 251.186 1216.02 251.207 1216.13 251.206C1216.23 251.205 1216.34 251.183 1216.44 251.14C1221 249.5 1224.9 253.41 1227.76 256.4C1228.65 257.34 1230.06 255.92 1229.17 254.99C1226.69 252.4 1223.53 249.46 1219.92 248.85C1222.04 248.107 1224.29 247.812 1226.53 247.984C1228.76 248.156 1230.94 248.792 1232.92 249.85C1234.05 250.47 1235.06 248.75 1233.92 248.13C1229.87 245.944 1225.15 245.362 1220.69 246.5C1223.29 243.871 1226.57 242.027 1230.17 241.18C1231.42 240.88 1230.89 238.95 1229.64 239.25C1224.49 240.492 1219.97 243.58 1216.94 247.93C1216.79 248 1216.64 248.07 1216.5 248.15C1217.08 227.69 1217.34 207.22 1217.17 186.75C1217.13 180.79 1217.05 174.833 1216.93 168.88C1216.93 168.88 1216.93 168.88 1216.93 168.82C1224.62 166.142 1231.72 162.03 1237.87 156.7C1242.36 152.623 1245.98 147.676 1248.5 142.16L1309.66 142.97L1359.37 143.64C1359.33 148.133 1359.29 152.63 1359.24 157.13C1359.23 157.81 1359.39 158.482 1359.72 159.08C1359.95 159.854 1360.44 160.528 1361.1 160.997C1361.76 161.466 1362.55 161.702 1363.36 161.67H1383.42C1383.82 162.183 1384.29 162.647 1384.8 163.05C1380.02 171.531 1377.29 181.018 1376.85 190.745C1376.4 200.472 1378.25 210.168 1382.24 219.05C1382.95 220.923 1383.89 222.698 1385.05 224.33C1385.54 225.042 1386.24 225.578 1387.06 225.857C1387.87 226.137 1388.76 226.145 1389.58 225.88C1391.36 225.17 1392.28 222.88 1393.02 221.23C1394.74 217.214 1395.92 212.987 1396.53 208.66C1398.99 193.906 1397.86 178.778 1393.25 164.55C1393.21 164.442 1393.15 164.341 1393.08 164.25C1393.91 163.906 1394.67 163.394 1395.3 162.747C1395.92 162.1 1396.41 161.331 1396.73 160.487C1397.05 159.643 1397.19 158.743 1397.15 157.842C1397.11 156.942 1396.88 156.059 1396.48 155.25C1396.17 154.695 1395.79 154.189 1395.33 153.75C1394.6 152.807 1393.67 152.038 1392.61 151.5C1397.05 145 1398.8 137.13 1399.8 129.41C1400.99 119.99 1401.78 110.09 1399.06 100.88ZM237.661 48.9399C241.221 49.2599 244.761 49.7199 248.291 50.2399C248.453 50.3796 248.639 50.4881 248.841 50.5599C260.291 54.4299 272.541 58.6299 280.701 68.0499C283.395 71.2142 285.585 74.7763 287.191 78.6099C284.851 81.0365 282.494 83.4532 280.121 85.8599C280.184 83.2644 279.622 80.6918 278.481 78.3599C277.51 76.1315 276.257 74.0376 274.751 72.1299C274.905 72.0168 275.027 71.8643 275.103 71.6882C275.178 71.5121 275.205 71.319 275.181 71.1289C275.156 70.9388 275.081 70.7588 274.963 70.6077C274.845 70.4566 274.689 70.3399 274.511 70.2699C269.311 68.3799 262.981 68.1499 258.331 71.5599L258.181 71.6899C256.631 65.4399 251.181 60.5099 245.181 58.4899C245.024 58.4363 244.857 58.4252 244.695 58.4579C244.533 58.4905 244.383 58.5657 244.26 58.6757C244.136 58.7857 244.045 58.9265 243.994 59.0836C243.943 59.2408 243.935 59.4086 243.971 59.5699C241.872 59.485 239.788 59.9576 237.932 60.9395C236.075 61.9214 234.512 63.3776 233.401 65.1599C230.511 69.9299 231.501 76.3699 235.111 80.4699C237.016 82.5073 239.428 84.0028 242.1 84.8039C244.772 85.605 247.609 85.683 250.321 85.0299C251.459 84.7539 252.553 84.3197 253.571 83.7399C253.641 83.9599 253.701 84.1799 253.781 84.4099C255.781 89.7999 261.331 92.4899 266.691 93.3199C268.677 93.6458 270.704 93.6458 272.691 93.3199C267.251 98.7065 261.737 104.04 256.151 109.32C251.364 113.8 246.521 118.23 241.621 122.61L222.371 61.6499L218.321 48.8799C224.755 48.2898 231.23 48.3099 237.661 48.9399ZM267.661 88.2299C267.62 87.2441 267.367 86.2789 266.918 85.4003C266.469 84.5217 265.835 83.7506 265.061 83.1399C264.514 82.7465 263.878 82.4956 263.211 82.4099C262.783 82.1023 262.284 81.9095 261.761 81.8499C261.674 81.7849 261.58 81.7312 261.481 81.6899C261.049 81.5593 260.595 81.5191 260.148 81.5718C259.7 81.6244 259.268 81.7688 258.878 81.9959C258.489 82.223 258.151 82.5279 257.884 82.8916C257.618 83.2553 257.43 83.67 257.331 84.1099C257.132 84.9966 257.216 85.9233 257.571 86.7599C257.083 86.2059 256.654 85.6027 256.291 84.9599C255.867 84.1828 255.573 83.3417 255.421 82.4699C255.999 81.9679 256.51 81.3932 256.941 80.7599C258.209 78.74 258.759 76.3511 258.501 73.9799L258.691 73.7999C262.221 70.6699 267.161 70.4099 271.591 71.4899C271.618 71.5497 271.652 71.6066 271.691 71.6599C274.791 75.0099 277.691 79.6599 278.091 84.2799C278.253 85.4128 278.097 86.5688 277.64 87.618C277.182 88.6672 276.442 89.5681 275.501 90.2199C273.332 91.4676 270.799 91.9269 268.331 91.5199C267.881 91.5199 267.441 91.4199 266.991 91.3499C267.095 91.2422 267.188 91.1251 267.271 90.9999C267.682 90.1379 267.801 89.1656 267.611 88.2299H267.661ZM244.691 75.4599C244.278 75.47 243.868 75.5304 243.471 75.6399C243.471 75.6399 243.421 75.6399 243.381 75.5899C242.772 75.4089 242.124 75.4069 241.514 75.5843C240.904 75.7616 240.358 76.1107 239.941 76.5899C239.511 77.1298 239.224 77.7683 239.103 78.4475C238.983 79.1267 239.033 79.8252 239.251 80.4799C239.395 80.8954 239.59 81.2917 239.831 81.6599C239.187 81.307 238.578 80.8953 238.011 80.4299C236.201 78.9545 234.88 76.9663 234.222 74.7264C233.563 72.4865 233.598 70.0998 234.321 67.8799C235.174 65.5654 236.879 63.6644 239.087 62.5658C241.295 61.4672 243.84 61.254 246.201 61.9699C246.404 62.0511 246.631 62.0506 246.834 61.9686C247.037 61.8867 247.201 61.7295 247.291 61.5299C250.788 63.317 253.615 66.1861 255.351 69.7099C255.889 70.8341 256.25 72.035 256.421 73.2699C254.303 75.5108 253.156 78.4976 253.231 81.5799C252.611 82.0001 251.939 82.3364 251.231 82.5799C250.414 82.8908 249.565 83.1121 248.701 83.2399C249.092 82.7922 249.389 82.2699 249.573 81.7044C249.756 81.139 249.824 80.5421 249.771 79.9499C249.643 78.7001 249.049 77.5443 248.108 76.7124C247.167 75.8804 245.947 75.4332 244.691 75.4599ZM257.501 165.88C244.921 171.88 230.881 171.59 217.381 169.71C204.591 167.94 191.161 165.53 182.051 155.54C181.018 154.404 180.053 153.209 179.161 151.96L202.071 151.81L213.501 151.78C214.443 152.774 215.497 153.656 216.641 154.41C218.941 155.92 222.731 157.56 225.471 156.41C227.721 155.41 227.631 153.58 226.951 151.73L238.851 151.65C238.151 153.65 238.181 155.54 240.341 156.73C243.541 158.51 247.971 157.14 250.811 155.27C252.34 154.255 253.691 152.995 254.811 151.54C261.811 151.44 269.181 151.08 276.391 151.54C271.14 157.561 264.711 162.441 257.501 165.88ZM281.861 144.03C274.26 143.316 266.62 143.093 258.991 143.36C259.501 141.93 259.991 140.47 260.411 139.01C260.721 139.589 261.148 140.097 261.664 140.503C262.181 140.909 262.775 141.204 263.411 141.37C264.297 141.508 265.204 141.381 266.019 141.006C266.833 140.63 267.519 140.023 267.991 139.26C268.596 138.346 269.03 137.329 269.271 136.26C269.542 136.849 269.96 137.358 270.486 137.739C271.011 138.119 271.626 138.357 272.271 138.43C273.855 138.506 275.426 138.106 276.781 137.28C278.265 136.603 279.593 135.626 280.681 134.41C285.371 128.76 281.021 121.41 279.681 115.41C279.391 114.16 277.461 114.69 277.751 115.94C278.861 120.82 282.111 126.09 280.281 131.19C279.401 133.65 277.081 135.14 274.741 136.06C273.501 136.55 271.981 136.83 271.161 135.52C270.649 134.514 270.388 133.399 270.401 132.27C270.436 132.005 270.365 131.736 270.203 131.523C270.041 131.31 269.801 131.171 269.536 131.135C269.27 131.099 269.002 131.17 268.789 131.332C268.576 131.495 268.436 131.735 268.401 132C267.571 134.11 267.471 139.28 264.401 139.47C262.971 139.55 261.961 137.99 261.771 136.74C261.68 135.99 261.734 135.229 261.931 134.5C262.291 133.45 262.671 132.4 263.111 131.37C263.551 130.34 261.731 129.56 261.281 130.6C260.784 131.669 260.372 132.776 260.051 133.91C257.481 141.66 255.851 151.35 247.691 154.66C245.891 155.39 243.261 155.94 241.461 154.93C240.081 154.17 240.521 152.84 241.101 151.68C241.681 150.52 242.351 149.4 242.971 148.26L250.501 134.37C251.121 133.24 249.391 132.23 248.771 133.37L243.161 143.59L223.241 143.72C221.981 140.987 220.717 138.257 219.451 135.53C218.911 134.37 217.191 135.38 217.721 136.53L221.061 143.73H220.951L221.311 144.28C221.911 145.58 222.521 146.87 223.121 148.17C223.531 149.07 223.951 149.96 224.361 150.86C224.771 151.76 225.881 153.31 225.231 154.16C224.231 155.43 221.431 154.47 220.231 154.03C214.501 151.88 211.501 146.29 209.341 140.75C209.164 139.247 208.633 137.807 207.791 136.55C207.241 135.6 205.581 136.23 205.971 137.32C206.411 138.59 206.871 139.87 207.361 141.15C207.335 141.453 207.25 141.749 207.111 142.02C206.331 143.47 204.111 142.79 203.111 142.09C201.251 140.89 200.581 138.83 200.331 136.71C200.599 136.087 200.712 135.409 200.66 134.733C200.607 134.057 200.392 133.404 200.031 132.83C199.921 132.636 199.75 132.485 199.545 132.4C199.34 132.314 199.112 132.299 198.897 132.358C198.683 132.416 198.494 132.545 198.361 132.723C198.227 132.9 198.157 133.118 198.161 133.34C198.161 134.26 198.221 135.24 198.331 136.21C197.975 136.792 197.426 137.23 196.781 137.45C195.061 138.03 193.261 137.25 191.871 136.25C190.481 135.25 188.871 133.89 188.931 132.13C188.931 130.13 190.751 128.76 192.111 127.61C193.111 126.77 191.671 125.36 190.701 126.19C188.701 127.89 186.501 130.1 186.991 132.98C187.411 135.46 189.831 137.51 191.991 138.65C193.017 139.273 194.195 139.603 195.396 139.603C196.596 139.603 197.774 139.273 198.801 138.65C198.993 139.693 199.391 140.687 199.972 141.574C200.552 142.462 201.303 143.225 202.181 143.82L174.721 144C171.331 136.31 169.921 127.7 169.721 119.32C169.361 106.69 170.531 93.4099 174.721 81.3999C176.547 75.7823 179.347 70.5291 182.991 65.8799C186.943 61.1324 191.858 57.2775 197.411 54.5699C203.354 51.6912 209.74 49.8352 216.301 49.0799L234.601 106.97L240.181 124.59C240.227 124.758 240.317 124.911 240.442 125.034C240.566 125.157 240.72 125.245 240.889 125.289C241.058 125.334 241.236 125.333 241.405 125.288C241.573 125.242 241.727 125.153 241.851 125.03C257.791 110.83 273.177 96.0365 288.011 80.6499C290.764 88.4321 292.177 96.625 292.191 104.88C292.431 118.03 289.471 131.36 282.701 142.71C282.421 143.16 282.141 143.62 281.851 144.07L281.861 144.03ZM444.951 174.55C447.922 175.494 450.787 176.744 453.501 178.28C453.659 178.369 453.831 178.43 454.011 178.46C461.571 182.39 469.341 186.46 476.061 191.83C468.881 215.46 456.191 236.89 446.201 259.37C444.201 263.83 442.351 268.37 440.641 272.9C441.701 244.84 434.031 217.22 424.561 191.01C422.441 185.16 420.231 179.35 418.001 173.54C426.917 171.52 436.208 171.882 444.941 174.59L444.951 174.55ZM373.731 260.69C365.651 241.82 369.591 218.69 380.451 201.35C386.911 191.05 396.061 182.35 407.151 177.2C410.012 175.872 412.988 174.805 416.041 174.01C426.041 200.01 435.711 226.58 438.171 254.53C438.391 257.11 438.547 259.697 438.641 262.29H438.551L435.791 262.24L420.691 261.87C419.529 257.717 418.611 253.5 417.941 249.24C417.741 247.98 415.811 248.51 416.011 249.78C417.461 258.959 420.051 267.922 423.721 276.46C424.101 277.35 425.081 278.78 424.801 279.79C424.351 281.4 422.651 279.79 422.001 279.2C420.551 277.806 419.303 276.217 418.291 274.48C416.888 272.038 415.793 269.431 415.031 266.72C414.771 265.54 414.471 264.37 414.121 263.2C414.049 262.944 413.879 262.727 413.647 262.597C413.415 262.466 413.142 262.433 412.886 262.505C412.63 262.576 412.413 262.747 412.282 262.978C412.152 263.21 412.119 263.484 412.191 263.74C412.451 264.89 412.761 266.03 413.091 267.17C413.421 268.31 413.551 269.41 413.711 270.55C413.901 271.84 414.011 273.15 414.081 274.45C414.081 275.2 414.411 276.82 414.081 277.52C413.461 278.83 411.791 276.76 411.301 276.24C410.631 275.54 409.991 274.82 409.391 274.06C408.082 272.383 406.93 270.588 405.951 268.7C401.631 260.43 400.671 250.96 400.681 241.76C400.681 241.495 400.575 241.24 400.388 241.053C400.2 240.865 399.946 240.76 399.681 240.76C399.415 240.76 399.161 240.865 398.974 241.053C398.786 241.24 398.681 241.495 398.681 241.76C398.535 248.374 399.302 254.976 400.961 261.38L373.731 260.69ZM485.731 272.69C483.048 278.215 478.896 282.896 473.731 286.22C468.101 289.74 461.631 291.6 455.171 292.9C429.501 298.06 399.651 294.02 381.641 273.24C380.408 271.817 379.263 270.321 378.211 268.76L404.111 269.4C405.443 272.023 407.1 274.469 409.041 276.68C410.101 277.89 411.441 279.6 413.131 279.87C413.485 279.939 413.849 279.931 414.2 279.848C414.551 279.764 414.88 279.606 415.164 279.384C415.448 279.162 415.682 278.882 415.849 278.562C416.015 278.242 416.112 277.89 416.131 277.53C416.243 276.598 416.27 275.657 416.211 274.72C416.958 276.061 417.814 277.339 418.771 278.54C419.81 279.988 421.147 281.198 422.691 282.09C423.324 282.446 424.072 282.54 424.774 282.353C425.476 282.167 426.078 281.713 426.451 281.09C427.361 279.48 426.531 277.74 425.871 276.22C424.951 274.13 424.111 272 423.331 269.85C423.401 269.856 423.471 269.856 423.541 269.85C423.594 269.855 423.647 269.855 423.701 269.85L436.581 270.24C436.67 270.275 436.765 270.295 436.861 270.3H438.631C438.631 270.3 438.731 270.3 438.791 270.3C438.721 273.48 438.571 276.66 438.281 279.82C438.171 281 439.911 281.11 440.281 280.09C441.351 276.87 442.531 273.69 443.771 270.54C443.921 270.633 444.094 270.685 444.271 270.69H448.141H448.271L456.031 270.96C455.33 273.059 455.212 275.309 455.691 277.47C456.041 278.81 456.901 280.01 458.451 279.6C460.001 279.19 461.011 277.6 461.801 276.41C462.132 275.914 462.436 275.4 462.711 274.87C462.943 275.533 463.304 276.145 463.771 276.67C466.361 279.6 470.221 277.84 471.841 274.88C472.412 273.797 472.887 272.666 473.261 271.5C477.601 271.62 481.931 271.75 486.261 271.84C486.001 272.2 485.871 272.49 485.721 272.77L485.731 272.69ZM489.241 263.61L475.971 263.21C475.971 263.1 476.041 262.99 476.081 262.88C477.407 258.926 479.474 255.261 482.171 252.08C483.041 251.13 481.621 249.71 480.761 250.67C476.151 255.76 474.121 262.34 471.961 268.72C471.475 270.354 470.88 271.955 470.181 273.51C469.441 275 467.821 276.9 465.951 275.98C462.551 274.3 464.951 268.98 465.381 266.31C465.581 265.07 463.751 264.5 463.451 265.78C462.913 268.653 462.002 271.443 460.741 274.08C460.157 275.362 459.292 276.497 458.211 277.4C457.811 277.68 457.861 277.68 457.621 277.4C457.439 276.933 457.335 276.44 457.311 275.94C457.237 275.082 457.274 274.218 457.421 273.37C457.951 270.1 459.481 266.96 460.671 263.89C461.957 260.557 463.251 257.223 464.551 253.89C465.011 252.69 463.081 252.17 462.621 253.36L458.941 262.88L449.521 262.64H449.401H446.981C454.861 244.5 464.621 227.16 472.111 208.84C474.201 203.75 476.111 198.57 477.721 193.31C479.872 195.135 481.878 197.124 483.721 199.26C487.899 204.171 490.816 210.027 492.221 216.32C493.731 222.95 493.771 229.84 493.351 236.61C492.976 243.066 492.215 249.495 491.071 255.86C490.581 258.45 489.981 261.09 489.231 263.69L489.241 263.61ZM684.261 52.8799C696.764 47.9801 710.396 46.7081 723.591 49.2099C726.633 49.7746 729.638 50.5227 732.591 51.4499C732.625 51.7199 732.739 51.9738 732.916 52.18C733.094 52.3862 733.329 52.5357 733.591 52.6099C740.199 54.5223 746.311 57.853 751.501 62.3699C739.28 73.7663 728.009 86.1407 717.801 99.3699C714.307 103.903 710.951 108.53 707.731 113.25C701.484 95.6699 694.527 78.3299 686.861 61.2299C685.661 58.5699 684.451 55.9199 683.211 53.2299L684.261 52.8799ZM760.341 147.28C756.959 152.716 752.396 157.32 746.991 160.75C741.492 164.13 735.534 166.696 729.301 168.37C715.681 172.25 700.941 173.2 687.221 169.25C675.751 165.94 664.991 159.15 658.021 149.33C656.135 146.648 654.499 143.799 653.131 140.82L678.881 141.4C679.472 142.739 680.185 144.021 681.011 145.23C682.1 146.844 683.368 148.33 684.791 149.66C685.981 150.75 687.391 152.12 689.131 152.02C689.913 151.913 690.644 151.567 691.223 151.031C691.803 150.494 692.204 149.792 692.371 149.02C692.366 148.96 692.366 148.9 692.371 148.84C693.181 149.952 694.356 150.745 695.691 151.08C696.291 151.225 696.917 151.231 697.521 151.096C698.124 150.962 698.689 150.692 699.171 150.305C699.654 149.919 700.042 149.428 700.305 148.869C700.568 148.31 700.7 147.698 700.691 147.08C700.626 145.599 700.233 144.15 699.541 142.84L699.121 141.89L702.121 141.96C710.121 142.14 718.121 142.24 726.071 142.33C726.075 142.376 726.075 142.423 726.071 142.47C725.425 143.697 725.213 145.107 725.471 146.47C726.311 149.2 729.311 148.47 731.201 147.4C732.086 146.904 732.892 146.276 733.591 145.54C733.591 145.66 733.661 145.78 733.711 145.91C733.979 146.566 734.454 147.117 735.064 147.478C735.675 147.839 736.386 147.991 737.091 147.91C739.921 147.65 742.701 145.02 744.401 142.91C744.491 142.8 744.561 142.69 744.641 142.59C750.701 142.657 756.757 142.747 762.811 142.86C762.071 144.27 761.251 145.77 760.341 147.23V147.28ZM766.001 135.28C761.527 135.22 757.057 135.14 752.591 135.04L748.431 134.95C748.962 132.988 749.297 130.978 749.431 128.95C749.976 129.39 750.633 129.671 751.329 129.761C752.024 129.851 752.731 129.747 753.371 129.46C756.353 128.309 758.89 126.234 760.611 123.54C761.311 122.45 759.611 121.45 758.881 122.54C757.547 124.608 755.654 126.255 753.421 127.29C752.421 127.76 751.251 128.19 750.421 127.17C749.591 126.15 749.791 124.77 749.851 123.6C749.869 123.388 749.809 123.177 749.682 123.008C749.555 122.838 749.369 122.721 749.161 122.68C748.601 122.12 747.391 122.32 747.451 123.33C747.731 128.75 747.231 134.4 744.451 139.17C743.278 141.237 741.671 143.024 739.741 144.41C738.881 145 737.341 146.15 736.231 145.73C734.711 145.16 735.501 142.87 735.831 141.81C736.231 140.56 734.371 140.11 733.911 141.28C733.19 143.09 731.865 144.595 730.161 145.54C729.601 145.85 728.161 146.65 727.561 146.13C726.751 145.45 727.681 143.65 727.971 142.91C729.768 138.679 731.961 134.628 734.521 130.81C735.211 129.72 733.521 128.71 732.801 129.81C731.801 131.37 730.861 132.93 729.931 134.51L695.621 133.73L692.491 126.53C691.981 125.36 690.261 126.37 690.761 127.53C693.151 133.03 695.611 138.53 697.941 144.03C698.574 145.156 698.8 146.466 698.581 147.74C698.498 148.034 698.35 148.305 698.146 148.533C697.943 148.76 697.69 148.938 697.407 149.053C697.125 149.168 696.819 149.217 696.515 149.195C696.21 149.174 695.915 149.083 695.651 148.93C693.411 148.03 692.371 145.18 690.951 143.34L690.801 143.14C690.051 142.23 688.721 143.38 689.231 144.35C689.961 145.72 691.091 147.67 690.091 149.18C688.931 150.92 687.201 149.18 686.171 148.18C682.655 144.946 680.21 140.717 679.163 136.056C678.116 131.396 678.516 126.527 680.311 122.1C680.781 120.9 678.841 120.38 678.381 121.56C676.931 125.293 676.369 129.312 676.741 133.3L650.031 132.69C647.886 125.452 646.729 117.958 646.591 110.41C646.261 97.4099 649.591 84.8399 657.111 74.1699C663.319 65.4892 671.671 58.5644 681.351 54.0699C688.444 69.3099 694.967 84.7932 700.921 100.52C702.781 105.427 704.577 110.357 706.311 115.31C705.601 116.31 707.251 117.31 707.991 116.37C708.127 116.309 708.244 116.213 708.33 116.092C708.416 115.971 708.468 115.828 708.481 115.68C721.237 96.8315 736.062 79.4701 752.681 63.9199L752.951 63.6699C755.784 66.3135 758.325 69.2537 760.531 72.4399C767.821 83.0099 771.071 95.7299 770.921 108.49C770.795 115.406 769.787 122.279 767.921 128.94C767.411 131.08 766.751 133.19 766.001 135.27V135.28ZM981.321 173.83C983.915 174.311 986.477 174.956 988.991 175.76C989.055 176.006 989.181 176.232 989.355 176.418C989.53 176.603 989.748 176.741 989.991 176.82C1001.74 181.035 1011.98 188.634 1019.41 198.66C1024 204.801 1027.45 211.718 1029.59 219.08C1029.36 218.988 1029.1 218.988 1028.86 219.08C1014.12 225.444 1000.49 234.131 988.501 244.81C985.421 247.55 982.501 250.43 979.621 253.42L952.111 194.94L944.241 178.2C955.906 173.145 968.798 171.622 981.321 173.82V173.83ZM992.501 293.94C980.03 298.765 966.372 299.614 953.401 296.37C941.108 293.118 930.109 286.172 921.891 276.47C920.38 274.703 918.965 272.857 917.651 270.94L935.031 270.81C935.785 271.914 936.671 272.922 937.671 273.81C939.581 275.48 942.761 276.05 944.271 273.54C944.729 272.766 944.964 271.88 944.951 270.98C945.704 272.294 946.539 273.56 947.451 274.77C948.501 276.158 949.644 277.474 950.871 278.71C952.022 280.019 953.459 281.045 955.071 281.71C958.671 282.87 960.821 279.42 960.821 276.27C960.792 274.32 960.41 272.392 959.691 270.58L986.331 270.39C985.111 272.22 984.111 274.39 985.961 275.75C988.151 277.34 991.521 275.96 993.461 274.59C995.045 273.396 996.4 271.926 997.461 270.25C997.648 271.115 998.116 271.893 998.793 272.463C999.47 273.033 1000.32 273.362 1001.2 273.4C1004.3 273.74 1007.48 272.23 1009.77 270.22H1012.77C1015.68 270.22 1018.6 270.22 1021.52 270.22C1014.59 280.993 1004.44 289.296 992.501 293.94ZM1014.69 262.26C1015.53 259.12 1015.93 255.879 1015.88 252.63C1016.01 252.739 1016.14 252.839 1016.28 252.93C1016.96 253.369 1017.73 253.623 1018.54 253.666C1019.34 253.71 1020.14 253.543 1020.86 253.18C1023.86 251.68 1024.32 248.06 1025.86 245.41C1025.98 245.181 1026.01 244.915 1025.93 244.668C1025.86 244.42 1025.7 244.21 1025.47 244.081C1025.25 243.952 1024.99 243.914 1024.74 243.975C1024.49 244.036 1024.27 244.192 1024.13 244.41C1022.91 246.52 1022.55 249.41 1020.55 251.02C1020.17 251.354 1019.7 251.573 1019.2 251.651C1018.7 251.729 1018.19 251.663 1017.72 251.46C1017.24 251.223 1016.82 250.867 1016.52 250.427C1016.21 249.986 1016.02 249.474 1015.96 248.94C1015.96 248.675 1015.86 248.42 1015.67 248.233C1015.48 248.045 1015.23 247.94 1014.96 247.94C1014.83 247.938 1014.71 247.962 1014.59 248.01C1014.37 248.038 1014.16 248.151 1014.02 248.326C1013.87 248.501 1013.8 248.724 1013.82 248.95C1014.04 255.02 1014.05 261.73 1010.26 266.85C1008.67 269.05 1006.36 270.621 1003.73 271.29C1002.56 271.56 1000.9 271.77 999.931 270.9C998.961 270.03 999.181 268.23 999.331 266.99C999.461 265.99 997.931 265.68 997.471 266.49C996.397 268.598 995 270.524 993.331 272.2C992.499 272.973 991.533 273.586 990.481 274.01C989.701 274.31 987.971 274.9 987.211 274.25C986.451 273.6 988.211 271.41 988.631 270.75C989.301 269.75 990.001 268.75 990.721 267.75C992.3 265.634 994.003 263.614 995.821 261.7C996.701 260.76 995.291 259.35 994.411 260.29C993.761 260.97 993.131 261.67 992.511 262.38L960.621 262.61H955.861C954.311 259.34 953.161 255.84 954.281 252.22C954.661 250.99 952.731 250.46 952.351 251.69C951.081 255.8 952.351 259.94 954.141 263.69C956.041 267.62 958.751 271.55 958.821 276.07C958.821 278.24 957.671 280.87 955.111 279.57C953.301 278.66 951.761 276.81 950.461 275.3C947.782 272.179 945.649 268.63 944.151 264.8C944.115 264.535 943.975 264.295 943.762 264.132C943.549 263.97 943.281 263.899 943.016 263.935C942.75 263.971 942.51 264.11 942.348 264.323C942.186 264.536 942.115 264.805 942.151 265.07C942.051 267.28 943.381 269.55 942.821 271.73C942.769 272.012 942.653 272.278 942.482 272.508C942.31 272.737 942.088 272.924 941.833 273.054C941.577 273.184 941.295 273.253 941.008 273.256C940.722 273.258 940.439 273.195 940.181 273.07C939.071 272.508 938.129 271.663 937.451 270.62C934.41 266.754 932.472 262.138 931.841 257.26C931.844 257.019 931.807 256.779 931.731 256.55C931.351 255.32 929.421 255.84 929.801 257.08C930.121 258.08 928.861 258.59 928.051 258.48C926.779 258.196 925.641 257.491 924.821 256.48C923.921 255.452 923.318 254.2 923.075 252.856C922.832 251.512 922.958 250.127 923.441 248.85C923.476 248.723 923.485 248.591 923.469 248.46C923.453 248.33 923.411 248.204 923.346 248.09C923.281 247.975 923.194 247.875 923.09 247.795C922.986 247.714 922.867 247.655 922.741 247.62C922.614 247.585 922.482 247.575 922.351 247.592C922.221 247.608 922.095 247.65 921.98 247.715C921.866 247.78 921.766 247.867 921.685 247.971C921.605 248.074 921.545 248.193 921.511 248.32C920.875 250.096 920.783 252.022 921.246 253.851C921.709 255.68 922.706 257.33 924.111 258.59C924.765 259.258 925.561 259.771 926.441 260.092C927.32 260.412 928.259 260.531 929.191 260.44C929.59 260.358 929.969 260.202 930.311 259.98C930.531 260.98 930.781 261.89 931.081 262.82L912.941 262.95C909.763 256.603 907.731 249.744 906.941 242.69C905.622 229.695 908.294 216.608 914.601 205.17C920.853 193.699 930.588 184.511 942.401 178.93C942.411 179.02 942.435 179.107 942.471 179.19L970.551 238.91L978.501 255.67C978.578 255.802 978.685 255.914 978.812 255.998C978.94 256.082 979.085 256.136 979.237 256.155C979.388 256.175 979.542 256.159 979.687 256.11C979.831 256.06 979.963 255.978 980.071 255.87C990.96 244.211 1003.66 234.382 1017.67 226.76C1021.67 224.6 1025.75 222.623 1029.9 220.83C1029.96 220.796 1030.02 220.756 1030.07 220.71C1031.13 224.815 1031.74 229.023 1031.9 233.26C1032.19 243.262 1030.13 253.193 1025.9 262.26C1022.12 262.253 1018.37 262.253 1014.65 262.26H1014.69ZM1202.5 50.5899C1205.95 51.3299 1209.39 52.1599 1212.82 53.0099C1213.04 53.0683 1213.27 53.0742 1213.49 53.0273C1213.71 52.9804 1213.92 52.8819 1214.09 52.7399C1220.67 53.9969 1226.83 56.8621 1232.03 61.0799C1231.16 63.4099 1230.26 65.7299 1229.38 68.0799C1229.29 67.2656 1229.08 66.468 1228.77 65.7099C1227.61 63.0603 1225.67 60.8247 1223.21 59.2969C1220.75 57.7691 1217.89 57.0207 1215 57.1499C1214.86 57.1494 1214.73 57.1777 1214.6 57.2329C1214.47 57.288 1214.36 57.3689 1214.26 57.4705C1214.17 57.572 1214.1 57.6919 1214.05 57.8226C1214.01 57.9533 1213.99 58.092 1214 58.2299C1212.05 58.5057 1210.18 59.2351 1208.56 60.3599C1208.45 59.7859 1208.29 59.2233 1208.08 58.6799C1208.24 58.4987 1208.32 58.2682 1208.32 58.0299C1208.32 57.7915 1208.24 57.561 1208.08 57.3799C1204.88 53.5799 1199.2 53.3799 1194.61 53.5599C1189.82 53.7199 1184.08 55.6899 1183.53 61.2199C1183.02 66.3299 1187.07 70.3099 1191.36 72.2199C1193.75 73.3163 1196.24 74.1738 1198.79 74.7799C1201.18 75.3499 1203.85 75.3099 1205.64 73.3799C1206.25 74.5299 1207.05 75.5654 1208.01 76.4399C1212.01 80.0499 1218.01 80.2199 1222.7 78.0899C1224.12 77.4562 1225.41 76.5759 1226.52 75.4899C1220.84 90.1965 1214.92 104.813 1208.77 119.34C1206.61 124.433 1204.42 129.51 1202.2 134.57C1191.5 112.7 1185.41 88.8799 1181.5 64.9299C1180.58 59.3099 1179.77 53.6799 1179.03 48.0299C1186.84 47.7299 1194.85 48.9499 1202.5 50.5899ZM1214.43 68.4799C1214.02 68.3506 1213.59 68.3061 1213.16 68.3491C1212.74 68.3921 1212.33 68.5217 1211.95 68.7299C1211.36 69.1081 1210.91 69.6605 1210.65 70.3099C1210.52 70.4922 1210.4 70.6863 1210.3 70.8899C1210 71.64 1209.92 72.4585 1210.07 73.2523C1210.21 74.0461 1210.58 74.7832 1211.12 75.3799C1211.6 75.9272 1212.17 76.3873 1212.81 76.7399C1213.1 76.9097 1213.4 77.06 1213.71 77.1899C1212.65 76.952 1211.64 76.5469 1210.71 75.9899C1208.99 74.909 1207.66 73.3034 1206.92 71.4099C1207.69 69.5752 1208.22 67.6495 1208.5 65.6799C1208.69 64.6906 1208.79 63.6867 1208.8 62.6799C1211.45 60.2099 1215.7 59.5499 1219.24 60.2199C1219.4 60.2503 1219.56 60.2417 1219.72 60.1946C1219.87 60.1476 1220.02 60.0636 1220.13 59.9499C1222.4 60.7931 1224.37 62.298 1225.77 64.2699C1226.5 65.1831 1227.01 66.2488 1227.28 67.3878C1227.54 68.5268 1227.54 69.7101 1227.28 70.8499C1226.56 72.8373 1225.14 74.4937 1223.28 75.5099C1221.41 76.6445 1219.29 77.3069 1217.11 77.4399C1217.28 77.3734 1217.45 77.2966 1217.61 77.2099C1218.23 76.8322 1218.73 76.2744 1219.03 75.6099C1220.5 72.3799 1217.39 69.2899 1214.42 68.4799H1214.43ZM1204.78 71.1799C1204.42 71.7867 1203.91 72.2846 1203.29 72.6199C1203.35 72.4201 1203.39 72.2162 1203.42 72.0099C1203.46 71.3455 1203.34 70.6809 1203.05 70.0802C1202.76 69.4795 1202.33 68.9628 1201.78 68.5799C1201.86 68.3646 1201.86 68.1289 1201.79 67.9123C1201.71 67.6957 1201.56 67.5112 1201.37 67.3899C1199.54 66.3794 1197.4 66.0836 1195.37 66.5599C1194.93 66.6762 1194.52 66.8806 1194.16 67.1608C1193.8 67.4409 1193.5 67.791 1193.28 68.1899C1193.08 68.6286 1192.99 69.1098 1193.02 69.5911C1193.05 70.0724 1193.2 70.539 1193.45 70.9499C1189.79 69.4799 1186.02 66.8799 1185.58 62.6199C1185.07 57.6199 1190.2 55.7499 1194.26 55.5599C1197.8 55.3899 1202.26 55.3299 1205.26 57.4499C1205.29 57.588 1205.35 57.718 1205.43 57.8299C1206.3 59.0383 1206.79 60.4807 1206.83 61.9699C1206.35 62.5099 1205.93 63.0961 1205.57 63.7199C1204.95 64.8485 1204.56 66.0891 1204.42 67.3697C1204.29 68.6502 1204.4 69.9453 1204.77 71.1799H1204.78ZM1130.89 133.44C1128.75 128.238 1127.34 122.767 1126.69 117.18C1125.35 104.437 1127.75 91.581 1133.6 80.1799C1139.45 68.6699 1148.65 58.1799 1160.39 52.4599C1165.61 49.989 1171.25 48.5428 1177.01 48.1999C1180.08 71.8899 1184.52 95.5499 1192.9 117.99C1194.9 123.25 1197.09 128.42 1199.48 133.5L1197.05 133.55C1196.9 133.455 1196.73 133.404 1196.55 133.404C1196.37 133.404 1196.2 133.455 1196.05 133.55L1195.99 133.61V133.5L1176.76 133.25C1175.93 129.764 1174.88 126.331 1173.64 122.97C1173.19 121.78 1171.26 122.3 1171.71 123.51C1173.67 128.991 1175.23 134.605 1176.39 140.31C1176.32 140.41 1176.28 140.52 1176.21 140.61C1176.14 140.7 1176.13 141.03 1176.08 141.24H1176.59C1176.87 142.51 1177.14 143.77 1177.42 145.04C1177.6 145.89 1177.79 146.74 1177.96 147.59C1178.02 147.85 1178.4 149.01 1178.14 149.25C1177.72 149.62 1177.21 148.87 1176.99 148.63C1175.85 147.357 1174.9 145.93 1174.17 144.39C1172.71 141.06 1171.67 137.564 1171.06 133.98C1170.83 132.89 1168.96 133.11 1169.06 134.24C1169.28 136.095 1169.38 137.962 1169.36 139.83C1169.36 141.35 1169.53 143.58 1168.1 144.55C1167.45 144.913 1166.69 145.055 1165.95 144.954C1165.21 144.853 1164.52 144.515 1163.99 143.99C1162.79 142.823 1161.93 141.35 1161.51 139.73C1160.48 136.304 1159.9 132.757 1159.8 129.18C1159.64 125.77 1160.03 122.18 1162.62 119.64C1162.79 119.49 1162.89 119.284 1162.91 119.061C1162.93 118.839 1162.87 118.617 1162.73 118.44C1162.68 118.283 1162.59 118.141 1162.47 118.027C1162.35 117.913 1162.2 117.83 1162.04 117.787C1161.88 117.743 1161.72 117.74 1161.56 117.777C1161.39 117.814 1161.24 117.891 1161.12 118C1159.71 119.52 1157.79 120.462 1155.72 120.64C1153.58 120.884 1151.41 120.488 1149.49 119.5C1149.1 119.294 1148.76 119.01 1148.49 118.666C1148.22 118.322 1148.02 117.924 1147.91 117.499C1147.8 117.074 1147.77 116.631 1147.84 116.197C1147.91 115.763 1148.07 115.349 1148.31 114.98C1149.31 113.18 1151.21 112.18 1152.94 111.24C1154.07 110.63 1153.06 108.9 1151.94 109.52C1150.1 110.371 1148.47 111.601 1147.14 113.13C1146.55 113.859 1146.14 114.718 1145.95 115.637C1145.76 116.555 1145.79 117.506 1146.04 118.41C1146.4 119.268 1146.96 120.032 1147.66 120.643C1148.36 121.253 1149.2 121.693 1150.1 121.93C1152.16 122.64 1154.36 122.849 1156.52 122.54C1157.29 122.429 1158.05 122.232 1158.77 121.95C1157.91 124.421 1157.6 127.046 1157.84 129.65C1157.9 130.74 1157.98 131.87 1158.1 133L1153.1 132.93C1145.69 132.697 1138.27 132.868 1130.88 133.44H1130.89ZM1241.65 148.09C1234.21 158.4 1221.95 164.54 1209.97 167.92C1197.75 171.468 1184.83 171.861 1172.42 169.06C1160.25 166.266 1149.29 159.671 1141.12 150.23C1138.61 147.306 1136.39 144.152 1134.48 140.81C1141.16 140.47 1147.93 140.81 1154.29 140.9L1159.71 140.97C1159.65 140.74 1159.6 140.506 1159.57 140.27C1159.84 141.13 1160.18 141.969 1160.57 142.78C1162.14 145.78 1165.92 148.37 1169.2 146.13C1169.78 145.705 1170.26 145.158 1170.61 144.527C1170.95 143.897 1171.15 143.198 1171.2 142.48C1171.72 143.985 1172.39 145.435 1173.2 146.81C1174.04 148.428 1175.21 149.857 1176.62 151.01C1176.95 151.237 1177.33 151.374 1177.72 151.404C1178.12 151.435 1178.51 151.359 1178.87 151.184C1179.23 151.01 1179.53 150.743 1179.75 150.411C1179.97 150.08 1180.09 149.696 1180.11 149.3C1180.15 148.371 1180.04 147.441 1179.77 146.55L1178.96 142.83C1178.84 142.29 1178.71 141.76 1178.59 141.22L1206.92 141.6H1208.1C1207.85 142.7 1207.64 143.81 1207.47 144.91C1207.24 146.37 1207.93 147.82 1209.63 147.54C1211.13 147.3 1212.63 145.74 1213.63 144.68C1214.99 143.178 1216.18 141.523 1217.16 139.75C1217.2 140.828 1217.47 141.885 1217.95 142.847C1218.44 143.81 1219.13 144.653 1219.98 145.32C1220.34 145.559 1220.74 145.725 1221.16 145.808C1221.58 145.892 1222.02 145.891 1222.44 145.807C1222.86 145.722 1223.26 145.555 1223.62 145.316C1223.98 145.076 1224.28 144.768 1224.52 144.41C1225.12 143.602 1225.53 142.679 1225.75 141.7V141.82L1245.3 142.08C1244.25 144.179 1243.02 146.189 1241.64 148.09H1241.65ZM1248.48 134.16L1226.29 133.86C1226.35 133.412 1226.43 132.968 1226.53 132.53C1227.08 130.41 1228.11 128.444 1229.53 126.78C1232.44 123.3 1236.53 121.09 1240.53 119.07C1241.68 118.5 1240.67 116.77 1239.53 117.35C1233.28 120.5 1226.42 124.7 1224.62 132C1224.26 133.736 1224.1 135.508 1224.15 137.28C1224.15 139.16 1224.15 141.28 1223.15 142.9C1221.69 145.31 1220.05 142.72 1219.55 141.15C1218.94 139.197 1218.94 137.103 1219.55 135.15C1219.87 134.09 1218.23 133.35 1217.72 134.38C1216.5 137.088 1215.01 139.665 1213.26 142.07C1212.81 142.644 1212.33 143.191 1211.81 143.71C1211.35 144.17 1210.55 145.13 1209.94 145.3C1209.56 145.4 1209.55 145.56 1209.5 145.07C1209.53 144.687 1209.61 144.31 1209.74 143.95C1209.9 143.18 1210.08 142.42 1210.27 141.65H1210.38C1210.45 140.98 1210.65 140.329 1210.96 139.73C1210.91 139.61 1210.89 139.48 1210.84 139.36C1212.38 133.321 1214.7 127.506 1217.73 122.06C1217.85 121.831 1217.88 121.565 1217.8 121.318C1217.73 121.07 1217.57 120.86 1217.34 120.731C1217.12 120.601 1216.86 120.564 1216.61 120.625C1216.36 120.686 1216.14 120.842 1216 121.06C1213.95 124.699 1212.23 128.514 1210.86 132.46C1210.72 132.86 1210.58 133.26 1210.45 133.66L1206 133.6C1205.85 133.499 1205.68 133.446 1205.5 133.45C1205.44 133.445 1205.39 133.445 1205.33 133.45C1205.26 133.445 1205.19 133.445 1205.12 133.45C1205.05 133.456 1204.97 133.473 1204.9 133.5C1213.16 114.42 1221.05 95.2132 1228.56 75.8799C1230.28 71.4332 1231.98 66.9699 1233.65 62.4899C1236.58 65.0483 1239.18 67.9529 1241.41 71.1399C1249.21 82.3299 1252.01 96.1899 1251.91 109.64C1251.98 117.936 1250.83 126.198 1248.5 134.16H1248.48ZM1393.26 214.47C1392.76 216.444 1392.09 218.371 1391.26 220.23C1390.87 221.092 1390.43 221.93 1389.94 222.74C1389.26 223.89 1388.36 224.55 1387.14 223.65C1385.71 222.59 1384.92 220.22 1384.21 218.65C1383.34 216.763 1382.58 214.83 1381.92 212.86C1379.22 204.865 1378.23 196.392 1379.02 187.99C1379.8 179.588 1382.34 171.445 1386.48 164.09C1387.97 164.795 1389.63 165.035 1391.26 164.78C1391.25 164.883 1391.25 164.987 1391.26 165.09C1396.37 180.8 1397.5 198.43 1393.25 214.47H1393.26ZM1398.05 127.13C1397.12 135.37 1395.48 143.85 1390.66 150.74C1389.72 150.511 1388.74 150.45 1387.77 150.56C1384.64 142.692 1382.58 134.437 1381.66 126.02C1380.74 117.48 1380.58 108.32 1383.81 100.22C1384.54 98.3986 1385.46 96.6564 1386.54 95.0199C1387.06 94.2445 1387.62 93.5 1388.23 92.7899C1388.81 92.1199 1389.66 90.9399 1390.58 90.7199C1392.25 90.3199 1393.92 93.9599 1394.58 95.1199C1395.57 96.9294 1396.37 98.832 1396.98 100.8C1399.63 109.3 1399.03 118.39 1398.04 127.13H1398.05Z" fill="#1F2224"/>
</g>
<defs>
<linearGradient id="paint0_linear_2069_40708" x1="212.998" y1="40.2205" x2="231.095" y2="175.738" gradientUnits="userSpaceOnUse">
<stop offset="0.0350253" stop-color="#FFCC81"/>
<stop offset="0.521771" stop-color="#E7914F"/>
<stop offset="1" stop-color="#DD6843"/>
</linearGradient>
<linearGradient id="paint1_linear_2069_40708" x1="399" y1="181" x2="450.594" y2="291.254" gradientUnits="userSpaceOnUse">
<stop offset="0.0350253" stop-color="#F5AEDD"/>
<stop offset="0.521771" stop-color="#E493C9"/>
<stop offset="1" stop-color="#C97FB0"/>
</linearGradient>
<linearGradient id="paint2_linear_2069_40708" x1="657" y1="63" x2="721.912" y2="126.061" gradientUnits="userSpaceOnUse">
<stop offset="0.0350253" stop-color="#FDF0B7"/>
<stop offset="0.521771" stop-color="#FFEA8C"/>
<stop offset="1" stop-color="#FDDE56"/>
</linearGradient>
<linearGradient id="paint3_linear_2069_40708" x1="952.998" y1="164.221" x2="971.095" y2="299.738" gradientUnits="userSpaceOnUse">
<stop offset="0.0350253" stop-color="#FFCC81"/>
<stop offset="0.521771" stop-color="#E7914F"/>
<stop offset="1" stop-color="#DD6843"/>
</linearGradient>
<linearGradient id="paint4_linear_2069_40708" x1="1155" y1="57" x2="1206.59" y2="167.254" gradientUnits="userSpaceOnUse">
<stop offset="0.0350253" stop-color="#F5AEDD"/>
<stop offset="0.521771" stop-color="#E493C9"/>
<stop offset="1" stop-color="#C97FB0"/>
</linearGradient>
<linearGradient id="paint5_linear_2069_40708" x1="1400.05" y1="150.918" x2="1369.36" y2="144.552" gradientUnits="userSpaceOnUse">
<stop stop-color="#DD6843"/>
<stop offset="1" stop-color="#FBC9A6"/>
</linearGradient>
<linearGradient id="paint6_linear_2069_40708" x1="1377.21" y1="164.582" x2="1407.91" y2="170.948" gradientUnits="userSpaceOnUse">
<stop stop-color="#DD6843"/>
<stop offset="1" stop-color="#FBC9A6"/>
</linearGradient>
<clipPath id="clip0_2069_40708">
<rect width="1360.89" height="329.75" fill="white" transform="translate(40 25)"/>
</clipPath>
</defs>
</svg>
