<svg width="460" height="380" viewBox="0 0 460 380" fill="none" xmlns="http://www.w3.org/2000/svg">
<path d="M437 166C437 200.794 406.036 229 371.156 229C336.276 229 308 200.794 308 166C308 131.206 336.276 103 371.156 103C406.036 103 437 131.206 437 166Z" fill="url(#paint0_linear_2048_36442)"/>
<ellipse cx="384.527" cy="119.439" rx="14.5" ry="9.95531" transform="rotate(23.6802 384.527 119.439)" fill="white"/>
<ellipse cx="358.501" cy="116.5" rx="14.5" ry="11.5" transform="rotate(-14.2734 358.501 116.5)" fill="white"/>
<path d="M165 196C165 230.794 134.036 259 99.1562 259C64.276 259 36 230.794 36 196C36 161.206 64.276 133 99.1562 133C134.036 133 165 161.206 165 196Z" fill="url(#paint1_linear_2048_36442)"/>
<ellipse cx="118" cy="148.5" rx="13" ry="11.5" fill="white"/>
<ellipse cx="95" cy="146.5" rx="13" ry="10.5" fill="white"/>
<path d="M224.5 273.5L221.5 305L224.5 306L228 308L255 306L257 270C251.667 277.167 240.6 291.7 239 292.5C237.4 293.3 228.667 280.167 224.5 273.5Z" fill="url(#paint2_linear_2048_36442)"/>
<circle cx="194" cy="85" r="24" fill="url(#paint3_linear_2048_36442)"/>
<path d="M282.168 158.565C282.168 165.551 280.432 175.545 281.664 186.065C283.937 205.472 288.898 226.668 281.168 234.065C267.164 252.565 248.164 255.065 226.164 255.565C217.031 255.565 192.523 246.565 186.666 226.565C180.661 206.065 182.168 180.987 182.168 158.065C182.168 123.271 204.168 96.0646 231.168 91.0646C246.168 85.5645 269.828 87.5091 278.668 96.5647C289.949 108.121 289.668 135.065 282.168 158.565Z" fill="url(#paint4_linear_2048_36442)"/>
<path fill-rule="evenodd" clip-rule="evenodd" d="M430.07 182.77C427.94 194.72 422.8 206.77 413.8 215.16C409.031 219.587 403.259 222.792 396.98 224.5C393.879 225.337 390.715 225.922 387.52 226.25C387.53 226.32 387.53 226.39 387.52 226.46C387.34 231.953 387.153 237.45 386.96 242.95L385.06 298.57C394.796 293.554 405.744 291.371 416.66 292.27C417.94 292.37 417.95 294.38 416.66 294.27C408.554 293.588 400.397 294.656 392.74 297.4C401.692 295.63 410.866 295.269 419.93 296.33C421.2 296.48 421.21 298.48 419.93 298.33C410.374 297.209 400.698 297.689 391.3 299.75C397.379 299.264 403.494 299.974 409.3 301.84C410.53 302.23 410 304.17 408.77 303.77C400.736 301.172 392.132 300.898 383.95 302.98C383.731 303.047 383.495 303.037 383.283 302.951C383.07 302.866 382.894 302.71 382.782 302.509C382.671 302.309 382.632 302.077 382.672 301.851C382.711 301.626 382.827 301.42 383 301.27L383.56 284.89L385.56 226.44C382.15 226.73 378.72 226.87 375.31 226.87C373.844 226.87 372.367 226.883 370.882 226.896C367.886 226.923 364.858 226.95 361.83 226.87L361.56 242.95C361.213 262.43 360.88 281.91 360.56 301.39C360.553 301.584 360.491 301.771 360.38 301.93C360.377 302.045 360.35 302.159 360.299 302.263C360.249 302.366 360.176 302.458 360.087 302.531C359.997 302.604 359.893 302.657 359.782 302.686C359.67 302.716 359.553 302.72 359.44 302.7C353.685 301.974 347.862 303.367 343.06 306.62C342 307.34 341.06 305.61 342.06 304.89C345.544 302.561 349.549 301.125 353.72 300.71C347.16 298.963 340.193 299.601 334.06 302.51C332.91 303.06 331.9 301.34 333.06 300.78C340.019 297.451 347.974 296.859 355.35 299.12C348.59 294.57 339.6 294.76 331.66 295.04C330.37 295.04 330.37 293.04 331.66 293.04C340.9 292.72 351.33 292.68 358.61 299.11C358.683 294.383 358.76 289.653 358.84 284.92C359.186 265.547 359.52 246.173 359.84 226.8C350.46 226.4 341.16 225.02 332.84 220.68C326.034 217.011 320.268 211.679 316.08 205.18C306.266 206.6 296.45 208.003 286.63 209.39C286.88 211.12 287.05 212.85 287.13 214.59L290.25 214C290.376 213.965 290.509 213.955 290.639 213.972C290.77 213.988 290.896 214.03 291.01 214.095C291.124 214.16 291.224 214.247 291.305 214.351C291.386 214.454 291.445 214.573 291.48 214.7C291.515 214.827 291.524 214.959 291.508 215.089C291.492 215.22 291.45 215.346 291.385 215.46C291.32 215.574 291.233 215.675 291.129 215.755C291.025 215.836 290.906 215.895 290.78 215.93L287.18 216.61C287.199 219.267 286.917 221.917 286.34 224.51C286.18 225.18 285.99 225.85 285.79 226.51L292.17 226.44C292.435 226.44 292.689 226.545 292.877 226.733C293.064 226.92 293.17 227.175 293.17 227.44C293.17 227.705 293.064 227.959 292.877 228.147C292.689 228.335 292.435 228.44 292.17 228.44L285.11 228.52C283.856 231.737 282.127 234.747 279.98 237.45C280.69 238.53 281.4 239.61 282.1 240.69C282.182 240.803 282.24 240.932 282.269 241.069C282.298 241.206 282.298 241.347 282.269 241.484C282.241 241.621 282.183 241.751 282.101 241.864C282.019 241.977 281.914 242.072 281.794 242.143C281.673 242.213 281.538 242.257 281.399 242.272C281.26 242.287 281.119 242.273 280.986 242.23C280.853 242.188 280.73 242.118 280.625 242.025C280.521 241.931 280.437 241.817 280.38 241.69L278.65 239.06C276.393 241.629 273.861 243.943 271.1 245.96C271.381 248.466 271.498 250.988 271.45 253.51C271.45 253.775 271.344 254.029 271.157 254.217C270.969 254.405 270.715 254.51 270.45 254.51C270.184 254.51 269.93 254.405 269.743 254.217C269.555 254.029 269.45 253.775 269.45 253.51C269.488 251.424 269.411 249.337 269.22 247.26C266.407 249.15 263.444 250.806 260.36 252.21C260.613 254.095 260.987 255.962 261.48 257.8C261.55 258.056 261.516 258.329 261.384 258.56C261.253 258.791 261.036 258.96 260.78 259.03C260.524 259.1 260.25 259.066 260.02 258.935C259.789 258.803 259.62 258.586 259.55 258.33C259.089 256.585 258.728 254.816 258.47 253.03C257.67 253.36 256.87 253.68 256.07 253.98C254.363 254.607 252.633 255.15 250.88 255.61C250.83 256.33 250.83 257.05 250.83 257.77C250.855 258.678 250.645 259.577 250.22 260.38C250.081 260.598 249.864 260.753 249.614 260.815C249.363 260.876 249.099 260.838 248.875 260.709C248.652 260.58 248.487 260.37 248.415 260.122C248.343 259.874 248.37 259.608 248.49 259.38C248.801 258.687 248.921 257.925 248.84 257.17V256.12C246.315 256.697 243.757 257.111 241.18 257.36C241.22 268.227 241.103 279.09 240.83 289.95C245.983 282.617 251.13 275.283 256.27 267.95C256.79 267.21 258.2 267.39 258.14 268.46V268.75C259.376 268.224 260.746 268.103 262.056 268.402C263.365 268.702 264.546 269.408 265.43 270.42C266.08 270.116 266.783 269.943 267.5 269.91C268.428 269.893 269.336 270.176 270.091 270.717C270.846 271.257 271.406 272.026 271.69 272.91C272.236 274.783 272.305 276.763 271.89 278.67C271.62 280.45 270.84 282.13 269.06 282.79C267.85 283.24 267.33 281.3 268.53 280.86C269.905 280.344 270.021 278.15 270.09 276.856C270.093 276.795 270.096 276.736 270.1 276.68C270.18 275.14 270.22 272.87 268.57 272.14C268.243 272.004 267.893 271.934 267.54 271.934C267.186 271.934 266.836 272.004 266.51 272.14C266.84 272.952 267.004 273.821 266.993 274.697C266.982 275.574 266.796 276.439 266.446 277.242C266.096 278.045 265.588 278.77 264.953 279.375C264.318 279.979 263.569 280.45 262.75 280.76C262.599 280.801 262.44 280.805 262.287 280.774C262.134 280.742 261.99 280.675 261.867 280.578C261.745 280.48 261.647 280.356 261.581 280.214C261.516 280.072 261.484 279.916 261.49 279.76C261.42 277.32 261.49 274.62 262.91 272.53C263.158 272.165 263.446 271.83 263.77 271.53C263.02 270.782 262.03 270.323 260.975 270.231C259.921 270.14 258.867 270.423 258 271.03C257.26 282.417 256.556 293.777 255.89 305.11C259.456 304.67 263.003 304.117 266.53 303.45C266.694 303.422 266.863 303.433 267.023 303.482C267.183 303.531 267.329 303.617 267.449 303.733C267.57 303.849 267.661 303.991 267.717 304.148C267.773 304.306 267.791 304.474 267.77 304.64C274.3 305.76 280.93 304.28 287.3 302.81C287.535 302.743 287.786 302.764 288.006 302.87C288.226 302.976 288.4 303.159 288.495 303.384C288.59 303.609 288.599 303.861 288.521 304.093C288.442 304.324 288.282 304.519 288.07 304.64C287.52 305.01 290.15 305.47 290.15 305.47C291.17 305.6 292.22 305.7 293.22 305.78C295.11 305.93 297.01 306.01 298.91 306.01C302.777 306.023 306.64 305.726 310.46 305.12C311.116 305.002 311.769 304.864 312.422 304.725C313.54 304.489 314.656 304.253 315.78 304.12C317.419 303.96 319.069 304.28 320.53 305.04C324.063 306.6 327.887 307.39 331.75 307.36C331.883 307.351 332.017 307.371 332.143 307.418C332.268 307.465 332.382 307.538 332.476 307.633C332.571 307.728 332.644 307.842 332.692 307.967C332.739 308.092 332.758 308.226 332.75 308.36C339.569 307.01 346.546 306.64 353.47 307.26C356.717 307.572 359.943 308.08 363.13 308.78C366.298 309.6 369.557 310.01 372.83 310C374.359 309.923 375.849 309.608 377.342 309.293C378.942 308.955 380.544 308.616 382.2 308.57C384.107 308.516 386.011 308.662 387.913 308.807C389.203 308.905 390.491 309.004 391.78 309.04C404.326 309.381 416.777 306.771 428.13 301.42C429.28 300.87 430.29 302.59 429.13 303.14C417.197 308.81 404.071 311.51 390.87 311.01C389.79 310.966 388.705 310.881 387.621 310.795C385.482 310.626 383.343 310.457 381.24 310.61C379.825 310.713 378.447 311.004 377.069 311.296C375.358 311.658 373.647 312.02 371.87 312.02C368.576 311.891 365.305 311.418 362.11 310.61C358.866 309.907 355.578 309.422 352.27 309.16C345.653 308.661 338.998 309.089 332.5 310.43C332.345 310.469 332.183 310.47 332.027 310.434C331.872 310.397 331.727 310.324 331.606 310.22C331.484 310.116 331.39 309.985 331.329 309.837C331.269 309.689 331.245 309.529 331.26 309.37C327.092 309.274 322.987 308.339 319.19 306.62C317.301 305.804 315.481 306.18 313.586 306.571C313.204 306.65 312.819 306.729 312.43 306.8C310.236 307.193 308.03 307.49 305.81 307.69C301.152 308.111 296.464 308.091 291.81 307.63C291.547 307.605 291.266 307.586 290.973 307.567C289.499 307.47 287.739 307.354 286.73 306.32C286.409 305.987 286.196 305.566 286.12 305.11C278.94 306.73 271.45 308.05 264.26 305.84C257.138 307.061 249.953 307.879 242.74 308.29C238.62 308.517 234.496 308.603 230.37 308.55C230.007 308.545 229.612 308.559 229.203 308.573C227.877 308.619 226.392 308.67 225.3 308.12C224.984 307.962 224.708 307.733 224.493 307.453C224.278 307.172 224.13 306.846 224.06 306.5C215.835 306.253 207.604 306.718 199.46 307.89C199.6 307.93 199.74 307.967 199.88 308.004C200.09 308.059 200.3 308.114 200.51 308.18C201.74 308.56 201.21 310.5 199.98 310.11C198.137 309.544 196.264 309.084 194.37 308.73C191.64 309.23 188.93 309.79 186.24 310.45C184.98 310.76 184.45 308.83 185.7 308.52C186.58 308.31 187.47 308.11 188.35 307.92C175.6 306.87 162.66 309.87 150.26 312.97C150.242 313.152 150.161 313.323 150.032 313.452C149.902 313.582 149.732 313.662 149.55 313.68C143.123 314.727 136.67 315.49 130.19 315.97C126.84 316.21 123.51 316.38 120.19 316.47C119.989 316.475 119.788 316.481 119.587 316.486C117.009 316.558 114.442 316.629 112.03 315.59C111.3 315.28 111.47 314.23 112.03 313.86C112.66 313.423 113.3 313.058 113.944 312.691C114.199 312.546 114.454 312.4 114.71 312.25L99.0896 313.98L94.2196 314.52C93.9907 314.546 93.7533 314.58 93.5108 314.614C92.3554 314.779 91.0845 314.96 90.0596 314.39C89.6492 314.16 89.3224 313.805 89.1265 313.378C88.9306 312.95 88.8757 312.471 88.9696 312.01L63.9096 318.78C63.7579 318.823 63.5983 318.829 63.4438 318.798C63.2892 318.767 63.1441 318.7 63.0203 318.603C62.8965 318.505 62.7975 318.38 62.7313 318.237C62.6652 318.094 62.6338 317.937 62.6396 317.78C62.6724 316.101 63.3077 314.49 64.4296 313.24C53.1096 313.507 41.8196 314.23 30.5596 315.41C29.2796 315.55 29.2996 313.55 30.5596 313.41C42.9396 312.103 55.3496 311.35 67.7896 311.15C68.0549 311.114 68.3234 311.185 68.5363 311.347C68.7491 311.51 68.8888 311.75 68.9246 312.015C68.9604 312.28 68.8894 312.549 68.7272 312.762C68.565 312.974 68.3249 313.114 68.0596 313.15C67.3137 313.417 66.6433 313.86 66.1053 314.441C65.5674 315.023 65.1778 315.726 64.9696 316.49L91.6196 309.29C91.8756 309.218 92.1495 309.251 92.3811 309.382C92.6127 309.512 92.783 309.729 92.8546 309.985C92.9262 310.241 92.8933 310.515 92.7629 310.746C92.6326 310.978 92.4156 311.148 92.1596 311.22L91.9796 311.27C92.0277 311.442 92.0315 311.624 91.9906 311.798C91.9497 311.972 91.8655 312.133 91.7458 312.265C91.626 312.398 91.4746 312.498 91.3057 312.557C91.1368 312.615 90.9558 312.63 90.7796 312.6C92.4823 312.943 94.3191 312.687 96.1208 312.435C96.6788 312.357 97.2334 312.279 97.7796 312.22L105.06 311.41L119.8 309.78C120.78 309.64 121.16 311.23 120.3 311.64C118.51 312.49 116.78 313.49 115.08 314.49C117.291 314.705 119.518 314.705 121.73 314.49C124.743 314.397 127.743 314.233 130.73 314C136.42 313.54 142.09 312.87 147.73 312C147.779 311.859 147.863 311.733 147.976 311.635C148.088 311.537 148.224 311.47 148.37 311.44C163.32 307.72 179.09 303.9 194.43 306.72C203.184 305.151 212.066 304.398 220.96 304.47C222.191 295.765 222.859 286.99 222.96 278.2C222.854 278.084 222.781 277.943 222.748 277.79C222.715 277.638 222.722 277.479 222.77 277.33C222.884 276.922 222.954 276.503 222.98 276.08V275.2C222.857 273.706 222.15 272.32 221.011 271.345C219.873 270.369 218.395 269.882 216.9 269.99C213.7 270.22 210.95 273.48 210.54 276.6C212.39 275.77 215.06 275.02 216.73 276.6C217.424 277.301 217.828 278.24 217.86 279.227C217.891 280.213 217.548 281.176 216.9 281.92C216.172 282.645 215.225 283.107 214.206 283.236C213.187 283.364 212.154 283.151 211.27 282.63C210.219 281.997 209.412 281.028 208.98 279.88C208.926 279.925 208.871 279.968 208.817 280.011C208.738 280.074 208.66 280.135 208.59 280.2C207.437 281.22 206.515 282.473 205.884 283.876C205.253 285.28 204.928 286.801 204.93 288.34C204.93 288.605 204.824 288.859 204.637 289.047C204.449 289.235 204.195 289.34 203.93 289.34C203.664 289.34 203.41 289.235 203.223 289.047C203.035 288.859 202.93 288.605 202.93 288.34C202.939 286.254 203.45 284.201 204.419 282.355C205.389 280.508 206.788 278.922 208.5 277.73C208.47 277.381 208.47 277.029 208.5 276.68C208.95 272.05 213.18 267.51 218.04 268C219.219 268.115 220.354 268.504 221.358 269.134C222.361 269.764 223.204 270.618 223.82 271.63C223.97 271.595 224.128 271.602 224.275 271.652C224.421 271.701 224.551 271.79 224.65 271.91C228.868 276.828 232.658 282.097 235.98 287.66C236.08 282.98 236.17 278.29 236.22 273.61V257.68C234.48 257.71 232.74 257.64 231.01 257.51V261C231.01 262.29 229.04 262.22 229.01 261C228.98 259.78 229.01 258.56 229.06 257.34C225.721 256.994 222.416 256.372 219.18 255.48L216.33 259.43C216.272 259.557 216.188 259.671 216.084 259.765C215.979 259.858 215.857 259.928 215.723 259.97C215.59 260.013 215.449 260.027 215.31 260.012C215.171 259.997 215.037 259.953 214.916 259.883C214.795 259.812 214.69 259.717 214.608 259.604C214.526 259.491 214.469 259.361 214.44 259.224C214.411 259.087 214.411 258.946 214.44 258.809C214.47 258.672 214.527 258.543 214.61 258.43C214.861 258.081 215.112 257.734 215.362 257.387C215.961 256.558 216.558 255.731 217.15 254.9C214.976 254.222 212.842 253.42 210.76 252.5C209.92 252.127 209.07 251.727 208.21 251.3C206.47 252.45 204.73 253.62 203.02 254.82C202.906 254.886 202.781 254.93 202.65 254.948C202.52 254.966 202.387 254.958 202.26 254.924C202.133 254.891 202.013 254.833 201.908 254.753C201.804 254.673 201.716 254.574 201.65 254.46C201.583 254.346 201.54 254.221 201.522 254.09C201.504 253.96 201.512 253.827 201.545 253.7C201.579 253.573 201.637 253.453 201.717 253.349C201.796 253.244 201.896 253.156 202.01 253.09C203.39 252.13 204.8 251.19 206.2 250.26C202.681 248.367 199.369 246.111 196.32 243.53C195.047 244.309 193.819 245.156 192.64 246.07C192.452 246.256 192.199 246.361 191.935 246.361C191.67 246.361 191.417 246.256 191.23 246.07C191.136 245.977 191.062 245.866 191.011 245.744C190.96 245.623 190.934 245.492 190.934 245.36C190.934 245.228 190.96 245.097 191.011 244.975C191.062 244.853 191.136 244.743 191.23 244.65C192.37 243.76 193.57 242.94 194.78 242.17C192.902 240.438 191.203 238.522 189.71 236.45C187.68 237.18 185.61 237.83 183.51 238.37C183.264 238.414 183.011 238.365 182.799 238.232C182.588 238.1 182.434 237.893 182.368 237.652C182.301 237.411 182.327 237.155 182.441 236.932C182.554 236.71 182.746 236.538 182.98 236.45C184.866 235.977 186.73 235.407 188.57 234.74C187.461 232.954 186.574 231.04 185.93 229.04C183.93 229.28 181.93 229.44 179.93 229.5C179.664 229.5 179.41 229.395 179.223 229.207C179.035 229.019 178.93 228.765 178.93 228.5C178.93 228.235 179.035 227.98 179.223 227.793C179.41 227.605 179.664 227.5 179.93 227.5C181.76 227.45 183.58 227.31 185.39 227.1C185.073 225.665 184.912 224.2 184.91 222.73C176.783 223.657 168.643 224.53 160.49 225.35C157.147 233.087 152.182 240.017 145.93 245.67C141.268 249.81 135.829 252.982 129.93 255C145.412 259.521 161.228 262.808 177.23 264.83C177.372 264.843 177.51 264.886 177.634 264.957C177.758 265.028 177.866 265.124 177.95 265.24C178.099 265.294 178.232 265.386 178.334 265.507C178.436 265.629 178.504 265.775 178.532 265.932C178.559 266.088 178.545 266.249 178.49 266.398C178.435 266.547 178.342 266.679 178.22 266.78L166.11 276.69C159.043 282.477 151.98 288.263 144.92 294.05C144.233 294.61 143.546 295.17 142.859 295.729C139.733 298.276 136.604 300.824 133.53 303.44C139.229 300.339 145.386 298.169 151.77 297.01C153.04 296.78 153.57 298.71 152.31 298.94C146.658 299.956 141.184 301.789 136.06 304.38C142.394 302.081 148.964 300.495 155.65 299.65C156.92 299.49 156.91 301.49 155.65 301.65C144.9 303.014 134.495 306.354 124.96 311.5C124.781 311.591 124.579 311.626 124.38 311.6C123.48 312.01 122.41 310.82 123.24 310.01C125.55 307.68 128.05 305.47 130.55 303.3C132.973 298.926 135.892 294.846 139.25 291.14C140.11 290.19 141.52 291.56 140.66 292.56C138.783 294.643 137.046 296.848 135.46 299.16C144.885 291.331 154.382 283.583 163.877 275.837C167.65 272.759 171.422 269.682 175.19 266.6C158.642 264.43 142.298 260.918 126.32 256.1C120.363 257.528 114.273 258.322 108.15 258.47C101.05 258.76 93.8796 258.92 86.7796 258.59C82.0627 258.423 77.3735 257.794 72.7796 256.71C72.7039 256.758 72.6235 256.798 72.5396 256.83L71.833 257.016C64.7184 258.884 57.5999 260.754 50.3596 262.09C48.5201 262.437 46.6531 262.717 44.7819 262.997C39.9702 263.718 35.1309 264.443 30.6596 266.33C33.893 269.237 37.133 272.13 40.3796 275.01C50.9996 284.383 61.7563 293.603 72.6496 302.67C71.8936 299.814 70.2214 297.284 67.8896 295.47C67.7759 295.404 67.6763 295.316 67.5966 295.211C67.5169 295.106 67.4587 294.987 67.4252 294.86C67.3918 294.732 67.3838 294.6 67.4017 294.469C67.4196 294.339 67.4631 294.213 67.5296 294.1C67.5958 293.986 67.6838 293.887 67.7885 293.807C67.8932 293.727 68.0126 293.669 68.1399 293.636C68.2672 293.602 68.3998 293.594 68.5302 293.612C68.6606 293.63 68.7861 293.673 68.8996 293.74C70.6145 295.045 72.0446 296.687 73.1021 298.565C74.1597 300.443 74.8224 302.517 75.0496 304.66C75.3788 304.934 75.7074 305.208 76.0358 305.483C77.0843 306.358 78.1312 307.232 79.1896 308.1C79.3425 308.21 79.4514 308.371 79.4972 308.554C79.5429 308.737 79.5225 308.93 79.4396 309.1C80.2296 309.94 78.9496 311.22 77.9496 310.42C77.2196 309.8 76.4496 309.21 75.6696 308.65C69.6492 307.264 63.435 306.925 57.2996 307.65C56.0296 307.8 56.0396 305.8 57.2996 305.65C61.7788 305.116 66.3071 305.143 70.7796 305.73C66.3673 303.616 61.5515 302.477 56.6596 302.39C56.3944 302.39 56.1401 302.285 55.9525 302.097C55.765 301.909 55.6596 301.655 55.6596 301.39C55.6596 301.125 55.765 300.87 55.9525 300.683C56.1401 300.495 56.3944 300.39 56.6596 300.39C61.4653 300.476 66.2052 301.523 70.5996 303.47C70.2622 303.19 69.9247 302.911 69.5874 302.632C68.6354 301.844 67.6848 301.057 66.7396 300.26C53.7196 289.327 40.8963 278.17 28.2696 266.79C28.1611 266.696 28.0767 266.577 28.0234 266.444C27.9701 266.311 27.9494 266.167 27.9631 266.024C27.9768 265.881 28.0245 265.743 28.1022 265.623C28.1798 265.502 28.2853 265.402 28.4096 265.33C28.4918 265.156 28.6338 265.018 28.8096 264.94C33.7537 262.651 39.0936 261.829 44.4252 261.008C46.0815 260.753 47.737 260.499 49.3796 260.2C56.0396 258.99 62.5996 257.33 69.1496 255.61C68.9665 255.54 68.7834 255.471 68.6005 255.402C67.9143 255.144 67.2307 254.886 66.5596 254.61C55.1596 249.94 46.8196 240.32 42.1596 229.09C36.6496 215.8 36.8396 200.91 39.5296 186.98C42.0596 173.92 46.4396 160.54 54.8296 149.98C63.0796 139.6 75.3696 133.47 88.2996 131.27C99.4196 129.4 110.68 130.27 121.68 132.4C120.56 129.11 117.56 127.04 114.56 125.48C111.042 123.674 107.4 122.123 103.66 120.84C96.9896 118.5 88.1396 116.09 82.4796 121.9C81.5796 122.82 80.1696 121.41 81.0696 120.48C83.0863 118.414 85.7174 117.056 88.5696 116.61C88.55 116.472 88.5593 116.332 88.5969 116.198C88.6345 116.064 88.6996 115.94 88.7881 115.832C88.8765 115.725 88.9864 115.638 89.1106 115.575C89.2349 115.513 89.3708 115.477 89.5096 115.47C89.6359 115.46 89.7627 115.477 89.8824 115.518C90.0021 115.559 90.1121 115.624 90.2057 115.709C90.2993 115.795 90.3746 115.898 90.4268 116.013C90.4791 116.129 90.5073 116.253 90.5096 116.38C95.0596 116.08 100.06 117.43 104.22 118.89C108.48 120.318 112.608 122.111 116.56 124.25C119.55 125.91 122.24 128.21 123.49 131.42C124.185 130.172 124.624 128.797 124.781 127.377C124.937 125.957 124.807 124.519 124.4 123.15C123.28 119.64 120.05 117.57 116.87 116.15C109.32 112.79 100.66 110.72 92.3796 111.55C91.0996 111.68 91.1096 109.68 92.3796 109.55C94.5872 109.34 96.8087 109.32 99.0196 109.49C99 109.352 99.0093 109.212 99.0469 109.078C99.0845 108.944 99.1496 108.82 99.2381 108.712C99.3265 108.605 99.4364 108.518 99.5606 108.455C99.6849 108.393 99.8208 108.357 99.9596 108.35C100.115 108.355 100.267 108.396 100.404 108.469C100.54 108.543 100.658 108.648 100.747 108.775C100.837 108.902 100.895 109.048 100.918 109.202C100.941 109.355 100.928 109.512 100.88 109.66C102.801 109.878 104.708 110.212 106.59 110.66C110.979 111.616 115.237 113.1 119.27 115.08C122.64 116.82 125.61 119.49 126.53 123.3C127.269 126.621 126.688 130.099 124.91 133C127.47 133.54 129.97 134.15 132.47 134.79C132.657 134.746 132.851 134.746 133.039 134.79C133.226 134.833 133.401 134.919 133.55 135.04C136.01 136.89 138.47 138.74 140.89 140.64C150.52 148.23 159.94 156.99 164.75 168.53C167.345 175.178 168.49 182.303 168.11 189.43C167.882 196.745 166.917 204.018 165.23 211.14C164.514 214.161 163.629 217.139 162.58 220.06C169.8 219.32 177.01 218.52 184.23 217.71C184.101 216.66 183.962 215.614 183.823 214.569C183.734 213.902 183.645 213.236 183.56 212.57H179.01C178.744 212.57 178.49 212.465 178.303 212.277C178.115 212.089 178.01 211.835 178.01 211.57C178.01 211.305 178.115 211.05 178.303 210.863C178.49 210.675 178.744 210.57 179.01 210.57H183.3C183.245 210.16 183.192 209.75 183.14 209.34C183.087 208.93 183.035 208.52 182.98 208.11C182.88 207.385 182.777 206.657 182.675 205.93C182.572 205.202 182.47 204.475 182.37 203.75C181.16 203.63 179.94 203.5 178.74 203.31C178.613 203.275 178.494 203.216 178.39 203.135C178.287 203.055 178.2 202.954 178.135 202.84C178.07 202.726 178.028 202.6 178.011 202.469C177.995 202.339 178.005 202.207 178.04 202.08C178.074 201.953 178.134 201.834 178.214 201.731C178.295 201.627 178.395 201.54 178.51 201.475C178.624 201.41 178.75 201.368 178.88 201.352C179.011 201.335 179.143 201.345 179.27 201.38C180.21 201.53 181.15 201.64 182.09 201.74C181.73 199.12 181.38 196.5 181.04 193.88H175.74C175.474 193.88 175.22 193.775 175.033 193.587C174.845 193.399 174.74 193.145 174.74 192.88C174.74 192.615 174.845 192.36 175.033 192.173C175.22 191.985 175.474 191.88 175.74 191.88H180.79C180.51 189.6 180.25 187.31 180.02 185.03H176.65C176.384 185.03 176.13 184.925 175.943 184.737C175.755 184.549 175.65 184.295 175.65 184.03C175.65 183.765 175.755 183.51 175.943 183.323C176.13 183.135 176.384 183.03 176.65 183.03H179.81C179.51 179.81 179.27 176.58 179.13 173.35L175.75 173.53C174.46 173.6 174.47 171.6 175.75 171.53L179.05 171.35C179.01 169.117 178.99 166.873 178.99 164.62C177.36 164.5 175.74 164.35 174.12 164.16C172.85 164.01 172.84 162.01 174.12 162.16C175.75 162.35 177.39 162.5 179.03 162.63C179.1 160.5 179.2 158.38 179.38 156.25C179.48 155.05 179.61 153.85 179.75 152.65L176.29 152.54C175 152.54 175 150.54 176.29 150.54L180 150.65C180.455 147.322 181.086 144.021 181.89 140.76L176.29 140.4C175.01 140.32 175.01 138.32 176.29 138.4L182.41 138.8C183.04 136.51 183.76 134.25 184.59 132.04L182.1 131.87C180.82 131.79 180.82 129.79 182.1 129.87L185.36 130.09C186.722 126.713 188.351 123.449 190.23 120.33C189.07 120.04 188.01 119.78 186.75 119.48C185.49 119.18 185.92 117.23 187.28 117.55C188.64 117.87 190 118.2 191.36 118.55C192.393 116.957 193.503 115.41 194.69 113.91C194.82 113.753 194.95 113.597 195.08 113.44C195.447 112.997 195.813 112.556 196.19 112.12L192.4 110.51C192.173 110.376 192.007 110.159 191.94 109.904C191.873 109.649 191.908 109.378 192.04 109.15C192.106 109.036 192.194 108.937 192.298 108.857C192.403 108.777 192.523 108.719 192.65 108.686C192.777 108.652 192.91 108.644 193.04 108.662C193.171 108.68 193.296 108.723 193.41 108.79L197.59 110.56C198.583 109.5 199.61 108.47 200.67 107.47C190.45 109.12 179.7 105.86 173.37 97.2699C167.69 89.5599 167.43 78.4799 173.6 70.9699C176.77 67.1599 181.29 64.6299 185.92 62.9699C191.073 60.9808 196.688 60.5123 202.1 61.6199C206.568 62.6262 210.544 65.1624 213.34 68.7899C216.47 72.9899 217.03 78.4099 217.29 83.4899C217.403 85.5377 217.346 87.5915 217.12 89.6299C217.152 89.8152 217.131 90.0059 217.06 90.1799C216.781 92.6782 216.031 95.101 214.85 97.3199C216.74 96.2699 218.67 95.3299 220.67 94.4399C220.01 93.2199 219.31 91.8899 218.77 90.7399C218.23 89.5899 219.95 88.5799 220.5 89.7399C221.126 91.0666 221.793 92.3666 222.5 93.6399C224.686 92.7199 226.91 91.8932 229.17 91.1599C228.857 90.1222 228.543 89.0845 228.228 88.046C227.818 86.6926 227.407 85.3379 227 83.9799C226.929 83.724 226.964 83.4506 227.095 83.2199C227.226 82.9893 227.444 82.8202 227.7 82.7499C227.956 82.6796 228.229 82.7139 228.46 82.8452C228.69 82.9764 228.859 83.194 228.93 83.4499C229.243 84.4843 229.554 85.5188 229.864 86.5524C230.269 87.8969 230.673 89.24 231.08 90.5799C233.96 89.7248 236.884 89.0238 239.84 88.4799L239.43 85.1599C239.43 84.8947 239.535 84.6403 239.723 84.4528C239.91 84.2653 240.164 84.1599 240.43 84.1599C240.695 84.1599 240.949 84.2653 241.137 84.4528C241.324 84.6403 241.43 84.8947 241.43 85.1599C241.55 86.1599 241.67 87.1599 241.8 88.1599C244.59 87.6699 247.41 87.3499 250.23 87.1599C249.73 86.1599 249.2 85.1599 248.66 84.1599C248.54 83.9314 248.513 83.6655 248.585 83.4178C248.657 83.1701 248.822 82.9597 249.045 82.8306C249.269 82.7015 249.533 82.6637 249.784 82.7251C250.034 82.7865 250.251 82.9422 250.39 83.1599C251.056 84.4332 251.723 85.7132 252.39 86.9999C257.001 86.7347 261.626 87.1423 266.12 88.2099L266.66 83.3099C266.66 83.0447 266.765 82.7903 266.953 82.6028C267.14 82.4153 267.394 82.3099 267.66 82.3099C267.925 82.3099 268.179 82.4153 268.367 82.6028C268.554 82.7903 268.66 83.0447 268.66 83.3099L268.06 88.7799C269.635 89.297 271.161 89.9529 272.62 90.7399C275.801 92.4526 278.595 94.8012 280.83 97.6399C282.294 96.4285 283.871 95.3603 285.54 94.4499C286.67 93.8399 287.68 95.5699 286.54 96.1799C284.936 97.054 283.419 98.0786 282.01 99.2399C284.431 102.859 286.195 106.877 287.22 111.11C288.517 110.555 289.854 110.098 291.22 109.74C291.476 109.67 291.749 109.704 291.98 109.835C292.21 109.966 292.379 110.184 292.45 110.44C292.52 110.696 292.486 110.969 292.354 111.2C292.223 111.431 292.006 111.6 291.75 111.67C290.342 112.026 288.967 112.501 287.64 113.09C288.602 117.873 288.955 122.758 288.69 127.63C288.867 127.549 289.042 127.468 289.216 127.388C289.71 127.16 290.194 126.937 290.69 126.73C290.816 126.695 290.949 126.685 291.079 126.702C291.21 126.718 291.336 126.76 291.45 126.825C291.564 126.89 291.664 126.977 291.745 127.081C291.826 127.184 291.885 127.303 291.92 127.43C291.955 127.557 291.964 127.689 291.948 127.819C291.932 127.95 291.89 128.076 291.825 128.19C291.76 128.304 291.673 128.405 291.569 128.485C291.465 128.566 291.346 128.625 291.22 128.66C290.32 129.03 289.43 129.45 288.56 129.89C288.31 133.06 287.85 136.21 287.31 139.34L291.38 137.4C292.53 136.85 293.54 138.58 292.38 139.13L286.87 141.75C286.29 144.85 285.64 147.95 284.99 151.04C285.681 150.741 286.356 150.441 287.027 150.141C287.862 149.77 288.692 149.4 289.54 149.04C289.768 148.92 290.034 148.894 290.282 148.966C290.529 149.037 290.74 149.202 290.869 149.426C290.998 149.649 291.036 149.913 290.974 150.164C290.913 150.414 290.757 150.632 290.54 150.77C288.493 151.637 286.47 152.55 284.47 153.51C283.89 156.36 283.32 159.2 282.83 162.06C284.22 161.23 285.61 160.4 287.01 159.6C287.238 159.48 287.504 159.454 287.752 159.526C287.999 159.597 288.21 159.762 288.339 159.986C288.468 160.209 288.506 160.473 288.444 160.724C288.383 160.974 288.227 161.192 288.01 161.33C286.13 162.41 284.27 163.51 282.41 164.62C282.05 167 281.77 169.38 281.59 171.78L286.21 168.91C287.3 168.24 288.31 169.97 287.21 170.64L281.43 174.22C281.422 174.421 281.411 174.624 281.399 174.828C281.379 175.169 281.36 175.511 281.36 175.85C281.32 177.53 281.39 179.19 281.51 180.85C283.27 180.36 285.04 179.91 286.83 179.52C288.08 179.25 288.62 181.18 287.36 181.45C285.446 181.877 283.55 182.353 281.67 182.88C281.87 184.8 282.15 186.71 282.48 188.61C284.021 187.987 285.597 187.453 287.2 187.01C287.456 186.94 287.729 186.974 287.96 187.105C288.19 187.236 288.359 187.454 288.43 187.71C288.5 187.966 288.466 188.239 288.334 188.47C288.203 188.701 287.986 188.87 287.73 188.94C286.07 189.399 284.44 189.96 282.85 190.62C283.31 193.01 283.83 195.39 284.36 197.78L288.99 195.73C289.103 195.663 289.229 195.62 289.359 195.602C289.489 195.584 289.622 195.592 289.749 195.626C289.877 195.659 289.996 195.717 290.101 195.797C290.206 195.877 290.293 195.976 290.36 196.09C290.426 196.203 290.47 196.329 290.488 196.459C290.505 196.59 290.497 196.722 290.464 196.85C290.431 196.977 290.372 197.096 290.293 197.201C290.213 197.306 290.113 197.394 290 197.46L284.8 199.77C284.816 199.832 284.835 199.895 284.854 199.958C284.906 200.129 284.96 200.305 284.96 200.48C285.26 201.79 285.55 203.13 285.81 204.48L313.34 200.55C312.053 198.156 310.924 195.681 309.96 193.14C301.26 170.01 305.94 142.37 321.26 123.09C325.043 118.343 329.52 114.193 334.54 110.78C334.49 109.95 335.47 109.33 336.06 109.78C341.189 106.505 346.791 104.036 352.67 102.46C365.792 98.8971 379.721 99.751 392.31 104.89H392.39C392.488 104.739 392.609 104.604 392.75 104.49C393.836 99.8566 394.913 95.2299 395.98 90.6099C396.546 88.1966 397.11 85.7832 397.67 83.3699C398.286 81.1647 398.682 78.9035 398.85 76.6199C399.004 74.5457 398.435 72.4821 397.24 70.7799C396.641 69.959 395.799 69.3485 394.832 69.0359C393.866 68.7233 392.825 68.7247 391.86 69.0399C387.29 70.7999 388.01 76.9099 388.6 80.6999C388.8 81.9599 386.88 82.4899 386.68 81.2299C386.48 79.9699 386.29 78.6599 386.21 77.3499H386.11C385.844 77.3499 385.59 77.2446 385.403 77.057C385.215 76.8695 385.11 76.6151 385.11 76.3499C385.11 76.0847 385.215 75.8303 385.403 75.6428C385.59 75.4553 385.844 75.3499 386.11 75.3499H386.18C386.162 72.9218 387.066 70.5774 388.71 68.7899C389.84 67.6078 391.38 66.9019 393.013 66.8164C394.647 66.7309 396.252 67.2723 397.5 68.3299C400.6 70.7899 401.09 74.9999 400.6 78.6599C400.115 81.8522 399.447 85.0141 398.6 88.1299C398.69 87.9199 398.77 87.7199 398.85 87.5099C400.76 83.0499 402.99 78.4799 406.85 75.5099C410.71 72.5399 415.59 71.5699 420.31 70.9399C420.607 70.9002 420.912 70.8541 421.222 70.8072C423.175 70.5119 425.333 70.1856 427.06 71.2299C427.483 71.4929 427.847 71.8406 428.13 72.2513C428.412 72.6619 428.606 73.1266 428.7 73.616C428.794 74.1054 428.786 74.609 428.675 75.095C428.565 75.581 428.356 76.0389 428.06 76.4399C426.781 78.5147 424.649 80.2485 422.728 81.8112C422.621 81.898 422.515 81.9842 422.41 82.0699C421.61 82.7397 420.77 83.3695 419.93 83.9993L419.93 83.9999C420.04 84.1464 420.107 84.3204 420.125 84.5027C420.143 84.6851 420.111 84.8689 420.031 85.034C419.952 85.1991 419.828 85.3392 419.675 85.439C419.521 85.5388 419.343 85.5945 419.16 85.5999C418.994 85.6058 418.83 85.5647 418.687 85.4816C418.544 85.3985 418.427 85.2766 418.35 85.1299C417.59 85.6899 416.84 86.1999 416.06 86.6899C414.98 87.3799 413.97 85.6499 415.06 84.9599C417.338 83.534 419.513 81.9501 421.57 80.2199C422.54 79.3899 423.5 78.5099 424.38 77.6599C424.505 77.5391 424.639 77.414 424.778 77.2847C425.615 76.5041 426.619 75.568 426.8 74.4699C427.4 70.8199 417.04 73.4199 415.23 73.8799C411.127 74.7443 407.471 77.0548 404.93 80.3899C402.31 83.9899 400.64 88.2799 399.06 92.3899C397.526 96.3887 396.21 100.468 395.12 104.61C397.651 105.876 400.087 107.323 402.41 108.94C404.06 110.1 405.64 111.34 407.17 112.64C407.38 112.349 407.587 112.039 407.792 111.731C407.918 111.541 408.044 111.353 408.17 111.17C408.9 110.1 410.62 111.1 409.9 112.17C409.602 112.599 409.314 113.033 409.026 113.469C408.917 113.632 408.809 113.796 408.7 113.96C416.396 121.021 422.372 129.751 426.17 139.48C431.406 153.281 432.755 168.255 430.07 182.77ZM121.77 135.44C108.12 132.71 93.7696 131.99 80.3596 136.3C79.25 136.655 78.1485 137.059 77.0554 137.46C76.9467 137.5 76.8381 137.54 76.7296 137.58C78.0341 143.596 79.7243 149.521 81.7896 155.32C83.7018 160.802 85.8396 166.234 87.9791 171.669C93.3363 185.279 98.7045 198.918 100.57 213.46C102.63 208.9 104.77 204.38 106.99 199.9C116.652 180.423 127.711 161.671 140.08 143.79C137.52 141.75 134.91 139.79 132.31 137.85H132.15C128.71 136.96 125.26 136.13 121.77 135.44ZM153.917 220.968C155.71 220.798 157.5 220.629 159.29 220.45C161.642 214.06 163.262 207.425 164.12 200.67C165.08 193.64 165.63 186.28 164.57 179.28C163.629 173.261 161.391 167.518 158.01 162.45C153.59 155.77 147.8 150.18 141.59 145.18C138.163 150.153 134.83 155.197 131.59 160.31C119.953 178.706 109.663 197.919 100.8 217.8C100.36 218.79 99.0096 218.17 98.9396 217.29C98.3917 211.258 97.287 205.289 95.6396 199.46C93.0953 190.184 89.5705 181.241 86.0483 172.304C81.6799 161.221 77.3154 150.147 74.8296 138.46C70.9892 140.125 67.3876 142.294 64.1196 144.91C59.2853 148.919 55.2513 153.804 52.2296 159.31C49.1856 164.866 46.7931 170.755 45.0996 176.86C43.1299 183.526 41.7906 190.363 41.0996 197.28C39.8896 210.31 41.6396 223.76 48.5496 235.08C51.4257 239.913 55.2286 244.131 59.7396 247.49C64.9522 251.15 70.9301 253.575 77.2196 254.58C83.9096 255.77 90.7596 255.78 97.5296 255.7C104.253 255.742 110.974 255.408 117.66 254.7C124.289 253.994 130.712 251.982 136.56 248.78C141.752 245.734 146.33 241.746 150.06 237.02C152.825 233.542 155.181 229.757 157.08 225.74C154.966 225.948 152.858 226.14 150.751 226.332C150.027 226.398 149.303 226.463 148.58 226.53C148.053 227.677 147.29 228.699 146.34 229.53C143.92 231.11 142.65 227.35 142.34 225.61C142.238 225.018 142.181 224.42 142.17 223.82L141.65 224.94C141.462 225.342 141.284 225.753 141.106 226.166C140.76 226.964 140.412 227.768 139.99 228.52C139.855 228.867 139.615 229.164 139.303 229.367C138.99 229.569 138.622 229.669 138.25 229.65C136.28 229.41 136.38 226.28 136.45 224.88C136.454 224.754 136.472 224.63 136.49 224.507C136.51 224.367 136.53 224.228 136.53 224.09C135.35 226.06 134.14 228.01 132.86 229.91C131.858 231.619 130.604 233.166 129.14 234.5C128.11 235.32 126.34 235.76 125.73 234.22C125.155 232.769 126.116 230.582 126.739 229.163C126.777 229.075 126.814 228.991 126.85 228.91L127.07 228.45C115.343 229.37 103.61 230.163 91.8696 230.83C91.9096 230.995 91.9522 231.162 91.9947 231.33C92.0372 231.497 92.0796 231.665 92.1196 231.83C92.3396 232.83 92.5196 233.83 92.6496 234.83C92.9097 235.677 92.9097 236.583 92.6496 237.43C90.8996 240.69 86.2096 234.08 85.3496 232.75C84.8396 231.95 84.3796 231.13 83.9396 230.29C83.6296 231.47 82.9896 232.51 81.7696 232.57C80.2796 232.65 78.9796 230.89 78.0896 229.42C77.7796 231.26 76.8296 233.23 74.5096 232.42C74.0889 232.262 73.7045 232.02 73.3796 231.71L66.8696 231.96C63.6396 232.07 63.6596 227.07 66.8696 226.96L70.0196 226.83L69.8896 226.62C68.5585 224.213 67.4602 221.685 66.6096 219.07C66.2096 217.84 68.1396 217.32 68.5396 218.54C69.7352 222.191 71.4458 225.652 73.6196 228.82C73.6564 228.874 73.6986 228.938 73.7455 229.009C74.2479 229.77 75.2911 231.351 75.9496 230.08C76.2171 229.282 76.3159 228.438 76.2396 227.6C76.2379 226.758 76.161 225.918 76.0096 225.09C75.5596 223.9 75.1396 222.54 74.8496 221.47C74.5596 220.4 76.1896 219.65 76.6796 220.7C77.2626 221.954 77.6924 223.273 77.9596 224.63C78.6431 226.522 79.659 228.276 80.9596 229.81L81.3596 230.25C81.5596 230.6 81.6896 230.62 81.7696 230.32C82.0296 230.15 82.1496 229.12 82.1496 228.9C82.2403 227.993 82.1589 227.077 81.9096 226.2C81.8796 226.105 81.8471 226.015 81.8146 225.925C81.7821 225.835 81.7496 225.745 81.7196 225.65C81.0596 224.23 80.3796 222.82 79.5996 221.46C79.4801 221.231 79.4535 220.965 79.5253 220.718C79.5972 220.47 79.762 220.26 79.9853 220.131C80.2086 220.002 80.4731 219.964 80.7236 220.025C80.9741 220.086 81.1913 220.242 81.3296 220.46C82.244 221.886 83.0049 223.404 83.5996 224.99C83.7478 225.301 83.8953 225.614 84.0432 225.928C84.6834 227.286 85.3303 228.658 86.0696 229.99C86.8365 231.42 87.7588 232.762 88.8196 233.99C89.3367 234.582 89.8983 235.134 90.4996 235.64L90.7296 235.81C90.6696 235.48 90.6696 235.13 90.6696 234.86C89.6755 227.871 86.3492 221.505 83.1171 215.32L83.0596 215.21C82.4696 214.08 84.1896 213.07 84.7896 214.21C86.8239 217.953 88.65 221.806 90.2596 225.75V225.88C103.42 225.167 116.563 224.27 129.69 223.19C131.71 219.173 133.512 215.05 135.09 210.84C135.54 209.65 137.47 210.17 137.02 211.37C135.733 214.777 134.31 218.147 132.75 221.48C132.216 222.603 131.619 223.71 131.02 224.821C130.429 225.918 129.836 227.018 129.3 228.14C129.295 228.163 129.295 228.187 129.3 228.21C128.858 229.128 128.467 230.069 128.13 231.03C127.989 231.436 127.872 231.85 127.78 232.27C127.722 232.477 127.679 232.687 127.65 232.9C127.296 233.233 127.256 233.313 127.53 233.14C128.097 233.053 128.831 232.06 129.248 231.496C129.309 231.413 129.364 231.34 129.41 231.28C130.496 229.891 131.449 228.403 132.395 226.927C132.45 226.841 132.505 226.756 132.56 226.67C134.499 223.62 136.299 220.48 138.099 217.341L138.1 217.34C138.221 217.128 138.416 216.967 138.647 216.889C138.878 216.811 139.13 216.82 139.356 216.914C139.581 217.009 139.764 217.183 139.869 217.403C139.975 217.624 139.997 217.875 139.93 218.11C139.328 219.879 138.873 221.696 138.57 223.54C138.438 224.43 138.401 225.332 138.46 226.23C138.46 226.237 138.464 226.259 138.471 226.292C138.493 226.396 138.54 226.612 138.54 226.84V226.78L143.22 216.62C143.72 215.55 145.3 216.34 145.05 217.39C144.367 219.658 144.067 222.023 144.16 224.39C144.221 225.015 144.348 225.632 144.54 226.23C144.547 226.252 144.556 226.282 144.567 226.319C144.668 226.646 144.923 227.479 145.13 227.56C145.595 227.751 146.371 226.327 146.786 225.565C146.871 225.409 146.941 225.281 146.99 225.2C149.251 221.322 151.285 217.315 153.08 213.2C153.62 212.02 155.35 213.04 154.81 214.2C153.73 216.55 152.65 218.9 151.48 221.2C152.293 221.122 153.105 221.045 153.917 220.968ZM215.81 279.42C215.88 277.49 213.96 277.53 212.58 277.92C211.893 278.11 211.229 278.375 210.6 278.71C210.726 279.232 210.973 279.717 211.32 280.127C211.668 280.536 212.106 280.859 212.6 281.07C213.89 281.58 215.75 281 215.81 279.42ZM264.876 275.85C265.117 275.009 265.111 274.117 264.86 273.28C264.768 273.38 264.684 273.487 264.61 273.6C263.829 274.939 263.445 276.471 263.5 278.02C264.157 277.443 264.635 276.69 264.876 275.85ZM196.18 63.0199C196.185 63.0764 196.185 63.1334 196.18 63.1899C196.321 69.3148 196.047 75.4422 195.36 81.5299L195.56 81.6299C195.647 81.4668 195.788 81.3394 195.96 81.2699C201.503 78.8471 206.768 75.8294 211.66 72.2699C212.66 71.5099 213.66 73.2499 212.66 73.9999C207.765 77.5561 202.502 80.5735 196.96 82.9999C196.851 83.0444 196.736 83.0714 196.62 83.0799C196.705 83.275 196.746 83.4869 196.74 83.6999C196.718 84.1476 196.581 84.582 196.34 84.9599C202.739 85.8012 209.083 87.0166 215.34 88.5999C215.525 85.6441 215.427 82.6773 215.05 79.7399C214.53 75.0899 213.12 70.7099 209.53 67.5399C206.113 64.6652 201.804 63.0673 197.34 63.0199H196.18ZM194.16 63.1299C190.299 63.5137 186.538 64.591 183.06 66.3099C182.227 66.7181 181.416 67.1687 180.63 67.6599C180.684 67.6937 180.735 67.734 180.78 67.7799L192.08 81.1499C192.119 81.1356 192.156 81.1161 192.192 81.097C192.257 81.0629 192.319 81.0299 192.39 81.0299C192.718 80.9623 193.054 80.9354 193.39 80.9499C194.036 75.0532 194.293 69.1204 194.16 63.1899V63.1299ZM179.1 68.6599C176.699 70.3127 174.702 72.4869 173.26 75.0199H173.3C172.956 75.6177 172.649 76.2355 172.38 76.8699L190.22 82.7699C190.283 82.6281 190.357 82.4911 190.44 82.3599L179.32 69.2099C179.189 69.0551 179.112 68.8622 179.1 68.6599ZM171.381 87.6132C171.899 90.5507 173.056 93.3385 174.77 95.7799C174.835 95.6186 174.942 95.4772 175.08 95.3699C180.14 91.9799 185.37 88.8299 190.72 85.8999C190.423 85.5774 190.198 85.1957 190.06 84.7799L171.77 78.7799C170.995 81.6604 170.862 84.6758 171.381 87.6132ZM176.203 97.6286C176.597 98.0812 176.98 98.52 177.4 98.9399V98.9199C183.95 105.4 193.56 107.19 202.38 105.14C202.351 104.919 202.404 104.695 202.529 104.511C202.655 104.326 202.843 104.194 203.06 104.14C204.146 103.823 205.198 103.397 206.2 102.87C207.36 102 208.56 101.16 209.78 100.35C211.264 99.007 212.5 97.4126 213.43 95.6399C214.23 94.0472 214.78 92.3404 215.06 90.5799C208.43 88.883 201.7 87.6071 194.91 86.7599C194.77 86.7395 194.635 86.6955 194.51 86.6299L194.36 86.7099L193.88 104.71C193.88 106 191.88 106 191.88 104.71C192.04 98.9366 192.193 93.1532 192.34 87.3599C186.773 90.3732 181.363 93.6399 176.11 97.1599L175.89 97.2699C175.996 97.3904 176.1 97.5099 176.203 97.6286ZM231.131 255.55C231.249 253.934 231.452 252.325 231.74 250.73C231.775 250.603 231.784 250.471 231.768 250.34C231.752 250.21 231.71 250.084 231.645 249.97C231.58 249.856 231.493 249.755 231.389 249.675C231.285 249.594 231.166 249.535 231.04 249.5C230.913 249.465 230.781 249.455 230.65 249.472C230.52 249.488 230.394 249.53 230.28 249.595C230.165 249.66 230.065 249.747 229.984 249.851C229.904 249.954 229.844 250.073 229.81 250.2C229.5 251.92 229.28 253.65 229.14 255.39C227.48 255.22 225.83 254.99 224.14 254.67C222.86 254.41 221.59 254.11 220.33 253.77C221.41 252.277 222.486 250.783 223.56 249.29C223.691 249.061 223.727 248.791 223.659 248.536C223.592 248.281 223.427 248.063 223.2 247.93C222.972 247.795 222.699 247.756 222.442 247.821C222.185 247.887 221.965 248.052 221.83 248.28L218.29 253.19C215.489 252.336 212.755 251.276 210.11 250.02C211.56 249.08 213.01 248.14 214.49 247.24C215.58 246.57 214.58 244.84 213.49 245.52C211.65 246.64 209.83 247.8 208.03 248.97C206.49 248.17 204.983 247.3 203.51 246.36C201.638 245.16 199.842 243.848 198.13 242.43C199.373 241.735 200.655 241.11 201.97 240.56C202.096 240.525 202.215 240.466 202.319 240.385C202.423 240.305 202.51 240.204 202.575 240.09C202.64 239.976 202.682 239.85 202.698 239.719C202.714 239.589 202.705 239.457 202.67 239.33C202.635 239.203 202.576 239.084 202.495 238.981C202.414 238.877 202.314 238.79 202.2 238.725C202.086 238.66 201.96 238.618 201.829 238.602C201.699 238.585 201.566 238.595 201.44 238.63C199.757 239.334 198.121 240.142 196.54 241.05C194.738 239.423 193.104 237.621 191.66 235.67C193.07 235.11 194.47 234.53 195.85 233.9C195.963 233.834 196.063 233.746 196.143 233.641C196.222 233.536 196.281 233.417 196.314 233.29C196.347 233.162 196.355 233.03 196.338 232.899C196.32 232.769 196.276 232.643 196.21 232.53C196.143 232.416 196.055 232.317 195.951 232.237C195.846 232.157 195.727 232.099 195.599 232.066C195.472 232.032 195.339 232.024 195.209 232.042C195.079 232.06 194.953 232.103 194.84 232.17C193.42 232.83 191.97 233.42 190.51 233.98C189.815 232.907 189.2 231.784 188.67 230.62C188.39 230.01 188.14 229.38 187.92 228.75C188.67 228.63 189.41 228.51 190.16 228.36C190.286 228.325 190.405 228.266 190.509 228.185C190.613 228.105 190.7 228.004 190.765 227.89C190.83 227.776 190.872 227.65 190.888 227.519C190.904 227.389 190.895 227.257 190.86 227.13C190.825 227.003 190.766 226.884 190.685 226.781C190.604 226.677 190.504 226.59 190.39 226.525C190.276 226.46 190.15 226.418 190.019 226.402C189.889 226.385 189.756 226.395 189.63 226.43C188.87 226.58 188.12 226.71 187.36 226.82C187.023 225.401 186.856 223.948 186.86 222.49C192.633 221.823 198.4 221.157 204.16 220.49C211.66 219.583 219.153 218.637 226.64 217.65C226.919 218.758 227.385 219.81 228.02 220.76C229.57 222.985 231.71 224.734 234.2 225.81C234.561 225.968 234.945 226.109 235.317 226.246C235.44 226.291 235.561 226.335 235.68 226.38C235.966 236.173 236.133 245.963 236.18 255.75C234.52 255.72 232.821 255.66 231.131 255.55ZM227.69 209.97C227.855 208.508 228.57 207.164 229.69 206.21V206.19C231.869 204.452 234.593 203.541 237.38 203.62C239.541 203.634 241.661 204.209 243.533 205.289C245.406 206.369 246.965 207.916 248.06 209.78C258.653 208.313 269.25 206.84 279.85 205.36L283.85 204.79C283.57 203.39 283.26 201.99 282.95 200.6L278.72 202.48C278.606 202.546 278.481 202.59 278.35 202.608C278.22 202.626 278.087 202.618 277.96 202.584C277.833 202.551 277.713 202.493 277.608 202.413C277.504 202.333 277.416 202.234 277.35 202.12C277.283 202.006 277.24 201.881 277.222 201.75C277.204 201.62 277.212 201.487 277.245 201.36C277.279 201.233 277.337 201.113 277.417 201.009C277.496 200.904 277.596 200.816 277.71 200.75L282.51 198.62C281.94 196.25 281.42 193.87 280.94 191.48C280.18 191.84 279.43 192.22 278.69 192.62C277.57 193.24 276.56 191.51 277.69 190.89C278.62 190.38 279.56 189.91 280.56 189.47C280.28 187.92 280.03 186.45 279.83 184.92C279.818 184.83 279.806 184.739 279.794 184.649C279.742 184.266 279.69 183.88 279.69 183.5C279.426 183.584 279.161 183.668 278.894 183.753C277.676 184.14 276.434 184.535 275.22 184.97C274.01 185.41 273.49 183.48 274.69 183.05C276.28 182.46 277.9 181.95 279.52 181.46C279.393 179.46 279.36 177.46 279.42 175.46L273.78 178.95C272.69 179.63 271.68 177.9 272.78 177.22L279.54 173.04C279.68 170.66 279.94 168.28 280.26 165.91C278.53 166.96 276.81 168.01 275.09 169.09C274.01 169.78 273.01 168.05 274.09 167.36C274.727 166.971 275.364 166.581 276.002 166.19C277.547 165.243 279.096 164.294 280.66 163.36L280.81 162.36C281.24 159.78 281.76 157.2 282.29 154.61C281.06 155.22 279.84 155.85 278.62 156.5C278.693 156.717 278.689 156.952 278.61 157.166C278.53 157.38 278.38 157.561 278.183 157.678C277.987 157.795 277.756 157.841 277.53 157.809C277.304 157.776 277.095 157.667 276.94 157.5L276.27 156.92C276.162 156.811 276.081 156.679 276.032 156.534C275.983 156.389 275.968 156.235 275.989 156.083C276.009 155.932 276.064 155.787 276.149 155.659C276.234 155.532 276.347 155.426 276.48 155.35C278.566 154.223 280.673 153.14 282.8 152.1C282.945 151.408 283.092 150.716 283.238 150.023C283.747 147.621 284.256 145.214 284.73 142.8L280.15 144.97C279 145.52 277.99 143.8 279.15 143.25L285.15 140.38C285.71 137.27 286.19 134.15 286.49 131.02C284.782 132.002 283.145 133.102 281.59 134.31C281.402 134.496 281.149 134.601 280.885 134.601C280.62 134.601 280.367 134.496 280.18 134.31C279.993 134.123 279.889 133.869 279.889 133.605C279.889 133.341 279.993 133.087 280.18 132.9C282.221 131.308 284.395 129.897 286.68 128.68C286.953 124.894 286.865 121.09 286.42 117.32C286.28 116.2 286.09 115.08 285.86 113.97C283.877 115.026 282.042 116.338 280.4 117.87C279.47 118.75 278.05 117.34 278.99 116.46C280.906 114.664 283.068 113.149 285.41 111.96C284.422 107.922 282.729 104.09 280.41 100.64C279.347 101.661 278.368 102.764 277.48 103.94C277.413 104.054 277.326 104.153 277.221 104.233C277.116 104.313 276.997 104.371 276.869 104.404C276.742 104.438 276.609 104.446 276.479 104.428C276.349 104.41 276.223 104.366 276.11 104.3C275.882 104.165 275.717 103.944 275.651 103.687C275.585 103.43 275.624 103.158 275.76 102.93C276.797 101.535 277.955 100.233 279.22 99.0399C279.125 98.9211 279.033 98.8005 278.94 98.6797C278.728 98.4039 278.516 98.1272 278.28 97.8699C275.445 94.7008 271.843 92.3143 267.82 90.9399L267.21 96.4699C267.21 96.7351 267.104 96.9895 266.917 97.177C266.729 97.3646 266.475 97.4699 266.21 97.4699C265.944 97.4699 265.69 97.3646 265.503 97.177C265.315 96.9895 265.21 96.7351 265.21 96.4699C265.443 94.4166 265.67 92.3699 265.89 90.3299C263.573 89.6902 261.198 89.2881 258.8 89.1299C256.99 89.0099 255.17 89.0099 253.34 89.0099C254.333 91.1299 255.25 93.2799 256.09 95.4599C256.125 95.5866 256.134 95.719 256.118 95.8494C256.102 95.9799 256.06 96.1058 255.995 96.22C255.93 96.3343 255.843 96.4346 255.739 96.5152C255.635 96.5958 255.516 96.6552 255.39 96.6899C255.263 96.7248 255.131 96.7344 255 96.7181C254.87 96.7018 254.744 96.6599 254.63 96.5949C254.515 96.5299 254.415 96.443 254.334 96.3392C254.254 96.2354 254.194 96.1167 254.16 95.9899C253.26 93.6499 252.25 91.3499 251.16 89.0899C248.083 89.248 245.018 89.5819 241.98 90.0899L242.56 94.7799C242.56 95.0451 242.454 95.2995 242.267 95.487C242.079 95.6746 241.825 95.7799 241.56 95.7799C241.294 95.7799 241.04 95.6746 240.853 95.487C240.665 95.2995 240.56 95.0451 240.56 94.7799L239.98 90.4499C239.25 90.5899 238.52 90.7299 237.8 90.8899C235.7 91.3399 233.62 91.8799 231.56 92.4899L233.56 98.9799C233.63 99.2358 233.596 99.5092 233.464 99.7399C233.333 99.9706 233.116 100.14 232.86 100.21C232.604 100.28 232.33 100.246 232.1 100.115C231.869 99.9834 231.7 99.7658 231.63 99.5099C231.003 97.3699 230.356 95.2232 229.69 93.0699C227.576 93.7499 225.493 94.5166 223.44 95.3699C225.788 99.321 228.554 103.009 231.69 106.37C232.57 107.31 231.16 108.72 230.28 107.78C226.973 104.231 224.069 100.327 221.62 96.1399C221.507 96.1909 221.394 96.2418 221.282 96.2928C220.331 96.7223 219.373 97.1551 218.48 97.6199C215.906 98.9044 213.415 100.347 211.02 101.94C210.549 102.361 210.055 102.755 209.54 103.12L213.73 106.69C213.918 106.877 214.024 107.131 214.025 107.396C214.026 107.662 213.922 107.917 213.735 108.105C213.548 108.293 213.294 108.4 213.028 108.4C212.763 108.401 212.508 108.297 212.32 108.11L208.05 104.47C207.967 104.395 207.902 104.303 207.86 104.2L207.61 104.36C204.776 106.506 202.121 108.877 199.67 111.45L204.06 113.31C204.173 113.376 204.273 113.464 204.353 113.569C204.432 113.673 204.491 113.793 204.524 113.92C204.557 114.047 204.565 114.18 204.548 114.31C204.53 114.441 204.486 114.566 204.42 114.68C204.353 114.794 204.266 114.893 204.161 114.973C204.056 115.053 203.937 115.111 203.809 115.144C203.682 115.178 203.549 115.186 203.419 115.168C203.289 115.15 203.163 115.106 203.05 115.04L198.24 113.04C196.518 114.973 194.921 117.013 193.46 119.15C197.626 120.223 201.753 121.427 205.84 122.76C207.06 123.15 206.53 125.08 205.31 124.69C201.016 123.297 196.683 122.037 192.31 120.91C191.23 122.61 190.22 124.36 189.31 126.18C188.64 127.53 188.04 128.9 187.46 130.29L195.58 130.83C196.86 130.92 196.87 132.92 195.58 132.83L186.67 132.24C185.82 134.45 185.09 136.7 184.45 138.99L195.95 139.73C197.23 139.81 197.23 141.81 195.95 141.73L183.95 140.95C183.144 144.19 182.513 147.472 182.06 150.78L188.56 150.92C189.85 150.92 189.85 152.92 188.56 152.92L181.84 152.72C181.45 156.06 181.22 159.42 181.12 162.78C184.02 162.96 186.92 163.05 189.83 163.05C190.095 163.05 190.349 163.155 190.537 163.343C190.724 163.53 190.83 163.785 190.83 164.05C190.83 164.315 190.724 164.569 190.537 164.757C190.349 164.945 190.095 165.05 189.83 165.05C186.91 165.06 183.99 164.96 181.07 164.78C181.036 165.947 181.047 167.115 181.059 168.279C181.064 168.86 181.07 169.441 181.07 170.02V171.26L193.38 170.6C194.67 170.53 194.66 172.53 193.38 172.6L181.14 173.25C181.29 176.53 181.54 179.8 181.85 183.06L190.66 183.11C190.925 183.11 191.179 183.215 191.367 183.403C191.554 183.59 191.66 183.845 191.66 184.11C191.66 184.375 191.554 184.629 191.367 184.817C191.179 185.005 190.925 185.11 190.66 185.11L182.04 185.06C182.28 187.34 182.53 189.63 182.81 191.91L189.2 191.96C189.465 191.96 189.719 192.065 189.907 192.253C190.094 192.44 190.2 192.695 190.2 192.96C190.2 193.225 190.094 193.479 189.907 193.667C189.719 193.855 189.465 193.96 189.2 193.96L183.06 193.91C183.4 196.577 183.756 199.243 184.13 201.91C186.18 202.043 188.237 202.067 190.29 201.98C191.58 201.92 191.58 203.92 190.29 203.98C188.331 204.085 186.368 204.085 184.41 203.98C184.72 206.2 185.02 208.41 185.32 210.63H191.2C191.465 210.63 191.719 210.735 191.907 210.923C192.094 211.11 192.2 211.365 192.2 211.63C192.2 211.895 192.094 212.149 191.907 212.337C191.719 212.525 191.465 212.63 191.2 212.63H185.59C185.81 214.27 186.03 215.91 186.23 217.55C199.71 216.01 213.173 214.363 226.62 212.61C226.831 211.678 227.192 210.786 227.69 209.97ZM255.93 272.55C255.816 272.53 255.705 272.497 255.6 272.45L239.56 295.29C239.472 295.441 239.346 295.567 239.194 295.655C239.042 295.742 238.87 295.788 238.695 295.788C238.519 295.788 238.347 295.742 238.196 295.655C238.044 295.567 237.918 295.441 237.83 295.29C234.233 288.224 229.892 281.563 224.88 275.42V276.34C224.848 285.764 224.18 295.176 222.88 304.51C223.669 304.56 224.449 304.56 225.239 304.56H225.24C225.416 304.56 225.589 304.607 225.742 304.695C225.895 304.784 226.021 304.912 226.108 305.065C226.196 305.218 226.241 305.392 226.239 305.569C226.238 305.745 226.19 305.918 226.1 306.07C225.8 306.48 228.5 306.55 228.67 306.55H231.1H236.2C239.51 306.48 242.83 306.33 246.13 306.09C248.74 305.9 251.33 305.64 253.93 305.34C253.92 305.297 253.92 305.253 253.93 305.21L255.93 272.55ZM279.84 226.57H283.67V226.55C284.632 223.44 285.124 220.205 285.13 216.95L280.24 217.87C280.113 217.905 279.981 217.914 279.85 217.898C279.72 217.882 279.594 217.84 279.48 217.775C279.365 217.71 279.265 217.623 279.185 217.519C279.104 217.415 279.044 217.297 279.01 217.17C278.975 217.043 278.965 216.911 278.982 216.78C278.998 216.65 279.04 216.524 279.105 216.41C279.17 216.296 279.257 216.195 279.361 216.115C279.464 216.034 279.583 215.975 279.71 215.94L285.12 214.94C285.057 213.169 284.9 211.404 284.65 209.65C272.996 211.31 261.33 212.933 249.65 214.52C250.2 219.28 248.09 224.49 243.49 226.42C242.618 226.773 241.697 226.989 240.76 227.06C240.772 227.433 240.786 227.807 240.801 228.181C240.835 229.061 240.87 229.943 240.87 230.82C241.08 239.01 241.22 247.2 241.22 255.38C243.816 255.106 246.392 254.662 248.93 254.05C248.941 253.435 248.957 252.821 248.973 252.206C249.001 251.131 249.03 250.055 249.03 248.98C249.03 248.715 249.135 248.46 249.323 248.273C249.51 248.085 249.764 247.98 250.03 247.98C250.295 247.98 250.549 248.085 250.737 248.273C250.924 248.46 251.03 248.715 251.03 248.98L250.94 253.52C253.425 252.832 255.864 251.984 258.24 250.98C258.061 249.353 257.968 247.717 257.96 246.08C257.96 245.815 258.065 245.56 258.253 245.373C258.44 245.185 258.694 245.08 258.96 245.08C259.225 245.08 259.479 245.185 259.667 245.373C259.854 245.56 259.96 245.815 259.96 246.08C259.96 247.4 260.04 248.74 260.16 250.08C262.84 248.836 265.421 247.388 267.88 245.75C268.14 245.581 268.395 245.393 268.649 245.205C268.756 245.126 268.863 245.047 268.97 244.97C268.74 243.24 268.46 241.51 268.06 239.81C267.77 238.55 269.7 238.02 269.99 239.27C270.32 240.71 270.58 242.17 270.8 243.63C273.249 241.747 275.498 239.615 277.51 237.27C276.643 235.983 275.78 234.673 274.92 233.34C274.853 233.226 274.81 233.101 274.792 232.97C274.774 232.84 274.782 232.707 274.815 232.58C274.849 232.453 274.907 232.333 274.987 232.229C275.066 232.124 275.166 232.036 275.28 231.97C275.393 231.903 275.519 231.86 275.649 231.842C275.779 231.824 275.912 231.832 276.039 231.866C276.167 231.899 276.286 231.957 276.391 232.037C276.495 232.117 276.583 232.216 276.65 232.33L278.81 235.62C280.024 234.033 281.098 232.343 282.02 230.57C282.36 229.94 282.66 229.25 282.94 228.57H279.84C279.574 228.57 279.32 228.465 279.133 228.277C278.945 228.089 278.84 227.835 278.84 227.57C278.84 227.305 278.945 227.05 279.133 226.863C279.32 226.675 279.574 226.57 279.84 226.57ZM382.67 104.83C369.956 101.798 356.596 103.053 344.67 108.4L344.7 108.38C342.15 109.541 339.693 110.895 337.35 112.43C339.416 117.157 341.473 121.88 343.52 126.6L367.87 182.41C370.16 177.42 372.51 172.47 374.97 167.56C382.173 153.17 390.096 139.152 398.71 125.56C397.414 127.362 395.472 128.595 393.29 129C390.066 129.732 386.74 129.898 383.46 129.49C378.01 128.77 372.55 125.81 370.46 120.49C369.528 121.819 368.452 123.04 367.25 124.13C366.793 124.93 366.044 125.522 365.16 125.78C362.768 127.457 359.971 128.462 357.06 128.69C354.371 128.93 351.676 128.307 349.365 126.912C347.055 125.516 345.249 123.421 344.21 120.93C342.19 115.73 344.65 110.49 349.13 107.55C354.4 104.09 360.9 104.54 366.9 105.19C367.01 105.033 367.162 104.911 367.339 104.838C367.517 104.765 367.711 104.745 367.9 104.78C369.017 105.073 370.047 105.631 370.901 106.408C371.756 107.184 372.411 108.156 372.81 109.24C373.536 108.57 374.371 108.029 375.28 107.64C381.37 105.05 387.43 108.68 392.37 111.98C392.458 112.036 392.535 112.107 392.6 112.19C394.078 113.137 395.403 114.304 396.53 115.65C398.5 118.03 400.42 121.37 399.23 124.53C399.121 124.808 398.994 125.079 398.85 125.34C401.01 121.92 403.23 118.53 405.48 115.17C401.745 111.938 397.615 109.193 393.19 107C393.033 107.295 392.78 107.528 392.472 107.659C392.164 107.79 391.821 107.812 391.5 107.72C388.64 106.518 385.687 105.551 382.67 104.83ZM380.67 120.69C381.648 121.174 382.398 122.021 382.76 123.05L382.79 123.03C382.966 123.53 383.026 124.064 382.966 124.59C382.905 125.117 382.725 125.623 382.44 126.07C382.16 126.48 381.79 126.822 381.36 127.07C382.478 127.358 383.619 127.548 384.77 127.64C387.449 127.85 390.144 127.664 392.77 127.09C394.96 126.58 397.51 125.18 397.61 122.69C397.71 120.2 395.88 117.76 394.23 116.06C392.577 114.369 390.573 113.061 388.36 112.23C388.179 112.165 388.02 112.05 387.903 111.897C387.786 111.745 387.715 111.562 387.7 111.37C383.96 109.22 379.7 107.64 375.7 109.64C374.785 110.091 373.987 110.748 373.37 111.56C373.513 113.865 372.992 116.162 371.87 118.18C372.037 119.129 372.351 120.047 372.8 120.9C373.251 121.72 373.806 122.48 374.45 123.16C374.455 122.679 374.576 122.206 374.802 121.781C375.028 121.357 375.353 120.993 375.75 120.72C376.265 120.408 376.837 120.202 377.433 120.115C378.029 120.027 378.636 120.059 379.22 120.21C379.723 120.302 380.211 120.463 380.67 120.69ZM369.13 118.85C369.35 118.543 369.56 118.21 369.76 117.85L369.79 117.83C369.493 115.449 370.022 113.038 371.29 111C371.131 110.147 370.777 109.343 370.257 108.649C369.737 107.956 369.064 107.391 368.29 107C368.199 107.093 368.087 107.163 367.963 107.203C367.839 107.243 367.708 107.252 367.58 107.23L367.5 107.221C361.74 106.573 355.356 105.855 350.21 109.13C346.39 111.56 344.27 115.97 346.06 120.35C347.95 124.99 352.93 127.16 357.72 126.57L358.42 126.46C357.972 126.32 357.563 126.077 357.226 125.751C356.889 125.424 356.633 125.023 356.48 124.58C356.443 124.459 356.417 124.335 356.4 124.21C356.198 123.923 356.058 123.596 355.989 123.252C355.92 122.908 355.924 122.553 356 122.21C356.38 120.64 357.95 119.96 359.38 119.76H359.67C361.887 118.965 364.312 118.965 366.53 119.76C366.656 119.795 366.775 119.854 366.879 119.935C366.983 120.015 367.07 120.116 367.135 120.23C367.2 120.344 367.242 120.47 367.258 120.6C367.274 120.731 367.265 120.863 367.23 120.99C367.172 121.156 367.076 121.307 366.95 121.43L367.03 121.53C367.805 120.698 368.507 119.801 369.13 118.85ZM363.9 223.88C370.9 224.01 377.96 224.08 384.96 223.51L384.99 223.49C391.82 222.93 398.71 221.53 404.77 218.13C409.687 215.305 413.929 211.442 417.2 206.81C424.38 196.83 427.68 184.48 428.31 172.32C429.03 158.46 426.3 144.3 419.45 132.14C416.167 126.3 411.982 121.014 407.05 116.48C404.563 120.18 402.13 123.92 399.75 127.7C388.126 146.194 377.769 165.455 368.75 185.35C368.662 185.501 368.536 185.627 368.384 185.715C368.232 185.802 368.06 185.848 367.885 185.848C367.709 185.848 367.537 185.802 367.386 185.715C367.234 185.627 367.108 185.501 367.02 185.35C364.626 179.85 362.23 174.35 359.83 168.85L335.73 113.56C328.907 118.414 323.164 124.628 318.86 131.81C306.77 151.82 304.85 178.58 316.13 199.38L316.53 200.09L337.46 197.09C337.428 197.018 337.397 196.946 337.365 196.874C337.118 196.308 336.875 195.75 336.6 195.2C335.15 192.252 333.397 189.464 331.37 186.88C330.59 185.87 331.99 184.46 332.79 185.46C335.751 189.226 338.162 193.394 339.95 197.84C340.034 198.053 340.113 198.279 340.192 198.505C340.328 198.896 340.465 199.287 340.63 199.61C340.89 200.12 341.02 200.35 341.41 199.82C342.067 198.682 342.357 197.369 342.24 196.06C342.214 195.266 342.096 194.477 341.89 193.71C341.13 192.09 340.5 190.42 339.89 188.76C339.5 187.69 341.23 186.99 341.72 187.99C342.551 189.614 343.22 191.315 343.72 193.07C344.663 195.321 346.047 197.361 347.79 199.07L347.808 199.089C348.001 199.295 348.718 200.058 348.95 200.01C349.126 199.973 349.081 199.473 349.045 199.068C349.032 198.921 349.02 198.786 349.02 198.69C348.943 197.957 348.796 197.234 348.58 196.53C348.055 195.531 347.537 194.531 347.021 193.533C346.327 192.191 345.635 190.854 344.93 189.53C344.828 189.304 344.813 189.049 344.889 188.813C344.964 188.577 345.124 188.378 345.338 188.254C345.552 188.129 345.805 188.089 346.047 188.14C346.289 188.191 346.504 188.33 346.65 188.53C348.111 190.625 349.322 192.884 350.26 195.26C350.92 196.51 351.59 197.76 352.26 199C352.923 200.45 353.792 201.797 354.84 203C355.06 203.19 356.6 204.43 356.84 204.25C357.045 204.096 356.796 202.663 356.689 202.049C356.671 201.947 356.657 201.867 356.65 201.82C355.66 194.52 351.49 188.19 347.3 182.32C346.55 181.32 348.29 180.32 349.03 181.32C351.75 184.95 354.095 188.847 356.03 192.95C356.213 193.333 356.382 193.75 356.549 194.161C356.582 194.245 356.616 194.328 356.65 194.41L391.72 189.41C393.586 185.317 395.45 181.22 397.31 177.12C397.85 175.94 399.57 176.95 399.04 178.12L394.6 187.88C393.86 189.51 393.12 191.13 392.37 192.76C391.594 194.253 390.945 195.808 390.43 197.41C390.413 197.477 390.387 197.56 390.358 197.652C390.228 198.067 390.046 198.65 390.48 198.65C390.775 198.674 390.924 198.468 391.084 198.247C391.124 198.191 391.165 198.134 391.21 198.08C391.684 197.543 392.081 196.975 392.478 196.406C392.591 196.244 392.704 196.082 392.82 195.92C393.74 194.6 394.61 193.27 395.44 191.92C397.23 189.08 398.84 186.16 400.44 183.24C401.08 182.08 402.7 183.09 402.17 184.24C401.367 185.974 400.811 187.812 400.52 189.7C400.379 190.633 400.309 191.576 400.31 192.52C400.31 192.598 400.301 192.703 400.291 192.821C400.263 193.159 400.226 193.605 400.36 193.82C400.35 194.05 400.38 194.09 400.45 193.91C400.6 193.738 400.73 193.55 400.84 193.35C402.615 190.539 403.518 187.181 404.379 183.98C404.45 183.719 404.52 183.459 404.59 183.2C404.66 182.944 404.829 182.726 405.06 182.595C405.29 182.464 405.564 182.43 405.82 182.5C406.076 182.57 406.293 182.739 406.424 182.97C406.556 183.201 406.59 183.474 406.52 183.73C405.974 186.312 405.775 188.955 405.93 191.59C405.935 191.678 405.939 191.784 405.943 191.902C405.968 192.63 406.009 193.823 406.62 194.15C407.514 194.602 408.337 192.933 408.77 192.052C408.846 191.899 408.909 191.77 408.96 191.68C411.346 187.273 413.73 182.86 416.11 178.44C416.73 177.3 418.45 178.31 417.84 179.44C416.633 181.667 415.426 183.897 414.22 186.13L416.66 185.78C417.278 185.627 417.931 185.711 418.492 186.014C419.052 186.317 419.479 186.819 419.69 187.42C420 188.6 419.29 190.3 417.94 190.49L411.25 191.49L410.41 193.04C409.95 194.174 409.154 195.141 408.13 195.81C405.81 197.04 404.26 194.88 404 192.81C403.92 192.423 403.88 192.033 403.88 191.64L403.823 191.78C403.148 193.446 402.054 196.146 400.11 196.02C397.88 195.92 398.14 192.67 398.33 190.92C397.48 192.35 396.69 193.66 395.69 195.16C395.584 195.318 395.449 195.533 395.29 195.787C393.943 197.941 390.836 202.904 388.69 200.06C387.72 198.79 388.52 196.61 389.03 195.33L389.31 194.67L358.18 199.14C358.4 200.111 358.57 201.092 358.69 202.08C358.867 202.962 358.894 203.868 358.77 204.76C358.32 206.57 356.36 206.33 355.07 205.62C353.667 204.736 352.511 203.511 351.71 202.06C351.563 201.818 351.424 201.573 351.283 201.327C351.173 201.135 351.063 200.942 350.95 200.75C350.929 200.986 350.854 201.214 350.733 201.417C350.611 201.621 350.445 201.794 350.246 201.924C350.048 202.053 349.823 202.137 349.588 202.167C349.353 202.198 349.114 202.175 348.89 202.1C347.684 201.662 346.622 200.901 345.82 199.9C345.188 199.225 344.61 198.503 344.09 197.74C343.79 199.8 342.79 202.82 340.43 202.14C340.179 202.065 339.945 201.943 339.74 201.78L319.35 204.72C321.498 207.782 324.013 210.57 326.84 213.02C331.578 217.026 337.155 219.917 343.16 221.48C349.9 223.3 356.9 223.75 363.9 223.88ZM118.56 136.2C124.19 138.43 129.25 142.67 130.7 148.78C131.79 153.35 130.64 160.43 125.15 161.66C122.32 162.34 119.02 161.55 116.32 160.66C113.569 159.753 110.985 158.402 108.67 156.66C107.327 155.662 106.146 154.461 105.17 153.1C105.06 153.26 104.95 153.42 104.84 153.56C103.832 154.804 102.473 155.717 100.94 156.18C100.845 156.22 100.754 156.261 100.662 156.302C100.523 156.364 100.385 156.426 100.24 156.48C95.4104 158.23 88.9904 159.08 84.4104 156.23C82.4822 155.076 81.0553 153.243 80.4104 151.09C79.8635 148.677 80.0802 146.154 81.0304 143.87C80.9116 143.798 80.8119 143.699 80.7398 143.58C80.6678 143.461 80.6255 143.327 80.6167 143.189C80.6078 143.05 80.6326 142.911 80.689 142.784C80.7454 142.658 80.8317 142.546 80.9404 142.46C85.6404 138.57 91.3804 135.33 97.7004 135.86C100.325 135.977 102.841 136.942 104.87 138.61C105.444 139.137 105.921 139.759 106.28 140.45C109.21 137.71 113.44 136.79 117.5 136.61C117.542 136.512 117.602 136.424 117.678 136.35C117.754 136.276 117.845 136.218 117.943 136.18C118.042 136.142 118.148 136.124 118.254 136.127C118.36 136.131 118.464 136.155 118.56 136.2ZM103.31 145.73C103.479 144.749 103.817 143.805 104.31 142.94V142.91C104.437 142.623 104.577 142.343 104.73 142.07C103.2 138.22 98.0104 137.38 94.2004 137.9C90.1385 138.624 86.3422 140.415 83.2004 143.09C83.2591 143.262 83.2591 143.448 83.2004 143.62C82.2504 145.97 81.5204 148.69 82.5204 151.15C82.991 152.185 83.6825 153.105 84.5462 153.844C85.41 154.583 86.4252 155.125 87.5204 155.43C89.7981 156.075 92.1946 156.181 94.5204 155.74L95.2905 155.61H95.2004C92.1504 153.8 91.0104 149.64 93.5304 146.8C96.0504 143.96 100.08 144.73 103.31 145.73ZM125.96 159.25C127.89 158.17 128.79 155.69 129.06 153.62C129.338 151.249 128.943 148.847 127.92 146.69C126.031 143.006 122.889 140.116 119.06 138.54C114.89 138.55 109.87 139.25 107.06 142.46C107.263 143.383 107.36 144.325 107.35 145.27V145.87C107.698 145.697 108.064 145.563 108.44 145.47C109.689 145.159 111.004 145.238 112.206 145.696C113.409 146.153 114.444 146.968 115.17 148.03C116.53 150.1 116.74 153.23 114.96 155.1C114.544 155.521 114.039 155.845 113.482 156.047C112.925 156.25 112.33 156.326 111.74 156.27L112 156.43C114.033 157.642 116.229 158.558 118.52 159.15C120.77 159.73 123.8 160.46 125.96 159.25Z" fill="#1F2224"/>
<defs>
<linearGradient id="paint0_linear_2048_36442" x1="355.265" y1="96.3782" x2="372.803" y2="228.782" gradientUnits="userSpaceOnUse">
<stop offset="0.0350253" stop-color="#FFCC81"/>
<stop offset="0.521771" stop-color="#E7914F"/>
<stop offset="1" stop-color="#DD6843"/>
</linearGradient>
<linearGradient id="paint1_linear_2048_36442" x1="83.2648" y1="126.378" x2="100.803" y2="258.782" gradientUnits="userSpaceOnUse">
<stop offset="0.0350253" stop-color="#FFCC81"/>
<stop offset="0.521771" stop-color="#E7914F"/>
<stop offset="1" stop-color="#DD6843"/>
</linearGradient>
<linearGradient id="paint2_linear_2048_36442" x1="234.507" y1="268.003" x2="240.284" y2="307.796" gradientUnits="userSpaceOnUse">
<stop offset="0.0350253" stop-color="#66ADD9"/>
<stop offset="0.521771" stop-color="#7086DD"/>
<stop offset="1" stop-color="#6370A6"/>
</linearGradient>
<linearGradient id="paint3_linear_2048_36442" x1="187.587" y1="58.4774" x2="194.422" y2="108.875" gradientUnits="userSpaceOnUse">
<stop offset="0.0350253" stop-color="#66ADD9"/>
<stop offset="0.521771" stop-color="#7086DD"/>
<stop offset="1" stop-color="#6370A6"/>
</linearGradient>
<linearGradient id="paint4_linear_2048_36442" x1="218.437" y1="87.9429" x2="241.018" y2="218.772" gradientUnits="userSpaceOnUse">
<stop offset="0.0350253" stop-color="#D3E3EF"/>
<stop offset="0.521771" stop-color="#BCD5E8"/>
<stop offset="1" stop-color="#ABC5D8"/>
</linearGradient>
</defs>
</svg>
