<svg width="24" height="24" viewBox="0 0 24 24" fill="none" xmlns="http://www.w3.org/2000/svg">
<path d="M11.3983 13.6717C11.6179 13.4129 11.8184 13.2018 11.9889 12.9695C12.2154 12.6625 12.4043 12.3268 12.6383 12.0273C12.8723 11.7279 13.1482 11.4335 13.4153 11.1485C13.6824 10.8635 13.9626 10.5758 14.2428 10.2957C14.7362 9.8024 15.2314 9.31072 15.7285 8.82068C15.7917 8.75959 15.8764 8.72287 15.9398 8.66323C16.0879 8.52157 16.2261 8.3683 16.3759 8.22779C16.8196 7.81498 17.3065 7.52635 17.9526 7.59219C18.2317 7.6204 18.5217 7.59806 18.7647 7.75437C19.1588 8.00853 19.4846 8.32784 19.5418 8.82825C19.5743 9.17185 19.4895 9.51632 19.3013 9.80563C19.1747 10.0335 19.0309 10.2514 18.8711 10.4573C18.6512 10.7147 18.391 10.9364 18.1513 11.1781C18.0621 11.2671 17.9941 11.379 17.9057 11.4573C17.4891 11.8102 17.0662 12.1539 16.6488 12.5025C16.546 12.5886 16.4498 12.6822 16.3611 12.7826C16.0428 13.132 15.6911 13.4493 15.311 13.7302C15.0948 13.9008 14.9431 14.1519 14.7377 14.3384C14.4226 14.6255 14.0768 14.8796 13.7565 15.1633C13.4823 15.4059 13.2375 15.6819 12.9578 15.9196C12.6781 16.1573 12.352 16.3969 12.0414 16.6167C11.8747 16.7334 11.6837 16.8943 11.4938 16.8964C11.1554 16.8831 10.8198 16.8287 10.4945 16.7343C10.1155 16.6246 9.78012 16.3993 9.53526 16.0899C9.28447 15.8053 9.08121 15.4793 8.83418 15.1909C8.47048 14.766 8.13286 14.3207 7.6825 13.9752C7.41107 13.7408 7.15414 13.4901 6.91316 13.2245C6.51778 12.8371 6.12048 12.4527 5.72124 12.0712C5.41992 11.7832 5.10498 11.5101 4.80743 11.2183C4.34031 10.7599 3.86828 10.307 3.50752 9.75465C3.43348 9.6691 3.36777 9.57667 3.31131 9.47863C3.15293 9.09077 3.41517 8.82638 3.61788 8.5589C3.78024 8.35962 3.95696 8.17249 4.14665 7.99903C4.46541 7.68546 5.31692 7.37756 5.7972 7.7291C6.36644 8.14724 6.93826 8.55578 7.50663 8.97712C7.85085 9.23078 8.21044 9.47077 8.5251 9.75004C8.73732 9.95248 8.93306 10.1715 9.11047 10.405C9.26703 10.5969 9.41749 10.7961 9.55781 10.9973C9.80788 11.3606 10.0487 11.7303 10.2935 12.0977C10.3852 12.2302 10.4755 12.3781 10.5725 12.5141C10.8246 12.88 11.09 13.2447 11.3983 13.6717Z" fill="#1F2224"/>
</svg>
