<svg width="48" height="48" viewBox="0 0 48 48" fill="none" xmlns="http://www.w3.org/2000/svg">
<circle cx="24" cy="24" r="24" fill="url(#paint0_linear_1951_33735)"/>
<path d="M38 22.4983V22.5321C38 23.143 37.8282 23.7134 37.5319 24.196L37.5396 24.1825C37.2433 24.6738 36.8193 25.0714 36.3149 25.3312L36.2973 25.3391C36.4162 25.7925 36.4845 26.3122 36.4845 26.85V26.8702V26.8691C36.4765 28.5531 35.8841 30.1795 34.8127 31.4593L34.8204 31.4492C33.6236 32.9109 32.0901 34.0459 30.3576 34.7523L30.2816 34.7793C28.4809 35.5511 26.3883 36 24.1922 36L24.0237 35.9989H24.0325L23.8717 36C21.6789 36 19.5896 35.5511 17.6853 34.7388L17.7911 34.7793C16.0389 34.0768 14.4864 32.9383 13.2744 31.4672L13.2601 31.4492C12.1934 30.172 11.6042 28.5501 11.597 26.8714V26.8691V26.8635C11.597 26.3347 11.6587 25.8195 11.7743 25.3267L11.7655 25.3717C11.2451 25.1126 10.8046 24.712 10.4923 24.214L10.4846 24.2016C10.1665 23.6939 9.9983 23.1034 10 22.5006C10 21.6264 10.3458 20.8344 10.9064 20.2606C11.1847 19.965 11.5185 19.7298 11.888 19.5694C12.2574 19.4089 12.6548 19.3264 13.0563 19.3268H13.1114H13.1081H13.151C14.031 19.3268 14.824 19.7127 15.3747 20.327L15.3769 20.3292C17.745 18.6723 20.5422 17.7724 23.4124 17.7439H23.4212L25.2341 9.42977C25.2656 9.29183 25.3491 9.17217 25.4665 9.09675L25.4687 9.09563C25.5275 9.05337 25.5945 9.02439 25.6651 9.01062C25.7358 8.99685 25.8085 8.9986 25.8784 9.01575L25.8751 9.01463L31.6396 10.3073C31.8313 9.91016 32.1187 9.5884 32.4734 9.36452L32.4833 9.35889C32.8346 9.13388 33.2619 9 33.7201 9C34.3644 9 34.9492 9.26439 35.3732 9.69415C35.7973 10.1093 36.0605 10.6932 36.0605 11.3401V11.3806V11.3783V11.4121C36.0605 12.0624 35.7973 12.6497 35.3732 13.0682L35.3721 13.0693C35.1552 13.2924 34.8971 13.4693 34.6127 13.5898C34.3284 13.7103 34.0235 13.772 33.7157 13.7713C33.0979 13.7719 32.505 13.5223 32.067 13.0772C31.8516 12.8637 31.6805 12.6082 31.5637 12.3258C31.447 12.0435 31.387 11.74 31.3874 11.4335V11.3907V11.393L26.1691 10.2117L24.5446 17.7427C27.5701 17.7652 30.3742 18.7159 32.7024 20.3303L32.6507 20.2966C32.9398 19.9884 33.2871 19.7433 33.6716 19.5761C34.056 19.4088 34.4697 19.3229 34.8875 19.3234C35.7466 19.3234 36.5242 19.6801 37.087 20.2572C37.6476 20.8152 37.9956 21.5949 37.9956 22.4567V22.5006V22.4983H38ZM16.5355 25.6732V25.7092C16.5355 26.3572 16.7954 26.9434 17.2151 27.3641C17.4231 27.5865 17.6732 27.7633 17.9502 27.884C18.2272 28.0046 18.5252 28.0666 18.8263 28.0662H18.866H18.8638C19.4852 28.0656 20.081 27.8131 20.5204 27.3643C20.9598 26.9154 21.2069 26.3068 21.2075 25.6721V25.6338C21.2075 24.9869 20.9443 24.403 20.5202 23.989L20.5191 23.9879C20.308 23.7677 20.0559 23.5929 19.7777 23.4737C19.4995 23.3545 19.2007 23.2933 18.899 23.2937H18.8616H18.8638C18.2481 23.299 17.659 23.5511 17.2236 23.9958C16.7881 24.4404 16.541 25.042 16.5355 25.6709V25.6721V25.6732ZM29.1891 31.3389C29.2436 31.2851 29.287 31.2206 29.3167 31.1493C29.3463 31.078 29.3616 31.0013 29.3616 30.9238C29.3616 30.8463 29.3463 30.7696 29.3167 30.6983C29.287 30.627 29.2436 30.5625 29.1891 30.5086C29.1401 30.4578 29.0816 30.4175 29.0171 30.39C28.9526 30.3626 28.8834 30.3486 28.8135 30.3489H28.7981H28.7992H28.7904C28.6428 30.3487 28.5007 30.4058 28.3928 30.5086C27.8708 31.0053 27.2255 31.3461 26.5271 31.4942L26.5018 31.4987C24.8372 31.9298 23.093 31.9244 21.4311 31.4829L21.5016 31.4987C20.792 31.3535 20.1359 31.01 19.6061 30.5064L19.6083 30.5086C19.5006 30.4056 19.3583 30.3485 19.2107 30.3489H19.1898C19.12 30.3487 19.0508 30.3628 18.9863 30.3902C18.9218 30.4176 18.8633 30.4579 18.8142 30.5086C18.7589 30.558 18.7146 30.6189 18.6842 30.6872C18.6538 30.7555 18.6381 30.8296 18.638 30.9047V30.9204C18.638 31.0847 18.7052 31.2332 18.8142 31.3389C19.3307 31.836 19.9527 32.2044 20.6315 32.4156L20.6645 32.4246C21.2684 32.6486 21.8944 32.8047 22.5313 32.8904L22.5787 32.896C23.0677 32.944 23.5413 32.968 23.9995 32.968C24.4576 32.968 24.9312 32.944 25.4202 32.896C26.0953 32.8071 26.7587 32.6422 27.3983 32.4044L27.3344 32.4257C28.0274 32.216 28.6629 31.8439 29.1902 31.3389L29.188 31.3412L29.1891 31.3389ZM29.1428 28.0673H29.1803C29.8136 28.0673 30.3852 27.7984 30.7905 27.3653L30.7916 27.3641C31.2112 26.9434 31.4711 26.3572 31.4711 25.7092V25.6709V25.6732C31.4659 25.0442 31.2191 24.4425 30.7838 23.9977C30.3486 23.5528 29.7596 23.3004 29.1439 23.2948H29.1076C28.4732 23.2948 27.8994 23.5604 27.4875 23.989C27.2698 24.2016 27.0967 24.457 26.9786 24.74C26.8605 25.0229 26.7998 25.3274 26.8002 25.6349V25.6754V25.6732C26.8008 26.308 27.0479 26.9166 27.4873 27.3654C27.9267 27.8143 28.5225 28.0667 29.1439 28.0673H29.1428Z" fill="white"/>
<defs>
<linearGradient id="paint0_linear_1951_33735" x1="24" y1="0" x2="24" y2="48" gradientUnits="userSpaceOnUse">
<stop stop-color="#FF4500" stop-opacity="0.5"/>
<stop offset="0.713542" stop-color="#FF4500" stop-opacity="0.75"/>
<stop offset="1" stop-color="#FF4500"/>
</linearGradient>
</defs>
</svg>
