<svg width="32" height="32" viewBox="0 0 32 32" fill="none" xmlns="http://www.w3.org/2000/svg">
<circle cx="16" cy="16" r="16" fill="white"/>
<circle cx="16" cy="16" r="16" fill="url(#paint0_linear_2024_74351)"/>
<path d="M11.0728 9.59409C9.37387 9.59409 7.74453 10.269 6.54321 11.4703C5.34189 12.6716 4.66699 14.301 4.66699 15.9999C4.66699 17.6988 5.34189 19.3281 6.54321 20.5295C7.74453 21.7308 9.37387 22.4057 11.0728 22.4057C12.7717 22.4057 14.4011 21.7308 15.6024 20.5295C16.8037 19.3281 17.4786 17.6988 17.4786 15.9999C17.4786 14.301 16.8037 12.6716 15.6024 11.4703C14.4011 10.269 12.7717 9.59409 11.0728 9.59409V9.59409ZM21.1742 10.0868C19.4053 10.0868 17.9713 12.7344 17.9713 15.9999C17.9713 16.6124 18.0216 17.2027 18.1152 17.758C18.2399 18.4986 18.4414 19.1767 18.7026 19.7611C18.8332 20.0533 18.9785 20.3218 19.1367 20.5628C19.4531 21.0447 19.8206 21.4167 20.2217 21.6473C20.5228 21.8198 20.8426 21.9129 21.1742 21.9129C21.5059 21.9129 21.8257 21.8198 22.1267 21.6473C22.5278 21.4167 22.8954 21.0447 23.2118 20.5628C23.3699 20.3218 23.5153 20.0533 23.6459 19.7611C23.9071 19.1772 24.1086 18.4986 24.2333 17.758C24.3269 17.2027 24.3771 16.6124 24.3771 15.9999C24.3771 12.7344 22.9432 10.0868 21.1742 10.0868ZM26.1018 10.5796C25.9742 10.5796 25.851 10.6648 25.7357 10.8235C25.6583 10.929 25.5844 11.0669 25.5149 11.234C25.4799 11.3172 25.4459 11.4079 25.4134 11.5055C25.3479 11.7001 25.2868 11.9223 25.2311 12.1672C25.1197 12.6575 25.0295 13.2419 24.967 13.8904C24.9359 14.2146 24.9118 14.5551 24.895 14.9079C24.8783 15.2603 24.8699 15.6259 24.8699 15.9999C24.8699 16.3739 24.8783 16.7395 24.895 17.0923C24.9113 17.4451 24.9354 17.7856 24.967 18.1099C25.0295 18.7583 25.1197 19.3422 25.2311 19.833C25.2868 20.0784 25.3479 20.3001 25.4134 20.4948C25.4459 20.5923 25.4799 20.683 25.5149 20.7663C25.5849 20.9333 25.6588 21.0713 25.7357 21.1768C25.851 21.3349 25.9742 21.4202 26.1018 21.4202C26.7823 21.4202 27.3337 18.9934 27.3337 15.9999C27.3337 13.0064 26.7823 10.5796 26.1018 10.5796Z" fill="white"/>
<defs>
<linearGradient id="paint0_linear_2024_74351" x1="16" y1="0" x2="16" y2="32" gradientUnits="userSpaceOnUse">
<stop stop-color="#1F2224" stop-opacity="0.7"/>
<stop offset="0.348958" stop-color="#1F2224" stop-opacity="0.85"/>
<stop offset="1" stop-color="#1F2224"/>
</linearGradient>
</defs>
</svg>
