<svg width="48" height="48" viewBox="0 0 48 48" fill="none" xmlns="http://www.w3.org/2000/svg">
<circle cx="24" cy="24" r="24" fill="url(#paint0_linear_1951_33732)"/>
<path fill-rule="evenodd" clip-rule="evenodd" d="M10.7918 22.2986C17.7883 19.2504 22.4537 17.2408 24.788 16.2699C31.4531 13.4976 32.838 13.0161 33.7407 13.0002C33.9392 12.9967 34.3832 13.0459 34.6707 13.2792C34.9135 13.4762 34.9803 13.7424 35.0123 13.9292C35.0443 14.1159 35.0841 14.5415 35.0524 14.8739C34.6912 18.6689 33.1284 27.8783 32.3333 32.1287C31.9969 33.9272 31.3345 34.5303 30.6932 34.5893C29.2994 34.7175 28.2411 33.6682 26.8912 32.7833C24.7789 31.3987 23.5856 30.5367 21.5352 29.1856C19.1657 27.6241 20.7017 26.7659 22.0521 25.3633C22.4055 24.9962 28.5463 19.4107 28.6652 18.904C28.68 18.8406 28.6938 18.6044 28.5535 18.4797C28.4132 18.355 28.2061 18.3976 28.0566 18.4315C27.8447 18.4796 24.4703 20.71 17.9333 25.1227C16.9754 25.7804 16.1079 26.1009 15.3306 26.0841C14.4736 26.0656 12.8253 25.5995 11.5999 25.2012C10.0969 24.7127 8.9023 24.4543 9.00631 23.6246C9.06049 23.1924 9.65564 22.7504 10.7918 22.2986Z" fill="white"/>
<defs>
<linearGradient id="paint0_linear_1951_33732" x1="24" y1="0" x2="24" y2="48" gradientUnits="userSpaceOnUse">
<stop stop-color="#229ED9" stop-opacity="0.5"/>
<stop offset="0.713542" stop-color="#229ED9" stop-opacity="0.75"/>
<stop offset="1" stop-color="#229ED9"/>
</linearGradient>
</defs>
</svg>
