<svg width="48" height="48" viewBox="0 0 48 48" fill="none" xmlns="http://www.w3.org/2000/svg">
<circle cx="24" cy="24" r="24" fill="url(#paint0_linear_2209_14891)"/>
<path d="M39.243 19.5153V33.066L24.1708 41.7662L9.09027 33.066V15.6569L24.1708 6.94813L35.7545 13.6394L37.503 12.6307L24.1708 4.93066L7.3418 14.6481V34.0747L24.1708 43.7921L40.9999 34.0747V18.5065L39.243 19.5153Z" fill="white"/>
<path d="M19.9515 33.0744H17.4297V24.6178H25.8358C26.6312 24.609 27.391 24.2874 27.951 23.7226C28.5111 23.1579 28.8263 22.3954 28.8284 21.5999C28.8329 21.2067 28.757 20.8166 28.6053 20.4538C28.4534 20.0909 28.229 19.763 27.9457 19.4901C27.6716 19.2084 27.3435 18.985 26.9809 18.8334C26.6183 18.6816 26.2288 18.6048 25.8358 18.6074H17.4297V16.0352H25.8442C27.3173 16.044 28.7277 16.6331 29.7694 17.6748C30.8111 18.7165 31.4002 20.1269 31.409 21.5999C31.418 22.7277 31.0742 23.8299 30.4256 24.7522C29.8286 25.6349 28.9873 26.3242 28.0046 26.7361C27.0315 27.0447 26.016 27.1979 24.9952 27.1901H19.9515V33.0744Z" fill="white"/>
<path d="M31.3495 32.8639H28.4073L26.1377 28.9047C27.0356 28.8497 27.9213 28.6686 28.7688 28.3667L31.3495 32.8639Z" fill="white"/>
<path d="M37.4854 16.6994L39.2254 17.6661L40.9655 16.6994V14.6567L39.2254 13.6479L37.4854 14.6567V16.6994Z" fill="white"/>
<defs>
<linearGradient id="paint0_linear_2209_14891" x1="24" y1="48" x2="19.2727" y2="0.470185" gradientUnits="userSpaceOnUse">
<stop stop-color="#C200FB"/>
<stop offset="0.293723" stop-color="#3772FF"/>
<stop offset="0.486799" stop-color="#3773FE"/>
<stop offset="1" stop-color="#5AC4BE"/>
</linearGradient>
</defs>
</svg>
