<svg width="48" height="48" viewBox="0 0 48 48" fill="none" xmlns="http://www.w3.org/2000/svg">
<circle cx="24" cy="24" r="24" fill="url(#paint0_linear_1951_33734)"/>
<path d="M35.2428 13.9587C33.267 13.0521 31.1482 12.3842 28.9329 12.0016C28.8925 11.9942 28.8522 12.0127 28.8314 12.0496C28.5589 12.5342 28.2571 13.1665 28.0457 13.6635C25.663 13.3067 23.2925 13.3067 20.9587 13.6635C20.7473 13.1555 20.4345 12.5342 20.1607 12.0496C20.14 12.0139 20.0997 11.9955 20.0593 12.0016C17.8452 12.3829 15.7264 13.0509 13.7494 13.9587C13.7323 13.9661 13.7176 13.9784 13.7079 13.9944C9.68896 19.9985 8.58802 25.8551 9.12811 31.639C9.13055 31.6673 9.14644 31.6944 9.16843 31.7116C11.82 33.6588 14.3885 34.841 16.9092 35.6245C16.9496 35.6368 16.9923 35.6221 17.018 35.5888C17.6143 34.7745 18.1458 33.9159 18.6016 33.013C18.6285 32.9601 18.6028 32.8974 18.5478 32.8765C17.7047 32.5566 16.9019 32.1667 16.1297 31.7239C16.0686 31.6882 16.0637 31.6008 16.1199 31.559C16.2824 31.4372 16.4449 31.3105 16.6001 31.1826C16.6282 31.1592 16.6673 31.1543 16.7003 31.1691C21.7737 33.4854 27.2662 33.4854 32.2796 31.1691C32.3127 31.1531 32.3518 31.158 32.3811 31.1814C32.5363 31.3093 32.6988 31.4372 32.8625 31.559C32.9187 31.6008 32.9151 31.6882 32.854 31.7239C32.0817 32.1753 31.2789 32.5566 30.4346 32.8753C30.3796 32.8962 30.3552 32.9601 30.3821 33.013C30.8476 33.9147 31.3791 34.7733 31.9644 35.5876C31.9889 35.6221 32.0328 35.6368 32.0732 35.6245C34.6062 34.841 37.1746 33.6588 39.8262 31.7116C39.8494 31.6944 39.8641 31.6685 39.8665 31.6402C40.5129 24.9534 38.7839 19.1448 35.2831 13.9956C35.2746 13.9784 35.2599 13.9661 35.2428 13.9587ZM19.3592 28.1172C17.8318 28.1172 16.5732 26.7149 16.5732 24.9927C16.5732 23.2706 17.8074 21.8683 19.3592 21.8683C20.9232 21.8683 22.1696 23.2829 22.1451 24.9927C22.1451 26.7149 20.911 28.1172 19.3592 28.1172ZM29.6599 28.1172C28.1325 28.1172 26.8739 26.7149 26.8739 24.9927C26.8739 23.2706 28.1081 21.8683 29.6599 21.8683C31.2239 21.8683 32.4703 23.2829 32.4459 24.9927C32.4459 26.7149 31.2239 28.1172 29.6599 28.1172Z" fill="white"/>
<defs>
<linearGradient id="paint0_linear_1951_33734" x1="24" y1="0" x2="24" y2="48" gradientUnits="userSpaceOnUse">
<stop stop-color="#5865F2" stop-opacity="0.5"/>
<stop offset="0.713542" stop-color="#5865F2" stop-opacity="0.75"/>
<stop offset="1" stop-color="#5865F2"/>
</linearGradient>
</defs>
</svg>
