<svg width="32" height="32" viewBox="0 0 32 32" fill="none" xmlns="http://www.w3.org/2000/svg">
<circle cx="16" cy="16" r="16" fill="white"/>
<circle cx="16" cy="16" r="16" fill="url(#paint0_linear_2024_74350)"/>
<path d="M12.7604 23.812C12.7604 24.284 13.1431 24.6667 13.6151 24.6667H17.8972C18.3692 24.6667 18.7519 24.284 18.7519 23.812V20.7436C18.7519 19.7341 18.0663 18.3943 17.1265 17.9174C20.5416 17.5737 22.1713 15.9201 22.1713 13.6757C22.1713 12.7103 21.7502 11.7774 21.0346 10.991C21.2734 10.2103 21.5739 8.60834 20.9473 8C19.405 8 18.4737 8.97368 18.2529 9.23417C17.4843 8.97701 16.6386 8.83221 15.7519 8.83221C14.8668 8.83221 14.0246 8.97701 13.2577 9.2325C13.0343 8.97036 12.1039 8 10.5649 8C9.94097 8.60751 10.238 10.2029 10.4742 10.9851C9.75437 11.7732 9.33069 12.7086 9.33069 13.6757C9.33069 15.9218 10.9629 17.5762 14.3832 17.9183C13.7901 18.2195 13.3048 18.8578 13.024 19.5511C12.5019 19.631 11.9473 19.6518 11.5766 19.6518C10.8123 19.6518 10.6197 19.5336 10.2106 19.0118C9.79974 18.4908 9.36322 18.1396 8.83682 17.9948C8.5518 17.9657 8.36349 18.1812 8.61086 18.3702C9.19193 18.7657 9.39627 19.3364 9.58065 19.8513C9.66081 20.0752 9.73719 20.2885 9.83911 20.4723C10.1421 21.0182 10.7669 21.312 11.4697 21.312H12.7604V23.812Z" fill="white"/>
<defs>
<linearGradient id="paint0_linear_2024_74350" x1="16" y1="0" x2="16" y2="32" gradientUnits="userSpaceOnUse">
<stop stop-color="#0D2454" stop-opacity="0.6"/>
<stop offset="0.432292" stop-color="#0D2454" stop-opacity="0.75"/>
<stop offset="1" stop-color="#0D2454"/>
</linearGradient>
</defs>
</svg>
