<svg width="48" height="48" viewBox="0 0 48 48" fill="none" xmlns="http://www.w3.org/2000/svg">
<circle cx="24" cy="24" r="24" fill="url(#paint0_linear_1951_33733)"/>
<path d="M19.862 34C29.296 34 34.456 26.3047 34.456 19.6314C34.456 19.4129 34.456 19.1953 34.441 18.9787C35.4448 18.2638 36.3114 17.3787 37 16.3647C36.0639 16.7733 35.0709 17.0411 34.054 17.1592C35.1248 16.5282 35.9262 15.5355 36.309 14.3661C35.3022 14.9543 34.2007 15.3689 33.052 15.5918C32.2787 14.7822 31.2559 14.2461 30.1419 14.0665C29.0279 13.8868 27.8848 14.0737 26.8895 14.5981C25.8943 15.1225 25.1023 15.9553 24.6362 16.9675C24.1701 17.9797 24.0558 19.1149 24.311 20.1976C22.2718 20.0968 20.2768 19.5751 18.4557 18.6661C16.6345 17.7571 15.0279 16.4813 13.74 14.9213C13.0841 16.0331 12.8832 17.3491 13.1782 18.6015C13.4733 19.854 14.242 20.9486 15.328 21.6626C14.5117 21.639 13.7132 21.4222 13 21.0305V21.0945C13.0003 22.2604 13.4103 23.3903 14.1603 24.2926C14.9103 25.1949 15.9542 25.8139 17.115 26.0448C16.3599 26.2476 15.5676 26.2772 14.799 26.1315C15.1269 27.1348 15.765 28.0122 16.6242 28.641C17.4834 29.2698 18.5207 29.6185 19.591 29.6384C18.5275 30.4614 17.3097 31.0699 16.0072 31.4291C14.7046 31.7883 13.3429 31.891 12 31.7316C14.3457 33.2136 17.0749 33.9997 19.862 33.9961" fill="white"/>
<defs>
<linearGradient id="paint0_linear_1951_33733" x1="24" y1="0" x2="24" y2="48" gradientUnits="userSpaceOnUse">
<stop stop-color="#1DA1F2" stop-opacity="0.5"/>
<stop offset="0.713542" stop-color="#1DA1F2" stop-opacity="0.75"/>
<stop offset="1" stop-color="#1DA1F2"/>
</linearGradient>
</defs>
</svg>
