<svg width="32" height="32" viewBox="0 0 32 32" fill="none" xmlns="http://www.w3.org/2000/svg">
<circle cx="16" cy="16" r="16" fill="white"/>
<circle cx="16" cy="16" r="16" fill="url(#paint0_linear_2024_74349)"/>
<path d="M15.6229 6V12.2899H12.4779C10.746 12.2899 9.33301 10.8769 9.33301 9.14493C9.33301 7.41297 10.746 6 12.4779 6H15.6229ZM15.6229 13.1884V19.4783H12.4779C10.746 19.4783 9.33301 18.0653 9.33301 16.3333C9.33301 14.6014 10.746 13.1884 12.4779 13.1884H15.6229ZM15.6229 20.3768V23.5217C15.6229 25.2537 14.2099 26.6667 12.4779 26.6667C10.746 26.6667 9.33301 25.2537 9.33301 23.5217C9.33301 21.7898 10.746 20.3768 12.4779 20.3768H15.6229ZM22.8113 9.14493C22.8113 10.8769 21.3983 12.2899 19.6663 12.2899H16.5214V6H19.6663C21.3983 6 22.8113 7.41297 22.8113 9.14493ZM19.6663 13.1884C18.8323 13.1884 18.0323 13.5197 17.4425 14.1095C16.8528 14.6993 16.5214 15.4992 16.5214 16.3333C16.5214 17.1674 16.8528 17.9673 17.4425 18.5571C18.0323 19.1469 18.8323 19.4783 19.6663 19.4783C20.5004 19.4783 21.3004 19.1469 21.8901 18.5571C22.4799 17.9673 22.8113 17.1674 22.8113 16.3333C22.8113 15.4992 22.4799 14.6993 21.8901 14.1095C21.3004 13.5197 20.5004 13.1884 19.6663 13.1884Z" fill="white"/>
<defs>
<linearGradient id="paint0_linear_2024_74349" x1="16" y1="0" x2="16" y2="32" gradientUnits="userSpaceOnUse">
<stop stop-color="#DA5630" stop-opacity="0.5"/>
<stop offset="0.713542" stop-color="#DA5630" stop-opacity="0.75"/>
<stop offset="1" stop-color="#DA5630"/>
</linearGradient>
</defs>
</svg>
