<svg width="106" height="48" viewBox="0 0 106 48" fill="none" xmlns="http://www.w3.org/2000/svg">
<path d="M61.2997 44.4855C59.8798 44.4855 58.7052 44.0535 57.7759 43.1895C57.0272 42.5612 56.3431 41.4877 55.7235 39.9692C55.3363 38.9743 55.0265 37.5737 54.7942 35.7671C54.6135 34.301 54.5231 32.9134 54.5231 31.6043C54.4973 31.264 54.4844 30.6749 54.4844 29.8371V26.931C54.4844 25.8052 54.5231 24.4568 54.6005 22.886C54.7038 21.5507 54.9103 20.1893 55.2201 18.8017C55.5557 17.4403 56.0462 16.2883 56.6916 15.3458C57.337 14.3509 58.2018 13.644 59.2861 13.2251C59.9315 13.0418 60.5381 12.9502 61.1061 12.9502C62.1904 12.9502 62.7325 13.3167 62.7325 14.0498C62.7325 14.3378 62.6292 14.5734 62.4227 14.7567C62.242 14.9138 61.9967 14.9923 61.6869 14.9923C61.5837 14.9923 61.403 14.9531 61.1448 14.8745L60.6027 14.796C60.1122 14.796 59.6733 14.9531 59.2861 15.2672C58.8989 15.5552 58.5762 15.9872 58.318 16.5632C57.7242 17.8199 57.3241 19.1944 57.1176 20.6868C56.8336 22.5194 56.6787 24.1165 56.6529 25.4779C56.6013 26.6561 56.5754 27.8997 56.5754 29.2087V30.2691C56.5496 30.6356 56.5367 31.0938 56.5367 31.6436C56.5367 32.9788 56.6013 34.2879 56.7303 35.5708C56.8336 37.0893 57.1176 38.3984 57.5823 39.498C57.9953 40.7285 58.6665 41.5925 59.5959 42.0899C60.0347 42.3517 60.5769 42.4826 61.2223 42.4826C62.3582 42.4826 63.3133 41.9328 64.0878 40.8332C64.062 39.9169 63.9974 39.0267 63.8942 38.1627C63.7909 37.2726 63.636 36.6704 63.4295 36.3562C63.4037 36.3562 63.3391 36.3693 63.2359 36.3955C63.1584 36.3955 63.0294 36.4086 62.8487 36.4348L61.9193 36.5133C61.0416 36.5133 60.6027 36.1337 60.6027 35.3744C60.6027 35.1388 60.7318 34.9293 60.9899 34.7461C61.2481 34.5628 61.5966 34.4319 62.0355 34.3534C62.7583 34.1701 63.4037 34.0785 63.9716 34.0785C64.4879 34.0785 64.8881 34.2748 65.1721 34.6675C65.456 35.0603 65.598 35.5577 65.598 36.1599C65.598 37.0238 65.7271 38.202 65.9853 39.6943C66.2434 41.1605 66.3725 42.3255 66.3725 43.1895C66.3725 43.4775 66.2821 43.7262 66.1014 43.9357C65.9207 44.1451 65.7013 44.2499 65.4431 44.2499C64.7977 44.2499 64.3589 43.975 64.1265 43.4252V43.3859L63.2746 43.8179C62.5001 44.263 61.8418 44.4855 61.2997 44.4855Z" fill="#1F2224"/>
<path d="M76.9215 44.8142C76.2838 44.8837 75.6965 44.8007 75.1597 44.565C74.6257 44.3558 74.1702 44.0043 73.7931 43.5105C73.0331 42.47 72.4829 41.2595 72.1425 39.879C71.8225 38.6835 71.5693 37.24 71.3828 35.5485C70.9885 32.7028 70.564 29.2185 70.1095 25.0955L69.7332 22.0472C69.6891 21.8915 69.6467 21.6287 69.6059 21.2586C69.4421 20.2601 69.3485 19.6551 69.3252 19.4437C69.5031 18.8626 69.7515 18.5546 70.0703 18.5199C70.3892 18.4851 70.6944 18.6925 70.9859 19.1422C71.3041 19.5889 71.4937 20.0898 71.5549 20.6448L72.7436 31.4281C72.8601 32.4853 73.1075 33.8759 73.4858 35.6C73.9107 37.7469 74.1581 39.1376 74.228 39.7719C74.4436 41.7277 75.3883 42.6143 77.0622 42.4317C78.9751 42.223 79.1479 35.0091 77.5805 20.79L77.2964 18.2131C77.2611 18.1367 77.2362 18.0324 77.2216 17.9003C77.1866 17.5831 77.2283 17.3512 77.3466 17.2046C77.4885 17.0286 77.772 16.9175 78.1971 16.8711C78.5425 16.8334 78.8199 16.9102 79.0292 17.1013C79.2621 17.2631 79.4197 17.4733 79.502 17.7318C79.5461 17.8875 79.5928 18.19 79.6424 18.6393C79.689 19.0621 79.7234 19.7404 79.7457 20.6742C79.7239 21.4522 79.7436 22.1188 79.8048 22.6738C79.8718 23.2817 79.9049 23.8264 79.9042 24.3079L80.0081 25.9817L80.043 26.2988C80.0813 26.4016 80.1077 26.5191 80.1222 26.6513C81.4158 38.386 80.3489 44.4403 76.9215 44.8142Z" fill="#1F2224"/>
<path d="M99.6555 43.9942C99.314 42.5477 99.1433 40.5416 99.1433 37.9761L99.2221 34.3324C99.2746 33.2407 99.3009 32.0261 99.3009 30.6888C99.1433 30.3067 99.0645 29.9655 99.0645 29.6653V29.5425C99.3271 29.0239 99.4585 27.8503 99.4585 26.0217L99.4979 24.1384C99.5241 23.538 99.5373 22.8693 99.5373 22.1324C99.5373 20.5221 99.4322 19.2529 99.2221 18.325C99.3009 17.9429 99.4322 17.6154 99.6161 17.3424C99.8 17.0422 100.023 16.8921 100.286 16.8921H102.02C102.755 16.8921 103.399 17.0695 103.95 17.4243C104.502 17.7518 104.922 18.2295 105.211 18.8572C105.737 19.9762 105.999 21.2999 105.999 22.8284C105.999 23.9201 105.986 24.7798 105.96 25.4076C105.907 26.1991 105.776 26.9223 105.566 27.5774C105.487 27.9322 105.369 28.2324 105.211 28.478C105.08 28.6964 104.883 28.9693 104.62 29.2968C104.252 29.7608 103.648 30.1975 102.808 30.6069C102.466 30.798 102.02 30.9754 101.468 31.1391V35.5197L101.547 38.1398L101.626 39.409C101.731 40.9374 101.783 42.2338 101.783 43.2982C101.783 43.6257 101.652 43.8987 101.389 44.117C101.126 44.3627 100.824 44.4855 100.483 44.4855L99.6555 43.9942ZM101.507 29.4606C103.057 29.215 103.832 26.9087 103.832 22.5418C103.832 21.7503 103.793 21.1362 103.714 20.6995C103.635 20.372 103.53 20.1127 103.399 19.9216C103.267 19.7033 103.07 19.5259 102.808 19.3894C102.519 19.2257 102.203 19.1438 101.862 19.1438C101.862 19.1165 101.718 19.1028 101.429 19.1028V21.4364C101.429 23.0467 101.442 24.4796 101.468 25.7351C101.468 27.1543 101.481 28.0823 101.507 28.519V29.4606Z" fill="#1F2224"/>
<path d="M91.9455 41.5293C91.0361 41.2153 89.9119 41.0584 88.5729 41.0584C88.1687 41.32 87.7392 41.4508 87.2845 41.4508C86.9813 41.4508 86.7161 41.3069 86.4887 41.0191C86.2866 40.7575 86.1855 40.4697 86.1855 40.1557C86.1855 37.958 86.274 35.0278 86.4508 31.3649C86.6024 27.4666 86.6782 24.5494 86.6782 22.6134V22.3386C86.5266 20.6904 86.4508 19.4607 86.4508 18.6496C86.4508 16.1641 86.8929 14.9214 87.7771 14.9214C88.0298 14.9214 88.2445 15.026 88.4213 15.2353C88.6234 15.4185 88.7245 15.6409 88.7245 15.9025C88.7245 16.2165 88.6866 16.7136 88.6108 17.3938C88.535 18.0479 88.4971 18.545 88.4971 18.8851C88.4971 20.638 88.5098 22.2209 88.535 23.6337C88.5603 25.0204 88.5729 26.5901 88.5729 28.3431C88.4466 28.7355 88.3834 29.285 88.3834 29.9914V30.4623L88.3077 33.5626C88.2571 34.4783 88.2319 35.5249 88.2319 36.7022C88.2319 38.5075 88.6487 39.4101 89.4824 39.4101C89.5329 39.4101 89.6087 39.4101 89.7098 39.4101C89.8361 39.3839 90.0003 39.3708 90.2024 39.3708C90.4298 39.3447 90.7203 39.3316 91.074 39.3316C92.4382 39.3316 93.1203 39.724 93.1203 40.5089C93.1203 40.7706 93.0066 40.993 92.7792 41.1761C92.5519 41.3592 92.274 41.477 91.9455 41.5293Z" fill="#1F2224"/>
<path d="M40.7741 27.7268C40.7741 38.4706 31.1865 47.1801 20.386 47.1801C9.58557 47.1801 0.830078 38.4706 0.830078 27.7268C0.830078 16.983 9.58557 8.27344 20.386 8.27344C31.1865 8.27344 40.7741 16.983 40.7741 27.7268Z" fill="url(#paint0_linear_181_8804)"/>
<path fill-rule="evenodd" clip-rule="evenodd" d="M26.7523 10.7319L26.7607 10.7853C26.8446 11.1987 26.6767 11.6327 26.2148 11.7981C25.837 11.9014 25.2911 11.6534 25.2282 11.24L25.2282 11.24C25.1514 10.7564 25.0747 10.2728 24.9897 9.79127C24.6004 9.68989 24.2091 9.61693 23.8015 9.54396C23.6898 9.52195 23.572 9.5058 23.4515 9.48926L23.4515 9.48926C23.3457 9.47475 23.2377 9.45994 23.1298 9.44062C23.0983 9.44062 23.072 9.43545 23.0458 9.43028C23.0196 9.42512 22.9933 9.41995 22.9618 9.41995C22.9093 9.40962 22.8569 9.40445 22.8044 9.39928C22.7519 9.39412 22.6994 9.38895 22.6469 9.37861C21.7652 9.29594 20.8625 9.2546 19.9808 9.29594C19.5399 9.31661 19.0991 9.35794 18.6792 9.39928C18.65 9.39928 18.6162 9.40373 18.5801 9.40851C18.5383 9.41401 18.4933 9.41995 18.4483 9.41995C18.3727 9.43235 18.4558 9.41499 18.4891 9.40805C18.5113 9.40342 18.5113 9.40341 18.4273 9.41995C18.3832 9.4308 18.3334 9.43596 18.2807 9.44139C18.2331 9.44631 18.1833 9.45147 18.1334 9.46129L17.6515 9.55617C17.5932 9.58903 17.5296 9.61325 17.4616 9.62664C16.433 9.83333 15.4463 10.102 14.4596 10.4327C13.9768 10.5981 13.4939 10.7841 13.0111 10.9701C12.6542 11.0941 12.1504 11.3215 11.6885 11.5488C10.7648 11.9829 9.8621 12.4996 9.00139 13.0783C8.16166 13.657 7.44789 14.2151 6.67115 14.9592C6.29327 15.3312 5.93639 15.7033 5.6005 16.096C5.49553 16.1993 5.39056 16.3233 5.30659 16.4267C5.2856 16.4473 5.26986 16.468 5.25411 16.4887C5.23837 16.5093 5.22262 16.53 5.20163 16.5507C5.11348 16.6623 5.16885 16.5954 5.19103 16.5686L5.19104 16.5685C5.20583 16.5507 5.20583 16.5507 5.13865 16.6334C5.02624 16.7756 4.92612 16.9179 4.81949 17.0695L4.81946 17.0695C4.7867 17.1161 4.75332 17.1635 4.71878 17.2121C2.15762 20.8705 1.19194 25.4176 1.69577 29.82C1.69577 29.8614 1.70102 29.8975 1.70627 29.9337C1.71152 29.9699 1.71677 30.006 1.71677 30.0474L1.73776 30.1714C1.71677 30.0681 1.75875 30.2954 1.75875 30.2954C1.75875 30.3161 1.764 30.3419 1.76925 30.3678C1.7745 30.3936 1.77974 30.4194 1.77974 30.4401C1.80074 30.5538 1.82173 30.6726 1.84273 30.7915C1.86372 30.9103 1.88471 31.0292 1.9057 31.1428L1.90571 31.1429L1.90572 31.1429L1.90572 31.1429C2.01068 31.6183 2.11564 32.0936 2.24159 32.569C2.49351 33.4991 2.8294 34.4292 3.20728 35.3386C3.19048 35.289 3.19048 35.289 3.19787 35.3082C3.20896 35.3369 3.23667 35.4089 3.24926 35.4213C3.27026 35.4833 3.29125 35.5246 3.31224 35.5659C3.33815 35.617 3.3605 35.668 3.38222 35.7175C3.41331 35.7885 3.44311 35.8565 3.48019 35.9173C3.56415 36.1033 3.66909 36.31 3.77404 36.5166L3.77409 36.5167C3.98402 36.9508 4.23594 37.3848 4.48786 37.7982C4.73978 38.2115 4.9917 38.6249 5.2856 39.0176C5.35908 39.121 5.43255 39.2192 5.50603 39.3173C5.57951 39.4155 5.65298 39.5137 5.72646 39.617C5.83142 39.741 5.76844 39.6584 5.74745 39.6377C5.81043 39.679 5.85241 39.741 5.8944 39.803C5.92589 39.8444 5.95738 39.8806 5.98887 39.9167C6.02036 39.9529 6.05185 39.9891 6.08334 40.0304C6.71313 40.7745 7.38491 41.4772 8.11967 42.1179C8.21414 42.2006 8.30861 42.2781 8.40308 42.3556C8.49755 42.4331 8.59202 42.5107 8.68649 42.5933C8.73893 42.6346 8.78614 42.6708 8.83334 42.7069L8.83343 42.707L8.83381 42.7073C8.88092 42.7434 8.92805 42.7795 8.98039 42.8207L9.01194 42.8467C9.0534 42.8687 9.10974 42.9067 9.14834 42.9447C9.54721 43.2341 9.94608 43.5028 10.3659 43.7508C10.7648 43.9988 11.1847 44.2262 11.6045 44.4328C11.72 44.4845 11.8407 44.5414 11.9614 44.5982C12.0821 44.655 12.2028 44.7119 12.3183 44.7635C12.3603 44.8049 12.4232 44.8255 12.4862 44.8462L12.4862 44.8462C12.4924 44.8462 12.5074 44.8497 12.5225 44.8537C12.6418 44.9116 12.7433 44.9512 12.8641 44.9909C13.7248 45.3216 14.6066 45.5903 15.4883 45.797C15.9501 45.9003 16.412 46.0037 16.8948 46.0863C17.1255 46.1276 17.3771 46.1689 17.6288 46.2102L17.6296 46.2104C17.7975 46.231 17.6925 46.2104 17.6506 46.2104C17.6925 46.2104 17.7293 46.2155 17.766 46.2207L17.7661 46.2207C17.8028 46.2259 17.8395 46.231 17.8815 46.231C17.9256 46.2419 17.9754 46.247 18.028 46.2525C18.0757 46.2574 18.1255 46.2626 18.1754 46.2724C19.1621 46.3757 20.1697 46.4171 21.1774 46.4171C21.6812 46.4171 22.1851 46.3964 22.6889 46.355L23.5076 46.293C23.5601 46.2827 23.6126 46.2775 23.6651 46.2724C23.7176 46.2672 23.7701 46.262 23.8225 46.2517C23.854 46.2517 23.8855 46.2465 23.917 46.2414L23.9171 46.2414C23.9485 46.2362 23.98 46.231 24.0115 46.231C24.0292 46.231 24.0693 46.2274 24.0988 46.2246L24.0989 46.2246C24.1392 46.2209 24.1593 46.2191 24.0745 46.231C25.0611 46.107 26.0268 45.9003 26.9925 45.6316C27.4544 45.5076 27.9162 45.3629 28.3571 45.1976C28.42 45.1769 28.483 45.1511 28.546 45.1253C28.609 45.0994 28.672 45.0736 28.7349 45.0529C28.763 45.0391 28.9035 44.9792 28.9498 44.9594C28.9592 44.9554 28.9647 44.953 28.9647 44.953C28.9647 44.953 28.9528 44.958 28.9239 44.9702C29.0288 44.9186 29.1338 44.8721 29.2388 44.8256C29.3437 44.779 29.4487 44.7325 29.5537 44.6809C30.3934 44.2882 31.1911 43.8128 31.9259 43.2754C31.9364 43.2651 31.9521 43.2548 31.9678 43.2444L31.9679 43.2444C31.9836 43.2341 31.9994 43.2237 32.0099 43.2134L32.0099 43.2133C32.0729 43.1514 32.1148 43.11 32.1778 43.0687C32.2618 42.986 32.3667 42.9034 32.4717 42.8207C32.5767 42.7277 32.6764 42.6346 32.7761 42.5416L32.7764 42.5414C32.876 42.4485 32.9756 42.3556 33.0805 42.2626C33.4794 41.8906 33.8783 41.4979 34.2351 41.0845C34.4241 40.8778 34.613 40.6505 34.802 40.4231C34.9699 40.2164 35.0539 40.1131 35.2428 39.865C35.5787 39.4103 35.9146 38.935 36.2085 38.4596C37.4891 36.4547 38.4758 34.3672 39.1475 32.1349C39.7983 29.9854 40.1342 27.8565 39.9873 25.6243L39.9243 24.9422C39.9243 24.9112 39.919 24.8854 39.9138 24.8595C39.9085 24.8337 39.9033 24.8078 39.9033 24.7768C39.9033 24.7702 39.9027 24.7609 39.9019 24.7506C39.8918 24.7086 39.8868 24.6615 39.8815 24.6119L39.8815 24.6118C39.8765 24.5649 39.8713 24.5159 39.8613 24.4668L39.8613 24.4666C39.7773 24.0326 39.6933 23.5987 39.5884 23.1854C39.4834 22.772 39.3575 22.3586 39.2315 21.9659C39.182 21.7871 39.1195 21.6211 39.0542 21.4477L39.0541 21.4475L39.054 21.4473L39.0306 21.3851L39.0006 21.3045C38.9796 21.2218 38.9376 21.1185 38.8956 21.0358C38.8851 21.0151 38.8746 20.9893 38.8641 20.9635C38.8536 20.9376 38.8431 20.9118 38.8326 20.8911C38.7949 20.8167 38.8251 20.8985 38.8372 20.9313L38.8372 20.9313C38.8452 20.9531 38.8452 20.9531 38.8116 20.8705C38.4548 20.085 38.0559 19.3203 37.594 18.5969C37.3631 18.2248 37.1112 17.8528 36.8593 17.5014C36.7998 17.4429 36.7508 17.3739 36.7049 17.3093C36.6861 17.2827 36.6677 17.2568 36.6493 17.2327C36.6284 17.2017 36.6074 17.1759 36.5864 17.1501C36.5654 17.1242 36.5444 17.0984 36.5234 17.0674C36.4604 16.9848 36.3975 16.9073 36.3345 16.8298L36.3344 16.8297C36.2715 16.7522 36.2085 16.6747 36.1455 16.592C35.5787 15.9099 34.9489 15.2692 34.2981 14.6698C33.9622 14.3805 33.6263 14.0911 33.2695 13.8017C33.1976 13.7593 33.1356 13.7071 33.0699 13.6519C33.0397 13.6265 33.0087 13.6004 32.9756 13.5744C32.9441 13.5537 32.9178 13.533 32.8916 13.5124C32.8653 13.4917 32.8391 13.471 32.8076 13.4504L32.3038 13.0783C31.569 12.5616 30.7923 12.0862 29.9945 11.6728C29.6166 11.4662 29.2178 11.2801 28.8189 11.0941L28.8189 11.0941C28.609 10.9908 28.399 10.8874 28.1891 10.8048C28.173 10.7968 28.1598 10.7902 28.1492 10.7848L28.1471 10.7841C28.1156 10.7738 28.0894 10.7634 28.0632 10.7531C28.0369 10.7428 28.0107 10.7324 27.9792 10.7221C27.8981 10.7061 27.8296 10.6779 27.7543 10.6468L27.7543 10.6468L27.7539 10.6466C27.7317 10.6375 27.709 10.6281 27.6853 10.6187C27.5201 10.5578 27.355 10.4984 27.1897 10.4408L27.1623 10.4542C27.0246 10.522 26.8729 10.5541 26.7235 10.5495L26.7523 10.7319ZM12.5225 44.8537L12.5072 44.8462C12.5482 44.8597 12.5625 44.8644 12.5625 44.8646C12.5624 44.8647 12.5582 44.8635 12.5518 44.8617L12.5517 44.8617C12.5469 44.8603 12.5407 44.8586 12.5341 44.8568C12.5303 44.8558 12.5264 44.8547 12.5225 44.8537ZM27.4606 8.61526C27.5199 8.47495 27.5934 8.34845 27.6668 8.22195L27.6668 8.22191C27.8138 7.93254 27.9817 7.64318 28.1706 7.37449C28.1916 7.34349 28.2179 7.30732 28.2441 7.27115C28.2704 7.23498 28.2966 7.1988 28.3176 7.1678C28.3377 7.1414 28.345 7.13186 28.3449 7.13178L28.3386 7.13935C28.3281 7.15226 28.3071 7.17813 28.2966 7.18847C28.3071 7.17813 28.3176 7.16263 28.3281 7.14713C28.3386 7.13163 28.3491 7.11613 28.3596 7.10579L28.3596 7.10573C28.4646 6.98174 28.5695 6.85775 28.6955 6.73376C28.8004 6.63041 28.9054 6.52707 29.0314 6.42372C29.0628 6.39273 29.0943 6.3669 29.1258 6.34107L29.1258 6.34105L29.1259 6.34097C29.1504 6.32089 29.1749 6.30081 29.1993 6.2783L29.1993 6.27904C29.2413 6.25837 29.2833 6.21704 29.3043 6.19637C29.5772 6.01035 29.8501 5.86567 30.144 5.72099C30.165 5.71065 30.1807 5.70548 30.1965 5.70032C30.2122 5.69515 30.228 5.68998 30.249 5.67965C30.2805 5.66931 30.3172 5.65898 30.3539 5.64864C30.3907 5.63831 30.4274 5.62798 30.4589 5.61764C30.6268 5.55564 30.7948 5.5143 30.9627 5.49363C30.9837 5.49363 31.01 5.48846 31.0362 5.4833C31.0624 5.47813 31.0887 5.47296 31.1097 5.47296C31.1097 5.47296 31.2356 5.45229 31.1517 5.47296C31.0677 5.49363 31.1937 5.47296 31.1937 5.47296C31.2356 5.47296 31.2986 5.47296 31.3406 5.45229L31.3938 5.4475C31.6041 5.42855 31.7993 5.41095 32.0124 5.41095C32.3903 5.41095 32.7891 5.43162 33.167 5.47296C33.1261 5.46625 33.1118 5.46389 33.1118 5.46378C33.1118 5.46372 33.116 5.4643 33.1224 5.46521L33.1224 5.46521L33.1225 5.46522C33.1409 5.46781 33.1775 5.47296 33.188 5.47296C33.2195 5.47296 33.2457 5.47813 33.272 5.4833C33.2982 5.48846 33.3245 5.49363 33.3559 5.49363L33.6708 5.55564L33.671 5.55566C33.8808 5.59699 34.0907 5.63832 34.2796 5.67965C34.5106 5.73132 34.7415 5.78816 34.9724 5.845C35.2033 5.90184 35.4343 5.95868 35.6652 6.01035C36.0641 6.11369 36.5469 5.88634 36.6519 5.45229C36.7358 5.03892 36.5259 4.5842 36.0851 4.48086C35.8331 4.42505 35.5812 4.36367 35.3293 4.30228C34.7415 4.15905 34.1537 4.01581 33.5659 3.94347C32.6212 3.79879 31.6765 3.79879 30.7318 3.94347C29.1573 4.1915 27.8557 5.12159 26.932 6.34105C26.6345 6.72776 26.3842 7.1477 26.1658 7.58202C25.8345 6.22333 25.3574 4.90605 24.5564 3.75794C22.9399 1.42237 20.0848 0.430269 17.3137 0.0995685C15.6763 -0.107119 14.0178 0.0168934 12.4223 0.388931C12.0025 0.492275 11.7506 0.967657 11.8555 1.36036C11.9815 1.79441 12.4223 2.0011 12.8422 1.91842C14.1438 1.60839 15.4454 1.50504 16.7889 1.62906C17.4187 1.69106 18.0485 1.79441 18.7203 1.95976C19.0352 2.04243 19.3501 2.12511 19.644 2.22845C19.7175 2.24912 19.7909 2.27496 19.8644 2.30079C19.9379 2.32663 20.0114 2.35246 20.0848 2.37313C20.1163 2.38347 20.1426 2.3938 20.1688 2.40414C20.1951 2.41447 20.2213 2.42481 20.2528 2.43514C20.2738 2.45581 20.5467 2.55915 20.4627 2.51781C21.0085 2.74517 21.5544 3.03453 22.0372 3.3859C22.0655 3.40614 22.0862 3.4208 22.101 3.43114L22.1212 3.44791C22.1842 3.48924 22.2261 3.53058 22.2891 3.59257L22.2891 3.59259C22.3241 3.62704 22.3591 3.65919 22.3941 3.69134C22.4641 3.75564 22.534 3.81995 22.604 3.90262L22.604 3.90264C22.688 3.98531 22.793 4.08865 22.8769 4.19198C22.9189 4.25399 22.9819 4.31599 23.0239 4.35733L23.0239 4.35734C23.0357 4.37125 23.0443 4.38127 23.0504 4.38828C23.0554 4.39607 23.0663 4.41172 23.0869 4.44001C23.7586 5.39077 24.1155 6.21753 24.4304 7.31297C24.5047 7.56499 24.5726 7.8186 24.6352 8.0735C23.0653 7.75901 21.4601 7.62542 19.8548 7.70444C18.9555 7.74469 18.0362 7.86332 17.1552 8.04124C17.1313 8.0451 17.1075 8.04996 17.0837 8.05581C12.8011 8.90323 8.58152 10.8668 5.45354 13.9051C1.96868 17.2948 0.205259 22.0692 0.016321 26.8437C-0.151624 30.9568 0.982006 35.1319 3.16529 38.6663C5.32759 42.18 8.53954 45.0322 12.4233 46.5204C16.244 47.9879 20.5266 48.2979 24.5573 47.7399C26.5936 47.4505 28.588 46.8924 30.4354 46.0037C32.3667 45.0736 34.0462 43.7094 35.4527 42.0973C37.0272 40.2991 38.3078 38.2322 39.3155 36.0827C40.4071 33.7264 41.1839 31.2668 41.4778 28.6832C41.9186 24.8595 41.0159 21.0358 38.9376 17.7495C36.9433 14.6078 34.0462 12.0242 30.7293 10.2674C30.3172 10.0491 29.8979 9.84261 29.4724 9.64873C29.5981 9.62277 29.7238 9.59988 29.8495 9.58613C29.7438 9.60099 29.8335 9.59448 29.9001 9.58965L29.9002 9.58964C29.9261 9.58776 29.9485 9.58613 29.9544 9.58613C29.9964 9.58613 30.0331 9.58096 30.0699 9.57579C30.1066 9.57063 30.1434 9.56546 30.1853 9.56546C30.5212 9.54479 30.8781 9.54479 31.214 9.58613C31.256 9.58613 31.298 9.58613 31.319 9.6068C31.361 9.61713 31.3977 9.6223 31.4344 9.62747L31.4345 9.62747C31.4712 9.63264 31.5079 9.6378 31.5499 9.64814C31.6895 9.66531 31.8145 9.69676 31.9492 9.73062L32.0327 9.75148C32.2007 9.79282 32.3476 9.83415 32.4946 9.89616C32.5261 9.90649 32.5628 9.922 32.5996 9.9375C32.6363 9.953 32.673 9.9685 32.7045 9.97884C32.7885 10.0202 32.8095 10.0202 32.7255 9.97884C32.7465 9.98917 32.7623 9.99434 32.778 9.99951C32.7937 10.0047 32.8095 10.0098 32.8305 10.0202C33.5023 10.3095 34.1111 10.7022 34.6989 11.1363C35.0558 11.3843 35.6016 11.1983 35.7905 10.8469C36.0214 10.4335 35.8535 10.0202 35.4966 9.77215C34.216 8.84205 32.7885 8.15998 31.193 8.0153C29.9215 7.89012 28.65 8.15588 27.4606 8.61526ZM39.8942 24.6798C39.895 24.6849 39.8979 24.7084 39.9003 24.7322C39.8946 24.687 39.8934 24.6749 39.8942 24.6798ZM4.71009 29.4662C5.40286 31.1817 6.26358 32.8352 7.33423 34.344C7.36442 34.3879 7.39494 34.4327 7.42586 34.478L7.42629 34.4786C7.8897 35.1581 8.44192 35.9678 9.30759 36.1422C9.8744 36.2662 10.4202 36.0595 10.7351 35.6048C10.9776 35.2743 11.0378 34.8948 11.0924 34.5243C11.3997 35.2619 11.8242 36.0335 12.7715 35.9148C13.2637 35.8516 13.6141 35.5521 13.8533 35.1641C13.9991 35.5332 14.1485 35.9009 14.304 36.2662C14.8078 37.4856 15.6055 38.9118 17.0751 39.1598C17.9358 39.3045 18.7965 38.9738 19.1534 38.147C19.4473 37.4443 19.3213 36.6382 19.1954 35.9148C18.9434 34.4887 18.3136 33.1245 17.6419 31.8431C17.4744 31.518 17.3025 31.195 17.131 30.8727L17.131 30.8727C16.5502 29.7812 15.9735 28.6976 15.5845 27.5646C15.4586 27.2133 15.1017 26.9652 14.7028 27.0686C14.3459 27.1719 14.073 27.5646 14.199 27.9367C14.6147 29.1644 15.2309 30.3162 15.8441 31.4622C16.4697 32.6313 17.0921 33.7944 17.4949 35.0261C17.6839 35.6048 17.8308 36.2455 17.8938 36.7622C17.9148 36.9276 17.9148 37.0723 17.9148 37.2376C17.9148 37.2996 17.9148 37.3616 17.8938 37.4236C17.8914 37.4376 17.8901 37.4469 17.8896 37.4526C17.8854 37.4655 17.8799 37.483 17.8728 37.5063C17.8728 37.5063 17.8191 37.6516 17.8298 37.6465C17.8082 37.6832 17.7788 37.735 17.7811 37.7413L17.7527 37.7692C17.7471 37.7728 17.7402 37.7769 17.732 37.7815C17.7205 37.7821 17.6668 37.7971 17.6315 37.8072C17.6151 37.8074 17.5775 37.8103 17.5457 37.8128C17.533 37.8138 17.5212 37.8147 17.5121 37.8154C17.5038 37.816 17.4977 37.8163 17.4949 37.8163C17.4949 37.8163 17.3734 37.8055 17.3547 37.8074C17.3267 37.8 17.3006 37.7927 17.2745 37.7853C17.2377 37.775 17.201 37.7647 17.159 37.7543C17.0551 37.7251 17.0667 37.7269 17.0898 37.7304C17.0993 37.7319 17.1109 37.7337 17.117 37.7337C16.9911 37.6717 16.8651 37.6097 16.7392 37.527C16.8441 37.6097 16.6552 37.465 16.6552 37.465C16.6237 37.434 16.5922 37.4081 16.5607 37.3823C16.5292 37.3565 16.4977 37.3306 16.4662 37.2996C16.2983 37.1136 16.1933 36.9896 16.0464 36.7002L16.0464 36.7002C15.9044 36.4405 15.7623 36.1809 15.6582 35.9212C15.6643 35.9305 15.6643 35.9273 15.6475 35.8941L15.6582 35.9212C15.6491 35.9073 15.6265 35.8652 15.6265 35.8528C15.5845 35.7701 15.5426 35.6668 15.5216 35.5841C15.4376 35.3774 15.3536 35.1707 15.2906 34.9641C15.2067 34.7574 15.1279 34.5507 15.0492 34.344L15.0492 34.3439C14.9705 34.1372 14.8917 33.9306 14.8078 33.7239C14.5902 33.1527 14.3727 32.5815 14.1551 32.0172C14.0699 31.6962 13.951 31.3824 13.8001 31.0783C13.4432 30.3756 12.2046 30.8716 12.4985 31.6157L12.5699 31.7982L12.5615 31.8017C12.5838 31.8474 12.6049 31.8933 12.6247 31.9395C12.6526 32.0116 12.6804 32.0838 12.7081 32.1559C12.864 32.6106 12.9097 33.0884 12.8764 33.5792C12.8764 33.6591 12.859 33.7474 12.841 33.8389C12.8311 33.8895 12.8209 33.9411 12.8134 33.9926L12.8134 33.9927C12.7924 34.0753 12.7715 34.158 12.7505 34.22C12.7449 34.2419 12.7415 34.2569 12.7397 34.2669C12.7338 34.2756 12.724 34.2927 12.7085 34.3233C12.6875 34.3543 12.6717 34.3853 12.656 34.4163L12.6462 34.4355C12.6345 34.4153 12.6243 34.3952 12.614 34.375C12.5983 34.344 12.5825 34.313 12.5615 34.282L12.5556 34.2704C12.555 34.2614 12.5458 34.2305 12.5195 34.158C12.4461 33.9719 12.3726 33.7911 12.2991 33.6102L12.2989 33.6098C12.2255 33.4291 12.1521 33.2484 12.0787 33.0625C11.9563 32.7526 11.8302 32.4427 11.7036 32.1313L11.7035 32.1311L11.7034 32.131C11.526 31.6949 11.3474 31.2558 11.176 30.8096C11.05 30.4789 10.7771 30.2516 10.3992 30.3136C10.0843 30.3549 9.74844 30.6443 9.79043 30.9956C9.79632 31.0551 9.80191 31.1145 9.80717 31.1738L9.74844 31.1817L9.82343 31.3697C9.87877 32.0876 9.8861 32.7949 9.83242 33.5172L9.83125 33.5367C9.81063 33.8823 9.78888 34.2468 9.70646 34.5713C9.70646 34.6127 9.66447 34.7574 9.66447 34.716C9.67354 34.6892 9.65909 34.7088 9.64314 34.7362C9.58794 34.7082 9.50746 34.6648 9.47553 34.6334C9.34958 34.53 9.22362 34.406 9.13964 34.282C8.90872 33.9926 8.67779 33.6619 8.46786 33.3519C8.02701 32.7112 7.62814 32.0498 7.25026 31.3883C6.85139 30.6443 6.47351 29.8795 6.15862 29.0941C6.01167 28.7427 5.67578 28.4947 5.27691 28.5981C4.85704 28.7014 4.56314 29.1148 4.71009 29.4662ZM17.7744 37.7525C17.7749 37.7531 17.7684 37.7592 17.7532 37.7689C17.7662 37.7568 17.7739 37.7519 17.7744 37.7525ZM12.5615 34.5507C12.5294 34.5823 12.5218 34.5776 12.5484 34.5551L12.5615 34.5507ZM32.8386 33.1044C33.6573 31.8436 34.3711 30.5001 34.9379 29.0946C35.0639 28.7433 35.3998 28.4952 35.8826 28.6606C36.2395 28.7639 36.5334 29.1773 36.3864 29.5287C35.9876 30.5001 35.5467 31.4715 35.0219 32.4016C34.581 33.187 34.0982 33.9518 33.5524 34.6959C33.0485 35.3986 32.3977 36.2874 31.4111 36.2254C30.8862 36.184 30.4454 35.8533 30.2354 35.3986C30.109 35.1372 30.0435 34.8608 30.0022 34.5784C29.695 35.3209 29.2703 36.0751 28.3251 35.9567C27.8218 35.892 27.4725 35.5804 27.2355 35.1798C27.0209 35.7472 26.8006 36.3115 26.5407 36.8661C25.9948 38.0649 24.8822 39.3877 23.3707 39.2223C22.426 39.119 21.8802 38.4163 21.7752 37.5275C21.6912 36.8454 21.8382 36.0807 22.0061 35.3986C22.3887 33.8577 23.1426 32.4555 23.8931 31.0596C24.5016 29.9279 25.1078 28.8003 25.512 27.6065C25.6379 27.2344 25.9948 27.0071 26.3937 27.1104C26.7506 27.2138 27.0235 27.6271 26.8975 27.9785C26.4147 29.384 25.7009 30.7068 24.9872 32.0296C24.3574 33.187 23.7906 34.2825 23.4547 35.5226C23.2867 36.122 23.1608 36.6387 23.1818 37.2588C23.1818 37.4862 23.2027 37.6928 23.3287 37.7755C23.3497 37.7859 23.3759 37.791 23.4022 37.7962C23.4165 37.799 23.4308 37.8018 23.4442 37.8055C23.4118 37.7913 23.4783 37.8017 23.5299 37.8098C23.5539 37.8136 23.5747 37.8169 23.5806 37.8169C23.5806 37.8169 23.7429 37.8023 23.7212 37.8098C23.814 37.7912 23.905 37.7708 23.9795 37.7342C23.8745 37.7755 23.9795 37.7135 24.0005 37.7135C24.032 37.6928 24.0635 37.6773 24.095 37.6618C24.1264 37.6463 24.1579 37.6308 24.1894 37.6102C24.1894 37.6102 24.3784 37.4655 24.2734 37.5482C24.3675 37.4864 24.4381 37.4131 24.5116 37.337C24.5365 37.3111 24.5617 37.285 24.5883 37.2588L24.6933 37.1555C24.7065 37.1406 24.7168 37.1292 24.7248 37.1207C24.7315 37.1099 24.7416 37.0944 24.7562 37.0728C25.0711 36.5974 25.3231 36.0807 25.491 35.6466C25.9047 34.6284 26.2976 33.5998 26.6917 32.5683C26.8575 32.1342 27.0236 31.6995 27.1914 31.2649C27.2015 31.2691 27.2115 31.2733 27.2216 31.2776C27.2456 31.2248 27.2705 31.1724 27.2964 31.1202C27.4434 30.7895 27.8632 30.7068 28.1781 30.8308C28.493 30.9548 28.7239 31.3269 28.598 31.6576C28.4716 31.9797 28.3452 32.3044 28.2188 32.6298C28.1584 32.9505 28.1449 33.2829 28.1781 33.6211C28.1781 33.6762 28.1968 33.7681 28.2154 33.8599C28.2248 33.9059 28.2341 33.9518 28.2411 33.9931C28.2621 34.0551 28.2831 34.1378 28.3041 34.2204L28.3041 34.2205C28.3156 34.2601 28.3192 34.278 28.3197 34.2853C28.3236 34.2892 28.3315 34.2999 28.3461 34.3238C28.362 34.3708 28.3899 34.4178 28.4208 34.4648C28.4239 34.4595 28.427 34.4539 28.43 34.4478C28.4405 34.4168 28.4563 34.391 28.472 34.3652C28.4878 34.3393 28.5035 34.3135 28.514 34.2825C28.5384 34.2464 28.5487 34.2243 28.5488 34.2244C28.5489 34.2244 28.5438 34.2359 28.535 34.2618C28.5455 34.2412 28.5507 34.2257 28.556 34.2102C28.5612 34.1947 28.5665 34.1792 28.577 34.1585C28.6505 33.9725 28.7292 33.7813 28.8079 33.5901C28.8866 33.3989 28.9654 33.2077 29.0388 33.0217C29.1858 32.66 29.3327 32.2932 29.4797 31.9263C29.6266 31.5594 29.7736 31.1925 29.9205 30.8308C30.0465 30.5001 30.3194 30.2934 30.6973 30.3348C31.0122 30.3554 31.3481 30.6655 31.3061 31.0168C31.3003 31.083 31.2947 31.1493 31.2895 31.2157C31.3091 31.2183 31.3286 31.2209 31.3481 31.2235C31.3239 31.2858 31.2996 31.3479 31.2752 31.41C31.2187 32.2343 31.2156 33.0697 31.3061 33.8898C31.3166 33.9828 31.3271 34.0707 31.3376 34.1586C31.3481 34.2464 31.3586 34.3342 31.3691 34.4272C31.3796 34.4582 31.3848 34.4944 31.3901 34.5305C31.3953 34.5667 31.4006 34.6029 31.4111 34.6339C31.4111 34.6545 31.4268 34.701 31.4373 34.732C31.4478 34.763 31.4531 34.7785 31.4321 34.7372C31.4366 34.7507 31.4442 34.7652 31.4523 34.7787C31.4526 34.7787 31.4528 34.7786 31.4531 34.7785C31.474 34.7682 31.4898 34.7579 31.5055 34.7475C31.5213 34.7372 31.537 34.7269 31.558 34.7165C31.7651 34.5868 31.9384 34.3573 32.1083 34.1324C32.1278 34.1066 32.1473 34.0807 32.1668 34.0551C32.3977 33.7451 32.6287 33.4351 32.8386 33.1044ZM28.3498 34.5494C28.3486 34.55 28.3473 34.5506 28.3461 34.5512C28.3158 34.5661 28.3182 34.5702 28.3454 34.556C28.3463 34.5542 28.3478 34.552 28.3498 34.5494ZM28.4919 34.5305C28.4923 34.5305 28.4926 34.5305 28.493 34.5305L28.535 34.5719C28.535 34.5719 28.5144 34.5516 28.4919 34.5305Z" fill="#1F2224"/>
<defs>
<linearGradient id="paint0_linear_181_8804" x1="26.6273" y1="9.51514" x2="19.8543" y2="41.3609" gradientUnits="userSpaceOnUse">
<stop offset="0.0350253" stop-color="#FFCC81"/>
<stop offset="0.521771" stop-color="#E7914F"/>
<stop offset="1" stop-color="#DD6843"/>
</linearGradient>
</defs>
</svg>
