<svg width="89" height="52" viewBox="0 0 89 52" fill="none" xmlns="http://www.w3.org/2000/svg">
<path d="M40.7741 27.7268C40.7741 38.4706 31.1865 47.1801 20.386 47.1801C9.58557 47.1801 0.830078 38.4706 0.830078 27.7268C0.830078 16.983 9.58557 8.27344 20.386 8.27344C31.1865 8.27344 40.7741 16.983 40.7741 27.7268Z" fill="url(#paint0_linear_2186_28384)"/>
<path fill-rule="evenodd" clip-rule="evenodd" d="M26.7522 10.7319L26.7607 10.7853C26.8446 11.1987 26.6767 11.6327 26.2148 11.7981C25.837 11.9014 25.2911 11.6534 25.2282 11.24L25.2282 11.24C25.1514 10.7564 25.0747 10.2728 24.9897 9.79127C24.6004 9.68989 24.2091 9.61693 23.8015 9.54396C23.6898 9.52195 23.572 9.5058 23.4515 9.48926L23.4515 9.48926C23.3457 9.47475 23.2377 9.45994 23.1298 9.44062C23.0983 9.44062 23.072 9.43545 23.0458 9.43028C23.0196 9.42512 22.9933 9.41995 22.9618 9.41995C22.9093 9.40962 22.8569 9.40445 22.8044 9.39928C22.7519 9.39412 22.6994 9.38895 22.6469 9.37861C21.7652 9.29594 20.8625 9.2546 19.9808 9.29594C19.5399 9.31661 19.0991 9.35794 18.6792 9.39928C18.65 9.39928 18.6162 9.40373 18.5801 9.40851C18.5383 9.41401 18.4933 9.41995 18.4483 9.41995C18.3727 9.43235 18.4558 9.41499 18.4891 9.40805C18.5113 9.40342 18.5113 9.40341 18.4273 9.41995C18.3832 9.4308 18.3334 9.43596 18.2807 9.44139C18.2331 9.44631 18.1833 9.45147 18.1334 9.46129L17.6515 9.55617C17.5932 9.58903 17.5296 9.61325 17.4616 9.62664C16.433 9.83333 15.4463 10.102 14.4596 10.4327C13.9768 10.5981 13.494 10.7841 13.0111 10.9701L13.0111 10.9701C12.6542 11.0941 12.1504 11.3215 11.6885 11.5488C10.7648 11.9829 9.8621 12.4996 9.00139 13.0783C8.16166 13.657 7.44789 14.2151 6.67115 14.9592C6.29327 15.3312 5.93639 15.7033 5.6005 16.096C5.49553 16.1993 5.39056 16.3233 5.30659 16.4267C5.2856 16.4473 5.26986 16.468 5.25411 16.4887C5.23837 16.5093 5.22262 16.53 5.20163 16.5507C5.11348 16.6623 5.16885 16.5954 5.19103 16.5686L5.19104 16.5685C5.20583 16.5507 5.20583 16.5507 5.13865 16.6334C5.02624 16.7756 4.92612 16.9179 4.81949 17.0695L4.81946 17.0695C4.7867 17.1161 4.75332 17.1635 4.71878 17.2121C2.15762 20.8705 1.19194 25.4176 1.69577 29.82C1.69577 29.8614 1.70102 29.8975 1.70627 29.9337C1.71152 29.9699 1.71677 30.006 1.71677 30.0474L1.73776 30.1714C1.71677 30.0681 1.75875 30.2954 1.75875 30.2954C1.75875 30.3161 1.764 30.3419 1.76925 30.3678C1.7745 30.3936 1.77974 30.4194 1.77974 30.4401C1.80074 30.5538 1.82173 30.6726 1.84273 30.7915C1.86372 30.9103 1.88471 31.0292 1.9057 31.1428L1.90571 31.1429L1.90572 31.1429L1.90572 31.1429C2.01068 31.6183 2.11564 32.0936 2.24159 32.569C2.49351 33.4991 2.8294 34.4292 3.20728 35.3386C3.19048 35.289 3.19048 35.289 3.19787 35.3082C3.20896 35.3369 3.23667 35.4089 3.24926 35.4213C3.27026 35.4833 3.29125 35.5246 3.31224 35.5659C3.33815 35.617 3.3605 35.668 3.38222 35.7175C3.41331 35.7885 3.44311 35.8565 3.48019 35.9173C3.56416 36.1033 3.66913 36.31 3.77409 36.5167C3.98402 36.9508 4.23594 37.3848 4.48786 37.7982C4.73978 38.2115 4.9917 38.6249 5.2856 39.0176C5.35908 39.121 5.43255 39.2192 5.50603 39.3173C5.57951 39.4155 5.65298 39.5137 5.72646 39.617C5.83142 39.741 5.76844 39.6584 5.74745 39.6377C5.81043 39.679 5.85241 39.741 5.8944 39.803C5.92589 39.8444 5.95738 39.8806 5.98887 39.9167C6.02036 39.9529 6.05185 39.9891 6.08334 40.0304C6.71313 40.7745 7.38491 41.4772 8.11967 42.1179C8.21414 42.2006 8.30861 42.2781 8.40308 42.3556C8.49755 42.4331 8.59202 42.5107 8.68649 42.5933C8.73893 42.6346 8.78614 42.6708 8.83334 42.7069L8.83343 42.707C8.88067 42.7432 8.92791 42.7793 8.98039 42.8207L9.01193 42.8467C9.05339 42.8687 9.10974 42.9067 9.14834 42.9447C9.54721 43.2341 9.94608 43.5028 10.3659 43.7508C10.7648 43.9988 11.1847 44.2262 11.6045 44.4328C11.72 44.4845 11.8407 44.5414 11.9614 44.5982C12.0821 44.655 12.2028 44.7119 12.3183 44.7635C12.3603 44.8049 12.4233 44.8256 12.4862 44.8462C12.4924 44.8462 12.5074 44.8497 12.5225 44.8537C12.6418 44.9116 12.7433 44.9512 12.8641 44.9909C13.7248 45.3216 14.6066 45.5903 15.4883 45.797C15.9501 45.9003 16.412 46.0037 16.8948 46.0863C17.1257 46.1277 17.3776 46.169 17.6296 46.2104C17.7975 46.231 17.6925 46.2104 17.6506 46.2104C17.6925 46.2104 17.7292 46.2155 17.7659 46.2207L17.766 46.2207L17.7661 46.2207C17.8028 46.2259 17.8395 46.231 17.8815 46.231C17.9256 46.2419 17.9754 46.247 18.028 46.2525H18.028C18.0757 46.2574 18.1255 46.2625 18.1754 46.2724C19.1621 46.3757 20.1697 46.417 21.1774 46.417C21.6812 46.417 22.1851 46.3964 22.6889 46.355L23.5076 46.293C23.5601 46.2827 23.6126 46.2775 23.6651 46.2724C23.7176 46.2672 23.7701 46.262 23.8225 46.2517C23.854 46.2517 23.8855 46.2465 23.917 46.2414L23.9171 46.2414C23.9485 46.2362 23.98 46.231 24.0115 46.231C24.0292 46.231 24.0693 46.2274 24.0988 46.2246L24.0989 46.2246C24.1392 46.2209 24.1593 46.2191 24.0745 46.231C25.0611 46.107 26.0268 45.9003 26.9925 45.6316C27.4544 45.5076 27.9162 45.3629 28.3571 45.1976C28.42 45.1769 28.4829 45.1511 28.5459 45.1253L28.546 45.1253C28.609 45.0994 28.672 45.0736 28.7349 45.0529C28.763 45.0391 28.9035 44.9792 28.9498 44.9594C28.9592 44.9554 28.9647 44.953 28.9647 44.953C28.9647 44.953 28.9528 44.958 28.9239 44.9702C29.0288 44.9186 29.1338 44.8721 29.2388 44.8256C29.3437 44.779 29.4487 44.7325 29.5537 44.6809C30.3934 44.2882 31.1911 43.8128 31.9259 43.2754C31.9364 43.2651 31.9521 43.2547 31.9679 43.2444C31.9836 43.2341 31.9994 43.2237 32.0099 43.2134L32.01 43.2133C32.0729 43.1513 32.1149 43.11 32.1778 43.0687C32.2618 42.986 32.3667 42.9034 32.4716 42.8207L32.4717 42.8207C32.5767 42.7277 32.6764 42.6347 32.7761 42.5417C32.8758 42.4486 32.9756 42.3556 33.0805 42.2626C33.4794 41.8906 33.8783 41.4979 34.2351 41.0845C34.4241 40.8778 34.613 40.6505 34.802 40.4231C34.9699 40.2164 35.0539 40.1131 35.2428 39.865C35.5787 39.4103 35.9146 38.935 36.2085 38.4596C37.4891 36.4547 38.4758 34.3672 39.1475 32.1349C39.7983 29.9854 40.1342 27.8565 39.9873 25.6243L39.9243 24.9422C39.9243 24.9112 39.919 24.8854 39.9138 24.8595C39.9085 24.8337 39.9033 24.8079 39.9033 24.7768L39.9032 24.7703C39.9029 24.7646 39.9025 24.7579 39.9019 24.7506C39.8918 24.7086 39.8868 24.6615 39.8815 24.6119L39.8815 24.6118C39.8765 24.5649 39.8713 24.5159 39.8613 24.4668L39.8613 24.4666C39.7773 24.0327 39.6933 23.5987 39.5884 23.1854C39.4834 22.772 39.3575 22.3586 39.2315 21.9659C39.182 21.7871 39.1195 21.6211 39.0542 21.4477L39.0541 21.4475L39.054 21.4473L39.0306 21.3851L39.0006 21.3045C38.9796 21.2218 38.9376 21.1185 38.8956 21.0358C38.8851 21.0151 38.8746 20.9893 38.8641 20.9635C38.8536 20.9376 38.8431 20.9118 38.8326 20.8911C38.7949 20.8167 38.8251 20.8985 38.8372 20.9313L38.8372 20.9313C38.8452 20.9531 38.8452 20.9531 38.8116 20.8705C38.4548 20.085 38.0559 19.3203 37.594 18.5969C37.3631 18.2248 37.1112 17.8528 36.8593 17.5014C36.7998 17.4429 36.7508 17.3739 36.7049 17.3093C36.6861 17.2827 36.6677 17.2568 36.6493 17.2327C36.6284 17.2017 36.6074 17.1759 36.5864 17.1501C36.5654 17.1242 36.5444 17.0984 36.5234 17.0674C36.4604 16.9848 36.3975 16.9073 36.3345 16.8298L36.3344 16.8297C36.2715 16.7522 36.2085 16.6747 36.1455 16.592C35.5787 15.9099 34.9489 15.2692 34.2981 14.6698L34.298 14.6697C33.9622 14.3804 33.6263 14.0911 33.2695 13.8017C33.1976 13.7593 33.1356 13.7071 33.0699 13.6519C33.0397 13.6265 33.0087 13.6004 32.9756 13.5744C32.9441 13.5537 32.9178 13.533 32.8916 13.5124C32.8653 13.4917 32.8391 13.471 32.8076 13.4504L32.3038 13.0783C31.569 12.5616 30.7923 12.0862 29.9945 11.6728C29.6166 11.4662 29.2178 11.2801 28.8189 11.0941L28.8189 11.0941C28.609 10.9908 28.399 10.8874 28.1891 10.8048C28.173 10.7968 28.1598 10.7902 28.1492 10.7848L28.1471 10.7841C28.1157 10.7738 28.0894 10.7634 28.0632 10.7531L28.0632 10.7531C28.0369 10.7428 28.0107 10.7324 27.9792 10.7221C27.8981 10.7061 27.8296 10.6779 27.7543 10.6468C27.732 10.6376 27.7092 10.6282 27.6853 10.6187C27.5201 10.5578 27.355 10.4984 27.1897 10.4408L27.1623 10.4542C27.0246 10.522 26.8729 10.5541 26.7235 10.5495L26.752 10.7306L26.7521 10.731L26.7522 10.7319ZM12.5225 44.8537L12.5072 44.8462L12.5538 44.8615L12.5625 44.8646C12.5624 44.8648 12.5527 44.8619 12.5401 44.8584L12.5225 44.8537ZM27.4606 8.61526C27.5199 8.47495 27.5934 8.34845 27.6668 8.22195L27.6668 8.22191C27.8138 7.93254 27.9817 7.64318 28.1706 7.37449C28.1916 7.34348 28.2179 7.30731 28.2441 7.27114L28.2441 7.27112L28.2442 7.27104L28.2443 7.27093C28.2705 7.23483 28.2966 7.19874 28.3176 7.1678C28.3377 7.1414 28.345 7.13186 28.3449 7.13178L28.3386 7.13938L28.3385 7.13945C28.328 7.15239 28.3071 7.17815 28.2966 7.18847C28.3071 7.17813 28.3176 7.16263 28.3281 7.14713C28.3386 7.13163 28.3491 7.11613 28.3596 7.10579C28.4645 6.98178 28.5695 6.85777 28.6955 6.73376C28.8004 6.63041 28.9054 6.52707 29.0314 6.42372C29.0628 6.39272 29.0943 6.36689 29.1258 6.34105L29.1259 6.34101C29.1504 6.32092 29.1748 6.30083 29.1993 6.2783L29.1993 6.27904C29.2413 6.25837 29.2833 6.21704 29.3043 6.19637C29.5772 6.01035 29.8501 5.86567 30.144 5.72099C30.165 5.71065 30.1807 5.70548 30.1965 5.70032C30.2122 5.69515 30.228 5.68998 30.249 5.67965C30.2805 5.66931 30.3172 5.65898 30.3539 5.64864C30.3907 5.63831 30.4274 5.62798 30.4589 5.61764C30.6268 5.55564 30.7948 5.5143 30.9627 5.49363C30.9837 5.49363 31.01 5.48846 31.0362 5.4833C31.0624 5.47813 31.0887 5.47296 31.1097 5.47296C31.1097 5.47296 31.2356 5.45229 31.1517 5.47296C31.0677 5.49363 31.1937 5.47296 31.1937 5.47296C31.2356 5.47296 31.2986 5.47296 31.3406 5.45229L31.3939 5.4475C31.6042 5.42855 31.7993 5.41095 32.0124 5.41095C32.3903 5.41095 32.7891 5.43162 33.167 5.47296C33.1261 5.46625 33.1118 5.46389 33.1118 5.46378C33.1118 5.46372 33.116 5.4643 33.1224 5.46521L33.1224 5.46521L33.1225 5.46522C33.1409 5.46781 33.1775 5.47296 33.188 5.47296C33.2195 5.47296 33.2457 5.47813 33.272 5.4833C33.2982 5.48846 33.3245 5.49363 33.3559 5.49363L33.6708 5.55564L33.671 5.55567L33.6711 5.55569L33.6712 5.5557L33.6712 5.55572C33.881 5.59703 34.0908 5.63834 34.2796 5.67965C34.5106 5.73132 34.7415 5.78816 34.9724 5.845C35.2033 5.90184 35.4343 5.95868 35.6652 6.01035C36.0641 6.11369 36.5469 5.88634 36.6519 5.45229C36.7358 5.03892 36.5259 4.5842 36.0851 4.48086C35.8331 4.42505 35.5812 4.36367 35.3293 4.30228C34.7415 4.15905 34.1537 4.01581 33.5659 3.94347C32.6212 3.79879 31.6765 3.79879 30.7318 3.94347C29.1573 4.1915 27.8557 5.12159 26.932 6.34105C26.6345 6.72776 26.3842 7.1477 26.1658 7.58202C25.8345 6.22333 25.3574 4.90605 24.5564 3.75794C22.9399 1.42237 20.0848 0.430269 17.3137 0.0995685C15.6763 -0.107119 14.0178 0.0168934 12.4223 0.388931C12.0025 0.492275 11.7506 0.967657 11.8555 1.36036C11.9815 1.79441 12.4223 2.0011 12.8422 1.91842C14.1438 1.60839 15.4454 1.50504 16.7889 1.62906C17.4187 1.69106 18.0485 1.79441 18.7203 1.95976C19.0352 2.04243 19.3501 2.12511 19.644 2.22845C19.7175 2.24912 19.7909 2.27496 19.8644 2.30079C19.9379 2.32663 20.0114 2.35246 20.0848 2.37313C20.1163 2.38347 20.1426 2.3938 20.1688 2.40414C20.1951 2.41447 20.2213 2.42481 20.2528 2.43514C20.2738 2.45581 20.5467 2.55915 20.4627 2.51781C21.0085 2.74517 21.5544 3.03453 22.0372 3.3859C22.0655 3.40614 22.0862 3.4208 22.101 3.43114L22.1212 3.44791C22.1842 3.48924 22.2261 3.53058 22.2891 3.59257L22.2891 3.59259C22.3241 3.62704 22.3591 3.65919 22.3941 3.69134C22.4641 3.75564 22.534 3.81995 22.604 3.90262L22.604 3.90264C22.688 3.98531 22.793 4.08865 22.8769 4.19198C22.9189 4.25399 22.9819 4.316 23.0239 4.35734C23.0357 4.37125 23.0443 4.38126 23.0504 4.38828C23.0554 4.39607 23.0663 4.41171 23.0869 4.44001C23.7586 5.39077 24.1155 6.21753 24.4304 7.31297C24.5047 7.56499 24.5726 7.8186 24.6352 8.0735C23.0653 7.75901 21.4601 7.62542 19.8548 7.70444C18.9555 7.74469 18.0362 7.86332 17.1552 8.04124C17.1313 8.0451 17.1075 8.04996 17.0837 8.05581C12.8011 8.90323 8.58152 10.8668 5.45354 13.9051C1.96868 17.2948 0.205259 22.0692 0.016321 26.8437C-0.151624 30.9568 0.982006 35.1319 3.16529 38.6663C5.32759 42.18 8.53954 45.0322 12.4233 46.5204C16.244 47.9879 20.5266 48.2979 24.5573 47.7398C26.5936 47.4505 28.588 46.8924 30.4354 46.0037C32.3667 45.0736 34.0462 43.7094 35.4527 42.0973C37.0272 40.2991 38.3078 38.2322 39.3155 36.0827C40.4071 33.7264 41.1839 31.2668 41.4778 28.6832C41.9186 24.8595 41.0159 21.0358 38.9376 17.7495C36.9433 14.6078 34.0462 12.0242 30.7293 10.2674C30.3172 10.0491 29.8979 9.84261 29.4724 9.64873C29.5981 9.62277 29.7238 9.59988 29.8495 9.58613C29.7438 9.60099 29.8335 9.59448 29.9001 9.58965L29.9002 9.58964C29.9261 9.58776 29.9485 9.58613 29.9544 9.58613C29.9964 9.58613 30.0331 9.58096 30.0699 9.57579C30.1066 9.57063 30.1434 9.56546 30.1853 9.56546C30.5212 9.54479 30.8781 9.54479 31.214 9.58613C31.256 9.58613 31.298 9.58613 31.319 9.6068C31.361 9.61713 31.3977 9.6223 31.4344 9.62746L31.4344 9.62747C31.4712 9.63263 31.5079 9.6378 31.5499 9.64814C31.6895 9.66531 31.8145 9.69676 31.9492 9.73062L32.0327 9.75148C32.2007 9.79282 32.3476 9.83415 32.4946 9.89616C32.5261 9.90649 32.5628 9.922 32.5996 9.9375C32.6363 9.953 32.673 9.9685 32.7045 9.97884C32.7885 10.0202 32.8095 10.0202 32.7255 9.97884C32.7465 9.98917 32.7622 9.99434 32.778 9.9995C32.7937 10.0047 32.8095 10.0098 32.8305 10.0202C33.5023 10.3095 34.1111 10.7022 34.6989 11.1363C35.0558 11.3843 35.6016 11.1983 35.7905 10.8469C36.0214 10.4335 35.8535 10.0202 35.4966 9.77215C34.216 8.84205 32.7885 8.15998 31.193 8.0153C29.9215 7.89012 28.65 8.15588 27.4606 8.61526ZM39.8941 24.6797C39.8949 24.6845 39.8979 24.7083 39.9003 24.7322C39.8946 24.6873 39.8934 24.6751 39.8941 24.6797ZM4.71009 29.4662C5.40286 31.1817 6.26358 32.8352 7.33423 34.344C7.36442 34.3879 7.39494 34.4327 7.42586 34.478L7.42629 34.4786C7.8897 35.1581 8.44191 35.9678 9.30759 36.1422C9.8744 36.2662 10.4202 36.0595 10.7351 35.6048C10.9776 35.2743 11.0378 34.8948 11.0924 34.5243C11.3997 35.2619 11.8242 36.0335 12.7715 35.9148C13.2637 35.8516 13.6141 35.5521 13.8533 35.1641C13.9991 35.5332 14.1485 35.9009 14.304 36.2662C14.8078 37.4856 15.6055 38.9118 17.0751 39.1598C17.9358 39.3045 18.7965 38.9738 19.1534 38.147C19.4473 37.4443 19.3213 36.6382 19.1954 35.9148C18.9434 34.4887 18.3136 33.1245 17.6419 31.8431C17.4744 31.518 17.3026 31.1951 17.1311 30.8729L17.131 30.8727C16.5502 29.7813 15.9735 28.6976 15.5845 27.5646C15.4586 27.2133 15.1017 26.9652 14.7028 27.0686C14.3459 27.1719 14.073 27.5646 14.199 27.9367C14.6147 29.1644 15.2309 30.3162 15.8441 31.4622C16.4697 32.6313 17.0921 33.7944 17.4949 35.0261C17.6838 35.6048 17.8308 36.2455 17.8938 36.7622C17.9148 36.9276 17.9148 37.0723 17.9148 37.2376C17.9148 37.2996 17.9148 37.3616 17.8938 37.4236C17.8914 37.4376 17.8901 37.4468 17.8896 37.4526C17.8854 37.4655 17.8799 37.483 17.8728 37.5063C17.8728 37.5063 17.8191 37.6516 17.8298 37.6465C17.8082 37.6832 17.7788 37.735 17.7811 37.7413L17.7527 37.7692C17.747 37.7728 17.7402 37.7769 17.732 37.7815C17.7205 37.7821 17.6668 37.7971 17.6315 37.8072C17.6151 37.8074 17.5775 37.8103 17.5457 37.8128C17.5216 37.8147 17.5008 37.8163 17.4949 37.8163C17.4949 37.8163 17.3734 37.8055 17.3547 37.8074C17.3267 37.8 17.3006 37.7927 17.2745 37.7853C17.2378 37.775 17.201 37.7647 17.159 37.7543C17.0551 37.7251 17.0667 37.7269 17.0898 37.7304C17.0993 37.7319 17.1109 37.7337 17.117 37.7337C16.9911 37.6717 16.8651 37.6097 16.7392 37.527C16.8441 37.6097 16.6552 37.465 16.6552 37.465C16.6237 37.434 16.5922 37.4081 16.5607 37.3823C16.5292 37.3565 16.4977 37.3306 16.4662 37.2996C16.2983 37.1136 16.1933 36.9896 16.0464 36.7002C15.9044 36.4405 15.7623 36.1809 15.6582 35.9212C15.6643 35.9305 15.6643 35.9273 15.6475 35.8941L15.6582 35.9212C15.6491 35.9072 15.6265 35.8652 15.6265 35.8528C15.5845 35.7701 15.5426 35.6668 15.5216 35.5841C15.4376 35.3774 15.3536 35.1707 15.2906 34.9641C15.2067 34.7574 15.1279 34.5507 15.0492 34.344L15.0492 34.3439C14.9705 34.1372 14.8917 33.9306 14.8078 33.7239C14.5902 33.1527 14.3727 32.5815 14.1551 32.0172C14.0699 31.6962 13.951 31.3824 13.8001 31.0783C13.4432 30.3756 12.2046 30.8716 12.4985 31.6157L12.5699 31.7982L12.5615 31.8017C12.5838 31.8474 12.6049 31.8933 12.6247 31.9395C12.6526 32.0116 12.6804 32.0838 12.7081 32.1559C12.864 32.6106 12.9097 33.0884 12.8764 33.5792C12.8764 33.6591 12.859 33.7474 12.841 33.8389C12.8311 33.8895 12.8209 33.9411 12.8134 33.9926C12.7924 34.0753 12.7715 34.158 12.7505 34.22C12.7449 34.2419 12.7415 34.2569 12.7397 34.2669C12.7338 34.2756 12.724 34.2927 12.7085 34.3233C12.6875 34.3543 12.6717 34.3853 12.656 34.4163L12.6462 34.4355C12.6345 34.4153 12.6243 34.3952 12.614 34.375C12.5983 34.344 12.5825 34.313 12.5615 34.282L12.5556 34.2704C12.555 34.2614 12.5458 34.2304 12.5195 34.158C12.4461 33.9719 12.3726 33.7911 12.2991 33.6102L12.2989 33.6098C12.2255 33.4291 12.1521 33.2484 12.0787 33.0625C11.9562 32.7525 11.8302 32.4425 11.7035 32.1311L11.7034 32.131C11.526 31.6948 11.3474 31.2558 11.176 30.8096C11.05 30.4789 10.7771 30.2516 10.3992 30.3136C10.0843 30.3549 9.74844 30.6443 9.79043 30.9956C9.79632 31.0551 9.80191 31.1145 9.80717 31.1738L9.74844 31.1817L9.82343 31.3697C9.87877 32.0876 9.8861 32.7949 9.83242 33.5172L9.83125 33.5367C9.81063 33.8823 9.78888 34.2468 9.70646 34.5713C9.70646 34.6127 9.66447 34.7574 9.66447 34.716C9.67354 34.6892 9.65909 34.7088 9.64314 34.7362C9.58794 34.7082 9.50746 34.6648 9.47553 34.6334C9.34958 34.53 9.22362 34.406 9.13964 34.282C8.90872 33.9926 8.67779 33.6619 8.46786 33.3519C8.02701 32.7112 7.62814 32.0498 7.25026 31.3883C6.85139 30.6443 6.47351 29.8795 6.15862 29.0941C6.01167 28.7427 5.67578 28.4947 5.27691 28.5981C4.85704 28.7014 4.56314 29.1148 4.71009 29.4662ZM17.7744 37.7525C17.7748 37.7533 17.7683 37.7592 17.7532 37.7689C17.7663 37.7566 17.774 37.7518 17.7744 37.7525ZM12.5615 34.5507C12.5294 34.5823 12.5218 34.5776 12.5484 34.5551L12.5615 34.5507ZM32.8386 33.1044C33.6573 31.8436 34.3711 30.5001 34.9379 29.0946C35.0639 28.7433 35.3998 28.4952 35.8826 28.6606C36.2395 28.7639 36.5334 29.1773 36.3864 29.5287C35.9876 30.5001 35.5467 31.4715 35.0219 32.4016C34.581 33.187 34.0982 33.9518 33.5524 34.6959C33.0485 35.3986 32.3977 36.2874 31.4111 36.2254C30.8862 36.184 30.4454 35.8533 30.2354 35.3986C30.109 35.1372 30.0435 34.8608 30.0022 34.5784C29.695 35.3209 29.2703 36.0751 28.3251 35.9567C27.8218 35.892 27.4725 35.5804 27.2355 35.1798C27.0209 35.7472 26.8006 36.3115 26.5407 36.8661C25.9948 38.0649 24.8822 39.3877 23.3707 39.2223C22.426 39.119 21.8802 38.4163 21.7752 37.5275C21.6912 36.8454 21.8382 36.0807 22.0061 35.3986C22.3887 33.8577 23.1426 32.4555 23.8931 31.0596C24.5016 29.9279 25.1078 28.8003 25.512 27.6065C25.6379 27.2344 25.9948 27.0071 26.3937 27.1104C26.7506 27.2138 27.0235 27.6271 26.8975 27.9785C26.4147 29.384 25.7009 30.7068 24.9872 32.0296C24.3574 33.187 23.7906 34.2825 23.4547 35.5226C23.2867 36.122 23.1608 36.6387 23.1818 37.2588C23.1818 37.4862 23.2027 37.6928 23.3287 37.7755C23.3497 37.7859 23.3759 37.791 23.4022 37.7962C23.4165 37.799 23.4308 37.8018 23.4442 37.8055C23.4118 37.7913 23.4783 37.8017 23.5299 37.8098C23.5539 37.8136 23.5747 37.8169 23.5806 37.8169C23.5806 37.8169 23.743 37.8023 23.7212 37.8098C23.814 37.7912 23.905 37.7708 23.9795 37.7342C23.8745 37.7755 23.9795 37.7135 24.0005 37.7135C24.032 37.6928 24.0635 37.6773 24.095 37.6618C24.1264 37.6463 24.1579 37.6308 24.1894 37.6102C24.1894 37.6102 24.3784 37.4655 24.2734 37.5482C24.3675 37.4864 24.4381 37.4131 24.5116 37.337C24.5365 37.3111 24.5617 37.285 24.5883 37.2588L24.6933 37.1555C24.7065 37.1406 24.7168 37.1292 24.7248 37.1207C24.7315 37.1099 24.7416 37.0944 24.7562 37.0728C25.0711 36.5974 25.3231 36.0807 25.491 35.6466C25.9047 34.6284 26.2976 33.5998 26.6917 32.5683C26.8575 32.1342 27.0236 31.6995 27.1914 31.2649C27.2015 31.2691 27.2115 31.2733 27.2216 31.2776C27.2456 31.2248 27.2705 31.1724 27.2964 31.1202C27.4434 30.7895 27.8632 30.7068 28.1781 30.8308C28.493 30.9548 28.7239 31.3269 28.598 31.6576C28.4716 31.9797 28.3452 32.3044 28.2188 32.6298C28.1584 32.9505 28.1449 33.2829 28.1781 33.6211C28.1781 33.6762 28.1968 33.7681 28.2154 33.8599C28.2248 33.9059 28.2341 33.9518 28.2411 33.9931C28.2621 34.0551 28.2831 34.1377 28.304 34.2203L28.3041 34.2205C28.3156 34.2601 28.3192 34.278 28.3197 34.2853C28.3236 34.2892 28.3315 34.2999 28.3461 34.3238C28.362 34.3708 28.3899 34.4178 28.4208 34.4648C28.4239 34.4595 28.427 34.4539 28.43 34.4478C28.4405 34.4168 28.4563 34.391 28.472 34.3652C28.4878 34.3393 28.5035 34.3135 28.514 34.2825C28.5384 34.2464 28.5487 34.2243 28.5488 34.2244C28.5489 34.2244 28.5438 34.2359 28.535 34.2618C28.5455 34.2412 28.5507 34.2257 28.556 34.2102C28.5612 34.1947 28.5665 34.1792 28.577 34.1585C28.6505 33.9725 28.7292 33.7813 28.8079 33.5901C28.8866 33.3989 28.9654 33.2077 29.0388 33.0217C29.1858 32.6601 29.3327 32.2932 29.4796 31.9264C29.6266 31.5595 29.7736 31.1926 29.9206 30.8308C30.0465 30.5001 30.3194 30.2934 30.6973 30.3348C31.0122 30.3554 31.3481 30.6655 31.3061 31.0168C31.3003 31.083 31.2947 31.1493 31.2895 31.2157C31.3091 31.2183 31.3286 31.2209 31.3481 31.2235C31.3239 31.2858 31.2996 31.3479 31.2752 31.41C31.2187 32.2343 31.2156 33.0697 31.3061 33.8898C31.3166 33.9828 31.3271 34.0706 31.3376 34.1585C31.3481 34.2463 31.3586 34.3342 31.3691 34.4272C31.3796 34.4582 31.3848 34.4944 31.3901 34.5305C31.3953 34.5667 31.4006 34.6029 31.4111 34.6339C31.4111 34.6545 31.4268 34.701 31.4373 34.732C31.4478 34.763 31.453 34.7785 31.4321 34.7372C31.4366 34.7507 31.4442 34.7652 31.4523 34.7787C31.4526 34.7787 31.4528 34.7786 31.4531 34.7785C31.474 34.7682 31.4898 34.7579 31.5055 34.7475C31.5213 34.7372 31.537 34.7269 31.558 34.7165C31.7651 34.5868 31.9384 34.3573 32.1083 34.1324C32.1278 34.1066 32.1473 34.0807 32.1668 34.0551C32.3977 33.7451 32.6287 33.4351 32.8386 33.1044ZM28.3498 34.5494C28.3486 34.55 28.3473 34.5506 28.3461 34.5512C28.3158 34.5661 28.3182 34.5702 28.3454 34.556C28.3463 34.5542 28.3478 34.552 28.3498 34.5494ZM28.4919 34.5305C28.4923 34.5305 28.4926 34.5305 28.493 34.5305H28.493L28.535 34.5719C28.535 34.5719 28.5144 34.5516 28.4919 34.5305Z" fill="#1F2224"/>
<path d="M57.3458 43.9093C56.6978 43.9093 56.0961 43.7589 55.5407 43.4581C55.0085 43.1572 54.5456 42.7522 54.1522 42.2431C53.8051 41.7571 53.4927 41.1439 53.215 40.4033C52.9373 39.6396 52.729 38.8528 52.5901 38.0428C52.3124 36.6774 52.1273 34.8839 52.0347 32.6623C52.0116 32.13 52 31.2159 52 29.92V27.733C52.0231 27.1082 52.0347 26.4602 52.0347 25.7891C52.0347 24.4237 52.1157 23.3476 52.2777 22.5608C52.2083 22.2137 52.1736 21.855 52.1736 21.4847C52.1736 20.0962 52.6943 18.9738 53.7357 18.1175C54.777 17.2613 56.0961 16.8331 57.6929 16.8331C58.2946 16.8331 58.85 16.9951 59.3592 17.3191C59.8683 17.6431 60.1229 18.0481 60.1229 18.5341C60.1229 18.7655 60.0303 18.9506 59.8452 19.0895C59.66 19.2283 59.4286 19.2978 59.1509 19.2978C58.9195 19.2978 58.6649 19.263 58.3872 19.1936C58.1326 19.1242 57.9706 19.0201 57.9012 18.8812H57.45V18.8118C56.5937 18.8118 55.8763 18.9969 55.2977 19.3672C54.8812 19.668 54.5572 20.1656 54.3258 20.8598C54.2332 21.1144 54.1638 21.4384 54.1175 21.8318C54.0712 22.2252 54.0481 22.5839 54.0481 22.9079C54.0249 23.0931 54.0134 23.4633 54.0134 24.0187L54.0828 25.2337L54.1175 26.4139C54.1175 26.7611 54.0712 27.1661 53.9786 27.6289C53.8629 28.2074 53.8051 28.6124 53.8051 28.8439V29.677C53.8051 30.5795 53.8398 31.8176 53.9092 33.3913C53.9324 34.7104 54.0828 36.0295 54.3605 37.3486C54.5688 38.5751 54.9622 39.6165 55.5407 40.4727C56.0961 41.3521 56.8483 41.7918 57.7971 41.7918C58.1905 41.7918 58.6765 41.5836 59.255 41.167C59.8799 40.7504 60.3196 40.5422 60.5741 40.5422C60.8981 40.5422 61.2337 40.7157 61.5808 41.0629C61.5808 41.9191 61.2568 42.5787 60.6088 43.0415C60.0071 43.4581 59.2897 43.7242 58.4566 43.8399C57.9938 43.8862 57.6235 43.9093 57.3458 43.9093Z" fill="#1F2224"/>
<path d="M67.3303 43.2845C67.6775 42.1968 67.851 38.3436 67.851 31.725C67.851 30.8456 67.8395 30.0935 67.8163 29.4687L67.7816 27.5595C66.4857 27.2586 65.4211 26.6338 64.588 25.6849C63.778 24.713 63.373 23.579 63.373 22.2831C63.373 21.1722 63.4888 20.1309 63.7202 19.1589C63.8822 18.5109 64.0789 17.9786 64.3103 17.5621C64.5649 17.1224 64.8889 16.7521 65.2823 16.4513C65.6757 16.1504 66.1617 16 66.7402 16C67.851 16 68.6147 16.2546 69.0313 16.7637C69.4478 17.2497 69.6561 18.0944 69.6561 19.2977C69.6561 21.5194 69.5867 24.8518 69.4478 29.2951C69.309 33.7615 69.2396 37.1055 69.2396 39.3272C69.2396 39.5817 69.2048 39.9867 69.1354 40.5421C69.0428 41.0744 68.9966 41.5025 68.9966 41.8265C68.9966 41.9422 69.0081 42.0464 69.0313 42.1389V42.5208C69.0313 42.9373 68.9271 43.2729 68.7189 43.5275C68.5106 43.8052 68.2213 43.944 67.851 43.944L67.3303 43.2845ZM67.8163 26.2404C67.932 24.3196 67.9899 21.9591 67.9899 19.1589C67.9899 18.5803 67.8973 18.1522 67.7122 17.8745C67.5502 17.5968 67.2262 17.4579 66.7402 17.4579C66.4394 17.4579 66.1617 17.6547 65.9071 18.0481C65.6757 18.4183 65.5021 18.8928 65.3864 19.4713C65.1781 20.6053 65.074 21.5194 65.074 22.2136C65.074 22.7459 65.1087 23.2087 65.1781 23.6022C65.2244 23.8336 65.2823 24.0071 65.3517 24.1229L65.5253 24.5394C65.5715 24.6551 65.6641 24.7708 65.803 24.8865L66.1154 25.199C66.2311 25.2915 66.3699 25.3957 66.5319 25.5114C66.6939 25.604 66.8096 25.6734 66.8791 25.7197C66.9022 25.7428 66.9485 25.7775 67.0179 25.8238C67.0873 25.8469 67.1915 25.8932 67.3303 25.9627L67.8163 26.2404Z" fill="#1F2224"/>
<path d="M76.9514 43.2845C77.2986 42.1968 77.4721 38.3436 77.4721 31.725C77.4721 30.8456 77.4606 30.0935 77.4374 29.4687L77.4027 27.5595C76.1067 27.2586 75.0422 26.6338 74.2091 25.6849C73.3991 24.713 72.9941 23.579 72.9941 22.2831C72.9941 21.1722 73.1099 20.1309 73.3413 19.1589C73.5033 18.5109 73.7 17.9786 73.9314 17.5621C74.186 17.1224 74.5099 16.7521 74.9034 16.4513C75.2968 16.1504 75.7828 16 76.3613 16C77.4721 16 78.2358 16.2546 78.6524 16.7637C79.0689 17.2497 79.2772 18.0944 79.2772 19.2977C79.2772 21.5194 79.2078 24.8518 79.0689 29.2951C78.9301 33.7615 78.8606 37.1055 78.8606 39.3272C78.8606 39.5817 78.8259 39.9867 78.7565 40.5421C78.6639 41.0744 78.6177 41.5025 78.6177 41.8265C78.6177 41.9422 78.6292 42.0464 78.6524 42.1389V42.5208C78.6524 42.9373 78.5482 43.2729 78.34 43.5275C78.1317 43.8052 77.8424 43.944 77.4721 43.944L76.9514 43.2845ZM77.4374 26.2404C77.5531 24.3196 77.611 21.9591 77.611 19.1589C77.611 18.5803 77.5184 18.1522 77.3333 17.8745C77.1713 17.5968 76.8473 17.4579 76.3613 17.4579C76.0605 17.4579 75.7828 17.6547 75.5282 18.0481C75.2968 18.4183 75.1232 18.8928 75.0075 19.4713C74.7992 20.6053 74.6951 21.5194 74.6951 22.2136C74.6951 22.7459 74.7298 23.2087 74.7992 23.6022C74.8455 23.8336 74.9034 24.0071 74.9728 24.1229L75.1464 24.5394C75.1926 24.6551 75.2852 24.7708 75.4241 24.8865L75.7365 25.199C75.8522 25.2915 75.991 25.3957 76.153 25.5114C76.315 25.604 76.4307 25.6734 76.5002 25.7197C76.5233 25.7428 76.5696 25.7775 76.639 25.8238C76.7084 25.8469 76.8126 25.8932 76.9514 25.9627L77.4374 26.2404Z" fill="#1F2224"/>
<path d="M86.5745 43.2845C86.9216 42.1968 87.0952 38.3436 87.0952 31.725C87.0952 30.8456 87.0836 30.0935 87.0605 29.4687L87.0257 27.5595C85.7298 27.2586 84.6653 26.6338 83.8321 25.6849C83.0222 24.713 82.6172 23.579 82.6172 22.2831C82.6172 21.1722 82.7329 20.1309 82.9643 19.1589C83.1263 18.5109 83.323 17.9786 83.5544 17.5621C83.809 17.1224 84.133 16.7521 84.5264 16.4513C84.9198 16.1504 85.4058 16 85.9844 16C87.0952 16 87.8589 16.2546 88.2754 16.7637C88.692 17.2497 88.9003 18.0944 88.9003 19.2977C88.9003 21.5194 88.8308 24.8518 88.692 29.2951C88.5531 33.7615 88.4837 37.1055 88.4837 39.3272C88.4837 39.5817 88.449 39.9867 88.3796 40.5421C88.287 41.0744 88.2407 41.5025 88.2407 41.8265C88.2407 41.9422 88.2523 42.0464 88.2754 42.1389V42.5208C88.2754 42.9373 88.1713 43.2729 87.963 43.5275C87.7547 43.8052 87.4654 43.944 87.0952 43.944L86.5745 43.2845ZM87.0605 26.2404C87.1762 24.3196 87.234 21.9591 87.234 19.1589C87.234 18.5803 87.1415 18.1522 86.9563 17.8745C86.7943 17.5968 86.4703 17.4579 85.9844 17.4579C85.6835 17.4579 85.4058 17.6547 85.1512 18.0481C84.9198 18.4183 84.7463 18.8928 84.6305 19.4713C84.4223 20.6053 84.3181 21.5194 84.3181 22.2136C84.3181 22.7459 84.3528 23.2087 84.4223 23.6022C84.4686 23.8336 84.5264 24.0071 84.5958 24.1229L84.7694 24.5394C84.8157 24.6551 84.9082 24.7708 85.0471 24.8865L85.3595 25.199C85.4752 25.2915 85.6141 25.3957 85.7761 25.5114C85.9381 25.604 86.0538 25.6734 86.1232 25.7197C86.1463 25.7428 86.1926 25.7775 86.2621 25.8238C86.3315 25.8469 86.4356 25.8932 86.5745 25.9627L87.0605 26.2404Z" fill="#1F2224"/>
<defs>
<linearGradient id="paint0_linear_2186_28384" x1="26.6273" y1="9.51514" x2="19.8543" y2="41.3609" gradientUnits="userSpaceOnUse">
<stop offset="0.0350253" stop-color="#FFCC81"/>
<stop offset="0.521771" stop-color="#E7914F"/>
<stop offset="1" stop-color="#DD6843"/>
</linearGradient>
</defs>
</svg>
