<svg width="460" height="380" viewBox="0 0 460 380" fill="none" xmlns="http://www.w3.org/2000/svg">
<path d="M416.524 67.0369C416.831 64.8753 417 62.497 417 60C417 50.0589 414.314 42 411 42C407.686 42 405 50.0589 405 60C405 64.4502 405.538 68.5233 406.43 71.665C405.968 72.6533 405.864 73.9335 406.23 75.222C406.464 76.0452 406.859 76.7644 407.352 77.3324C406.822 78.7681 407.571 80.4929 409.113 81.5967C409.208 82.8537 409.567 83.8548 410.187 84.4518C410.263 85.8903 411.371 87.3832 413.101 88.1644C414.287 88.6998 415.53 88.7948 416.558 88.5136C416.722 88.6591 416.903 88.7777 417.101 88.8671C419.366 89.8897 423.023 86.6859 425.269 81.7111C427.515 76.7362 427.499 71.8743 425.234 70.8517C423.93 70.2628 422.164 71.0755 420.471 72.8209C420.939 69.8732 420.424 67.5265 418.93 66.8517C418.232 66.5369 417.403 66.6226 416.524 67.0369Z" fill="url(#paint0_linear_2052_39118)"/>
<path d="M421 157C416.6 157.8 409.833 164.667 407 168L399 173C399.833 173.667 401.9 175.2 403.5 176C405.5 177 409 178 409.5 179C410 180 416 182 419 182C422 182 426 180.5 428 177C430 173.5 420.5 170 420 170H424.5C428.5 169.2 425.167 166 423 164.5C428 164.5 428 164.5 430.5 163.5C433 162.5 431.5 161.5 430.5 158C429.5 154.5 426.5 156 421 157Z" fill="url(#paint1_linear_2052_39118)"/>
<path d="M357 282C357 304.644 336.838 323 314.125 323C291.412 323 273 304.644 273 282C273 259.356 291.412 241 314.125 241C336.838 241 357 259.356 357 282Z" fill="url(#paint2_linear_2052_39118)"/>
<path d="M156 278.5C156 304.734 132.717 326 106.49 326C80.2618 326 59 304.734 59 278.5C59 252.266 80.2618 231 106.49 231C132.717 231 156 252.266 156 278.5Z" fill="url(#paint3_linear_2052_39118)"/>
<path d="M111 155C111 177.644 90.8377 196 68.125 196C45.4123 196 27 177.644 27 155C27 132.356 45.4123 114 68.125 114C90.8377 114 111 132.356 111 155Z" fill="url(#paint4_linear_2052_39118)"/>
<path d="M215 77C215 99.6437 194.838 118 172.125 118C149.412 118 131 99.6437 131 77C131 54.3563 149.412 36 172.125 36C194.838 36 215 54.3563 215 77Z" fill="url(#paint5_linear_2052_39118)"/>
<ellipse cx="182.5" cy="51" rx="10.5" ry="11" fill="white"/>
<ellipse cx="84" cy="128.5" rx="10" ry="10.5" fill="white"/>
<ellipse cx="115.5" cy="246" rx="9.5" ry="8" fill="white"/>
<ellipse cx="319.5" cy="254" rx="10.5" ry="10" fill="white"/>
<ellipse cx="166" cy="52.5" rx="10" ry="10.5" fill="white"/>
<ellipse cx="66.5" cy="128" rx="9.5" ry="10" fill="white"/>
<ellipse cx="100" cy="246.5" rx="11" ry="9.5" fill="white"/>
<ellipse cx="301" cy="254.5" rx="12" ry="9.5" fill="white"/>
<path d="M298 122C297.2 122 299 77 300 54.5C308 57.7 323.667 85.1667 330.5 98.5C338.5 93.7 347.167 61.5 350.5 46C357.3 53.2 360 84 360.5 98.5L391.5 47L394 125C362.333 124 298.8 122 298 122Z" fill="url(#paint6_linear_2052_39118)"/>
<path d="M307 39.5C307 41.9853 304.36 44 301.385 44C298.411 44 296 41.9853 296 39.5C296 37.0147 298.411 35 301.385 35C304.36 35 307 37.0147 307 39.5Z" fill="url(#paint7_linear_2052_39118)"/>
<path d="M356 36C356 38.7614 353.6 41 350.896 41C348.192 41 346 38.7614 346 36C346 33.2386 348.192 31 350.896 31C353.6 31 356 33.2386 356 36Z" fill="url(#paint8_linear_2052_39118)"/>
<path d="M398 38C398 40.7614 395.6 43 392.896 43C390.192 43 388 40.7614 388 38C388 35.2386 390.192 33 392.896 33C395.6 33 398 35.2386 398 38Z" fill="url(#paint9_linear_2052_39118)"/>
<path d="M408 154.535C408 180.749 380.157 202 348.792 202C317.426 202 292 180.749 292 154.535C292 142.739 292.978 132.802 301.5 124.5C303.5 122.552 328.249 123.645 345.5 123.645C357.516 123.645 387.5 123.645 395.5 125.5C401.5 133.5 408 138.364 408 154.535Z" fill="url(#paint10_linear_2052_39118)"/>
<path d="M345 124.5L303 123.5C305.667 126.667 313.2 133.3 322 134.5C330.8 135.7 341 128.333 345 124.5Z" fill="white"/>
<path d="M393 125.988L343 125C346.175 128.13 354 135.871 365.619 135.871C381.5 135.871 388.238 129.777 393 125.988Z" fill="white"/>
<path d="M233 316C233 327.598 222.679 337 211.052 337C199.425 337 190 327.598 190 316C190 304.402 199.425 295 211.052 295C222.679 295 233 304.402 233 316Z" fill="url(#paint11_linear_2052_39118)"/>
<path d="M281 131C281 142.598 270.679 152 259.052 152C247.425 152 238 142.598 238 131C238 119.402 247.425 110 259.052 110C270.679 110 281 119.402 281 131Z" fill="url(#paint12_linear_2052_39118)"/>
<path d="M252 217C252 239.091 232.558 257 210.656 257C188.755 257 171 239.091 171 217C171 194.909 188.755 177 210.656 177C232.558 177 252 194.909 252 217Z" fill="url(#paint13_linear_2052_39118)"/>
<path fill-rule="evenodd" clip-rule="evenodd" d="M198.98 38.3899C201.874 40.4902 205.22 41.881 208.75 42.4499C210.02 42.6499 209.48 44.5799 208.25 44.3699C205.216 43.8823 202.303 42.8163 199.67 41.2299C199.124 40.8969 198.605 40.5166 198.086 40.1363L198.086 40.1362C197.389 39.6257 196.692 39.1153 195.93 38.7199C195.03 38.2499 193.52 37.9299 192.84 38.9299C192.725 39.0888 192.568 39.2128 192.386 39.2883C192.205 39.3638 192.006 39.3879 191.812 39.3579C191.618 39.328 191.435 39.2451 191.285 39.1185C191.135 38.9918 191.023 38.8262 190.96 38.6399L190.96 38.6405L190.959 38.6408L190.959 38.641C190.74 38.8906 190.52 39.1402 190.29 39.3799L190.281 39.3882C191.493 39.903 192.681 40.4743 193.84 41.1001C201.595 45.3073 207.877 51.7876 211.84 59.6701C216.056 68.2686 217.361 78.0047 215.56 87.4101C212.716 102.418 201.461 114.96 187.243 120.071C190.27 123.589 193.953 126.49 198.089 128.61L198.309 128.48C198.905 126.645 199.895 124.962 201.209 123.55C201.398 123.363 201.652 123.259 201.918 123.259C202.183 123.26 202.437 123.367 202.624 123.555C202.811 123.743 202.916 123.998 202.915 124.264C202.914 124.529 202.808 124.783 202.619 124.97C202.429 125.17 202.249 125.38 202.069 125.6L201.979 125.72L201.759 126.02C201.528 126.342 201.315 126.676 201.119 127.02C203.711 126.053 206.514 125.794 209.239 126.27C209.494 126.342 209.709 126.512 209.838 126.743C209.967 126.973 210 127.245 209.929 127.5C209.895 127.627 209.835 127.745 209.755 127.849C209.674 127.953 209.574 128.04 209.459 128.105C209.345 128.17 209.219 128.212 209.089 128.228C208.958 128.244 208.826 128.235 208.699 128.2C206.55 127.829 204.341 128.008 202.279 128.72C203.225 128.796 204.158 128.984 205.059 129.28C205.186 129.315 205.305 129.374 205.409 129.455C205.512 129.535 205.599 129.636 205.664 129.75C205.729 129.864 205.771 129.99 205.787 130.121C205.804 130.251 205.794 130.383 205.759 130.51C205.687 130.764 205.517 130.979 205.287 131.109C205.056 131.238 204.784 131.271 204.529 131.2C202.617 130.567 200.566 130.484 198.609 130.96C198.394 131.013 198.166 130.992 197.964 130.902C197.761 130.811 197.594 130.656 197.489 130.46C192.755 128.125 188.57 124.814 185.209 120.745C183.671 121.212 182.103 121.592 180.51 121.88C178.054 122.308 175.579 122.529 173.109 122.546C174.454 126.784 175.804 131.022 177.161 135.26C182.203 151.142 187.245 167.021 192.288 182.896C202.294 178.155 214.167 177.177 225.18 178.09C225.477 178.116 225.761 178.223 226 178.4C227.182 178.61 228.345 178.911 229.48 179.3C229.729 179.388 229.976 179.479 230.222 179.575C234.228 168.876 238.756 158.38 243.787 148.125C241.7 146.704 239.837 144.905 238.301 142.7C232.631 134.57 234.571 123 241.451 116.21C244.267 113.493 247.698 111.496 251.451 110.388C255.205 109.281 259.17 109.096 263.011 109.85C261.361 109.07 262.141 106.29 263.891 107C264.522 107.257 265.148 107.532 265.768 107.823C265.774 107.816 265.781 107.808 265.788 107.801L265.799 107.79C265.93 107.632 266.046 107.464 266.165 107.294L266.165 107.294L266.165 107.293L266.228 107.204C266.247 107.176 266.266 107.149 266.286 107.121L266.329 107.06C266.052 106.323 265.638 105.644 265.109 105.06C264.047 103.951 262.634 103.244 261.109 103.06C260.855 102.988 260.64 102.818 260.511 102.587C260.381 102.357 260.349 102.085 260.419 101.83C260.454 101.703 260.514 101.585 260.594 101.481C260.675 101.377 260.775 101.29 260.889 101.225C261.004 101.16 261.13 101.118 261.26 101.102C261.39 101.085 261.523 101.095 261.649 101.13C262.883 101.321 264.059 101.787 265.088 102.493C266.118 103.199 266.976 104.128 267.599 105.21C268.342 103.909 268.923 102.522 269.329 101.08C269.4 100.824 269.569 100.606 269.799 100.475C270.03 100.344 270.303 100.31 270.559 100.38C270.815 100.45 271.033 100.619 271.164 100.85C271.295 101.081 271.33 101.354 271.259 101.61C270.826 103.152 270.208 104.636 269.419 106.03C269.778 105.836 270.157 105.682 270.549 105.57C271.559 105.292 272.622 105.27 273.642 105.508C274.662 105.745 275.607 106.234 276.389 106.93V106.9C276.578 107.087 276.684 107.341 276.685 107.606C276.686 107.872 276.581 108.127 276.394 108.315C276.207 108.503 275.953 108.61 275.688 108.611C275.423 108.611 275.168 108.507 274.979 108.32C274.45 107.867 273.817 107.552 273.137 107.403C272.456 107.255 271.749 107.278 271.079 107.47C270.158 107.753 269.358 108.337 268.809 109.13C268.818 109.227 268.817 109.324 268.806 109.42C276.55 113.948 282.654 121.251 283.111 130.61C283.396 135.365 281.954 140.064 279.051 143.84C275.931 147.77 271.181 150.12 266.401 151.34C259.431 153.134 251.686 152.624 245.494 149.178C240.503 159.347 236.017 169.757 232.052 180.37C237.757 183.113 242.41 187.888 245.48 193.41C246.019 194.377 246.505 195.367 246.943 196.375C263.032 188.174 279.919 181.643 297.341 176.887C295.502 173.348 294.21 169.529 293.529 165.56C292.886 161.629 292.552 157.653 292.529 153.67C292.459 149.59 292.389 145.47 292.669 141.4C293.129 134.84 295.069 128.09 300.069 123.72L296.919 123.63C296.618 123.614 296.328 123.511 296.084 123.333C295.841 123.155 295.654 122.91 295.548 122.627C295.442 122.345 295.421 122.038 295.487 121.743C295.553 121.449 295.703 121.18 295.919 120.97V120.84C296.586 115.827 297.129 110.793 297.549 105.74C299.019 88.0077 299.036 70.1849 297.599 52.45C297.479 51.02 299.249 50.66 300.159 51.39C303.379 54.0061 306.345 56.9189 309.019 60.09C318.139 70.85 324.099 83.76 329.709 96.59C331.701 93.6898 333.537 90.6855 335.209 87.59C342.604 73.9338 346.754 58.7585 347.339 43.24C347.348 42.9156 347.461 42.6027 347.661 42.3475C347.862 42.0924 348.139 41.9085 348.452 41.8233C348.765 41.738 349.097 41.7558 349.399 41.8741C349.702 41.9924 349.957 42.2048 350.129 42.48C352.558 45.8534 354.572 49.5063 356.129 53.36C361.449 66.26 361.889 80.33 361.699 94.13L390.559 45.4C390.731 45.1254 390.986 44.9132 391.287 44.7947C391.588 44.6761 391.92 44.6575 392.232 44.7415C392.545 44.8255 392.822 45.0078 393.023 45.2614C393.224 45.515 393.339 45.8265 393.349 46.15C393.896 51.9233 394.349 57.7033 394.709 63.49C395.964 83.4655 396.164 103.493 395.309 123.49H396.789C398.709 123.55 398.719 126.55 396.789 126.49H395.149C392.244 129.491 388.761 131.873 384.909 133.49C380.959 135.059 376.826 136.124 372.609 136.66C368.391 137.366 364.091 137.444 359.849 136.89C353.199 135.89 346.629 132.29 343.549 126.13C342.737 126.673 341.928 127.231 341.117 127.79L341.117 127.791C335.786 131.467 330.408 135.175 323.689 135.01C315.949 134.82 308.329 130.66 302.829 125.26L302.549 125.47L311.999 138.47L344.549 183.08C348.349 178.2 352.149 173.33 356.059 168.55C356.629 167.85 357.199 167.17 357.779 166.48C357.569 165.79 358.159 164.96 358.879 165.15C372.059 149.47 387.019 134.81 405.679 125.9C406.749 125.39 407.669 126.81 406.899 127.47C407.04 127.532 407.162 127.628 407.255 127.75C407.349 127.872 407.41 128.015 407.433 128.167C407.456 128.318 407.44 128.473 407.387 128.617C407.334 128.761 407.245 128.889 407.129 128.99C391.052 142.754 379.08 160.684 372.529 180.81C372.478 181 372.371 181.171 372.222 181.301C372.074 181.431 371.89 181.514 371.694 181.54C371.499 181.565 371.3 181.532 371.123 181.445C370.946 181.358 370.798 181.221 370.699 181.05C367.987 175.792 364.07 171.248 359.269 167.79C354.499 173.58 349.869 179.52 345.269 185.43C344.839 185.99 344.039 185.69 343.699 185.23C340.513 180.857 337.326 176.49 334.139 172.13L300.939 126.85C295.949 131.85 295.379 139.88 295.329 146.64L295.324 147.278C295.254 155.331 295.181 163.663 297.889 171.34C302.449 184.38 314.799 192.73 327.449 196.85C341.509 201.43 357.419 202.85 371.769 198.79C383.749 195.45 394.829 187.66 400.629 176.45C406.299 165.47 405.949 150.97 398.049 141.12C396.859 139.63 398.969 137.5 400.179 139C401.207 140.265 402.143 141.601 402.979 143C407.068 150.29 408.449 158.79 406.879 167C409.064 164.058 411.72 161.497 414.739 159.42C415.129 159.15 415.539 158.88 415.949 158.62C416.569 143.873 416.649 129.13 416.189 114.39C415.365 115.155 414.327 115.651 413.214 115.81C412.1 115.969 410.965 115.784 409.959 115.28C407.139 113.82 406.689 109.46 409.689 107.89C410.819 107.29 411.829 109.02 410.689 109.62C410.406 109.786 410.164 110.013 409.98 110.284C409.797 110.556 409.676 110.866 409.628 111.19C409.58 111.514 409.606 111.846 409.703 112.159C409.8 112.472 409.966 112.76 410.189 113C410.763 113.515 411.492 113.822 412.261 113.873C413.03 113.924 413.793 113.715 414.429 113.28C415.573 112.547 416.422 111.436 416.829 110.14C416.775 108.76 416.802 107.377 416.909 106C416.999 103.9 417.129 101.78 417.359 99.68C417.319 98.7 417.279 97.76 417.199 96.76C417.069 95.04 416.649 93.2 414.989 92.33C414.298 91.9871 413.524 91.8468 412.756 91.9254C411.988 92.004 411.258 92.2982 410.651 92.7741C410.043 93.2499 409.582 93.888 409.322 94.6146C409.062 95.3411 409.012 96.1265 409.179 96.88C409.419 98.14 407.489 98.68 407.249 97.41C406.569 93.81 409.009 90.06 412.709 89.87C411.716 89.4188 410.839 88.7462 410.146 87.9038C409.453 87.0614 408.961 86.0715 408.709 85.01C405.063 80.8021 404.732 74.9483 404.428 69.5604L404.428 69.5541L404.428 69.5471C404.396 68.9855 404.364 68.429 404.329 67.88C403.939 61.74 403.799 55.51 405.039 49.45C405.368 47.8268 405.812 46.2294 406.369 44.67C406.67 43.6208 407.177 42.6418 407.859 41.79C408.662 41.0081 409.739 40.5706 410.859 40.5706C411.98 40.5706 413.057 41.0081 413.859 41.79C415.759 43.45 416.529 46.26 417.129 48.62C417.832 51.367 418.168 54.1948 418.129 57.03C418.079 59.9317 417.642 62.8138 416.829 65.6C417.293 65.3598 417.807 65.2344 418.329 65.2344C418.852 65.2344 419.366 65.3598 419.829 65.6C421.549 66.6 421.399 68.91 421.239 70.68C422.075 70.0688 423.075 69.7207 424.109 69.68C427.869 69.46 428.989 73 428.549 76.13C428.037 80.1588 426.311 83.9363 423.599 86.96C422.629 88.0288 421.451 88.8892 420.138 89.4892C418.824 90.0891 417.403 90.416 415.959 90.45C416.745 90.8287 417.43 91.3871 417.959 92.08C418.321 92.5664 418.604 93.1062 418.799 93.68C419.15 92.8153 419.636 92.0119 420.239 91.3C421.489 89.85 423.859 88.74 425.549 89.97C427.239 91.2 427.089 93.74 426.549 95.52C425.91 97.6029 424.567 99.3988 422.749 100.6C421.689 101.32 420.689 99.58 421.749 98.87C423.339 97.813 424.446 96.1702 424.829 94.3C424.969 93.55 425.149 92.26 424.509 91.68C423.699 90.95 422.469 91.84 421.909 92.44C420.299 94.14 419.749 96.64 419.499 99.14C419.579 101.02 419.639 102.91 419.639 104.79C419.686 106.586 419.484 108.379 419.039 110.12C419.169 111.95 420.039 113.66 422.039 114C422.923 114.129 423.821 113.912 424.548 113.394C425.275 112.876 425.773 112.097 425.939 111.22C426.027 110.824 426.012 110.413 425.896 110.025C425.781 109.636 425.569 109.284 425.279 109C424.719 108.52 423.549 108.49 423.219 109.3C422.749 110.48 420.809 109.96 421.299 108.77C421.483 108.302 421.771 107.882 422.14 107.541C422.508 107.199 422.95 106.946 423.43 106.799C423.911 106.652 424.419 106.615 424.915 106.691C425.412 106.768 425.885 106.955 426.299 107.24C427.11 107.883 427.677 108.785 427.904 109.794C428.132 110.804 428.007 111.861 427.549 112.79C427.159 113.632 426.561 114.362 425.812 114.911C425.063 115.459 424.186 115.809 423.265 115.927C422.344 116.045 421.408 115.927 420.545 115.585C419.682 115.243 418.92 114.687 418.329 113.97C418.776 128.437 418.709 142.897 418.129 157.35C420.144 156.211 422.328 155.404 424.599 154.96C427.519 154.46 431.129 155.31 432.359 158.31C432.649 158.944 432.788 159.636 432.764 160.332C432.74 161.029 432.554 161.71 432.221 162.322C431.888 162.934 431.418 163.461 430.846 163.859C430.275 164.258 429.619 164.519 428.929 164.62C428.044 164.79 427.149 164.91 426.249 164.98C426.635 165.367 426.92 165.844 427.078 166.367C427.237 166.89 427.265 167.444 427.159 167.98C426.914 168.778 426.448 169.49 425.814 170.034C425.181 170.577 424.406 170.93 423.579 171.05C424.415 171.451 425.22 171.912 425.989 172.43C427.289 173.3 428.669 174.36 429.049 175.95C429.171 176.653 429.115 177.375 428.886 178.051C428.657 178.727 428.263 179.335 427.739 179.82C425.519 182.13 421.789 183.02 418.679 183.02C417.887 183.026 417.094 182.973 416.309 182.86C417.171 194.699 417.068 206.588 415.999 218.41C415.879 219.68 413.879 219.69 413.999 218.41C415.082 206.438 415.179 194.398 414.289 182.41C412.422 181.906 410.665 181.058 409.109 179.91C408.109 179.18 409.109 177.41 410.109 178.18C414.319 181.33 420.509 182.1 425.109 179.33C426.199 178.68 427.579 177.45 426.989 176.05C426.588 175.016 425.314 174.268 424.333 173.693L424.332 173.693C424.213 173.623 424.098 173.555 423.989 173.49C421.413 172.003 418.512 171.169 415.539 171.06C415.274 171.094 415.006 171.022 414.794 170.859C414.582 170.696 414.444 170.455 414.409 170.19C414.375 169.925 414.447 169.657 414.61 169.445C414.691 169.34 414.792 169.252 414.907 169.186C415.021 169.12 415.148 169.077 415.279 169.06C416.878 168.499 418.441 168.718 420.047 168.944C420.33 168.984 420.614 169.024 420.899 169.06C422.159 169.19 423.979 169.19 424.899 168.06C426.119 166.55 423.969 165.36 422.689 165.22H422.079L419.839 165.43C418.898 165.622 417.94 165.715 416.979 165.71C416.714 165.71 416.46 165.605 416.272 165.417C416.085 165.23 415.979 164.975 415.979 164.71C415.979 164.445 416.085 164.19 416.272 164.003C416.46 163.815 416.714 163.71 416.979 163.71L423.289 163.1C423.795 163.054 424.329 163.028 424.875 163.002L424.875 163.002C426.325 162.933 427.854 162.859 429.139 162.38C429.494 162.246 429.813 162.033 430.072 161.757C430.331 161.481 430.523 161.149 430.634 160.787C430.745 160.425 430.772 160.042 430.712 159.669C430.652 159.295 430.508 158.939 430.289 158.63C429.369 157.12 427.419 156.67 425.769 156.79C422.299 157.05 418.689 159.12 415.879 161.05C413.058 162.984 410.58 165.377 408.549 168.13C408.447 168.268 408.314 168.381 408.16 168.459C408.006 168.536 407.837 168.577 407.664 168.577C407.492 168.577 407.322 168.536 407.169 168.459C407.015 168.381 406.882 168.268 406.779 168.13C405.806 172.762 403.997 177.177 401.439 181.16C395.439 190.45 386.099 197.02 375.759 200.62V200.68C376.256 205.283 376.363 209.919 376.079 214.54C379.249 211.26 384.129 210.93 388.529 210.93C388.795 210.93 389.049 211.035 389.237 211.223C389.424 211.41 389.529 211.665 389.529 211.93C389.529 212.195 389.424 212.45 389.237 212.637C389.049 212.825 388.795 212.93 388.529 212.93C385.509 212.95 381.879 212.98 379.169 214.57C381.978 214.285 384.811 214.776 387.359 215.99C388.539 216.54 387.519 218.26 386.359 217.71C384.6 216.886 382.682 216.46 380.739 216.46C381.954 216.754 383.127 217.201 384.229 217.79C384.447 217.928 384.603 218.145 384.664 218.396C384.726 218.646 384.688 218.911 384.559 219.134C384.43 219.358 384.219 219.522 383.972 219.594C383.724 219.666 383.458 219.64 383.229 219.52C381.157 218.412 378.814 217.91 376.469 218.07C376.279 218.068 376.093 218.011 375.933 217.906C375.774 217.802 375.648 217.654 375.569 217.48C375.342 217.612 375.072 217.649 374.818 217.584C374.563 217.518 374.345 217.355 374.209 217.13C374.149 217.018 374.108 216.896 374.089 216.77C374.038 216.633 374.018 216.486 374.029 216.34C374.438 211.315 374.381 206.264 373.859 201.25C371.788 201.895 369.681 202.423 367.549 202.83C359.53 204.3 351.327 204.482 343.249 203.37C338.812 202.794 334.421 201.905 330.109 200.71C330.475 207.204 330.174 213.718 329.209 220.15C329.222 220.199 329.242 220.245 329.262 220.291C329.291 220.359 329.319 220.424 329.319 220.49C329.366 220.678 329.353 220.875 329.281 221.055C329.209 221.234 329.083 221.386 328.919 221.49C328.818 221.632 328.675 221.738 328.509 221.794C328.344 221.849 328.166 221.851 327.999 221.8C327.869 221.847 327.73 221.862 327.592 221.844C327.455 221.827 327.324 221.778 327.209 221.7C326.749 221.41 326.289 221.13 325.809 220.87C324.845 220.875 323.884 220.975 322.939 221.17C322.391 221.255 321.863 221.438 321.379 221.71C321.358 221.736 321.331 221.757 321.299 221.77L321.199 221.85L321.039 222.02C320.956 222.119 320.888 222.23 320.839 222.35V222.49C320.839 222.755 320.734 223.01 320.547 223.197C320.359 223.385 320.105 223.49 319.839 223.49C319.574 223.49 319.32 223.385 319.132 223.197C318.945 223.01 318.839 222.755 318.839 222.49C318.965 221.703 319.335 220.975 319.896 220.41C320.458 219.845 321.183 219.471 321.969 219.34L322.409 219.25L322.277 219.198L322.276 219.198C321.962 219.076 321.654 218.955 321.329 218.85C321.195 218.804 321.054 218.755 320.907 218.704C319.249 218.124 316.866 217.292 315.589 218.78C314.759 219.76 313.349 218.36 314.179 217.36C315.949 215.27 318.919 215.99 321.179 216.7C322.958 217.267 324.682 217.993 326.329 218.87H326.599C325.596 216.788 323.952 215.081 321.909 214C321.796 213.934 321.696 213.846 321.616 213.741C321.537 213.636 321.478 213.517 321.445 213.39C321.412 213.262 321.404 213.13 321.421 212.999C321.439 212.869 321.483 212.744 321.549 212.63C321.616 212.516 321.704 212.417 321.808 212.337C321.913 212.257 322.032 212.199 322.16 212.166C322.287 212.132 322.42 212.124 322.55 212.142C322.68 212.16 322.806 212.203 322.919 212.27C324.852 213.311 326.49 214.825 327.679 216.67C328.309 211.157 328.45 205.598 328.099 200.06C325.517 199.27 322.98 198.339 320.499 197.27C313.746 194.441 307.692 190.172 302.759 184.76C301.066 182.854 299.572 180.794 298.294 178.613C298.196 178.692 298.083 178.752 297.96 178.79C280.579 183.525 263.732 190.038 247.687 198.226C250.037 204.584 250.607 211.566 250.13 218.32C249.76 222.883 249.031 227.411 247.95 231.86C247.22 235.48 246.017 238.986 244.376 242.289C256.13 246.216 267.106 252.149 276.82 259.817C277.347 258.904 277.901 258.008 278.48 257.13C278.729 256.753 278.982 256.376 279.24 256.002C279.128 255.904 279.014 255.807 278.899 255.71C277.919 254.88 279.319 253.48 280.319 254.3L280.402 254.371C285.083 248.02 291.165 242.406 298.97 240.49C301.234 239.934 303.505 239.661 305.779 239.576C305.248 236.713 302.759 234.656 300.1 233.71C296.966 232.795 293.676 232.543 290.44 232.97C285.67 233.44 280.81 235.07 277.44 238.44C278.144 239.35 278.707 240.362 279.11 241.44C279.145 241.567 279.154 241.699 279.138 241.829C279.122 241.96 279.08 242.086 279.015 242.2C278.95 242.314 278.863 242.415 278.759 242.495C278.655 242.576 278.536 242.635 278.41 242.67C278.283 242.705 278.151 242.714 278.02 242.698C277.89 242.682 277.764 242.64 277.65 242.575C277.535 242.51 277.435 242.423 277.354 242.319C277.274 242.215 277.214 242.097 277.18 241.97L277.06 241.66C277.056 241.643 277.056 241.626 277.06 241.61C276.98 241.44 276.9 241.27 276.81 241.1C276.629 240.755 276.429 240.422 276.21 240.1L276.15 240.01C275.654 240.664 275.216 241.36 274.84 242.09C274.24 243.25 272.52 242.23 273.11 241.09C273.591 240.176 274.156 239.308 274.8 238.5C274.613 238.313 274.509 238.059 274.509 237.795C274.509 237.531 274.613 237.277 274.8 237.09C274.983 236.924 275.222 236.832 275.47 236.832C275.717 236.832 275.956 236.924 276.14 237.09C280.09 233.18 285.84 231.37 291.41 231.03C295.14 230.79 299.16 230.94 302.55 232.67C303.973 233.373 305.202 234.416 306.126 235.707C306.947 236.853 307.506 238.164 307.766 239.547C309.093 239.556 310.421 239.62 311.749 239.72C315.428 234.378 319.978 229.526 325.85 226.59C329.625 224.675 333.832 223.773 338.06 223.97C338.918 222.65 340.256 221.714 341.79 221.36C341.917 221.325 342.049 221.316 342.18 221.332C342.31 221.348 342.436 221.39 342.55 221.455C342.664 221.52 342.765 221.607 342.845 221.711C342.926 221.815 342.985 221.933 343.02 222.06C343.055 222.187 343.064 222.319 343.048 222.45C343.032 222.58 342.99 222.706 342.925 222.82C342.86 222.934 342.773 223.035 342.669 223.115C342.565 223.196 342.447 223.255 342.32 223.29C342.134 223.329 341.95 223.38 341.77 223.44L341.62 223.5L341.48 223.56C341.315 223.64 341.154 223.73 341 223.83L340.76 223.99H340.71L340.52 224.18C342.145 224.454 343.731 224.927 345.24 225.59C346.41 226.13 345.39 227.83 344.18 227.34C342.528 226.619 340.774 226.16 338.98 225.98C338.834 226.047 338.675 226.081 338.515 226.081C338.355 226.081 338.196 226.047 338.05 225.98L337.98 225.92C333.855 225.748 329.761 226.706 326.14 228.69C321.211 231.339 317.271 235.385 314.035 239.924C315.824 240.106 317.613 240.333 319.402 240.561L319.402 240.561L319.403 240.561L319.404 240.561L319.405 240.561L319.405 240.561L319.406 240.562L319.407 240.562L319.408 240.562L319.408 240.562L319.409 240.562L319.41 240.562L319.411 240.562L319.411 240.562L319.412 240.562L319.413 240.562L319.413 240.562L319.414 240.563L319.415 240.563L319.416 240.563L319.416 240.563L319.417 240.563L319.418 240.563L319.419 240.563L319.419 240.563L319.42 240.563L319.421 240.563L319.422 240.563L319.422 240.564L319.423 240.564L319.424 240.564L319.424 240.564L319.425 240.564L319.426 240.564L319.427 240.564L319.427 240.564L319.428 240.564L319.429 240.564L319.43 240.564L319.43 240.565L319.431 240.565C321.87 240.875 324.307 241.185 326.74 241.38C326.918 241.217 327.136 241.106 327.372 241.058C327.609 241.01 327.853 241.028 328.08 241.11C330.007 241.677 331.903 242.344 333.76 243.11C336.822 244.392 339.824 245.972 342.579 247.886C342.769 247.826 342.975 247.823 343.169 247.88C343.425 247.956 343.641 248.13 343.768 248.364C343.848 248.511 343.889 248.673 343.89 248.837C344.888 249.592 345.846 250.395 346.757 251.247C346.776 251.059 346.848 250.868 346.991 250.69C349.771 247.24 352.551 243.79 355.491 240.48C356.941 238.87 358.401 237.28 359.941 235.77C361.121 234.62 362.511 233.54 364.261 233.69C368.251 234.02 367.911 239.26 366.441 241.78C365.471 243.283 364.222 244.587 362.761 245.62C364.941 245.2 366.851 245.71 367.101 248.6C367.271 250.68 365.771 252.26 364.181 253.37C362.768 254.346 361.231 255.13 359.611 255.7C360.069 256.266 360.377 256.939 360.506 257.655C360.636 258.372 360.582 259.11 360.351 259.8C359.578 261.981 357.653 263.135 355.757 264.27L355.753 264.272L355.743 264.278L355.739 264.281C355.485 264.434 355.231 264.586 354.981 264.74C356.891 271.717 356.533 279.429 356.17 286.58C356.048 291.509 355.205 296.394 353.67 301.08C352.253 305.004 350.128 308.634 347.4 311.79C342.447 317.41 336.026 321.5 328.892 323.626C330.604 331.27 330.614 339.198 328.92 346.85C330.558 345.434 332.389 344.258 334.36 343.36C334.588 343.225 334.86 343.186 335.117 343.251C335.374 343.317 335.595 343.482 335.73 343.71C335.796 343.824 335.84 343.949 335.858 344.08C335.876 344.21 335.868 344.343 335.834 344.47C335.801 344.597 335.743 344.717 335.663 344.821C335.583 344.926 335.484 345.014 335.37 345.08C333.398 345.984 331.574 347.181 329.96 348.63C332.427 347.645 335.132 347.415 337.73 347.97C338.99 348.25 338.45 350.18 337.2 349.9C335.847 349.614 334.453 349.587 333.09 349.82C334.107 350.125 335.053 350.631 335.87 351.31C335.964 351.403 336.038 351.514 336.089 351.636C336.139 351.757 336.166 351.888 336.166 352.02C336.166 352.152 336.139 352.283 336.089 352.405C336.038 352.527 335.964 352.637 335.87 352.73C335.777 352.824 335.666 352.898 335.544 352.949C335.423 353 335.292 353.026 335.16 353.026C335.028 353.026 334.897 353 334.775 352.949C334.653 352.898 334.543 352.824 334.45 352.73C333.434 351.907 332.149 351.49 330.844 351.558C329.538 351.626 328.304 352.176 327.38 353.1C327.234 353.24 327.05 353.332 326.85 353.365C326.651 353.398 326.447 353.37 326.264 353.284C326.081 353.199 325.928 353.06 325.826 352.886C325.723 352.712 325.676 352.512 325.69 352.31C325.614 352.196 325.567 352.066 325.553 351.93C325.539 351.794 325.559 351.657 325.61 351.53C328.531 342.691 328.997 333.227 326.96 324.149C326.47 324.268 325.976 324.379 325.48 324.48C320.228 325.602 314.62 325.876 309.068 325.291C310.677 329.596 311.433 334.177 311.288 338.778C311.132 343.788 309.912 348.707 307.709 353.21C307.695 353.243 307.682 353.276 307.669 353.31C307.704 353.437 307.714 353.569 307.698 353.7C307.681 353.83 307.64 353.956 307.574 354.07C307.509 354.184 307.423 354.285 307.319 354.365C307.215 354.446 307.096 354.505 306.969 354.54C306.914 354.55 306.859 354.553 306.803 354.55C306.772 354.549 306.74 354.545 306.709 354.54C306.524 354.714 306.279 354.811 306.024 354.811C305.77 354.811 305.525 354.714 305.339 354.54L305.009 354.24L304.909 354.16C304.705 354.011 304.487 353.881 304.259 353.77C304.23 353.753 304.2 353.736 304.169 353.72C304.153 353.712 304.137 353.703 304.12 353.695L304.087 353.679C304.073 353.672 304.059 353.666 304.045 353.66C304.007 353.642 303.969 353.626 303.929 353.61L303.759 353.54C303.524 353.46 303.283 353.393 303.039 353.34L302.679 353.28H302.459C302.207 353.26 301.952 353.26 301.699 353.28H301.529L301.169 353.35C300.925 353.403 300.684 353.474 300.449 353.56C300.195 353.631 299.923 353.598 299.692 353.469C299.462 353.34 299.292 353.124 299.219 352.87C299.185 352.743 299.175 352.611 299.191 352.481C299.208 352.35 299.249 352.224 299.314 352.11C299.38 351.996 299.466 351.895 299.57 351.815C299.674 351.734 299.793 351.675 299.919 351.64C301.505 351.074 303.247 351.135 304.789 351.81C304.518 351.383 304.221 350.972 303.899 350.58C303.447 350.041 302.952 349.539 302.419 349.08L302.019 348.75H301.959L301.729 348.58C301.449 348.38 301.169 348.19 300.869 348.01C300.652 347.872 300.496 347.655 300.435 347.404C300.373 347.154 300.411 346.889 300.54 346.666C300.669 346.442 300.88 346.278 301.127 346.206C301.375 346.134 301.641 346.16 301.869 346.28C303.176 347.088 304.344 348.101 305.329 349.28C305.1 347.942 304.675 346.645 304.069 345.43C304.003 345.316 303.959 345.191 303.942 345.061C303.924 344.93 303.932 344.798 303.965 344.67C303.999 344.543 304.057 344.424 304.136 344.319C304.216 344.214 304.316 344.126 304.429 344.06C304.543 343.993 304.669 343.95 304.799 343.932C304.929 343.914 305.062 343.922 305.189 343.956C305.316 343.989 305.436 344.047 305.541 344.127C305.645 344.207 305.733 344.306 305.799 344.42C306.523 345.872 307.031 347.422 307.309 349.02C310.121 341.226 309.943 332.671 306.82 325.006C294.717 323.215 283.146 317.297 276.41 307.13C271.013 298.956 269.192 289.465 270.15 280.148C265.541 279.991 261.071 278.434 257.349 275.66C255.579 274.29 254.069 272.21 254.489 269.85C254.607 269.205 254.886 268.6 255.299 268.09C253.279 267.45 251.329 266.31 250.699 264.51C250.489 263.935 250.497 263.303 250.722 262.733C250.947 262.164 251.373 261.696 251.919 261.42H251.989C251.659 261.27 251.319 261.11 250.989 260.93C249.589 260.13 247.699 258.89 247.199 257.24C247.002 256.405 247.132 255.525 247.561 254.782C247.99 254.039 248.687 253.487 249.509 253.24C251.51 252.629 253.638 252.57 255.669 253.07C260.115 253.989 264.31 255.854 267.969 258.54C270.479 260.306 272.567 262.589 274.1 265.222C274.633 263.992 275.214 262.782 275.839 261.595C266.157 253.887 255.178 247.952 243.409 244.074C239.039 251.074 231.235 254.794 223.22 255.91C219.732 256.327 216.218 256.475 212.711 256.352C214.052 269.372 214.51 282.468 214.081 295.548C216.368 295.888 218.601 296.573 220.701 297.59C220.891 297.522 221.093 297.495 221.294 297.508C221.413 297.516 221.53 297.539 221.643 297.575C221.75 297.406 221.862 297.241 221.98 297.08V296.93C221.983 296.883 221.984 296.837 221.983 296.79C221.983 296.77 221.982 296.75 221.98 296.73C221.921 296.424 221.838 296.123 221.73 295.83C221.725 295.81 221.719 295.79 221.713 295.77C221.696 295.712 221.674 295.656 221.65 295.6V295.54L221.47 295.16C221.33 294.879 221.169 294.608 220.99 294.35C220.947 294.281 220.9 294.214 220.85 294.15L220.78 294.06C220.76 294.02 220.67 293.92 220.67 293.92L220.51 293.74C220.309 293.521 220.096 293.314 219.87 293.12L219.71 292.99H219.65L219.23 292.71C219.03 292.564 218.891 292.35 218.84 292.108C218.789 291.865 218.829 291.613 218.954 291.399C219.078 291.185 219.278 291.024 219.513 290.949C219.749 290.874 220.005 290.888 220.23 290.99C221.867 292.016 223.092 293.584 223.69 295.42C224.932 294.391 226.434 293.723 228.03 293.49C229.712 293.302 231.415 293.465 233.03 293.97C233.89 294.21 234.72 294.51 235.55 294.81C236.262 295.044 236.936 295.381 237.55 295.81L237.52 295.73C237.64 295.793 237.745 295.879 237.831 295.983C237.916 296.087 237.979 296.208 238.017 296.338C238.055 296.467 238.066 296.603 238.049 296.737C238.033 296.871 237.99 297 237.922 297.117C237.855 297.233 237.765 297.335 237.657 297.416C237.549 297.497 237.426 297.555 237.295 297.587C237.164 297.62 237.027 297.625 236.894 297.603C236.761 297.581 236.634 297.532 236.52 297.46C235.31 296.707 233.976 296.175 232.58 295.89C231.263 295.454 229.874 295.277 228.49 295.37C227.283 295.509 226.134 295.964 225.16 296.69C226.498 296.065 227.945 295.705 229.42 295.63C230.421 295.576 231.423 295.739 232.355 296.108C233.287 296.477 234.128 297.044 234.82 297.77C235.67 298.73 234.26 300.18 233.4 299.18C231.006 296.477 227.15 297.828 224.429 299.274C227.689 301.82 229.799 305.641 230.871 309.67C231.561 312.405 231.98 315.202 232.121 318.02C232.346 320.558 232.251 323.115 231.841 325.63C231.483 327.813 230.579 329.869 229.211 331.607C227.844 333.345 226.058 334.709 224.021 335.57C219.744 337.306 215.166 338.176 210.551 338.13C205.98 338.283 201.455 337.176 197.471 334.93C193.704 332.601 190.821 329.082 189.281 324.93C185.891 315.93 189.451 305.65 196.891 299.93C200.26 297.386 204.265 295.821 208.467 295.409C209.675 295.29 210.885 295.268 212.088 295.34C212.506 282.295 212.043 269.236 210.7 256.251C210.133 256.215 209.567 256.171 209 256.12C204.405 255.868 199.85 255.131 195.41 253.92C187.653 251.68 180.442 247.209 176.255 240.152L150.541 255.238C155.457 265.181 157.205 277.074 156.171 287.61C155.298 297.931 151.149 307.703 144.331 315.5C137.471 323.11 128.301 327.29 118.231 328.57C118.012 328.594 117.793 328.617 117.574 328.639C124.601 332.151 131.795 335.318 139.131 338.13H139.201C139.466 338.098 139.733 338.173 139.943 338.338C140.153 338.503 140.289 338.745 140.321 339.01C140.353 339.275 140.278 339.542 140.113 339.752C139.948 339.962 139.706 340.098 139.441 340.13C135.259 341.369 131.172 342.907 127.211 344.73C130.812 344.375 134.448 344.715 137.921 345.73C138.154 345.818 138.347 345.99 138.46 346.212C138.573 346.435 138.599 346.691 138.533 346.932C138.466 347.173 138.312 347.38 138.101 347.512C137.89 347.645 137.636 347.694 137.391 347.65C135.01 346.975 132.546 346.638 130.071 346.65C132.751 347.365 135.377 348.267 137.931 349.35C139.111 349.82 138.591 351.75 137.401 351.28C135.206 350.358 132.967 349.547 130.691 348.85C130.811 348.971 130.898 349.122 130.943 349.286C130.989 349.451 130.991 349.624 130.951 349.79C130.916 349.917 130.857 350.035 130.776 350.139C130.695 350.243 130.595 350.33 130.481 350.395C130.367 350.46 130.241 350.502 130.11 350.518C129.98 350.534 129.847 350.525 129.721 350.49C127.011 349.57 124.261 348.79 121.491 348.11L120.821 348.24C120.592 348.295 120.35 348.268 120.139 348.162C119.928 348.057 119.762 347.88 119.668 347.664C119.575 347.447 119.561 347.204 119.629 346.979C119.698 346.753 119.843 346.559 120.041 346.43C120.12 346.242 120.261 346.086 120.441 345.99C125.453 343.205 130.712 340.888 136.151 339.07C128.527 336.072 121.059 332.693 113.775 328.946C109.674 329.192 105.561 329.167 101.461 328.87C96.4409 328.752 91.4427 328.182 86.5267 327.168C86.6615 327.651 86.4873 328.234 85.8704 328.43C79.7571 330.39 73.7004 332.543 67.7004 334.89C74.6798 337.937 81.3731 341.602 87.7004 345.84C87.8701 345.953 88.0012 346.115 88.0763 346.304C88.1514 346.494 88.1667 346.702 88.1204 346.9C88.3035 347.043 88.4311 347.245 88.4816 347.471C88.532 347.698 88.5021 347.935 88.3969 348.142C88.2916 348.349 88.1177 348.513 87.9048 348.605C87.692 348.698 87.4536 348.714 87.2304 348.65C84.9691 348.014 82.5502 348.268 80.4704 349.36C80.2419 349.48 79.976 349.506 79.7283 349.434C79.4806 349.362 79.2702 349.198 79.1411 348.974C79.012 348.751 78.9742 348.487 79.0356 348.236C79.0969 347.986 79.2527 347.768 79.4704 347.63C79.9212 347.392 80.3892 347.188 80.8704 347.02C78.5304 346.92 76.2904 347.47 74.8704 349.47C74.1404 350.52 72.4004 349.52 73.1404 348.47C74.3996 346.75 76.279 345.588 78.3804 345.23C77.0762 344.731 75.7399 344.32 74.3804 344C73.1204 343.71 73.6504 341.79 74.9104 342.07C77.2649 342.604 79.5524 343.399 81.7304 344.44C76.402 341.189 70.8363 338.345 65.0804 335.93C64.8806 335.829 64.7127 335.675 64.5954 335.484C64.4781 335.293 64.416 335.074 64.416 334.85C64.416 334.626 64.4781 334.407 64.5954 334.216C64.7127 334.025 64.8806 333.871 65.0804 333.77C71.5141 331.197 78.0285 328.85 84.6236 326.729C75.0019 324.03 67.4955 317.019 63.271 307.99C58.561 297.99 57.391 285.99 58.391 274.99C58.8043 269.495 60.2139 264.121 62.551 259.13C64.7736 254.65 67.7351 250.576 71.311 247.08C80.574 237.93 93.2824 232.803 106.169 232.301C104.789 227.594 98.1964 225.604 93.8196 225.51C91.4151 225.446 89.0433 226.078 86.9896 227.33L87.1196 227.49C87.2429 227.612 87.3325 227.763 87.3796 227.93V228.2C87.3747 228.376 87.3266 228.547 87.2396 228.7L87.0796 228.91C86.9897 229 86.8802 229.069 86.7596 229.11C86.6435 229.174 86.5121 229.205 86.3796 229.2C86.2439 229.206 86.109 229.175 85.9896 229.11C85.869 229.069 85.7595 229 85.6696 228.91L85.3796 228.55C84.1026 229.737 83.205 231.275 82.7996 232.97C82.4896 234.22 80.5696 233.68 80.8696 232.43C82.2696 226.64 88.0996 223.38 93.7796 223.51C99.125 223.628 107.001 226.275 108.22 232.261C110.519 232.259 112.818 232.405 115.099 232.703C115.168 232.515 115.303 232.342 115.52 232.21C117.442 231.035 119.274 229.718 121 228.27C121.85 227.55 122.68 226.82 123.46 226.03C123.822 225.75 124.078 225.354 124.184 224.908C124.289 224.462 124.238 223.993 124.04 223.58C123.649 222.712 123.039 221.961 122.27 221.4V221.47C122.256 221.676 122.222 221.88 122.17 222.08C122.091 222.325 121.928 222.534 121.71 222.67C121.595 222.739 121.468 222.784 121.336 222.803C121.203 222.822 121.069 222.814 120.94 222.78C120.815 222.745 120.699 222.683 120.6 222.6C120.491 222.53 120.401 222.434 120.34 222.32C120.27 222.205 120.229 222.074 120.22 221.94C120.185 221.812 120.185 221.678 120.22 221.55V221.41C120.225 221.317 120.225 221.223 120.22 221.13C120.196 221.015 120.166 220.902 120.13 220.79C120.101 220.716 120.08 220.639 120.07 220.56H119.89C119.072 220.517 118.269 220.784 117.639 221.306C117.009 221.829 116.599 222.569 116.49 223.38C116.43 224.66 114.43 224.67 114.49 223.38C114.569 222.329 114.966 221.326 115.629 220.506C116.291 219.686 117.188 219.088 118.2 218.79C119.133 218.539 120.113 218.516 121.057 218.725C122 218.934 122.88 219.368 123.62 219.99C125.16 221.2 126.66 223.36 126.17 225.33C125.869 226.251 125.314 227.069 124.57 227.69C123.763 228.47 122.923 229.22 122.05 229.94C120.686 231.078 119.262 232.142 117.784 233.126C119.188 233.385 120.582 233.703 121.961 234.08C122.083 234.06 122.209 234.06 122.331 234.08C124.74 234.293 127.113 234.797 129.401 235.58C138.523 238.75 145.187 245.355 149.618 253.463L175.297 238.398C171.89 231.636 171.041 223.732 171.18 216.28C171.16 211.744 171.879 207.235 173.31 202.93C173.37 202.767 173.431 202.604 173.493 202.442C168.946 201.049 164.419 199.595 159.909 198.08C142.527 192.242 125.459 185.511 108.771 177.913C103.524 186.202 95.4977 192.703 86.2098 196.032C89.2433 199.568 92.9378 202.482 97.0893 204.61L97.3093 204.48C97.9053 202.645 98.895 200.962 100.209 199.55C100.398 199.363 100.652 199.259 100.918 199.259C101.183 199.26 101.437 199.367 101.624 199.555C101.811 199.743 101.916 199.998 101.915 200.264C101.914 200.529 101.808 200.783 101.619 200.97C101.429 201.17 101.249 201.38 101.069 201.6L100.979 201.72L100.759 202.02C100.528 202.342 100.315 202.676 100.119 203.02C102.711 202.053 105.514 201.794 108.239 202.27C108.494 202.342 108.709 202.512 108.838 202.743C108.967 202.973 109 203.245 108.929 203.5C108.895 203.627 108.835 203.745 108.755 203.849C108.674 203.953 108.574 204.04 108.459 204.105C108.345 204.17 108.219 204.212 108.089 204.228C107.958 204.245 107.826 204.235 107.699 204.2C105.55 203.829 103.341 204.008 101.279 204.72C102.225 204.796 103.158 204.984 104.059 205.28C104.186 205.315 104.305 205.374 104.409 205.455C104.512 205.535 104.599 205.636 104.664 205.75C104.729 205.864 104.771 205.99 104.787 206.12C104.804 206.251 104.794 206.383 104.759 206.51C104.687 206.764 104.517 206.979 104.287 207.109C104.056 207.238 103.784 207.271 103.529 207.2C101.617 206.567 99.5662 206.484 97.6093 206.96C97.3936 207.013 97.1665 206.992 96.9637 206.902C96.7609 206.811 96.594 206.656 96.4893 206.46C91.7396 204.118 87.5425 200.792 84.1759 196.705C82.6485 197.167 81.0911 197.544 79.51 197.83C71.8491 199.164 63.995 198.487 56.708 195.895C56.8948 196.242 56.8993 196.683 56.5505 197.04C52.9961 200.961 49.1228 204.58 44.9705 207.86C44.9031 208.073 44.7701 208.259 44.5905 208.392C44.4109 208.525 44.1939 208.598 43.9705 208.6C43.8476 208.737 43.6892 208.838 43.5128 208.891C43.3363 208.944 43.1486 208.947 42.9705 208.9C42.3916 208.722 41.7825 208.664 41.1805 208.73H41.0605H40.8405L40.4005 208.84C40.1505 208.91 39.909 209.007 39.6805 209.13C39.4394 209.26 39.2057 209.404 38.9805 209.56C39.0405 209.52 38.8905 209.64 38.8905 209.64L38.7405 209.78C38.6265 209.879 38.5195 209.986 38.4205 210.1C38.359 210.162 38.3021 210.228 38.2467 210.292L38.2466 210.293L38.2465 210.293C38.2209 210.322 38.1957 210.352 38.1705 210.38V210.44L38.0305 210.65C37.8744 210.889 37.7374 211.14 37.6205 211.4C37.4869 211.627 37.2691 211.792 37.0145 211.86C36.7599 211.927 36.4889 211.891 36.2605 211.76C36.1468 211.694 36.0472 211.606 35.9675 211.501C35.8878 211.397 35.8296 211.277 35.7961 211.15C35.7627 211.023 35.7547 210.89 35.7726 210.76C35.7905 210.629 35.8339 210.504 35.9005 210.39C36.4643 209.166 37.4076 208.156 38.5905 207.51C36.1979 207.48 33.8381 208.069 31.7405 209.22C30.6205 209.85 29.6105 208.12 30.7405 207.5C33.9264 205.743 37.6175 205.129 41.2005 205.76C41.151 205.711 41.1053 205.653 41.061 205.598L41.0609 205.598C41.0337 205.564 41.0071 205.53 40.9805 205.5C40.8139 205.317 40.637 205.143 40.4505 204.98L40.2905 204.84L40.2105 204.78L40.2102 204.78L40.1932 204.763C40.1869 204.756 40.1839 204.753 40.1841 204.753C40.1846 204.752 40.1944 204.76 40.2142 204.776L40.2162 204.778C40.2318 204.791 40.2532 204.808 40.2805 204.83C40.1906 204.747 40.0896 204.676 39.9805 204.62C39.7674 204.473 39.5435 204.343 39.3105 204.23L39.1205 204.14H39.0605C39.0105 204.08 38.7905 204.01 38.7205 204.01C38.4712 203.932 38.2174 203.868 37.9605 203.82C37.8338 203.785 37.7153 203.725 37.6118 203.643C37.5083 203.562 37.4217 203.461 37.3572 203.347C37.2927 203.232 37.2514 203.106 37.2356 202.975C37.2199 202.844 37.2301 202.712 37.2655 202.585C37.301 202.458 37.361 202.34 37.4423 202.236C37.5235 202.133 37.6244 202.046 37.739 201.982C37.8537 201.917 37.98 201.876 38.1107 201.86C38.2413 201.844 38.3738 201.855 38.5005 201.89C39.6496 202.14 40.7207 202.666 41.6214 203.422C42.5221 204.178 43.2253 205.142 43.6705 206.23C47.7845 203.014 51.6274 199.465 55.1605 195.62C55.2423 195.531 55.3289 195.463 55.4179 195.414C54.6844 195.127 53.9572 194.821 53.2371 194.495C45.0123 190.773 38.0971 184.664 33.39 176.96C28.8179 169.318 26.6441 160.481 27.15 151.59C27.7386 143.134 30.8765 135.056 36.15 128.42C41.3999 121.722 48.6078 116.828 56.77 114.42C65.8666 111.836 75.4906 112.361 84.7142 114.15C85.3034 113.168 85.6543 112.058 85.7336 110.909C85.8293 109.523 85.5259 108.139 84.8594 106.92C83.913 105.314 82.3715 104.146 80.5694 103.67C80.512 103.865 80.3916 104.036 80.2269 104.155C80.0623 104.275 79.8627 104.336 79.6594 104.33C79.5315 104.34 79.403 104.323 79.2819 104.28C79.1609 104.238 79.05 104.171 78.9561 104.084C78.8621 103.996 78.7873 103.891 78.7362 103.773C78.6852 103.655 78.659 103.528 78.6594 103.4C78.433 103.385 78.2058 103.385 77.9794 103.4C76.6894 103.5 76.6994 101.5 77.9794 101.4C79.6848 101.289 81.3878 101.651 82.9002 102.447C84.4125 103.243 85.6755 104.441 86.5494 105.91C87.2156 107.06 87.6153 108.345 87.7194 109.67C88.7996 107.919 90.5045 106.643 92.4894 106.1C96.3394 105.2 99.2294 108.14 101.279 110.97C102.039 112.01 100.299 113.01 99.5494 111.98C98.9744 111.168 98.3285 110.408 97.6194 109.71C97.4497 109.802 97.2569 109.843 97.0644 109.828C96.8719 109.813 96.6878 109.743 96.5344 109.625C96.3811 109.508 96.265 109.349 96.2003 109.167C96.1355 108.985 96.1247 108.788 96.1694 108.6C95.6445 108.266 95.0522 108.052 94.4349 107.974C93.8176 107.897 93.1907 107.957 92.5994 108.15C89.8246 109.039 88.4913 112.019 87.3869 114.487L87.3154 114.647C87.3798 114.671 87.4445 114.696 87.51 114.72H87.69C87.8955 114.762 88.0897 114.847 88.26 114.97C89.8278 115.588 91.3571 116.299 92.84 117.1C100.595 121.307 106.877 127.787 110.84 135.67C115.045 144.254 116.35 153.971 114.56 163.36C113.697 167.913 112.061 172.239 109.802 176.199C114.355 178.279 118.937 180.286 123.549 182.22C140.132 189.202 157.06 195.335 174.266 200.596C175.495 197.895 177.087 195.369 179 193.09C182.277 189.139 186.181 186.098 190.478 183.807C189.123 179.551 187.77 175.296 186.421 171.04L171 122.512C166.487 122.332 162.015 121.474 157.738 119.956C157.894 120.293 157.879 120.704 157.551 121.04C153.998 124.978 150.125 128.614 145.97 131.91C145.903 132.123 145.77 132.309 145.59 132.442C145.411 132.575 145.194 132.648 144.97 132.65C144.848 132.787 144.689 132.888 144.513 132.941C144.336 132.994 144.149 132.997 143.97 132.95C143.392 132.772 142.783 132.714 142.181 132.78H142.061H141.84L141.4 132.89C141.15 132.96 140.909 133.057 140.681 133.18C140.439 133.31 140.206 133.454 139.98 133.61C140.04 133.57 139.891 133.69 139.891 133.69L139.741 133.83C139.626 133.929 139.52 134.036 139.421 134.15C139.359 134.212 139.302 134.278 139.247 134.342L139.247 134.342L139.247 134.342L139.212 134.383C139.198 134.399 139.184 134.415 139.171 134.43V134.49L139.03 134.7C138.874 134.939 138.737 135.19 138.621 135.45C138.487 135.677 138.269 135.842 138.014 135.91C137.76 135.977 137.489 135.941 137.261 135.81C137.147 135.744 137.047 135.656 136.967 135.551C136.888 135.447 136.83 135.327 136.796 135.2C136.763 135.073 136.755 134.94 136.773 134.81C136.791 134.679 136.834 134.554 136.9 134.44C137.464 133.216 138.408 132.206 139.59 131.56C137.198 131.53 134.838 132.119 132.741 133.27C131.621 133.9 130.611 132.17 131.741 131.55C134.926 129.793 138.617 129.179 142.201 129.81C142.151 129.761 142.105 129.703 142.061 129.648C142.034 129.614 142.007 129.581 141.98 129.55C141.814 129.367 141.637 129.193 141.451 129.03L141.29 128.89L141.21 128.83C141.164 128.736 141.178 128.748 141.263 128.816L141.28 128.83C141.191 128.747 141.09 128.676 140.98 128.62C140.767 128.473 140.543 128.343 140.311 128.23L140.121 128.14H140.061C140.011 128.08 139.79 128.01 139.72 128.01C139.471 127.932 139.217 127.868 138.96 127.82C138.705 127.748 138.488 127.578 138.357 127.347C138.227 127.115 138.194 126.841 138.266 126.585C138.337 126.329 138.507 126.112 138.739 125.982C138.971 125.851 139.245 125.818 139.501 125.89C140.65 126.14 141.721 126.666 142.621 127.422C143.522 128.178 144.225 129.142 144.671 130.23C148.785 127.014 152.627 123.465 156.16 119.62C156.227 119.548 156.296 119.49 156.367 119.444C155.651 119.163 154.941 118.863 154.237 118.545C146.012 114.823 139.097 108.714 134.39 101.01C129.818 93.3685 127.644 84.5307 128.15 75.6401C128.739 67.1845 131.877 59.1059 137.15 52.4701C142.4 45.7724 149.608 40.8785 157.77 38.4701C167.31 35.7101 177.43 36.4701 187.06 38.4201C187.327 38.3573 187.606 38.3782 187.86 38.4801C187.986 38.5201 188.108 38.5666 188.231 38.6141C188.338 37.9742 188.359 37.3204 188.292 36.6702C188.168 35.4727 187.748 34.3248 187.07 33.3299C186.393 32.376 185.491 31.6034 184.445 31.0802C183.399 30.557 182.24 30.2993 181.07 30.3299C180.805 30.3299 180.551 30.2245 180.363 30.037C180.176 29.8494 180.07 29.5951 180.07 29.3299C180.07 29.0647 180.176 28.8103 180.363 28.6228C180.551 28.4352 180.805 28.3299 181.07 28.3299C182.554 28.3042 184.022 28.6361 185.35 29.2975C186.678 29.9589 187.827 30.9304 188.7 32.1299C189.586 33.381 190.128 34.8433 190.27 36.3699C190.747 35.7886 191.215 35.1964 191.684 34.6033C193.457 32.3595 195.241 30.102 197.55 28.3699C200.66 26.0499 204.97 25.0599 208.47 27.1299C208.688 27.2682 208.844 27.4854 208.905 27.7359C208.966 27.9864 208.929 28.2509 208.8 28.4742C208.67 28.6975 208.46 28.8623 208.212 28.9342C207.965 29.0061 207.699 28.9794 207.47 28.8599C204.26 26.9599 200.44 28.4399 197.85 30.6999C195.928 32.5111 194.177 34.4963 192.62 36.6299C193.291 36.3287 194.03 36.2146 194.76 36.2999C196.33 36.6031 197.788 37.3253 198.98 38.3899ZM211.976 298.344C210.835 298.274 209.685 298.302 208.537 298.43C204.094 298.927 199.946 300.903 196.761 304.04C190.941 309.82 189.121 319.1 193.281 326.37C197.441 333.64 205.711 335.67 213.561 334.95C217.371 334.65 221.581 333.9 224.901 331.65C228.221 329.4 229.131 325.48 229.221 321.72C229.391 314.79 228.271 305.88 222.331 301.48C222.15 301.524 221.961 301.531 221.777 301.5C221.593 301.47 221.418 301.401 221.261 301.3C219.018 299.909 216.537 298.987 213.966 298.567C213.952 298.905 213.937 299.242 213.921 299.58C213.861 300.86 211.861 300.86 211.921 299.58C211.94 299.168 211.958 298.756 211.976 298.344ZM278.181 263.516C274.194 270.977 272.385 279.409 272.96 287.85C273.548 295.918 276.794 303.563 282.19 309.59C287.93 315.77 295.79 319.47 303.93 321.25C312.796 323.319 322.069 322.802 330.65 319.76C337.946 317.087 344.141 312.054 348.25 305.46C353 297.63 353.27 288.31 353.36 279.41C353.45 270.83 352.62 262.18 346.69 255.48C345.581 254.225 344.375 253.074 343.092 252.019C342.114 255.584 340.989 259.107 339.719 262.58C334.056 278.09 325.634 292.448 314.859 304.96C314.751 305.068 314.62 305.15 314.475 305.2C314.331 305.249 314.177 305.265 314.025 305.246C313.873 305.226 313.728 305.172 313.601 305.088C313.473 305.004 313.367 304.892 313.289 304.76C311.229 300.83 309.169 296.91 307.029 293.02C305.802 290.747 304.523 288.49 303.189 286.25C303.422 292.623 301.676 298.911 298.189 304.25C298.101 304.402 297.975 304.527 297.823 304.615C297.672 304.702 297.499 304.748 297.324 304.748C297.149 304.748 296.977 304.702 296.825 304.615C296.673 304.527 296.547 304.402 296.459 304.25C294.624 301.375 294.323 298.008 294.026 294.69V294.689C293.997 294.372 293.969 294.056 293.939 293.74C293.487 289.645 292.477 285.632 290.939 281.81C288.04 273.94 284.699 266.24 280.933 258.747C280.306 259.726 279.714 260.719 279.155 261.714C279.502 262.004 279.847 262.296 280.19 262.59C281.17 263.43 279.75 264.84 278.75 264C278.561 263.838 278.371 263.677 278.181 263.516ZM246.818 146.511C253.303 150.235 261.645 150.116 268.641 147.51C272.792 146.118 276.269 143.216 278.381 139.38C280.166 135.681 280.639 131.484 279.721 127.48C278.231 120.67 273.251 115.37 267.331 111.95C267.551 112.97 266.781 114.16 265.551 113.7C261.432 112.184 256.943 111.99 252.709 113.146C248.475 114.302 244.707 116.751 241.931 120.15C236.601 126.96 236.521 137.08 242.711 143.35C243.47 144.119 244.278 144.809 245.128 145.422C245.453 144.773 245.781 144.126 246.11 143.48C246.69 142.34 248.42 143.35 247.84 144.49C247.497 145.163 247.156 145.836 246.818 146.511ZM183.221 40.7258C182.361 40.5771 181.496 40.4412 180.63 40.3201C171.43 39.0201 161.58 39.3201 153.07 43.4001C146.119 46.7801 140.317 52.1329 136.39 58.7901C127.98 72.9801 129.84 91.3501 140.1 104.13C145.422 110.633 152.573 115.39 160.627 117.786C168.681 120.182 177.269 120.107 185.28 117.57C193.123 114.959 199.993 110.038 204.99 103.453C209.987 96.8681 212.877 88.9265 213.28 80.6701L213.23 80.6601C213.629 72.2813 211.367 63.9911 206.769 56.9754C202.972 51.1821 197.742 46.5029 191.62 43.3715C193.178 45.7698 193.825 49.0126 193.55 51.5899C193.407 53.2027 192.868 54.7552 191.98 56.1091C191.092 57.463 189.883 58.5763 188.46 59.3499C188.49 59.4832 188.492 59.6213 188.466 59.7554C188.44 59.8896 188.387 60.017 188.31 60.1299C181.228 70.8254 175.213 82.1898 170.35 94.0599C170.27 94.2649 170.125 94.4378 169.937 94.5519C169.749 94.666 169.528 94.7148 169.31 94.6909C169.091 94.667 168.886 94.5716 168.727 94.4196C168.568 94.2675 168.464 94.0673 168.43 93.8499C165.755 82.3104 161.828 71.0974 156.72 60.4099C156.047 59.6629 155.542 58.7795 155.24 57.8199C155.15 57.5199 155.08 57.2299 155.02 56.9299C153.47 53.8099 151.8 50.7099 150.02 47.7099C149.36 46.5999 151.19 45.7799 151.84 46.8799C152.967 48.7999 154.057 50.7399 155.11 52.6999C155.726 49.9049 157.111 47.3381 159.11 45.2899C162.07 42.2599 167.39 40.1299 171.48 42.1299C172.152 42.4706 172.746 42.9468 173.224 43.5286C173.703 44.1103 174.056 44.785 174.26 45.5099C174.494 45.1598 174.752 44.8257 175.03 44.5099C176.237 43.1529 177.754 42.1071 179.451 41.4612C180.66 41.0012 181.936 40.7537 183.221 40.7258ZM160.38 46.7999C158.16 49.1399 156.42 52.9099 156.97 56.2299C157.47 57.2232 157.96 58.2099 158.44 59.1899C160.42 61.1199 163.89 61.2699 166.6 60.8899C168.466 60.7255 170.191 59.8305 171.4 58.3999C172.076 57.5284 172.378 56.4241 172.24 55.3299C172.142 54.6766 171.857 54.0656 171.42 53.5699C171.3 53.4188 171.227 53.2363 171.208 53.0443C171.19 52.8524 171.227 52.6592 171.316 52.488C171.405 52.3167 171.541 52.1749 171.709 52.0794C171.876 51.9839 172.068 51.9389 172.26 51.9499C172.27 51.8719 172.284 51.7939 172.298 51.7163L172.298 51.7158C172.324 51.5647 172.35 51.4151 172.35 51.2699V51.1399C172.134 51.2328 171.91 51.3064 171.68 51.3599C170.959 51.498 170.213 51.4253 169.532 51.1504C168.851 50.8754 168.264 50.41 167.84 49.8099C167.456 49.2829 167.212 48.6673 167.129 48.0205C167.047 47.3737 167.129 46.7164 167.368 46.1099C167.608 45.5034 167.997 44.9671 168.499 44.5511C169.001 44.135 169.6 43.8525 170.24 43.7299C166.85 42.4499 162.6 44.4599 160.38 46.7999ZM159.92 62.3999C164.026 71.4468 167.309 80.8446 169.73 90.4799C174.209 80.0024 179.578 69.9288 185.78 60.3699L185.12 60.5199C182.809 61.0119 180.415 60.9743 178.12 60.4099C176.468 59.9388 175.03 58.9106 174.05 57.4999C173.893 58.0745 173.654 58.6234 173.34 59.1299C172.627 60.1656 171.7 61.0363 170.622 61.6832C169.544 62.3301 168.34 62.7382 167.09 62.8799C164.697 63.3072 162.235 63.1424 159.92 62.3999ZM190.069 55.2893C191.131 53.8051 191.654 52.0022 191.55 50.1799C191.55 47.3599 190.33 43.7099 187.69 42.4899C187.65 42.6169 187.584 42.7345 187.497 42.8357C187.41 42.937 187.304 43.0199 187.185 43.0795C187.066 43.1391 186.936 43.1743 186.803 43.183C186.67 43.1916 186.536 43.1736 186.41 43.1299C184.657 42.5643 182.775 42.5261 181 43.0199L181.16 43.1299C181.646 43.5157 182.028 44.0171 182.271 44.5882C182.514 45.1593 182.61 45.7821 182.55 46.3999C182.463 47.0552 182.214 47.6786 181.827 48.2144C181.439 48.7501 180.925 49.1815 180.33 49.4699C179.749 49.7666 179.112 49.937 178.461 49.9697C177.809 50.0025 177.158 49.8969 176.55 49.6599C176.184 49.5504 175.852 49.3499 175.584 49.0771C175.317 48.8043 175.123 48.468 175.02 48.0999C174.736 48.74 174.528 49.4112 174.4 50.0999V50.3899C174.031 52.3927 174.424 54.4612 175.5 56.1899C177.64 59.4399 182.38 59.2299 185.71 58.3399C187.468 57.85 189.006 56.7736 190.069 55.2893ZM355.75 34.55C355.519 33.3609 354.949 32.2637 354.11 31.39C353.637 30.9691 353.082 30.652 352.479 30.4591C351.876 30.2662 351.239 30.2018 350.61 30.27C350.062 30.0732 349.476 30.0096 348.898 30.0844C348.321 30.1591 347.77 30.3701 347.29 30.7C346.7 31.1066 346.227 31.662 345.92 32.31C345.807 32.4163 345.72 32.5475 345.666 32.6933C345.612 32.8391 345.593 32.9955 345.61 33.15C345.539 33.4156 345.489 33.6865 345.46 33.96C345.21 36.52 347.07 38.8 349.13 40.06C350.217 40.7816 351.525 41.0935 352.82 40.94C353.439 40.8247 354.019 40.5555 354.507 40.157C354.995 39.7585 355.374 39.2437 355.61 38.66C356.111 37.3433 356.16 35.8977 355.75 34.55ZM354.02 36.96C354.004 37.3197 353.905 37.6708 353.732 37.9864C353.559 38.302 353.315 38.5735 353.02 38.78C352.673 38.9423 352.293 39.0198 351.911 39.0058C351.528 38.9919 351.154 38.8871 350.82 38.7C350.013 38.3718 349.293 37.8617 348.715 37.2096C348.138 36.5574 347.718 35.7807 347.49 34.94C347.409 34.4945 347.429 34.0364 347.55 33.6C348.9 32.73 350.61 31.75 352.16 32.45C352.82 32.7844 353.32 33.3671 353.55 34.07C353.919 34.9866 354.079 35.9737 354.02 36.96ZM387.449 31.6801C390.429 31.4101 394.049 31.3001 396.189 33.8301H396.219C396.815 34.5152 397.233 35.3369 397.436 36.2223C397.639 37.1077 397.62 38.0293 397.381 38.9056C397.142 39.7819 396.69 40.5857 396.067 41.2457C395.443 41.9058 394.665 42.4016 393.804 42.6894C392.942 42.9771 392.023 43.0479 391.128 42.8953C390.233 42.7428 389.389 42.3716 388.671 41.8148C387.954 41.258 387.384 40.5328 387.014 39.7034C386.644 38.8739 386.484 37.966 386.549 37.0601C386.668 35.7648 387.23 34.55 388.139 33.6201L387.449 33.6801C387.184 33.6801 386.93 33.5747 386.742 33.3872C386.555 33.1996 386.449 32.9453 386.449 32.6801C386.449 32.4149 386.555 32.1605 386.742 31.973C386.93 31.7854 387.184 31.6801 387.449 31.6801ZM393.745 40.5399C394.43 40.1533 394.969 39.5526 395.279 38.8301V38.8101C395.572 38.0256 395.585 37.1639 395.315 36.3711C395.045 35.5783 394.51 34.9032 393.799 34.4601C393.22 34.1086 392.584 33.8615 391.919 33.7301C391.805 33.8559 391.655 33.9433 391.489 33.9801C390.597 34.1387 389.795 34.6239 389.24 35.3411C388.686 36.0583 388.418 36.9563 388.489 37.8601C388.593 38.6303 388.94 39.3473 389.48 39.9067C390.019 40.4661 390.723 40.8386 391.489 40.9701C392.268 41.0776 393.061 40.9265 393.745 40.5399ZM410.719 82.95C410.819 82.05 409.869 81.8 409.239 82.17C407.219 78.9341 406.931 74.8584 406.665 71.0966L406.663 71.0763C406.646 70.8227 406.628 70.5704 406.609 70.32C406.12 65.0806 406.049 59.8105 406.399 54.56C406.63 51.9495 407.112 49.3675 407.839 46.85L407.887 46.6897C408.481 44.6651 409.472 41.2919 412.189 42.85C414.05 43.9011 414.716 46.6047 415.211 48.6109C415.248 48.7615 415.284 48.9082 415.319 49.05C415.898 51.3559 416.2 53.7226 416.219 56.1C416.275 61.574 414.867 66.9635 412.139 71.71C412.01 71.9198 411.963 72.1701 412.007 72.4126C412.051 72.6552 412.182 72.873 412.377 73.0243C412.572 73.1755 412.815 73.2496 413.061 73.2322C413.307 73.2147 413.538 73.1071 413.709 72.93C414.619 71.9179 415.338 70.7489 415.829 69.48C416.259 68.59 417.529 66.48 418.829 67.25C419.797 67.7917 419.33 70.6438 419.115 71.9551C419.088 72.1205 419.065 72.2613 419.049 72.37C418.959 72.96 418.849 73.54 418.719 74.12C418.281 75.2848 417.946 76.4862 417.719 77.71C417.649 77.9659 417.683 78.2393 417.815 78.4699C417.946 78.7006 418.163 78.8697 418.419 78.94C418.675 79.0103 418.949 78.976 419.179 78.8447C419.41 78.7134 419.579 78.4959 419.649 78.24C420.06 77.056 420.394 75.8468 420.649 74.62C421.439 72.74 422.729 71.17 424.959 71.62C428.669 72.39 425.769 79.62 424.809 81.62C423.319 84.68 420.919 87.62 417.409 88.32C413.899 89.02 410.279 86.74 410.719 82.95ZM391.179 136.82C395.346 133.839 399.724 131.165 404.279 128.82C392.296 139.479 382.618 152.475 375.839 167.01C374.169 170.61 372.689 174.3 371.379 178.01C368.614 173.381 364.928 169.368 360.549 166.22C369.739 155.35 379.549 145.13 391.179 136.82ZM324.179 133.04C316.799 133.04 309.489 128.98 304.249 123.85L320.369 124.32C320.373 124.441 320.403 124.56 320.456 124.668C320.51 124.777 320.586 124.873 320.679 124.95C323.033 127.015 325.933 128.356 329.031 128.81C332.129 129.265 335.292 128.813 338.139 127.51C333.879 130.43 329.459 133.03 324.189 133.04H324.179ZM374.589 134.36C367.199 135.69 358.999 136.14 352.249 132.36C349.247 130.707 346.809 128.192 345.249 125.14H346.689C346.684 125.308 346.726 125.474 346.808 125.621C346.891 125.767 347.013 125.888 347.159 125.97C350.809 128.11 354.689 130.35 359.029 130.56C360.785 130.704 362.55 130.415 364.168 129.717C365.786 129.02 367.208 127.936 368.309 126.56C368.403 126.452 368.465 126.32 368.49 126.179C368.515 126.038 368.501 125.894 368.449 125.76L374.779 125.94L392.319 126.46C387.389 130.87 381.209 133.13 374.599 134.36H374.589ZM298.899 120.69C301.196 103.086 302.052 85.3235 301.459 67.58C301.329 63.69 301.109 59.8 300.839 55.91C310.689 64.91 317.349 76.79 322.969 88.82C324.749 92.64 326.439 96.49 328.119 100.35C328.609 101.49 330.119 101.15 330.709 100.35C340.09 87.3883 346.343 72.4313 348.979 56.65C349.469 53.74 349.819 50.8 350.049 47.85C359.179 63.32 358.949 82.26 358.589 99.78C358.595 100.107 358.706 100.424 358.907 100.682C359.108 100.941 359.388 101.127 359.704 101.213C360.02 101.298 360.355 101.279 360.659 101.158C360.963 101.037 361.219 100.82 361.389 100.54L390.759 50.97C392.359 69.8366 393.026 88.75 392.759 107.71C392.679 112.963 392.526 118.21 392.299 123.45L347.679 122.13C347.527 121.996 347.337 121.912 347.135 121.889C346.933 121.865 346.729 121.904 346.549 122L346.389 122.09L318.859 121.28L298.899 120.69ZM246.19 225.41C245.543 229.445 244.559 233.419 243.25 237.29C242.073 240.901 240.011 244.161 237.25 246.77C234.487 249.161 231.224 250.904 227.7 251.87C223.465 253.01 219.083 253.505 214.7 253.34C210.396 253.311 206.1 252.95 201.85 252.26C194.15 250.94 186.44 247.98 181.23 241.92C176.33 236.22 174.64 228.45 174.23 221.13C173.83 213.25 174.54 205.13 178.82 198.34C187.26 184.9 203.82 180.49 218.82 180.74C220.344 180.74 221.859 180.842 223.374 180.945L223.75 180.97C223.898 181.043 224.057 181.091 224.22 181.11C230.87 181.9 236.75 186.05 240.67 191.35C245.26 197.57 247.19 205.14 247.32 212.8C247.356 217.037 246.978 221.267 246.19 225.43V225.41ZM273.135 267.605C271.847 271.023 270.919 274.569 270.397 278.156C267.327 278.077 264.304 277.32 261.549 275.93C259.951 275.226 258.512 274.206 257.319 272.93C256.715 272.254 256.384 271.377 256.389 270.47C256.398 270.023 256.567 269.594 256.867 269.261C257.166 268.929 257.575 268.715 258.019 268.66L258.609 268.71C259.719 268.78 259.989 266.96 258.879 266.71H258.609C256.52 266.648 254.523 265.839 252.979 264.43C251.979 263.34 253.089 262.93 254.099 262.92C255.107 263.005 256.122 262.914 257.099 262.65C257.364 262.616 257.605 262.477 257.768 262.265C257.931 262.053 258.004 261.785 257.969 261.52C257.935 261.255 257.796 261.014 257.584 260.851C257.372 260.688 257.104 260.616 256.839 260.65C255.191 260.499 253.592 260.013 252.139 259.22C251.139 258.7 248.639 257.31 249.139 255.96C249.709 254.39 252.729 254.65 254.019 254.78C255.756 255.014 257.458 255.458 259.089 256.1C264.862 258.236 270.523 261.816 273.135 267.605ZM354.383 262.801C354.463 262.755 354.543 262.709 354.622 262.663C355.658 262.066 356.695 261.468 357.511 260.61C357.856 260.301 358.133 259.923 358.326 259.502C358.519 259.08 358.623 258.623 358.631 258.16C358.624 257.935 358.573 257.713 358.481 257.507C358.388 257.301 358.256 257.116 358.091 256.962C357.927 256.807 357.733 256.687 357.522 256.608C357.311 256.529 357.086 256.492 356.861 256.5C355.731 256.5 355.521 254.76 356.601 254.5C358.397 254.071 360.127 253.398 361.741 252.5L361.797 252.468C362.982 251.791 364.597 250.868 365.021 249.5C365.136 249.185 365.161 248.845 365.094 248.516C365.027 248.188 364.87 247.884 364.641 247.64C364.084 247.164 363.004 247.535 362.304 247.774L362.198 247.811C362.157 247.825 362.118 247.838 362.081 247.85C360.474 248.397 358.972 249.216 357.641 250.27C356.861 250.9 355.681 249.68 356.271 248.9C357.423 247.365 358.89 246.225 360.363 245.08L360.363 245.08C361.395 244.278 362.43 243.473 363.361 242.53C364.618 241.391 365.4 239.82 365.551 238.13C365.603 237.701 365.547 237.266 365.388 236.864C365.229 236.463 364.972 236.107 364.641 235.83C363.841 235.38 362.881 235.9 362.251 236.38C360.949 237.487 359.738 238.698 358.631 240C357.471 241.25 356.331 242.53 355.221 243.82C352.891 246.53 350.641 249.32 348.401 252.1C348.262 252.272 348.105 252.372 347.946 252.416C349.643 254.173 351.139 256.123 352.36 258.28C353.181 259.732 353.847 261.245 354.383 262.801ZM328.85 244.48C333.272 245.954 337.589 247.961 341.365 250.689C337.357 265.6 330.814 279.716 322.019 292.42C319.626 295.873 317.073 299.207 314.359 302.42C307.259 288.88 299.949 275.25 289.829 263.68C287.563 261.08 285.147 258.614 282.595 256.297C284.825 253.198 287.419 250.324 290.385 248.012C289.589 249.091 289.028 250.35 288.801 251.76C287.081 262.56 303.591 268.05 310.341 260.76L310.721 260.31C313.161 263.61 317.961 266.23 321.941 264.68C324.111 263.83 325.551 261.86 326.791 260C328.298 257.875 329.378 255.477 329.971 252.94C330.551 250.39 330.371 247.57 328.701 245.55C328.339 245.129 327.922 244.759 327.461 244.45L327.462 244.436L327.464 244.416L327.465 244.399C327.927 244.431 328.388 244.458 328.85 244.48ZM298.116 243.794C298.264 243.78 298.412 243.768 298.561 243.76C302.591 243.54 308.311 245.34 310.311 249.2L310.501 249.44C310.977 248.716 311.53 248.045 312.151 247.44C314.444 245.37 317.314 244.049 320.374 243.652C320.017 243.606 319.659 243.559 319.301 243.512C312.291 242.59 304.854 241.612 298.116 243.794ZM123.991 324.51C132.889 322.168 140.611 316.628 145.681 308.95C151.301 300.56 153.681 290.43 153.431 280.39C153.181 270.35 150.641 259.96 145.021 251.54C142.082 247.134 138.111 243.297 133.493 240.662C133.478 240.721 133.457 240.78 133.43 240.84C131.07 245.453 128.77 250.093 126.53 254.76C118.676 271.167 111.61 287.893 105.33 304.94C105.03 305.77 103.6 305.99 103.4 304.94C102.489 300.235 101.341 295.579 99.9595 290.99C96.6694 279.826 93.2985 268.685 89.9279 257.545L89.9275 257.544L89.9263 257.54L89.9252 257.536L89.9241 257.533L89.9229 257.529L89.9218 257.525L89.9207 257.521L89.9195 257.518L89.9184 257.514L89.9173 257.51L89.9161 257.506L89.915 257.503L89.9139 257.499L89.9127 257.495C88.2584 252.027 86.6041 246.56 84.9595 241.09C84.9372 241.009 84.9254 240.926 84.924 240.843C78.8992 243.942 73.5274 248.269 69.361 253.7C66.3834 257.564 64.1674 261.958 62.831 266.65C61.4967 271.802 60.9139 277.121 61.101 282.44C61.271 292.66 63.031 303.27 68.891 311.87C71.3767 315.583 74.6555 318.698 78.491 320.99C82.961 323.59 88.111 324.7 93.201 325.26C98.3586 325.825 103.543 326.115 108.731 326.13C113.866 326.242 118.994 325.698 123.991 324.51ZM86.5497 240.044C86.7137 240.175 86.8333 240.355 86.8896 240.56L88.5396 246.07C88.6931 243.879 89.5092 241.786 90.8796 240.07C93.8096 236.61 98.7296 236.26 102.93 236.55C104.9 236.69 107.05 236.86 108.63 238.18C109.091 238.562 109.469 239.035 109.74 239.57C112.126 237.695 115.137 236.801 118.16 237.07C118.269 236.893 118.431 236.755 118.623 236.674C118.814 236.593 119.027 236.574 119.23 236.62C121.306 237.118 123.104 238.411 124.236 240.222C125.367 242.033 125.742 244.215 125.28 246.3C124.4 250.27 120.4 252.81 116.76 253.96C114.816 254.664 112.681 254.632 110.76 253.87C109.904 253.488 109.13 252.945 108.48 252.27C108.36 252.414 108.22 252.552 108.082 252.688L108.082 252.688L108.052 252.718L108.022 252.748L107.98 252.79C107.882 253 107.743 253.187 107.571 253.342C107.399 253.496 107.198 253.615 106.98 253.69C104.54 255.526 101.573 256.529 98.5195 256.55C95.6395 256.63 92.8196 255.98 90.9096 254.12L91.0796 254.7C93.5929 263.087 96.1063 271.463 98.6196 279.83C98.9702 280.996 99.3248 282.162 99.6793 283.328L99.6796 283.328L99.6798 283.329L99.6801 283.33L99.6803 283.331L99.6806 283.332L99.6808 283.333L99.6811 283.333C101.47 289.214 103.26 295.1 104.57 301.09C105.97 297.28 107.46 293.47 108.97 289.69C115.743 272.71 123.296 256.1 131.63 239.86C131.638 239.844 131.646 239.828 131.655 239.813C131.661 239.802 131.666 239.792 131.672 239.782C131.679 239.771 131.686 239.76 131.693 239.749C131.699 239.74 131.705 239.731 131.711 239.722C129.925 238.854 128.055 238.166 126.121 237.69C125.951 237.893 125.72 238.036 125.462 238.097C125.205 238.158 124.934 238.135 124.691 238.03C122.623 237.294 120.508 236.696 118.361 236.24C107.719 234.003 96.3626 235.44 86.5497 240.044ZM112.28 156.67C111.877 164.926 108.987 172.868 103.99 179.453C98.9935 186.038 92.1229 190.959 84.28 193.57C76.2689 196.106 67.6811 196.182 59.6268 193.786C51.5725 191.39 44.4221 186.633 39.1 180.13C28.84 167.35 26.98 148.98 35.39 134.79C39.3174 128.133 45.1189 122.78 52.07 119.4C52.2038 119.336 52.3379 119.273 52.4723 119.21C52.3216 119.416 52.2711 119.692 52.3993 120.02C53.6793 123.28 54.8393 126.59 55.9093 129.92C55.9093 130.22 55.9094 130.53 55.9894 130.83C56.1141 131.822 56.4555 132.774 56.9894 133.62C60.3402 144.984 62.4393 156.68 63.2494 168.5C63.2455 168.722 63.3159 168.939 63.4493 169.117C63.5827 169.295 63.7716 169.423 63.9861 169.482C64.2006 169.54 64.4284 169.526 64.6337 169.44C64.8389 169.355 65.0098 169.203 65.1194 169.01C71.7773 158.062 79.5016 147.798 88.1794 138.37C88.2734 138.27 88.3459 138.152 88.3923 138.023C88.4388 137.894 88.4582 137.757 88.4494 137.62C89.9669 137.079 91.3279 136.173 92.4126 134.982C93.4974 133.791 94.2724 132.351 94.6694 130.79C95.5139 127.772 95.2012 123.609 93.3047 120.878C98.2745 123.927 102.54 128.048 105.769 132.975C110.367 139.991 112.629 148.281 112.23 156.66L112.28 156.67ZM54.3294 119.49C54.1479 119.03 53.7487 118.826 53.354 118.817C61.5617 115.294 70.8892 115.085 79.63 116.32C81.99 116.65 84.34 117.09 86.63 117.6C87.1698 117.805 87.7041 118.021 88.2327 118.249C88.0635 118.347 87.9265 118.494 87.8393 118.67C86.091 118.175 84.2489 118.109 82.4697 118.478C80.6904 118.847 79.0265 119.64 77.6194 120.79C77.2992 121.058 76.9953 121.345 76.7093 121.65C76.6111 120.907 76.3617 120.191 75.9765 119.548C75.5912 118.905 75.0783 118.347 74.4693 117.91C70.7393 115.29 65.1494 116.54 61.7394 119.07C59.4526 120.783 57.6841 123.095 56.6294 125.75C55.8994 123.65 55.1394 121.56 54.3294 119.49ZM290.761 253.55C291.121 257.88 294.961 260.65 298.851 261.55V261.59C300.51 261.958 302.224 262.006 303.901 261.73C303.512 261.533 303.17 261.253 302.901 260.91C301.311 258.92 302.901 256.15 304.901 255.22C305.523 254.928 306.199 254.765 306.887 254.743C307.575 254.72 308.26 254.839 308.901 255.09C308.851 253.827 309.052 252.566 309.491 251.38C309.348 251.333 309.219 251.252 309.114 251.144C309.01 251.036 308.933 250.904 308.891 250.76C308.844 250.623 308.787 250.489 308.721 250.36C308.122 249.656 307.452 249.016 306.721 248.45C306.614 248.376 306.528 248.278 306.468 248.163C306.409 248.047 306.379 247.92 306.381 247.79C305.646 247.327 304.869 246.935 304.061 246.62C301.854 245.681 299.418 245.416 297.061 245.86C293.521 246.66 290.431 249.75 290.761 253.55ZM325.861 257.72C327.019 255.915 327.81 253.9 328.191 251.79V251.83C328.385 250.919 328.373 249.975 328.157 249.069C327.941 248.163 327.525 247.316 326.941 246.59C326.298 245.956 325.502 245.498 324.631 245.26C320.561 245.3 316.351 246 313.351 249C312.707 249.643 312.167 250.382 311.751 251.19C312.173 251.968 312.467 252.809 312.621 253.68C312.809 254.83 312.724 256.009 312.371 257.12C312.547 256.986 312.759 256.906 312.981 256.89H313.041C313.718 256.083 314.662 255.545 315.702 255.373C316.742 255.2 317.809 255.405 318.711 255.95C318.938 256.113 319.101 256.35 319.171 256.62C319.204 256.641 319.236 256.663 319.268 256.686C319.298 256.708 319.328 256.731 319.358 256.755C319.376 256.77 319.393 256.785 319.411 256.8C319.764 257.164 320.039 257.596 320.219 258.07C320.4 258.544 320.481 259.05 320.459 259.557C320.436 260.064 320.31 260.56 320.089 261.017C319.867 261.473 319.555 261.879 319.171 262.21C318.871 262.48 318.534 262.705 318.171 262.88C318.823 263.047 319.502 263.083 320.168 262.985C320.834 262.888 321.474 262.658 322.051 262.31C323.648 261.084 324.95 259.516 325.861 257.72ZM301.129 284.56C301.672 290.5 300.373 296.463 297.409 301.64C296.47 299.422 296.254 296.986 296.039 294.571L296.039 294.569C295.97 293.794 295.901 293.022 295.809 292.26C295.23 288.178 294.135 284.186 292.549 280.38C289.919 273.65 287.189 266.9 284.009 260.38C290.829 267.395 296.775 275.208 301.719 283.65C301.522 283.7 301.352 283.823 301.243 283.994C301.133 284.164 301.093 284.37 301.129 284.57V284.56ZM317.921 167.53C320.61 169.389 322.899 171.769 324.651 174.53C326.081 176.88 327.271 180.48 324.491 182.41C322.191 184.06 319.001 183.12 316.731 181.93C316.311 181.71 315.901 181.46 315.501 181.2C315.32 181.756 315.016 182.263 314.61 182.684C314.205 183.105 313.709 183.428 313.161 183.63C312.247 183.945 311.263 183.998 310.321 183.782C309.379 183.567 308.516 183.091 307.831 182.41C306.161 180.86 305.451 178.57 304.831 176.41C304.76 176.154 304.795 175.881 304.926 175.65C305.057 175.419 305.275 175.25 305.531 175.18C305.787 175.11 306.06 175.144 306.291 175.275C306.521 175.406 306.69 175.624 306.761 175.88C307.421 178.19 308.671 182.34 311.861 181.94C312.123 181.925 312.381 181.858 312.617 181.743C312.854 181.628 313.066 181.467 313.241 181.27C313.415 181.073 313.55 180.844 313.635 180.595C313.721 180.346 313.757 180.083 313.741 179.82C312.405 178.63 311.279 177.224 310.411 175.66C309.971 174.85 310.931 173.66 311.781 174.29C313.381 175.47 315.041 176.77 315.571 178.77C316.694 179.702 317.974 180.426 319.351 180.91C320.581 181.31 322.221 181.6 323.351 180.84C324.911 179.78 324.071 177.57 323.351 176.26C319.729 169.596 312.436 166.276 305.859 163.282L305.811 163.26C304.631 162.73 305.651 161 306.811 161.53C310.706 163.152 314.428 165.162 317.921 167.53ZM304.981 35.7366C305.935 36.3147 306.712 37.1422 307.23 38.1299C307.813 39.2613 307.966 40.5657 307.661 41.8014C307.356 43.0371 306.613 44.1202 305.57 44.8499C303.19 46.5099 300.26 45.3099 298.35 43.5099C296.44 41.7099 294.9 38.9899 295.55 36.2999C295.684 35.6817 295.952 35.1004 296.335 34.5975C296.719 34.0946 297.209 33.6823 297.77 33.3899C298.348 33.0902 298.995 32.9473 299.646 32.9754C300.297 33.0035 300.929 33.2015 301.48 33.5499C301.688 33.6857 301.838 33.894 301.901 34.1343C301.963 34.3746 301.935 34.6297 301.82 34.8499C302.935 34.8519 304.028 35.1585 304.981 35.7366ZM297.4 37.9299C297.63 40.8299 302.2 45.6799 305 42.6799V42.6999C305.529 42.0856 305.814 41.299 305.803 40.4885C305.792 39.678 305.485 38.8995 304.94 38.2999C304.319 37.6264 303.512 37.1534 302.621 36.9414C301.731 36.7294 300.797 36.7881 299.94 37.1099C298.71 37.4999 298.19 35.5699 299.41 35.1799C299.591 35.1271 299.774 35.0837 299.96 35.0499C299.667 34.9679 299.359 34.9597 299.062 35.026C298.765 35.0923 298.49 35.2311 298.26 35.4299C297.93 35.75 297.681 36.1431 297.532 36.5774C297.382 37.0116 297.337 37.4749 297.4 37.9299ZM272.779 133.66C272.786 134.51 272.621 135.352 272.293 136.136C271.964 136.92 271.48 137.629 270.869 138.22C270.567 138.517 270.231 138.779 269.869 139C269.56 139.246 269.19 139.405 268.799 139.46C268.724 139.469 268.648 139.447 268.588 139.4C268.528 139.354 268.489 139.285 268.479 139.21C268.709 138.63 268.929 138.04 269.129 137.45C269.499 136.37 267.859 135.71 267.299 136.68C266.91 137.31 266.648 138.01 266.529 138.74C266.021 140.302 264.952 141.62 263.529 142.44C264.6 139.131 266.146 135.994 268.119 133.13C268.849 132.07 267.119 131.07 266.389 132.13C264.009 135.597 262.23 139.441 261.129 143.5C261.086 143.652 261.08 143.811 261.111 143.966C261.142 144.12 261.209 144.266 261.306 144.389C261.404 144.513 261.529 144.612 261.672 144.678C261.815 144.744 261.972 144.776 262.129 144.77C262.999 144.736 263.852 144.515 264.63 144.124C265.408 143.732 266.093 143.178 266.639 142.5C266.985 142.073 267.289 141.614 267.549 141.13C268.659 141.82 270.119 141.23 271.149 140.54C272.277 139.78 273.199 138.754 273.834 137.552C274.469 136.35 274.797 135.009 274.789 133.65C274.788 133.383 274.681 133.128 274.491 132.941C274.302 132.753 274.046 132.649 273.779 132.65C273.513 132.651 273.257 132.759 273.07 132.948C272.882 133.137 272.778 133.393 272.779 133.66ZM247.701 125.966C247.994 125.168 248.445 124.438 249.029 123.82C249.211 123.625 249.308 123.367 249.299 123.1C249.291 122.834 249.177 122.582 248.982 122.399C248.788 122.217 248.529 122.12 248.262 122.128C247.996 122.137 247.744 122.251 247.562 122.446C246.631 123.437 245.96 124.643 245.609 125.956C245.257 127.269 245.235 128.649 245.545 129.973C245.831 131.179 246.5 132.605 247.783 132.853C247.645 133.385 247.556 133.929 247.519 134.477C247.458 135.346 247.584 136.217 247.888 137.033C248.192 137.849 248.668 138.591 249.282 139.208C249.394 139.319 249.53 139.403 249.68 139.452C249.83 139.5 249.989 139.513 250.144 139.489C250.3 139.464 250.448 139.403 250.575 139.311C250.703 139.218 250.807 139.097 250.879 138.957C252.832 135.232 254.142 131.204 254.754 127.043C254.94 125.77 252.991 125.327 252.806 126.6C252.304 130.042 251.306 133.393 249.84 136.548C249.354 134.979 249.467 133.285 250.157 131.795C250.566 131.178 250.85 130.487 250.993 129.761C251.242 128.669 249.591 128.037 249.127 129.081C248.873 129.649 248.633 130.232 248.407 130.813C248.349 130.862 248.274 130.885 248.198 130.879C248.122 130.872 248.052 130.837 248.003 130.779C247.753 130.472 247.59 130.105 247.531 129.714C247.416 129.306 247.348 128.886 247.328 128.462C247.282 127.614 247.409 126.764 247.701 125.966ZM226.119 319.41C226.084 319.283 226.025 319.165 225.944 319.061C225.864 318.957 225.764 318.87 225.649 318.805C225.535 318.74 225.409 318.698 225.279 318.682C225.148 318.665 225.016 318.675 224.889 318.71C224.635 318.782 224.42 318.952 224.29 319.183C224.161 319.413 224.128 319.685 224.199 319.94C224.598 320.805 224.727 321.771 224.57 322.71C224.413 323.65 223.978 324.521 223.319 325.21C222.725 325.758 221.957 326.08 221.149 326.12C220.981 326.13 220.812 326.113 220.649 326.07C220.539 326.052 220.432 326.022 220.329 325.98L220.269 325.92C220.467 325.775 220.605 325.563 220.657 325.323C220.708 325.084 220.67 324.833 220.549 324.62C220.507 324.48 220.432 324.353 220.329 324.25C220.236 324.156 220.126 324.082 220.004 324.031C219.882 323.98 219.751 323.954 219.619 323.954C219.487 323.954 219.356 323.98 219.235 324.031C219.113 324.082 219.002 324.156 218.909 324.25C217.854 325.525 216.719 326.731 215.509 327.86C214.901 328.407 214.245 328.899 213.549 329.33C214.88 326.492 216.803 323.972 219.189 321.94C219.353 321.749 219.439 321.503 219.429 321.251C219.419 320.999 219.315 320.76 219.137 320.582C218.959 320.404 218.72 320.3 218.468 320.29C218.217 320.281 217.97 320.366 217.779 320.53C215.429 322.532 213.499 324.979 212.099 327.73C211.698 328.397 211.405 329.122 211.229 329.88C211.185 330.098 211.187 330.323 211.235 330.54C211.284 330.758 211.378 330.962 211.511 331.141C211.644 331.319 211.813 331.468 212.008 331.576C212.202 331.684 212.417 331.751 212.639 331.77C213.435 331.713 214.194 331.408 214.809 330.9C215.476 330.463 216.111 329.978 216.709 329.45C217.472 328.774 218.196 328.056 218.879 327.3C219.342 327.667 219.885 327.918 220.464 328.035C221.043 328.151 221.641 328.129 222.209 327.97C223.297 327.706 224.284 327.132 225.051 326.317C225.818 325.502 226.332 324.482 226.529 323.38C226.755 322.044 226.613 320.672 226.119 319.41ZM204.94 317.27L206.94 322.94C207.55 324.6 208.26 326.88 206.58 328.18C206.238 328.428 205.827 328.562 205.405 328.562C204.983 328.562 204.572 328.428 204.23 328.18C203.534 327.592 202.972 326.863 202.58 326.04C202.225 325.395 201.914 324.727 201.65 324.04C201.579 324.076 201.506 324.106 201.43 324.13C200.16 324.45 198.9 323.13 198.26 322.19C196.71 319.91 197.05 317.06 197.4 314.49C197.435 314.363 197.494 314.245 197.575 314.141C197.655 314.037 197.756 313.95 197.87 313.885C197.984 313.82 198.11 313.778 198.241 313.762C198.371 313.746 198.503 313.755 198.63 313.79C198.757 313.825 198.875 313.884 198.979 313.965C199.083 314.045 199.17 314.146 199.235 314.26C199.3 314.374 199.342 314.5 199.358 314.631C199.375 314.761 199.365 314.893 199.33 315.02L199.326 315.046C199.077 316.83 198.794 318.858 199.61 320.52C199.874 321.076 200.268 321.56 200.76 321.93C200.685 321.463 200.685 320.987 200.76 320.52C200.774 320.483 200.794 320.45 200.82 320.42C200.855 320.255 200.936 320.103 201.052 319.982C201.169 319.86 201.317 319.773 201.48 319.73C201.607 319.695 201.739 319.686 201.87 319.702C202 319.718 202.126 319.76 202.24 319.825C202.354 319.89 202.455 319.977 202.535 320.081C202.616 320.185 202.675 320.303 202.71 320.43C202.928 321.82 203.356 323.169 203.98 324.43C204.288 325.091 204.67 325.716 205.12 326.29L205.34 326.52C205.414 326.481 205.477 326.422 205.52 326.35C205.708 325.774 205.669 325.148 205.41 324.6C205.233 324.024 205.027 323.459 204.819 322.889L204.729 322.644C204.696 322.553 204.663 322.462 204.63 322.37L203.01 317.8C202.975 317.673 202.966 317.541 202.982 317.411C202.998 317.28 203.04 317.154 203.105 317.04C203.17 316.926 203.257 316.825 203.361 316.745C203.465 316.664 203.583 316.605 203.71 316.57C203.837 316.535 203.969 316.526 204.1 316.542C204.23 316.558 204.356 316.6 204.47 316.665C204.584 316.73 204.685 316.817 204.765 316.921C204.846 317.025 204.905 317.143 204.94 317.27ZM109.506 243.431C109.357 243.522 109.182 243.56 109.01 243.54C108.566 244.396 108.311 245.337 108.26 246.3C108.704 245.601 109.342 245.048 110.096 244.707C110.851 244.366 111.688 244.253 112.506 244.381C113.324 244.51 114.086 244.874 114.7 245.43C115.313 245.986 115.751 246.709 115.96 247.51C116.142 248.264 116.115 249.053 115.883 249.793C115.65 250.533 115.22 251.196 114.64 251.71C114.295 251.993 113.906 252.22 113.49 252.38C114.811 252.416 116.124 252.153 117.33 251.61C120.15 250.4 123.17 248.33 123.43 244.99C123.527 243.81 123.273 242.629 122.7 241.593C122.127 240.557 121.26 239.714 120.21 239.17C120.025 239.253 119.819 239.277 119.62 239.24C116.23 238.58 112.49 239.32 110.12 241.95C110.07 242.324 109.973 242.691 109.83 243.04C109.768 243.203 109.654 243.341 109.506 243.431ZM98.9296 238.46C95.6496 238.76 92.3696 240.21 91.1196 243.46C90.0996 246.13 89.9496 249.75 91.9196 252.28C93.8896 254.81 97.9395 254.8 100.77 254.28C101.656 254.122 102.522 253.864 103.35 253.51C103.023 253.372 102.722 253.179 102.46 252.94C101.964 252.454 101.59 251.858 101.37 251.2C101.121 250.531 101.021 249.816 101.076 249.105C101.131 248.393 101.341 247.702 101.69 247.08C102.017 246.51 102.473 246.025 103.022 245.664C103.571 245.303 104.197 245.075 104.85 245C105.363 244.945 105.882 245.003 106.37 245.17C106.64 243.655 107.279 242.23 108.23 241.02C108.01 239.74 106.17 238.95 105.08 238.74C103.05 238.382 100.983 238.288 98.9296 238.46ZM144.43 290.33C143.75 289.24 142.01 290.24 142.7 291.33C143.7 292.94 145.23 296.39 142.7 297.5C141.629 297.967 140.386 297.172 139.41 296.548C139.238 296.437 139.073 296.332 138.92 296.24L135.23 294C135.039 293.887 134.815 293.841 134.595 293.868C134.375 293.896 134.17 293.996 134.013 294.153C133.856 294.31 133.756 294.515 133.728 294.735C133.7 294.956 133.746 295.179 133.86 295.37C134.216 296.067 134.728 296.82 135.266 297.61C136.764 299.81 138.459 302.301 137.54 304.7C137.18 305.64 136.71 305.62 136.02 304.94C135.499 304.427 135.104 303.932 134.706 303.432C134.576 303.269 134.445 303.105 134.31 302.94C133.06 301.42 131.89 299.85 130.78 298.23C130.641 298.012 130.424 297.857 130.174 297.795C129.923 297.734 129.659 297.772 129.435 297.901C129.212 298.03 129.047 298.24 128.975 298.488C128.903 298.736 128.93 299.001 129.05 299.23L129.116 299.368C130.278 301.769 131.528 304.352 131.43 307.07C131.38 308.29 130.62 309.86 129.35 308.51C128.543 307.45 127.964 306.235 127.65 304.94C126.066 300.07 126.461 294.772 128.75 290.19C129.33 289.04 127.61 288.03 127.03 289.19C125.509 292.181 124.712 295.487 124.701 298.843C124.691 302.198 125.468 305.509 126.97 308.51C127.68 309.87 128.84 311.14 130.5 311.06C131.182 310.976 131.82 310.675 132.318 310.202C132.817 309.728 133.15 309.107 133.27 308.43C133.524 307.23 133.524 305.99 133.27 304.79L133.75 305.38C134.352 306.273 135.204 306.969 136.2 307.38C136.649 307.5 137.124 307.488 137.567 307.347C138.01 307.205 138.403 306.939 138.7 306.58C140.12 305 139.87 302.43 139.17 300.58C138.796 299.635 138.327 298.73 137.77 297.88L137.771 297.881C138.35 298.22 138.93 298.56 139.53 298.88C140.225 299.311 141.026 299.54 141.845 299.54C142.663 299.54 143.464 299.311 144.16 298.88C147.14 296.84 146.05 292.92 144.43 290.33ZM90.81 298.78L96.4501 307.22C96.675 307.558 96.9212 307.908 97.1748 308.268C98.5782 310.26 100.205 312.571 99.68 315.01C99.6007 315.586 99.3332 316.12 98.9191 316.529C98.505 316.938 97.9675 317.198 97.3901 317.27C96.2126 317.329 95.3914 316.396 94.6618 315.567L94.62 315.52C94.7445 315.975 94.7301 316.458 94.5787 316.905C94.4272 317.352 94.1456 317.744 93.77 318.03C91.8606 319.489 90.162 317.371 89.0105 315.934C88.8835 315.776 88.7632 315.626 88.65 315.49L86.65 313.12C86.8102 313.858 86.8102 314.622 86.65 315.36C86.09 317.43 83.69 317.45 82.34 316.14C80.6966 314.314 79.3776 312.221 78.4401 309.95C77.3739 307.714 76.559 305.366 76.0101 302.95C75.7201 301.69 77.6501 301.16 77.9401 302.41C78.6947 305.782 79.9951 309.008 81.79 311.96L81.8187 312.004L81.8392 312.036L81.8795 312.098L81.9271 312.173L81.9279 312.174C82.5255 313.112 84.3344 315.949 84.79 314.71C84.886 313.84 84.7764 312.96 84.47 312.14C84.2508 311.179 83.9393 310.241 83.54 309.34C83.11 308.39 84.32 307.13 85.11 308.13L88.78 312.46L90.52 314.55C90.5833 314.627 90.6634 314.731 90.7556 314.851C91.2172 315.453 91.9799 316.448 92.43 316.29C92.9241 316.116 92.648 315.549 92.4749 315.193L92.4497 315.141L92.43 315.1C92.27 314.76 92.0701 314.42 91.8801 314.1C91.4001 313.3 90.92 312.53 90.4 311.78C89.7267 310.748 88.9677 309.743 88.2171 308.749L88.2165 308.748C87.9417 308.384 87.668 308.022 87.4 307.66C86.69 306.75 88.21 305.64 88.97 306.45L94.4 312.28C95.1565 313.236 95.9893 314.129 96.8901 314.95C98.1801 315.94 97.69 313.12 97.43 312.51C96.2807 310.324 94.9423 308.243 93.43 306.29L89.0801 299.78C88.3701 298.72 90.1 297.72 90.81 298.78ZM62.7494 120.8C65.4494 118.74 69.8393 117.53 72.9693 119.33C72.414 119.356 71.8702 119.497 71.3726 119.745C70.875 119.993 70.4346 120.342 70.0794 120.77C69.613 121.353 69.3245 122.059 69.2482 122.802C69.172 123.545 69.3112 124.294 69.6493 124.96C69.9691 125.62 70.4741 126.173 71.1026 126.551C71.7312 126.93 72.4563 127.117 73.1894 127.09C73.4219 127.078 73.6529 127.044 73.8794 126.99C73.8839 127.026 73.8839 127.063 73.8794 127.1C73.8456 127.23 73.8086 127.356 73.772 127.481L73.7719 127.481C73.7436 127.578 73.7155 127.674 73.6894 127.77C73.5016 127.729 73.3059 127.742 73.1257 127.81C72.9455 127.877 72.7885 127.994 72.6735 128.148C72.5585 128.302 72.4903 128.486 72.4772 128.678C72.464 128.87 72.5064 129.062 72.5993 129.23C72.9544 129.793 73.1417 130.445 73.1394 131.11C73.1213 131.656 72.9953 132.194 72.7688 132.692C72.5423 133.189 72.2196 133.637 71.8194 134.01C70.3984 135.234 68.5501 135.845 66.6794 135.71C63.9494 135.71 60.5493 134.96 58.8993 132.71C58.5893 131.64 58.2593 130.57 57.8993 129.51C57.8793 126.18 60.1894 122.74 62.7494 120.78V120.8ZM65.0594 165.41C64.1961 155.513 62.4457 145.714 59.8294 136.13C61.9967 137.229 64.3997 137.782 66.8294 137.74C68.0835 137.798 69.3354 137.586 70.5013 137.121C71.6671 136.655 72.72 135.946 73.5893 135.04C73.9963 134.593 74.3335 134.087 74.5893 133.54C75.3385 135.086 76.595 136.328 78.1493 137.06C80.3227 137.975 82.6742 138.388 85.0293 138.27H85.7093C78.0617 146.702 71.153 155.775 65.0594 165.39V165.41ZM93.0594 129.08C92.8724 130.895 92.0703 132.592 90.7861 133.889C89.5019 135.186 87.813 136.005 85.9994 136.21C82.5594 136.57 77.8494 136.02 76.2594 132.48C75.4688 130.6 75.4081 128.492 76.0893 126.57L76.1794 126.29C76.4211 125.64 76.7294 125.017 77.0993 124.43C77.1414 124.81 77.2791 125.174 77.4994 125.487C77.7197 125.8 78.0155 126.052 78.3594 126.22C78.9239 126.549 79.5513 126.755 80.2008 126.826C80.8503 126.896 81.5073 126.83 82.1294 126.63C82.7515 126.426 83.3139 126.072 83.7672 125.599C84.2205 125.127 84.5509 124.55 84.7294 123.92C84.8948 123.314 84.9035 122.676 84.7549 122.065C84.6062 121.455 84.305 120.892 83.8794 120.43L83.7394 120.3C85.5724 120.104 87.4226 120.452 89.0594 121.3C89.1765 121.364 89.3053 121.404 89.4382 121.418C89.571 121.431 89.7053 121.418 89.833 121.379C89.9607 121.34 90.0793 121.276 90.1817 121.19C90.2841 121.104 90.3683 120.999 90.4294 120.88C92.8194 122.47 93.4394 126.28 93.0394 129.06L93.0594 129.08ZM50.7609 157.85C50.2209 156.68 48.4908 157.7 49.0308 158.85C51.2808 163.68 53.6608 168.85 53.1508 174.3L53.1352 174.477C53.0451 175.507 52.8962 177.211 52.1508 177.9C51.2361 178.714 50.9406 176.65 50.8279 175.863C50.8174 175.79 50.8085 175.728 50.8008 175.68C50.4675 173.362 50.347 171.019 50.4409 168.68C50.4759 168.194 50.4759 167.706 50.4409 167.22C50.4409 166.955 50.3355 166.7 50.148 166.513C49.9604 166.325 49.7061 166.22 49.4409 166.22C49.1756 166.22 48.9213 166.325 48.7338 166.513C48.5462 166.7 48.4409 166.955 48.4409 167.22V168.82C48.4045 169.089 48.3544 169.356 48.2908 169.62C48.1408 170.2 47.7309 171.68 47.1209 171.96C46.8943 172.058 46.8787 172.008 46.8158 171.805C46.7954 171.74 46.77 171.658 46.7308 171.56C46.5817 171.135 46.4615 170.701 46.3709 170.26C46.1538 169.274 46.0333 168.269 46.0109 167.26C46.0086 167.042 45.9351 166.83 45.8014 166.658C45.6677 166.485 45.4813 166.361 45.2705 166.304C45.0597 166.248 44.8362 166.262 44.634 166.344C44.4319 166.426 44.2622 166.572 44.1508 166.76C43.9516 167.11 43.8 167.581 43.6418 168.074C43.3474 168.99 43.0303 169.977 42.3408 170.38C41.1207 171.091 40.7498 168.664 40.6161 167.789L40.6008 167.69C40.2293 164.919 40.8607 162.106 42.3809 159.76C43.0809 158.67 41.3808 157.67 40.6608 158.76C39.5767 160.422 38.8752 162.304 38.6072 164.271C38.3391 166.237 38.5112 168.238 39.1108 170.13C39.6508 171.67 40.9409 173 42.6909 172.41C43.4098 172.173 44.0177 171.683 44.4008 171.03C44.7908 172.75 45.5809 174.28 47.1809 174.03C47.6638 173.965 48.111 173.739 48.4509 173.39C48.5217 174.909 48.7803 176.414 49.2208 177.87C49.3415 178.464 49.6512 179.003 50.1036 179.407C50.556 179.811 51.1268 180.057 51.7308 180.11C52.3714 180.051 52.9777 179.795 53.4653 179.375C53.9529 178.956 54.2974 178.395 54.4509 177.77C56.8909 171.13 53.5509 163.83 50.7609 157.85ZM97.5508 173.63C98.5317 170.469 99.3297 167.253 99.9409 164C100.181 162.74 102.111 163.27 101.871 164.63C101.361 167.29 100.731 169.98 99.9608 172.63C99.8942 172.863 99.8287 173.105 99.7617 173.353C99.2855 175.11 98.7362 177.138 97.2108 178.19C96.7871 178.492 96.3045 178.702 95.7944 178.805C95.2842 178.908 94.7581 178.902 94.2504 178.788C93.7426 178.673 93.2647 178.453 92.8478 178.142C92.4309 177.83 92.0844 177.435 91.8309 176.98C90.0909 179.59 87.6708 181.71 84.2708 181.5C84.0451 181.508 83.8234 181.439 83.6418 181.304C83.4602 181.17 83.3294 180.978 83.2708 180.76C83.2008 180.53 83.1309 180.29 83.0709 180.05C81.736 181.64 80.1273 182.977 78.3209 184C77.3209 184.57 75.9509 184.52 75.3209 183.51C74.7328 182.567 74.9115 181.189 75.0517 180.107L75.0519 180.106C75.0618 180.029 75.0716 179.954 75.0809 179.88C75.438 177.186 76.4126 174.612 77.9287 172.357C79.4447 170.102 81.4612 168.227 83.8209 166.88C84.0494 166.761 84.3153 166.734 84.563 166.806C84.8107 166.878 85.0211 167.042 85.1502 167.266C85.2792 167.489 85.317 167.754 85.2557 168.004C85.1943 168.255 85.0385 168.472 84.8209 168.61C81.3146 170.595 78.7128 173.859 77.5609 177.72C77.2611 178.697 77.0666 179.702 76.9808 180.72C76.9207 181.091 76.9207 181.469 76.9808 181.84C76.8708 182.33 77.0608 182.43 77.5508 182.13L78.1909 181.67C80.0493 180.383 81.6729 178.787 82.9908 176.95C83.5209 176.21 84.9008 176.38 84.8508 177.45C84.8134 178.121 84.8707 178.795 85.0208 179.45C88.4608 179.21 90.4109 175.8 91.7609 172.92C92.4109 171.78 94.0209 172.78 93.4909 173.92C93.2977 174.209 93.1893 174.546 93.1779 174.893C93.1665 175.24 93.2526 175.584 93.4264 175.885C93.6002 176.186 93.8548 176.432 94.1614 176.595C94.4679 176.759 94.8142 176.833 95.1608 176.81C96.6129 176.708 97.1033 175.098 97.4706 173.891C97.4979 173.802 97.5246 173.714 97.5508 173.63ZM154.27 83.1299C154.03 81.8599 152.11 82.4299 152.35 83.6899L152.366 83.773C153.361 88.9788 154.42 94.5174 152.62 99.6899L152.603 99.7417C152.271 100.749 151.714 102.439 150.77 102.94C149.692 103.525 149.909 101.365 149.986 100.607C149.991 100.549 149.996 100.499 150 100.46C150.235 98.1197 150.687 95.8065 151.35 93.5499C151.509 93.0901 151.633 92.6187 151.72 92.1399C151.772 91.8867 151.724 91.6231 151.587 91.4044C151.449 91.1857 151.232 91.0288 150.981 90.9668C150.73 90.9047 150.465 90.9422 150.241 91.0714C150.017 91.2006 149.852 91.4115 149.78 91.6599C149.717 91.9024 149.649 92.145 149.58 92.3921L149.58 92.3923L149.58 92.3926L149.58 92.3928L149.58 92.3931L149.579 92.3941L149.579 92.3944C149.506 92.656 149.432 92.9227 149.36 93.1999C149.265 93.4547 149.152 93.702 149.02 93.9399L149.018 93.9438C148.736 94.4666 148.018 95.8002 147.32 95.9399C147.077 95.9854 147.076 95.9619 147.064 95.7346C147.06 95.6619 147.054 95.5685 147.04 95.4499C147.005 95.0039 147.005 94.5559 147.04 94.1099C147.057 93.1002 147.178 92.095 147.4 91.1099C147.451 90.8979 147.431 90.6752 147.344 90.4755C147.256 90.2759 147.106 90.1102 146.916 90.0038C146.726 89.8974 146.506 89.856 146.29 89.886C146.074 89.916 145.874 90.0157 145.72 90.1699C145.445 90.4654 145.188 90.8803 144.92 91.3117C144.409 92.1357 143.861 93.0202 143.08 93.2499C141.68 93.6599 141.97 90.9999 142.08 90.2499C142.382 87.4714 143.674 84.8944 145.72 82.9899C146.66 82.0999 145.22 80.7099 144.29 81.5899C142.842 82.9466 141.712 84.6068 140.981 86.4514C140.249 88.296 139.935 90.2795 140.06 92.2599C140.21 93.8799 141.14 95.4799 142.98 95.3299C143.736 95.2755 144.447 94.9486 144.98 94.4099C144.98 96.1699 145.34 97.8399 146.98 98.0299C147.465 98.0725 147.952 97.9605 148.37 97.7099C148.077 99.2044 147.967 100.729 148.04 102.25C148.014 102.856 148.185 103.455 148.527 103.956C148.87 104.457 149.365 104.834 149.94 105.03C150.575 105.125 151.225 105.02 151.798 104.73C152.371 104.439 152.84 103.978 153.14 103.41C157.02 97.4699 155.55 89.5799 154.27 83.1299ZM198.979 93.5999C198.853 90.2911 198.535 86.9923 198.029 83.7199C197.829 82.4499 199.829 82.3199 199.919 83.5599C200.339 86.2799 200.639 89.0299 200.799 91.7799C200.813 92.0332 200.832 92.2953 200.851 92.5634L200.851 92.5638C200.98 94.3705 201.129 96.4497 200.049 97.9299C199.751 98.3579 199.366 98.7179 198.919 98.9861C198.472 99.2544 197.973 99.4248 197.455 99.4862C196.938 99.5477 196.413 99.4986 195.915 99.3424C195.418 99.1862 194.959 98.9263 194.569 98.5799C193.789 101.63 192.219 104.43 188.939 105.36C188.732 105.431 188.508 105.432 188.3 105.364C188.092 105.295 187.913 105.16 187.789 104.98C187.634 104.789 187.49 104.589 187.359 104.38C186.627 106.321 185.553 108.116 184.189 109.68C183.399 110.57 182.119 110.95 181.189 110.22C180.307 109.528 180.019 108.134 179.795 107.054L179.759 106.88C179.199 104.222 179.262 101.47 179.942 98.8403C180.622 96.2103 181.901 93.7733 183.679 91.7199C184.519 90.7499 186.049 92.0099 185.199 93.0099C182.561 96.0503 181.193 99.9889 181.379 104.01C181.431 105.043 181.588 106.069 181.849 107.07C181.9 107.442 182.011 107.804 182.179 108.14C182.239 108.64 182.459 108.66 182.819 108.22C182.989 108.01 183.149 107.8 183.309 107.58C184.648 105.768 185.663 103.738 186.309 101.58C186.559 100.7 187.919 100.43 188.229 101.43C188.418 102.068 188.694 102.677 189.049 103.24C192.239 101.85 192.929 98.0099 193.239 94.8499C193.288 94.5847 193.441 94.3499 193.663 94.197C193.885 94.0442 194.159 93.9859 194.424 94.0349C194.689 94.084 194.924 94.2364 195.077 94.4586C195.23 94.6809 195.288 94.9547 195.239 95.2199C195.153 95.557 195.162 95.9116 195.267 96.2434C195.372 96.5752 195.568 96.871 195.833 97.097C196.097 97.3231 196.42 97.4704 196.764 97.5221C197.108 97.5739 197.46 97.5281 197.779 97.3899C199.121 96.8082 199.045 95.0994 198.99 93.8416C198.986 93.759 198.982 93.6783 198.979 93.5999Z" fill="#1F2224"/>
<defs>
<linearGradient id="paint0_linear_2052_39118" x1="407.345" y1="47.8366" x2="424.972" y2="55.7" gradientUnits="userSpaceOnUse">
<stop offset="0.0350253" stop-color="#FDF0B7"/>
<stop offset="0.521771" stop-color="#FFEA8C"/>
<stop offset="1" stop-color="#FDDE56"/>
</linearGradient>
<linearGradient id="paint1_linear_2052_39118" x1="402.513" y1="159.056" x2="415.481" y2="174.624" gradientUnits="userSpaceOnUse">
<stop offset="0.0350253" stop-color="#FDF0B7"/>
<stop offset="0.521771" stop-color="#FFEA8C"/>
<stop offset="1" stop-color="#FDDE56"/>
</linearGradient>
<linearGradient id="paint2_linear_2052_39118" x1="303.777" y1="236.691" x2="315.185" y2="322.86" gradientUnits="userSpaceOnUse">
<stop offset="0.0350253" stop-color="#FFCC81"/>
<stop offset="0.521771" stop-color="#E7914F"/>
<stop offset="1" stop-color="#DD6843"/>
</linearGradient>
<linearGradient id="paint3_linear_2052_39118" x1="81.2137" y1="238.364" x2="119.077" y2="319.717" gradientUnits="userSpaceOnUse">
<stop offset="0.0350253" stop-color="#F5AEDD"/>
<stop offset="0.521771" stop-color="#E493C9"/>
<stop offset="1" stop-color="#C97FB0"/>
</linearGradient>
<linearGradient id="paint4_linear_2052_39118" x1="41.7" y1="124.789" x2="85.1364" y2="168.684" gradientUnits="userSpaceOnUse">
<stop offset="0.0350253" stop-color="#C1D29D"/>
<stop offset="0.521771" stop-color="#90C280"/>
<stop offset="1" stop-color="#8FB781"/>
</linearGradient>
<linearGradient id="paint5_linear_2052_39118" x1="150.237" y1="42.3566" x2="182.85" y2="112.659" gradientUnits="userSpaceOnUse">
<stop offset="0.0350253" stop-color="#F5AEDD"/>
<stop offset="0.521771" stop-color="#E493C9"/>
<stop offset="1" stop-color="#C97FB0"/>
</linearGradient>
<linearGradient id="paint6_linear_2052_39118" x1="363" y1="112.5" x2="299" y2="51.5" gradientUnits="userSpaceOnUse">
<stop stop-color="#DD6843"/>
<stop offset="1" stop-color="#F0A36D"/>
</linearGradient>
<linearGradient id="paint7_linear_2052_39118" x1="306.886" y1="43.7722" x2="296.166" y2="35.5884" gradientUnits="userSpaceOnUse">
<stop stop-color="#DD6843"/>
<stop offset="1" stop-color="#E68C4E"/>
</linearGradient>
<linearGradient id="paint8_linear_2052_39118" x1="355.896" y1="40.7468" x2="344.801" y2="33.8161" gradientUnits="userSpaceOnUse">
<stop stop-color="#DD6843"/>
<stop offset="1" stop-color="#E68C4E"/>
</linearGradient>
<linearGradient id="paint9_linear_2052_39118" x1="397.896" y1="42.7468" x2="386.801" y2="35.8161" gradientUnits="userSpaceOnUse">
<stop stop-color="#DD6843"/>
<stop offset="1" stop-color="#E68C4E"/>
</linearGradient>
<linearGradient id="paint10_linear_2052_39118" x1="304.397" y1="133.096" x2="341.761" y2="185.807" gradientUnits="userSpaceOnUse">
<stop offset="0.0350253" stop-color="#FDF0B7"/>
<stop offset="0.521771" stop-color="#FFEA8C"/>
<stop offset="1" stop-color="#FDDE56"/>
</linearGradient>
<linearGradient id="paint11_linear_2052_39118" x1="197.525" y1="300.526" x2="219.773" y2="322.996" gradientUnits="userSpaceOnUse">
<stop offset="0.0350253" stop-color="#C1D29D"/>
<stop offset="0.521771" stop-color="#90C280"/>
<stop offset="1" stop-color="#8FB781"/>
</linearGradient>
<linearGradient id="paint12_linear_2052_39118" x1="253.755" y1="107.793" x2="259.601" y2="151.927" gradientUnits="userSpaceOnUse">
<stop offset="0.0350253" stop-color="#FFCC81"/>
<stop offset="0.521771" stop-color="#E7914F"/>
<stop offset="1" stop-color="#DD6843"/>
</linearGradient>
<linearGradient id="paint13_linear_2052_39118" x1="200.678" y1="172.796" x2="211.933" y2="256.829" gradientUnits="userSpaceOnUse">
<stop offset="0.0350253" stop-color="#FFCC81"/>
<stop offset="0.521771" stop-color="#E7914F"/>
<stop offset="1" stop-color="#DD6843"/>
</linearGradient>
</defs>
</svg>
