<svg width="460" height="380" viewBox="0 0 460 380" fill="none" xmlns="http://www.w3.org/2000/svg">
<path d="M299 162C299 208.392 257.955 246 211.719 246C165.482 246 128 208.392 128 162C128 115.608 165.482 78 211.719 78C257.955 78 299 115.608 299 162Z" fill="url(#paint0_linear_2059_42221)"/>
<path d="M171 214.5C171 219.747 166.199 224 160.792 224C155.384 224 151 219.747 151 214.5C151 209.253 155.384 205 160.792 205C166.199 205 171 209.253 171 214.5Z" fill="url(#paint1_linear_2059_42221)"/>
<path d="M209 214.5C209 219.747 204.199 224 198.792 224C193.384 224 189 219.747 189 214.5C189 209.253 193.384 205 198.792 205C204.199 205 209 209.253 209 214.5Z" fill="url(#paint2_linear_2059_42221)"/>
<path d="M282 214C282 219.523 276.959 224 271.281 224C265.603 224 261 219.523 261 214C261 208.477 265.603 204 271.281 204C276.959 204 282 208.477 282 214Z" fill="url(#paint3_linear_2059_42221)"/>
<path d="M302 214.5C302 219.747 297.199 224 291.792 224C286.384 224 282 219.747 282 214.5C282 209.253 286.384 205 291.792 205C297.199 205 302 209.253 302 214.5Z" fill="url(#paint4_linear_2059_42221)"/>
<path d="M325 214C325 219.523 319.959 224 314.281 224C308.603 224 304 219.523 304 214C304 208.477 308.603 204 314.281 204C319.959 204 325 208.477 325 214Z" fill="url(#paint5_linear_2059_42221)"/>
<path d="M297 260.5C297 265.747 292.199 270 286.792 270C281.384 270 277 265.747 277 260.5C277 255.253 281.384 251 286.792 251C292.199 251 297 255.253 297 260.5Z" fill="url(#paint6_linear_2059_42221)"/>
<path d="M274 260.5C274 265.747 269.199 270 263.792 270C258.384 270 254 265.747 254 260.5C254 255.253 258.384 251 263.792 251C269.199 251 274 255.253 274 260.5Z" fill="url(#paint7_linear_2059_42221)"/>
<path d="M198 259.5C198 264.747 193.199 269 187.792 269C182.384 269 178 264.747 178 259.5C178 254.253 182.384 250 187.792 250C193.199 250 198 254.253 198 259.5Z" fill="url(#paint8_linear_2059_42221)"/>
<path d="M176 259.5C176 264.747 171.199 269 165.792 269C160.384 269 156 264.747 156 259.5C156 254.253 160.384 250 165.792 250C171.199 250 176 254.253 176 259.5Z" fill="url(#paint9_linear_2059_42221)"/>
<circle cx="252" cy="108" r="17" fill="white"/>
<ellipse cx="222.5" cy="100" rx="19.5" ry="17" fill="white"/>
<path fill-rule="evenodd" clip-rule="evenodd" d="M345.3 194.381C345.38 184.071 361.38 184.081 361.3 194.381C361.027 234.181 361.87 273.961 363.83 313.721C364.33 324.031 348.32 323.971 347.83 313.721C347.037 296.787 346.43 279.851 346.01 262.911C330.224 263.131 314.43 263.301 298.63 263.421H297.84C297.477 264.866 296.766 266.202 295.77 267.311C292.42 271.121 286.32 271.441 281.77 270.121C280.658 269.845 279.612 269.349 278.695 268.662C277.778 267.975 277.008 267.111 276.43 266.121C276.011 265.32 275.705 264.465 275.52 263.581C275.259 264.595 274.859 265.567 274.33 266.471C274.127 266.817 273.904 267.151 273.66 267.471C273.845 267.463 274.029 267.503 274.193 267.587C274.358 267.671 274.498 267.796 274.6 267.951C276.34 270.576 278.506 272.891 281.01 274.801C281.124 274.867 281.223 274.955 281.303 275.06C281.383 275.164 281.441 275.284 281.475 275.411C281.508 275.538 281.516 275.671 281.498 275.801C281.48 275.932 281.437 276.057 281.37 276.171C281.43 276.335 281.437 276.514 281.391 276.682C281.344 276.851 281.246 277.001 281.11 277.111C277.331 280.518 274.203 284.516 271.074 288.515L271.074 288.515L271.073 288.515C268.987 291.182 266.9 293.848 264.62 296.341C261.523 299.48 258.637 302.821 255.98 306.341C254.156 309.025 252.506 311.824 251.04 314.721C257.664 311.516 264.84 309.609 272.18 309.101C273.46 309.021 273.45 311.021 272.18 311.101C266.882 311.476 261.665 312.611 256.69 314.471C266.719 312.135 277.205 312.708 286.92 316.121C288.13 316.541 287.61 318.471 286.39 318.041C276.22 314.471 265.196 314.122 254.82 317.041C262.44 316.857 270.023 318.15 277.15 320.851C278.34 321.301 277.82 323.241 276.62 322.781C267.978 319.484 258.669 318.318 249.48 319.381C249.279 319.419 249.07 319.377 248.9 319.262C248.73 319.148 248.611 318.972 248.57 318.771C248.454 318.681 248.361 318.564 248.3 318.431C248.147 318.398 248.004 318.331 247.882 318.233C247.76 318.136 247.663 318.011 247.598 317.869C247.533 317.727 247.502 317.572 247.507 317.416C247.513 317.26 247.555 317.108 247.63 316.971C249.601 312.881 251.857 308.935 254.38 305.161C257.005 301.681 259.851 298.374 262.9 295.261C265.239 292.717 267.379 289.99 269.519 287.262C272.613 283.32 275.706 279.378 279.4 275.991C276.877 273.993 274.681 271.614 272.89 268.941C272.808 268.819 272.763 268.677 272.76 268.531C271.426 269.895 269.731 270.852 267.874 271.291C266.018 271.73 264.074 271.633 262.27 271.011C258.78 269.781 255.19 267.141 253.78 263.611C235.693 263.684 217.61 263.684 199.53 263.611H198.53C198.21 264.421 197.745 265.166 197.16 265.811C195.685 267.261 193.831 268.266 191.81 268.711C189.566 269.27 187.241 269.432 184.94 269.191C184.947 269.254 184.947 269.318 184.94 269.381C184.72 285.467 184.81 301.554 185.21 317.641C186.14 318.171 185.63 319.821 184.48 319.451C178.99 317.698 173.156 317.303 167.48 318.301C166.22 318.521 165.68 316.591 166.95 316.371C170.535 315.735 174.192 315.617 177.81 316.021C174.354 314.732 170.715 314.003 167.03 313.861C165.75 313.811 165.75 311.811 167.03 311.861C171.505 312.033 175.911 313.023 180.03 314.781C176.769 311.598 173.167 308.785 169.29 306.391C168.19 305.711 169.19 303.981 170.29 304.661C175.024 307.583 179.357 311.109 183.18 315.151C182.827 299.904 182.753 284.654 182.96 269.401C182.956 269.244 182.994 269.088 183.07 268.951C181.224 268.636 179.574 267.614 178.47 266.101C177.575 264.655 177.021 263.023 176.85 261.331C176.833 261.343 176.816 261.355 176.798 261.366C176.786 261.374 176.775 261.381 176.763 261.388C176.747 261.397 176.732 261.405 176.716 261.413C176.704 261.419 176.692 261.425 176.68 261.431C176.441 263.009 175.746 264.482 174.68 265.671C172.812 267.621 170.3 268.829 167.61 269.071C165.072 269.442 162.481 269.191 160.06 268.341C158.999 267.929 158.04 267.292 157.249 266.474C156.459 265.656 155.855 264.675 155.48 263.601C155.4 263.521 155.4 263.441 155.4 263.361C141.033 263.234 126.66 263.071 112.28 262.871C112.193 277.637 112.1 292.404 112 307.171C111.94 317.481 95.9402 317.471 96.0002 307.171L96.7202 194.111C96.7802 183.801 112.78 183.811 112.72 194.111C112.647 199.924 112.61 205.734 112.61 211.541H138.12C136.081 208.309 134.273 204.938 132.71 201.451C125.775 185.645 123.653 168.146 126.61 151.141C129.447 134.035 137.036 118.071 148.51 105.071C160.235 92.1405 175.495 82.9337 192.4 78.5907C194.09 78.1407 195.8 77.7607 197.51 77.4107C197.376 76.9883 197.241 76.4922 197.116 76.0286L197.115 76.026L197.115 76.0254L197.1 75.9707C197.056 75.7251 197.105 75.4718 197.238 75.2606C197.371 75.0493 197.578 74.8953 197.818 74.8289C198.059 74.7625 198.315 74.7885 198.538 74.9017C198.76 75.0149 198.932 75.2072 199.02 75.4407C199.12 75.8025 199.216 76.1253 199.31 76.4433C199.367 76.6351 199.424 76.8251 199.48 77.0207C213.799 74.3651 228.546 75.1882 242.48 79.4207V79.1307C242.425 79.0222 242.394 78.9026 242.39 78.7807C241.901 73.363 239.451 68.31 235.5 64.5707C233.635 62.7196 231.549 61.1042 229.29 59.7607C228.12 59.0207 226.72 58.3807 225.37 59.0207C224.359 59.6152 223.559 60.5101 223.08 61.5807C222.46 62.7207 220.74 61.7107 221.35 60.5807C222.55 58.3807 224.5 56.6007 226.99 56.8007C227.018 56.5737 227.13 56.3652 227.304 56.217C227.478 56.0688 227.702 55.9915 227.93 56.0007C228.083 56.0074 228.233 56.0493 228.368 56.1231C228.502 56.1969 228.618 56.3006 228.706 56.4263C228.794 56.552 228.852 56.6962 228.875 56.8479C228.898 56.9995 228.886 57.1544 228.84 57.3007C230.094 57.8688 231.281 58.5731 232.38 59.4007C233.612 60.2579 234.788 61.1932 235.9 62.2007C239.316 65.2381 241.883 69.1115 243.35 73.4407C243.703 72.0131 244.202 70.6257 244.84 69.3007C248.04 62.8207 255.33 59.5307 262.33 60.5307C265.258 60.956 268.059 62.0101 270.54 63.6207C270.592 63.421 270.711 63.2449 270.876 63.1213C271.041 62.9977 271.244 62.9341 271.45 62.9407C271.653 62.9447 271.85 63.0103 272.014 63.1286C272.179 63.247 272.304 63.4126 272.372 63.6035C272.44 63.7944 272.449 64.0016 272.397 64.1976C272.345 64.3935 272.234 64.569 272.08 64.7007C275.12 67.082 277.608 70.0947 279.37 73.5307C279.96 74.6607 278.23 75.6707 277.64 74.5307C273.74 67.0107 265.74 60.8607 256.85 62.6007C254.853 62.9574 252.954 63.7348 251.28 64.8813C249.606 66.0278 248.195 67.5172 247.14 69.2507C246.052 71.1659 245.311 73.2579 244.95 75.4307C246.9 73.4019 249.488 72.106 252.28 71.7607C254.899 71.4739 257.547 71.6158 260.12 72.1807C260.173 71.9819 260.291 71.807 260.457 71.6851C260.622 71.5632 260.825 71.5017 261.03 71.5107C261.166 71.5106 261.3 71.538 261.425 71.5913C261.549 71.6447 261.662 71.7229 261.756 71.8211C261.849 71.9193 261.922 72.0355 261.969 72.1627C262.016 72.2898 262.037 72.4253 262.03 72.5607C264.29 73.105 266.576 73.5322 268.88 73.8407C270.15 73.9707 270.16 75.9807 268.88 75.8407C266.911 75.6354 264.974 75.2143 263.037 74.7931C260.163 74.1683 257.287 73.5431 254.3 73.6207C249.89 73.7407 245.91 75.8907 244.43 80.0907V80.3107C244.579 80.4872 244.686 80.6945 244.745 80.9176C244.804 81.1406 244.812 81.374 244.77 81.6007C247.449 82.2976 250.078 83.1728 252.64 84.2207C267.91 90.5207 280.54 102.421 288.54 116.781C297.55 132.911 300.22 151.781 297.77 169.971C296.141 181.769 292.58 193.219 287.23 203.861C287.87 203.641 288.5 203.461 289.11 203.311C291.433 202.728 293.87 202.773 296.17 203.441C297.849 203.929 299.377 204.832 300.613 206.068C301.848 207.304 302.752 208.832 303.24 210.511C304.29 206.351 307.25 202.731 311.73 201.941C316.82 201.041 321.97 204.021 324.6 208.291C325.258 209.346 325.741 210.501 326.03 211.711H345.3V194.381ZM322.05 208.111C319.41 204.851 314.75 202.691 310.63 204.311V204.291C306.96 205.731 305.03 209.381 304.85 213.131C304.917 213.268 304.951 213.418 304.95 213.571C304.974 215.667 305.678 217.698 306.954 219.36C308.231 221.023 310.012 222.226 312.03 222.791C313.847 223.24 315.752 223.189 317.543 222.643C319.333 222.097 320.943 221.077 322.2 219.691C325.25 216.251 324.85 211.571 322.05 208.111ZM294.21 205.021C292.213 204.736 290.177 204.946 288.28 205.631V205.611C286.72 206.131 284.53 206.981 283.62 208.451C283.186 209.388 283.077 210.444 283.31 211.451C283.43 212.451 283.59 213.451 283.78 214.451C284.096 216.429 284.807 218.323 285.87 220.021C286.353 220.774 286.994 221.412 287.749 221.892C288.503 222.372 289.354 222.682 290.24 222.801C292.243 222.902 294.241 222.54 296.08 221.741C297.876 221.211 299.479 220.169 300.69 218.741C301.618 217.43 301.999 215.808 301.75 214.221C301.651 214.129 301.575 214.015 301.53 213.888C301.484 213.761 301.471 213.624 301.49 213.491C301.9 209.021 298.38 205.711 294.21 205.021ZM239.53 81.6707C236.75 80.8907 233.94 80.2407 231.09 79.7407C220.896 77.9779 210.471 78.0185 200.29 79.8607C200.654 81.1371 201.017 82.4135 201.38 83.6896L201.384 83.7037C202.216 86.632 203.048 89.5588 203.89 92.4807C204.066 91.5177 204.362 90.5804 204.77 89.6907C206.32 86.3207 209.59 84.2307 212.94 82.9307C219.838 80.3387 227.455 80.4136 234.3 83.1407C234.321 82.9717 234.38 82.8098 234.474 82.6678C234.568 82.5257 234.694 82.4073 234.841 82.322C234.988 82.2367 235.153 82.1868 235.323 82.1762C235.493 82.1655 235.663 82.1945 235.82 82.2607C239.22 83.7807 241.12 87.3707 241.45 90.9807C242.319 90.5595 243.226 90.2245 244.16 89.9807C247.217 89.2021 250.407 89.1003 253.508 89.6823C256.608 90.2644 259.544 91.5164 262.11 93.3507C265.9 94.8107 267.1 99.6907 267.57 103.351C268.207 108.067 267.564 112.868 265.71 117.251C265.028 118.944 263.981 120.465 262.643 121.706C261.305 122.948 259.709 123.878 257.97 124.431C254.047 125.536 249.894 125.536 245.97 124.431C242.313 123.499 239.063 121.39 236.72 118.431C234.992 116.055 233.954 113.249 233.72 110.321C230.09 114.621 225.16 117.781 219.26 116.981C215.646 116.451 212.342 114.642 209.95 111.881C210.24 112.821 210.52 113.731 210.77 114.731C211.728 118.594 212.433 122.516 212.88 126.471C213.373 130.478 213.713 134.502 214.052 138.525L214.053 138.525L214.053 138.525C214.375 142.342 214.697 146.159 215.15 149.961C216.83 164.231 219.99 178.661 227.51 191.061C231.483 185.407 235.284 179.634 238.91 173.741C252.824 151.19 264.241 127.192 272.96 102.171C273.03 101.962 273.172 101.785 273.36 101.671C264.39 92.582 252.951 86.3237 240.46 83.6707C240.246 83.6343 240.044 83.5464 239.872 83.4148C239.7 83.2831 239.562 83.1115 239.47 82.9148C239.379 82.7181 239.336 82.5021 239.347 82.2854C239.357 82.0687 239.42 81.8578 239.53 81.6707ZM244.62 112.501C245.907 113.104 247.039 113.994 247.93 115.101C248.463 115.664 248.787 116.394 248.847 117.167C248.907 117.941 248.7 118.712 248.26 119.351C248.236 119.387 248.205 119.419 248.173 119.453L248.173 119.453C248.151 119.475 248.13 119.497 248.11 119.521C248.115 119.571 248.115 119.621 248.11 119.671C247.978 120.201 247.71 120.688 247.333 121.085C246.957 121.481 246.483 121.772 245.96 121.931C245.735 121.998 245.504 122.044 245.27 122.071C246.096 122.365 246.941 122.599 247.8 122.771C251.257 123.563 254.866 123.373 258.22 122.221C261.52 120.951 263.44 118.051 264.52 114.811C265.702 111.272 266.085 107.515 265.64 103.811C265.39 101.711 264.92 98.9507 263.59 97.0707C263.46 97.0728 263.332 97.0471 263.213 96.9954C263.094 96.9436 262.987 96.867 262.9 96.7707C262.358 96.1969 261.773 95.6654 261.15 95.1807C260.918 95.1077 260.68 95.0509 260.44 95.0107C260.24 94.9905 260.054 94.8943 259.922 94.7418C259.79 94.5894 259.721 94.3922 259.73 94.1907C257.272 92.6964 254.514 91.7621 251.654 91.4545C248.793 91.1468 245.9 91.4733 243.18 92.4107C242.594 92.6266 242.029 92.8943 241.49 93.2107C241.22 97.3007 239.3 101.311 237.41 104.851C236.88 105.851 236.27 106.851 235.62 107.851V109.081C235.691 111.719 236.457 114.293 237.84 116.541C237.79 116.391 237.79 116.251 237.79 116.101C237.775 115.38 237.931 114.665 238.243 114.016C238.556 113.366 239.017 112.799 239.59 112.361C240.231 111.92 240.974 111.652 241.748 111.582C242.522 111.512 243.301 111.643 244.01 111.961C244.27 112.064 244.486 112.255 244.62 112.501ZM236.75 99.3207C236.331 100.686 236.03 102.084 235.85 103.501C236.084 103.074 236.303 102.644 236.51 102.211C237.7 99.9422 238.6 97.5334 239.19 95.0407C238.064 96.2646 237.229 97.7279 236.75 99.3207ZM233.6 107.201C233.537 103.49 234.278 99.809 235.77 96.4107V96.3807C236.644 94.7112 237.923 93.2877 239.49 92.2407V91.4107C239.382 89.143 238.421 86.9999 236.8 85.4107C236.743 85.5343 236.661 85.6448 236.559 85.7355C236.458 85.8263 236.339 85.8953 236.209 85.9383C236.08 85.9814 235.943 85.9976 235.808 85.986C235.672 85.9744 235.54 85.9352 235.42 85.8707C231.849 84.1342 227.945 83.1904 223.975 83.1041C220.005 83.0178 216.063 83.791 212.42 85.3707C209.32 86.7907 206.67 89.1507 205.89 92.4807C205.11 95.8107 205.89 99.4307 206.89 102.621C208.8 108.581 213.41 114.561 219.99 115.101C219.279 114.73 218.66 114.206 218.177 113.566C217.695 112.926 217.361 112.186 217.2 111.401C216.848 110.671 216.736 109.848 216.88 109.051C216.963 108.602 217.08 108.161 217.23 107.731C217.435 106.659 217.854 105.638 218.46 104.731C218.982 103.92 219.729 103.281 220.61 102.891C221.642 102.548 222.754 102.523 223.8 102.821C225.775 103.168 227.613 104.057 229.11 105.391C229.785 106.037 230.292 106.839 230.585 107.726C230.877 108.614 230.948 109.56 230.79 110.481V110.611C231.828 109.561 232.769 108.42 233.6 107.201ZM143.44 116.451C134.238 130.295 129.015 146.401 128.34 163.011C127.605 179.65 131.939 196.119 140.77 210.241C141.06 210.691 141.36 211.131 141.66 211.571H149.81C150.148 209.99 150.838 208.506 151.828 207.228C152.818 205.95 154.084 204.912 155.53 204.191C159.59 202.241 164.33 203.031 168.15 205.191C168.292 205.266 168.411 205.378 168.494 205.515C168.577 205.653 168.62 205.81 168.62 205.971C168.794 206.054 168.94 206.186 169.04 206.351C170.016 207.994 170.75 209.769 171.22 211.621H187.41C187.861 209.693 188.759 207.898 190.03 206.381C189.083 205.427 188.287 204.335 187.67 203.141C186.49 201.161 185.49 199.181 184.42 197.021C183.661 195.489 182.973 193.947 182.28 192.396L182.28 192.395L182.279 192.392L182.277 192.389C181.994 191.754 181.71 191.118 181.42 190.481C181.435 191.235 181.405 191.99 181.33 192.741C181.18 194.321 180.59 197.991 178.11 197.071C177.139 196.719 176.7 195.63 176.325 194.699C176.252 194.518 176.182 194.343 176.11 194.181C175.946 193.815 175.794 193.446 175.642 193.074L175.64 193.071C175.577 192.917 175.514 192.763 175.449 192.609C175.423 192.546 175.397 192.484 175.37 192.421C174.94 195.081 173.28 198.191 170.08 197.011C168.629 196.312 167.431 195.18 166.65 193.771C165.559 192.129 164.625 190.388 163.86 188.571C162.395 184.938 161.201 181.201 160.29 177.391C160.246 177.145 160.295 176.892 160.428 176.681C160.561 176.469 160.768 176.315 161.008 176.249C161.249 176.183 161.505 176.208 161.728 176.322C161.95 176.435 162.122 176.627 162.21 176.861C162.293 177.173 162.376 177.487 162.459 177.803L162.459 177.803C163.903 183.274 165.455 189.159 169.01 193.641C169.79 194.631 171.27 196.011 172.44 194.741C173.38 193.741 173.48 192.041 173.55 190.741C173.604 189.595 173.547 188.446 173.38 187.311C172.68 185.381 172.02 183.381 171.44 181.381C171.373 181.146 171.395 180.894 171.5 180.674C171.606 180.454 171.789 180.28 172.014 180.185C172.239 180.09 172.491 180.081 172.723 180.16C172.954 180.238 173.149 180.399 173.27 180.611C174.266 182.571 174.941 184.677 175.27 186.851C176.07 189.071 176.89 191.271 177.89 193.431C177.934 193.529 177.975 193.668 178.02 193.821C178.132 194.197 178.27 194.665 178.54 194.871C178.85 195.107 178.894 194.925 178.97 194.612C178.987 194.54 179.006 194.462 179.03 194.381C179.332 193.266 179.476 192.115 179.46 190.961C179.402 188.665 179.158 186.377 178.73 184.121C178.66 183.865 178.694 183.591 178.825 183.361C178.957 183.13 179.174 182.961 179.43 182.891C179.686 182.82 179.959 182.855 180.19 182.986C180.421 183.117 180.59 183.335 180.66 183.591C182.44 187.871 184.27 192.161 186.27 196.331C187.13 198.101 188.02 199.841 189.02 201.551C189.709 203.038 190.736 204.342 192.02 205.361C192.67 205.838 193.482 206.039 194.28 205.921C195.47 205.631 195.42 204.631 195.07 203.631C194.606 202.32 194.007 201.036 193.412 199.762C193.122 199.14 192.832 198.52 192.56 197.901C189.18 190.301 185.824 182.707 182.49 175.121C181.97 173.961 183.7 172.951 184.21 174.121C186.503 179.314 188.797 184.501 191.09 189.681L194.09 196.451C194.399 197.155 194.724 197.858 195.051 198.562C195.666 199.89 196.284 201.226 196.8 202.591C196.914 202.542 197.036 202.515 197.16 202.511H197.3C200.833 202.395 204.289 203.552 207.04 205.771C207.221 205.906 207.354 206.095 207.419 206.311C207.484 206.527 207.477 206.759 207.4 206.971C208.491 208.298 209.159 209.921 209.32 211.631H239.99C239.666 210.166 240.131 208.335 240.526 206.776L240.527 206.774C240.606 206.46 240.683 206.157 240.75 205.871C242.81 197.106 246.668 188.866 252.08 181.671C252.81 180.671 254.59 181.671 253.81 182.671C251.176 186.161 248.904 189.91 247.03 193.861C245.387 197.339 244.068 200.961 243.09 204.681C242.496 206.565 242.097 208.505 241.9 210.471C241.77 212.781 244.41 212.641 245.9 211.831C247.561 210.778 248.864 209.247 249.64 207.441C250.294 206.181 250.902 204.894 251.511 203.607L251.513 203.603L251.515 203.599C251.818 202.958 252.122 202.318 252.43 201.681C254.317 197.761 256.21 193.834 258.11 189.901C258.61 188.861 260.26 189.611 259.93 190.671C259.108 193.076 258.535 195.559 258.22 198.081C258.046 199.236 258.093 200.413 258.36 201.551C258.88 203.151 259.95 201.981 260.5 201.061C262.069 198.198 263.214 195.122 263.9 191.931L263.973 191.612C264.281 190.268 264.604 188.862 264.9 187.491C265.18 186.231 267.11 186.761 266.83 188.021C266.057 191.547 265.28 195.064 264.5 198.571C264.428 198.906 264.336 199.259 264.241 199.623L264.241 199.623C263.914 200.877 263.555 202.253 263.88 203.431C264.45 205.501 266.54 204.731 267.54 203.501C269.54 201.111 270.77 197.971 271.82 194.981C272.87 191.991 273.66 188.911 274.44 185.841C274.512 185.585 274.682 185.368 274.914 185.237C275.145 185.107 275.419 185.074 275.675 185.146C275.931 185.217 276.148 185.388 276.278 185.619C276.409 185.851 276.442 186.125 276.37 186.381C275.437 190.411 274.214 194.368 272.71 198.221C272.094 199.694 271.386 201.127 270.59 202.511C272.215 202.511 273.823 202.842 275.316 203.485C276.809 204.128 278.154 205.069 279.27 206.251C279.333 206.322 279.384 206.403 279.42 206.491C279.556 206.481 279.692 206.503 279.818 206.553C279.944 206.603 280.058 206.681 280.15 206.781C280.531 207.179 280.867 207.618 281.15 208.091L281.27 208.001C281.38 207.945 281.498 207.908 281.62 207.891C290.52 192.291 295.75 174.351 295.62 156.351C295.53 139.171 290.23 122.311 279.62 108.691C278.094 106.735 276.469 104.859 274.75 103.071C272.31 110.044 269.667 116.941 266.82 123.761C256.539 148.29 243.63 171.633 228.32 193.381C228.232 193.532 228.106 193.658 227.954 193.745C227.802 193.833 227.63 193.879 227.455 193.879C227.28 193.879 227.108 193.833 226.956 193.745C226.804 193.658 226.678 193.532 226.59 193.381C222.166 186.267 218.877 178.507 216.84 170.381C215.015 163.152 213.722 155.799 212.97 148.381C212.605 145.097 212.332 141.814 212.06 138.53L212.06 138.529C211.668 133.813 211.276 129.097 210.61 124.381C210.075 120.382 209.233 116.43 208.09 112.561C207.537 110.733 206.921 108.927 206.304 107.122C205.605 105.075 204.906 103.028 204.3 100.951C202.3 94.0774 200.3 87.1941 198.3 80.3007C192.625 81.443 187.071 83.117 181.71 85.3007C166.137 91.6435 152.812 102.49 143.44 116.451ZM169.41 220.491C166.59 223.601 161.33 224.521 157.41 223.601C155.676 223.179 154.083 222.311 152.788 221.083C151.494 219.855 150.543 218.31 150.03 216.601H145.26C148.697 220.985 152.648 224.941 157.03 228.381C164.084 233.753 172.179 237.598 180.8 239.671C190.36 242.111 200.35 242.731 210.11 242.871C219.87 243.011 229.79 243.011 239.4 241.121C248.494 239.441 257.009 235.469 264.14 229.581C265.998 228.017 267.765 226.348 269.43 224.581C268.48 224.491 267.54 224.361 266.66 224.201C264.78 223.845 263.053 222.925 261.708 221.564C260.363 220.203 259.464 218.465 259.13 216.581H209.13C208.909 217.898 208.407 219.153 207.66 220.261C204.89 224.191 199.41 224.871 195.02 223.981C193.166 223.625 191.457 222.734 190.104 221.417C188.751 220.1 187.815 218.415 187.41 216.571H171.41C171.105 218.032 170.414 219.386 169.41 220.491ZM167.14 206.871C163.62 204.881 159.11 204.161 155.55 206.451C154.018 207.434 152.835 208.876 152.169 210.571C151.503 212.265 151.388 214.127 151.84 215.891C152.321 217.55 153.306 219.019 154.659 220.094C156.011 221.169 157.665 221.797 159.39 221.891C162.69 222.121 166.97 221.101 168.69 217.991C170.61 214.521 169.11 210.451 167.27 207.301C167.197 207.168 167.152 207.022 167.14 206.871ZM193.75 207.924C193.056 207.924 192.371 207.762 191.75 207.451V207.441C190.812 208.499 190.096 209.734 189.644 211.074C189.192 212.414 189.014 213.831 189.12 215.241C189.49 219.241 192.54 221.761 196.36 222.241C199.95 222.681 204.53 222.041 206.36 218.471C207.165 216.66 207.508 214.677 207.36 212.701C207.29 210.831 206.78 208.781 205.21 207.601C205.061 207.497 204.944 207.355 204.87 207.189C204.796 207.023 204.768 206.841 204.79 206.661C202.579 205.125 199.919 204.368 197.23 204.511C197.297 205.092 197.192 205.679 196.929 206.202C196.666 206.724 196.257 207.158 195.75 207.451C195.129 207.762 194.445 207.924 193.75 207.924ZM261.8 202.761C261.359 203.459 260.713 204.004 259.95 204.321V204.311C257.15 205.291 256.21 202.041 256.26 199.981C256.235 199.491 256.235 199 256.26 198.511L252.26 206.751C251.463 208.497 250.456 210.139 249.26 211.641H259.13C259.679 209.295 260.948 207.179 262.76 205.591L262.6 205.411C262.067 204.631 261.787 203.705 261.8 202.761ZM263.11 220.371C264.58 221.901 266.64 222.321 268.64 222.531V222.521C272.45 222.901 276.78 222.931 278.95 219.221C280.74 216.221 281.47 210.931 278.74 208.221C278.683 208.152 278.633 208.079 278.59 208.001C278.455 208.007 278.319 207.982 278.195 207.928C278.07 207.875 277.959 207.793 277.87 207.691C276.787 206.526 275.442 205.636 273.947 205.095C272.451 204.554 270.848 204.378 269.27 204.581C268.638 205.478 267.759 206.173 266.74 206.581C266.01 206.851 265.213 206.889 264.46 206.691C263.239 207.679 262.275 208.949 261.649 210.39C261.024 211.832 260.757 213.403 260.87 214.971C260.978 216.974 261.769 218.879 263.11 220.371ZM168.22 266.951C171.96 266.191 175.75 263.031 174.48 258.831V258.821C174.422 258.616 174.438 258.397 174.526 258.203C174.614 258.009 174.768 257.852 174.96 257.761C174.618 256.07 173.849 254.495 172.728 253.184C171.607 251.874 170.17 250.871 168.554 250.27C166.937 249.669 165.193 249.491 163.489 249.752C161.784 250.013 160.173 250.704 158.81 251.761C157.16 253.151 156.75 254.961 156.69 257.031C156.482 259.193 156.766 261.374 157.52 263.411C159.27 267.291 164.48 267.711 168.22 266.951ZM176.76 256.641C176.957 255.193 177.425 253.795 178.14 252.521V252.511C179.15 250.734 180.738 249.358 182.64 248.611V248.491C182.528 246.756 182.582 245.015 182.8 243.291C177.25 242.124 171.856 240.309 166.73 237.881C156.734 232.9 148.092 225.575 141.54 216.531H112.54L112.27 257.861C126.39 258.061 140.51 258.224 154.63 258.351C154.631 257.449 154.677 256.548 154.77 255.651C154.853 254.518 155.181 253.417 155.731 252.424C156.282 251.431 157.043 250.57 157.96 249.901C159.557 248.759 161.407 248.022 163.352 247.752C165.296 247.482 167.277 247.686 169.125 248.349C170.973 249.011 172.632 250.112 173.962 251.556C175.292 253 176.252 254.745 176.76 256.641ZM192.07 266.541C193.693 266.109 195.125 265.148 196.14 263.811L196.15 263.801C197.091 262.077 197.327 260.055 196.81 258.161C196.481 256.421 195.801 254.768 194.81 253.301C193.85 251.901 192.46 250.241 190.7 249.951C190.507 249.922 190.33 249.826 190.2 249.681C185.94 249.381 181.32 250.011 179.4 254.381C178.621 256.331 178.379 258.455 178.7 260.531C178.93 262.311 179.35 264.441 180.7 265.711C182.05 266.981 184.18 267.221 185.95 267.311C188.02 267.421 190.092 267.16 192.07 266.541ZM198.95 258.651C216.89 258.691 234.833 258.691 252.78 258.651L252.79 258.641C253.08 255.381 254.27 252.191 256.81 250.241L249.4 241.841C249.358 241.784 249.321 241.724 249.29 241.661C241.859 244.127 234.115 245.521 226.29 245.801C216.088 246.379 205.858 246.212 195.68 245.301C192.026 244.969 188.392 244.452 184.79 243.751C184.74 243.931 184.74 244.111 184.74 244.311V244.311C184.65 244.771 184.65 245.221 184.65 245.681C184.617 246.206 184.628 246.732 184.639 247.261V247.261C184.645 247.527 184.65 247.793 184.65 248.061C186.623 247.656 188.646 247.551 190.65 247.751C190.908 247.77 191.148 247.888 191.32 248.081C193.66 248.501 195.51 250.711 196.73 252.601C197.912 254.426 198.671 256.494 198.95 258.651ZM264.41 269.521C268.4 270.131 272.12 267.351 273.33 263.651L273.34 263.671C273.926 261.715 273.97 259.638 273.466 257.66C272.962 255.682 271.93 253.878 270.48 252.441C268.888 250.944 266.775 250.127 264.59 250.161C262.498 249.898 260.377 250.315 258.54 251.351C255.69 253.241 254.69 256.591 254.69 259.881C254.803 259.968 254.895 260.08 254.958 260.208C255.02 260.337 255.052 260.478 255.05 260.621C255.134 261.768 255.464 262.883 256.018 263.891C256.572 264.899 257.337 265.775 258.26 266.461C259.999 268.014 262.123 269.071 264.41 269.521ZM283.86 268.531C287.76 269.181 292.83 268.671 295.03 264.891C297.09 261.271 295.78 256.921 293.05 253.891C290.32 250.861 285.86 248.931 281.97 250.981C278.97 252.591 277.43 255.671 276.97 258.931C276.983 258.965 276.995 258.999 277.005 259.034C277.015 259.069 277.023 259.105 277.03 259.141C277.03 261.381 277.24 263.911 278.46 265.681C279.68 267.451 281.86 268.201 283.86 268.531ZM297.745 258.38C296.146 252.119 289.353 246.603 282.83 248.511C278.83 249.681 276.36 253.081 275.36 256.911C274.919 255.362 274.208 253.903 273.26 252.601C271.867 250.535 269.746 249.071 267.32 248.501C264.725 247.886 262.014 247.965 259.46 248.731C259.144 248.844 258.833 248.974 258.53 249.121L251.26 240.871C252.64 240.321 254.01 239.731 255.35 239.061C262.277 235.458 268.446 230.555 273.52 224.621C274.744 224.54 275.94 224.215 277.036 223.663C278.132 223.112 279.106 222.346 279.9 221.411C281.069 219.891 281.852 218.11 282.18 216.221C282.511 217.616 283.025 218.961 283.71 220.221C284.718 222.132 286.384 223.613 288.4 224.391C290.759 225.03 293.26 224.9 295.54 224.021C297.96 223.251 300.54 222.181 302.12 220.151C302.822 219.268 303.327 218.245 303.6 217.151C304.124 218.714 304.971 220.149 306.086 221.364C307.2 222.578 308.558 223.545 310.07 224.201C312.232 225.054 314.592 225.278 316.876 224.848C319.16 224.418 321.276 223.351 322.98 221.771C324.459 220.398 325.517 218.632 326.03 216.681H345.32C345.36 230.421 345.534 244.157 345.84 257.891C329.802 258.111 313.77 258.274 297.745 258.38ZM128.351 322C136.806 321.912 145.143 319.998 152.791 316.39C153.951 315.87 154.961 317.6 153.811 318.19C145.381 322.196 136.144 324.215 126.811 324.09C126.635 324.091 126.462 324.045 126.309 323.957C126.157 323.87 126.03 323.744 125.942 323.592C125.853 323.44 125.807 323.267 125.807 323.091C125.807 322.915 125.853 322.742 125.941 322.59L137.941 296.01C128.041 306.46 117.611 316.65 104.731 323.34C104.578 323.428 104.406 323.474 104.23 323.474C104.054 323.474 103.881 323.427 103.729 323.339C103.577 323.251 103.451 323.124 103.363 322.971C103.276 322.819 103.23 322.646 103.231 322.47C103.213 322.31 103.189 322.149 103.164 321.988C103.118 321.684 103.071 321.377 103.071 321.07L83.4307 324.94C82.5107 325.11 81.5907 323.96 82.4307 323.27L91.9107 315.34C84.9587 315.134 78.016 315.987 71.3207 317.87C70.0607 318.23 69.5907 316.38 70.7807 315.94L75.5907 314.2C72.644 314.18 69.7007 314.243 66.7607 314.39C50.1546 315.206 33.776 318.596 18.2107 324.44C17.0007 324.89 16.4807 322.96 17.6707 322.51C22.1507 320.81 26.724 319.313 31.3907 318.02C47.5196 313.541 64.243 311.578 80.9707 312.2C81.1402 312.208 81.305 312.259 81.4494 312.348C81.5938 312.437 81.7132 312.562 81.7962 312.71C81.8792 312.858 81.9232 313.025 81.924 313.194C81.9248 313.364 81.8823 313.531 81.8007 313.68C86.0222 313.188 90.2797 313.081 94.5207 313.36C95.3107 313.42 95.9507 314.47 95.2307 315.07L86.7607 322.14L103.631 318.82C103.782 318.777 103.942 318.771 104.097 318.802C104.251 318.833 104.396 318.899 104.52 318.997C104.644 319.094 104.743 319.22 104.809 319.363C104.875 319.506 104.907 319.662 104.901 319.82L105.021 320.82C118.881 313.21 129.861 301.63 140.561 290.21C141.401 289.32 142.571 290.42 142.131 291.42L128.351 322ZM257.06 322.76L217.72 321.32C218.249 319.826 219.091 318.462 220.19 317.32C220.358 317.164 220.467 316.956 220.499 316.73C220.532 316.503 220.486 316.273 220.369 316.076C220.252 315.88 220.071 315.729 219.857 315.65C219.642 315.571 219.407 315.567 219.19 315.64C211.179 317.799 203.006 319.3 194.751 320.13L196.85 317.8C199.797 315.318 202.391 312.444 204.561 309.26C205.201 308.32 203.751 307.21 202.991 308.05L195.54 316.39C187.833 322.857 178.159 326.517 168.1 326.77C164.238 326.85 160.383 326.386 156.651 325.39C156.405 325.346 156.152 325.395 155.94 325.527C155.729 325.66 155.575 325.867 155.509 326.108C155.442 326.348 155.468 326.605 155.581 326.828C155.695 327.05 155.887 327.222 156.12 327.31C162.068 328.822 168.26 329.115 174.323 328.17C180.387 327.224 186.196 325.061 191.401 321.81C191.456 322.001 191.576 322.166 191.74 322.278C191.905 322.389 192.103 322.439 192.301 322.42C200.616 321.722 208.862 320.361 216.961 318.35C216.26 319.487 215.737 320.725 215.41 322.02C215.368 322.172 215.362 322.331 215.392 322.486C215.423 322.64 215.49 322.785 215.587 322.909C215.685 323.033 215.81 323.132 215.953 323.198C216.096 323.264 216.253 323.296 216.41 323.29L257.1 324.78C258.35 324.81 258.35 322.81 257.06 322.76ZM377.94 324.39C384.757 321.795 391.349 318.645 397.65 314.97C397.877 314.828 398.151 314.782 398.411 314.842C398.672 314.902 398.898 315.063 399.04 315.29C399.182 315.517 399.228 315.791 399.168 316.051C399.108 316.312 398.947 316.538 398.72 316.68C391.095 321.129 383.058 324.83 374.72 327.73C371.013 329.017 367.26 330.14 363.46 331.1L363.286 331.144C360.58 331.829 357.12 332.706 354.79 330.64C354.234 330.159 353.859 329.538 353.488 328.924C352.965 328.058 352.45 327.207 351.45 326.78C350.32 326.28 349.063 326.226 347.833 326.174C347.365 326.154 346.902 326.134 346.45 326.09C342.973 325.626 339.563 324.753 336.29 323.49C332.995 322.177 329.574 321.205 326.08 320.59C324.3 320.338 322.49 320.372 320.72 320.69C319.522 320.916 318.359 321.276 317.195 321.636C316.503 321.85 315.811 322.064 315.11 322.25C312.03 323.07 308.14 323.33 305.66 320.9C304.722 319.972 304.13 318.751 303.98 317.44C300.908 320.126 297.556 322.473 293.98 324.44C277.82 333.34 257.73 334.61 240.82 327.15C239.63 326.63 240.65 324.9 241.82 325.42C246.405 327.43 251.243 328.803 256.2 329.5C273.76 331.98 292.44 326.19 305.07 313.65C305.99 312.73 307.32 314.06 306.48 315.06C305.37 316.35 305.91 318.36 307.04 319.46C308.35 320.78 310.39 320.94 312.13 320.78C314.194 320.442 316.222 319.917 318.19 319.21C319.89 318.71 321.649 318.441 323.42 318.41C327.847 318.376 332.007 319.845 336.152 321.309C338.123 322.004 340.089 322.699 342.08 323.23C343.696 323.677 345.35 323.975 347.02 324.12C348.484 324.139 349.942 324.31 351.37 324.63C352.679 324.985 353.816 325.802 354.57 326.93C354.715 327.145 354.849 327.357 354.98 327.564C355.71 328.714 356.325 329.684 357.91 329.87C359.441 329.938 360.972 329.731 362.43 329.26C364.19 328.85 365.93 328.36 367.67 327.85C371.143 326.83 374.567 325.677 377.94 324.39Z" fill="#1F2224"/>
<defs>
<linearGradient id="paint0_linear_2059_42221" x1="190.653" y1="69.1709" x2="214.17" y2="245.673" gradientUnits="userSpaceOnUse">
<stop offset="0.0350253" stop-color="#FFCC81"/>
<stop offset="0.521771" stop-color="#E7914F"/>
<stop offset="1" stop-color="#DD6843"/>
</linearGradient>
<linearGradient id="paint1_linear_2059_42221" x1="155.58" y1="206.473" x2="163.004" y2="222.917" gradientUnits="userSpaceOnUse">
<stop offset="0.0350253" stop-color="#EB99CF"/>
<stop offset="0.521771" stop-color="#E493C9"/>
<stop offset="1" stop-color="#C97FB0"/>
</linearGradient>
<linearGradient id="paint2_linear_2059_42221" x1="191.137" y1="207.357" x2="200.702" y2="216.988" gradientUnits="userSpaceOnUse">
<stop offset="0.0350253" stop-color="#FDF0B7"/>
<stop offset="0.521771" stop-color="#FFEA8C"/>
<stop offset="1" stop-color="#FDDE56"/>
</linearGradient>
<linearGradient id="paint3_linear_2059_42221" x1="263.244" y1="206.481" x2="273.312" y2="216.594" gradientUnits="userSpaceOnUse">
<stop offset="0.0350253" stop-color="#FDF0B7"/>
<stop offset="0.521771" stop-color="#FFEA8C"/>
<stop offset="1" stop-color="#FDDE56"/>
</linearGradient>
<linearGradient id="paint4_linear_2059_42221" x1="286.58" y1="206.473" x2="294.004" y2="222.917" gradientUnits="userSpaceOnUse">
<stop offset="0.0350253" stop-color="#EB99CF"/>
<stop offset="0.521771" stop-color="#E493C9"/>
<stop offset="1" stop-color="#C97FB0"/>
</linearGradient>
<linearGradient id="paint5_linear_2059_42221" x1="307.675" y1="206.632" x2="318.263" y2="217.599" gradientUnits="userSpaceOnUse">
<stop offset="0.0350253" stop-color="#C1D29D"/>
<stop offset="0.521771" stop-color="#90C280"/>
<stop offset="1" stop-color="#8FB781"/>
</linearGradient>
<linearGradient id="paint6_linear_2059_42221" x1="284.328" y1="250.001" x2="286.903" y2="269.986" gradientUnits="userSpaceOnUse">
<stop offset="0.0350253" stop-color="#BDC796"/>
<stop offset="0.521771" stop-color="#90C280"/>
<stop offset="1" stop-color="#8FB781"/>
</linearGradient>
<linearGradient id="paint7_linear_2059_42221" x1="258.58" y1="252.473" x2="266.004" y2="268.917" gradientUnits="userSpaceOnUse">
<stop offset="0.0350253" stop-color="#EB99CF"/>
<stop offset="0.521771" stop-color="#E493C9"/>
<stop offset="1" stop-color="#C97FB0"/>
</linearGradient>
<linearGradient id="paint8_linear_2059_42221" x1="180.137" y1="252.357" x2="189.702" y2="261.988" gradientUnits="userSpaceOnUse">
<stop offset="0.0350253" stop-color="#FDF0B7"/>
<stop offset="0.521771" stop-color="#FFEA8C"/>
<stop offset="1" stop-color="#FDDE56"/>
</linearGradient>
<linearGradient id="paint9_linear_2059_42221" x1="163.328" y1="249.001" x2="165.903" y2="268.986" gradientUnits="userSpaceOnUse">
<stop offset="0.0350253" stop-color="#BDC796"/>
<stop offset="0.521771" stop-color="#90C280"/>
<stop offset="1" stop-color="#8FB781"/>
</linearGradient>
</defs>
</svg>
