<svg width="34" height="32" viewBox="0 0 34 32" fill="none" xmlns="http://www.w3.org/2000/svg">
<path d="M14 2.50003C15.1667 2.33336 17.7 2.20003 18.5 3.00003C18.8542 3.35427 19.1457 3.70851 19.4189 4.04052C19.917 4.64575 20.3542 5.17712 21 5.5C21.5 5.75 22.125 5.75 22.625 5.75C23.125 5.75 23.5 5.75 23.5 6C23.5 6.20711 23.8431 6.5 24.2452 6.84315C24.8137 7.32843 25.5 7.91421 25.5 8.5C25.5 9.08579 25.8431 9.67157 26.1274 10.1569C26.3284 10.5 26.5 10.7929 26.5 11C26.5 11.25 26.875 11.625 27.25 12C27.625 12.375 28 12.75 28 13C28 13.2071 28.3431 13.3284 28.7452 13.4706C29.3137 13.6716 30 13.9142 30 14.5V19C30 19.25 30.25 19.375 30.5 19.5C30.75 19.625 31 19.75 31 20C31 20.2071 31.3431 20.5 31.7452 20.8431C32.3137 21.3284 33 21.9142 33 22.5C33 23.3 32.3333 24.5 32 25C31.8333 25.3333 31.4 25.9 31 25.5C30.6 25.1 29.1667 24.6667 28.5 24.5L27 25L26.5 26.5C26.1667 26.8333 25.4 27.4 25 27L23.5 25.5H22.5C22.3333 25.5 21.9 25.4 21.5 25C21.2061 24.7061 20.7141 24.0341 20.3416 23.5H21.5L23 22L22.5 19L21.5 16L20.5 14L19 12L17 11.5H14.5L13 12.5L12 14.5C11.1667 15.1667 9.4 16.5 9 16.5C8.6 16.5 8.5 17.5 8.5 18L8 20L8.5 24L9 25L10.5 24.5L12 23C13.4093 23.1409 16.1532 23.401 17.4507 23.478L12 24.5V25.5C12 25.6404 12.0394 25.8202 12.0851 26.0284C12.2019 26.5616 12.3596 27.2808 12 28C11.6 28.8 10.5 29 10 29L9 28L7.5 28.5L5 27.5H4L3 26.5V26C2.83333 26 2.4 25.9 2 25.5L1 24.5L3.5 20.5L4 19.5L3.5 16.5L6.5 14C6.66667 13.8333 7 13.4 7 13V11L8.5 9.5L10 9L11 7V4.5L14 2.50003Z" fill="#9A8775"/>
<path d="M8 20L8.5 24L9 25L10.5 24.5L12 23C13.6667 23.1667 17.2 23.5 18 23.5H21.5L23 22L22.5 19L21.5 16L20.5 14L19 12L17 11.5H14.5L13 12.5L12 14.5C11.1667 15.1667 9.4 16.5 9 16.5C8.6 16.5 8.5 17.5 8.5 18L8 20Z" fill="#634E45"/>
<mask id="path-3-outside-1_2186_23218" maskUnits="userSpaceOnUse" x="0" y="1" width="34" height="29" fill="black">
<rect fill="white" y="1" width="34" height="29"/>
<path d="M32.9058 22.7919C32.8413 22.211 32.5831 21.7591 32.2603 21.3073C32.0667 20.9845 31.8085 20.6618 31.6148 20.3391C31.4212 20.0809 31.2921 19.7581 31.163 19.5C30.9694 19.1772 30.5821 18.7899 30.1948 18.7254C30.453 18.209 30.5821 17.5635 30.5175 16.9826C30.5175 16.5953 30.453 16.2726 30.3884 15.8853C30.3239 15.498 30.3239 15.1107 30.2593 14.7234C30.0657 13.9488 29.4202 13.6261 28.8393 13.2388C28.1293 12.787 27.6129 12.1415 26.9029 11.6897C26.9674 10.9797 26.7092 10.2696 26.3219 9.62415C26.1283 9.30141 25.741 9.10777 25.6765 8.78503C25.5474 8.39774 25.6119 8.01046 25.4183 7.55862C25.1601 6.91315 24.5791 6.26767 23.9337 6.00948C23.2882 5.75129 22.5782 5.68674 21.8681 5.55764C21.739 5.4931 21.6099 5.4931 21.4809 5.42855C21.1581 5.29945 21.029 5.17036 20.7708 4.78307C20.5126 4.39579 20.1254 4.0085 19.8026 3.68576C19.0926 3.10483 18.318 2.653 17.4789 2.33026C15.7361 1.74933 13.8642 1.94297 12.3151 2.84664C11.6696 3.23393 10.8305 3.62121 10.5077 4.33124C10.1205 5.10581 10.7659 5.88038 10.5723 6.7195C10.3786 7.55862 9.73317 8.13955 9.02315 8.65594C8.37767 9.10777 7.6031 9.43051 7.08671 9.94689C6.50578 10.4633 6.37669 11.2378 6.76398 11.9479C6.95762 12.3352 7.21581 12.6579 6.95762 13.1097C6.76398 13.497 6.37669 13.7552 6.05395 14.0134C5.66666 14.3361 5.34393 14.6589 4.95664 14.9171C4.6339 15.1753 4.24661 15.3689 3.85933 15.6271C3.1493 16.0789 3.02021 16.7244 3.1493 17.499C3.21385 17.8863 3.34295 18.2735 3.53659 18.6608C3.66569 18.919 3.92388 19.1772 3.73023 19.4354C3.60114 19.629 3.34295 19.7581 3.21385 19.9518C2.50383 20.8555 2.18109 21.9528 1.72925 22.921C1.40652 23.5665 0.567395 24.5347 1.27742 25.1802C1.72925 25.632 2.37473 25.7611 2.95566 25.9547C2.82656 26.4066 2.89111 26.9229 3.08476 27.3748C3.21385 27.8912 3.53659 28.2139 3.92388 28.2784C4.37571 28.343 4.69845 28.2139 4.95664 27.9557C5.73121 27.9557 6.50578 28.2139 7.28036 28.4075C7.86129 28.5366 8.57131 28.7303 9.15224 28.5366C9.41043 29.1176 10.1205 29.1821 10.7659 29.1821C11.476 29.1821 12.4442 29.2467 12.7024 28.4075C12.7669 28.0848 12.7669 27.6975 12.7669 27.3102C12.7669 26.9229 12.7024 26.5357 12.6378 26.1484C12.5733 25.7611 12.4442 25.3738 12.2505 25.1156C12.186 25.0511 12.1214 24.9865 12.0569 24.922C12.4442 24.922 12.8315 24.9865 13.2187 24.922C13.7997 24.922 14.3806 24.8574 14.9615 24.8574C15.2843 24.8574 15.6716 24.8574 15.9943 24.8574C16.317 24.7929 16.5752 24.6638 16.7043 24.4056C16.7689 24.2119 16.6398 24.0183 16.8334 23.9537C16.9625 23.8892 17.2853 23.9537 17.4143 24.0183C18.5117 24.1474 19.609 24.1474 20.7063 24.2765C20.6417 24.4056 20.7063 24.5347 20.7708 24.5992C20.7708 25.1802 21.3518 25.632 21.9327 25.6965C22.3845 25.7611 22.8364 25.6965 23.2236 25.5674C23.2882 26.5357 24.45 27.052 25.2892 27.052C25.8056 27.1166 26.3865 26.9229 26.7738 26.5357C27.0965 26.2129 27.3547 25.8256 27.5483 25.4383C27.6129 25.4383 27.6129 25.3738 27.6774 25.3738C28.3229 24.5347 29.743 25.4383 30.5175 25.5674C31.4857 25.7611 32.2603 25.1156 32.6476 24.2119C32.9058 23.7601 32.9703 23.2437 32.9058 22.7919ZM4.69845 27.3102C4.56935 27.3748 4.50481 27.4393 4.50481 27.5039C4.37571 27.5684 4.31116 27.633 4.18207 27.633C3.92388 27.633 3.66568 27.4393 3.60114 27.1811C3.2784 26.4066 3.66569 25.6965 4.05297 25.0511C4.37571 24.5992 4.69845 24.1474 5.02119 23.6956C5.34393 23.2437 5.66666 22.7919 6.1185 22.4691L6.18305 22.4046C6.31214 22.4046 6.37669 22.4691 6.50578 22.4691C6.69943 22.5337 6.82852 22.6628 6.89307 22.8564C7.15126 23.3083 7.15126 23.7601 6.95762 24.2119C6.76398 24.6638 6.44124 24.9865 6.18305 25.3738C5.79576 25.8256 5.40847 26.2775 5.08573 26.7293C4.95664 26.9229 4.82754 27.1811 4.69845 27.3102ZM9.28134 27.7621C8.9586 28.2139 7.99038 27.9557 7.6031 27.8266C6.89307 27.633 6.24759 27.4393 5.53757 27.3748C5.92485 26.9229 6.24759 26.4711 6.63488 26.0193C7.02217 25.5674 7.40945 25.1156 7.6031 24.5992C8.31312 24.6638 8.70041 25.3738 9.02315 25.9547C9.21679 26.4066 9.66862 27.2457 9.28134 27.7621ZM12.1214 27.8266C12.1214 27.9557 12.1214 28.0848 12.0569 28.2139C11.9923 28.343 11.9923 28.4075 11.9278 28.4075C11.7341 28.5366 11.4114 28.5366 11.1532 28.5366C10.8305 28.5366 10.5077 28.5366 10.2496 28.5366C10.1205 28.5366 9.99136 28.4721 9.86227 28.4075C9.79772 28.343 9.73317 28.2784 9.73317 28.2139C10.3141 27.5039 9.86227 26.2129 9.41043 25.4383C9.47498 25.4383 9.47498 25.3738 9.47498 25.3738C9.60407 25.1802 9.86227 25.1156 10.1205 25.1156C10.4432 25.0511 10.7659 25.1156 11.0241 25.1802C11.1532 25.1802 11.2823 25.2447 11.4114 25.3092C11.476 25.3092 11.6051 25.3738 11.6051 25.4383C11.7341 25.5674 11.8632 25.8902 11.9278 26.0838C12.1214 26.6002 12.1214 27.2457 12.1214 27.8266ZM21.2227 21.7591C21.1581 20.8555 20.9645 20.0163 20.5772 19.2418C20.1254 18.3381 19.3508 17.8217 18.6408 17.2408C17.9307 16.7244 17.3498 16.0144 17.0271 15.1753C16.8334 14.7234 16.5752 14.0134 15.9943 14.0134C15.7361 14.0134 15.4779 14.207 15.3488 14.4007C15.2197 14.5943 15.2197 14.8525 15.0906 15.0462C14.9615 15.3044 14.7033 15.4334 14.5097 15.6271C14.0579 15.8853 13.6706 15.9498 13.1542 15.8853C12.7024 15.8207 12.186 15.8207 11.7987 16.0789C11.2178 16.4662 10.895 17.1762 10.7014 17.8217C10.3786 18.8545 10.2496 19.9518 10.185 21.0491C10.1205 22.0173 10.5077 23.0501 10.2496 24.0183C10.185 24.0183 10.185 24.0183 10.1205 24.0183C9.79772 23.9537 9.60407 24.341 9.79772 24.5347C9.53953 24.5992 9.28134 24.7283 9.08769 24.922C8.9586 24.7929 8.8295 24.5992 8.70041 24.4701C8.57131 24.341 8.44222 24.2765 8.31312 24.2119C8.37767 24.1474 8.44222 24.0828 8.44222 23.9537C8.44222 23.3728 8.57131 22.7919 8.50676 22.211C8.44222 21.63 8.37767 21.0491 8.44222 20.4682C8.44222 19.9518 8.50676 19.3709 8.50676 18.8545C8.50676 18.4026 8.31312 17.8217 8.63586 17.4344C8.89405 17.1117 9.28134 16.8535 9.60407 16.5953C9.99136 16.2726 10.3141 15.9498 10.7014 15.6271C11.476 14.9816 12.3151 14.4007 12.896 13.6261C13.1542 13.2388 13.3478 12.8515 13.606 12.4643C13.9933 11.9479 14.4452 11.9479 15.0261 11.8833C16.0588 11.8188 17.1562 11.7542 18.1889 11.9479C18.5762 12.0124 18.9635 12.1415 19.2862 12.3997C19.6735 12.7224 19.8672 13.3034 20.0608 13.7552C20.1899 14.207 20.319 14.7234 20.3835 15.1753C20.4481 15.6271 20.6417 16.0144 20.8999 16.4017C21.2227 16.7889 21.5454 17.1117 21.8036 17.5635C22.1263 18.0799 22.1909 18.5963 22.2554 19.2418C22.32 19.8227 22.4491 20.3391 22.7073 20.8555C22.8364 21.2427 22.9654 21.63 23.0945 22.0173C23.03 22.0173 22.9655 22.0819 22.9009 22.0819C22.8364 22.0819 22.8364 22.0819 22.7718 22.0819C22.5136 22.0819 22.32 22.211 22.1909 22.4046C21.9972 22.5982 21.8681 22.7273 21.6745 22.921C21.5454 23.0501 21.4163 23.2437 21.3518 23.3728C21.3518 22.8564 21.2872 22.2755 21.2227 21.7591ZM23.6755 24.5347C23.4173 24.8574 22.9009 25.0511 22.4491 25.0511C22.1909 25.0511 21.9972 25.0511 21.739 24.8574C21.6745 24.7929 21.5454 24.7283 21.4809 24.5992C21.4163 24.5347 21.4163 24.4701 21.4809 24.341C21.5454 24.2765 21.5454 24.2119 21.5454 24.1474C21.8681 23.631 22.1909 23.1792 22.6427 22.7273C22.7073 22.6628 22.7073 22.6628 22.7718 22.5982H22.9009C22.9655 22.5982 23.03 22.6628 23.0945 22.6628C23.2882 22.7919 23.4818 22.921 23.5464 23.1146C23.6755 23.3083 23.74 23.5665 23.74 23.8246C23.8046 24.2119 23.74 24.341 23.6755 24.5347ZM27.4838 24.341C27.0965 24.9865 26.8383 25.9547 26.0637 26.2775C25.4183 26.5357 23.8691 26.2129 23.9337 25.2447C23.9337 25.1802 23.9337 25.1802 23.9337 25.1156C24.321 24.7929 24.45 24.4056 24.45 23.9537C25.3537 23.9537 26.3219 23.7601 26.451 22.7273C26.451 22.4691 26.3865 21.8237 26.7092 21.7591C27.032 21.6946 27.5483 21.8237 27.8065 22.0173C28.5166 22.5982 27.8065 23.7601 27.4838 24.341ZM27.5483 20.9845C27.3547 20.92 27.2256 20.9845 27.1611 21.1136C26.8383 21.0491 26.5801 21.1136 26.3219 21.2427C25.741 21.5655 25.9992 22.2755 25.8701 22.7919C25.6765 23.3728 24.9664 23.3728 24.5146 23.3083C24.45 23.3083 24.45 23.3083 24.45 23.3083C24.321 22.9855 24.1273 22.6628 23.8691 22.4691C23.8691 22.4691 23.8691 22.4691 23.8046 22.4691C23.9337 22.4046 23.9337 22.211 23.8691 22.0173C23.6109 21.5655 23.5464 20.9845 23.3527 20.4682C23.0945 19.8872 23.03 19.3063 22.9655 18.7254C22.9009 18.209 22.8364 17.7572 22.5782 17.3053C22.32 16.918 21.9972 16.5308 21.739 16.208C21.3518 15.7562 21.1581 15.3689 21.0936 14.788C21.029 14.2716 20.8999 13.7552 20.7063 13.2388C20.3835 12.3352 19.9317 11.6251 18.9635 11.3669C17.9953 11.0442 16.8334 11.1087 15.8007 11.1733C15.2843 11.1733 14.6388 11.1733 14.1224 11.3024C13.6706 11.4315 13.3478 11.7542 13.0897 12.2061C12.7669 12.6579 12.5733 13.1097 12.186 13.5616C11.7987 13.9488 11.4114 14.3361 10.9596 14.6589C10.5077 14.9816 10.1205 15.3689 9.66862 15.7562C9.34588 16.0789 8.89405 16.3371 8.57131 16.6599C8.18403 16.9826 7.86129 17.3699 7.86129 17.9508C7.86129 18.5963 7.92583 19.1772 7.86129 19.8227C7.86129 20.5327 7.79674 21.1782 7.92583 21.8237C7.99038 22.1464 8.05493 22.5337 7.99038 22.8564C7.99038 23.2437 7.86129 23.5665 7.86129 23.9537C7.86129 24.0183 7.86129 24.0183 7.86129 24.0183C7.79674 24.0183 7.79674 24.0183 7.73219 24.0183C7.79674 23.5665 7.73219 23.1792 7.53855 22.7273C7.40945 22.4046 7.21581 22.1464 6.95762 22.0173C6.69943 21.8882 6.44124 21.8882 6.18305 21.8237C5.9894 21.7591 5.86031 21.8882 5.79576 22.0173C5.27938 22.4046 4.95664 22.8564 4.56935 23.3083C4.18207 23.8247 3.79478 24.2765 3.40749 24.8574C3.2784 25.0511 3.1493 25.3092 3.02021 25.5029C2.56837 25.3738 1.98744 25.2447 1.60016 24.922C1.34197 24.6638 1.72925 24.2119 1.85835 23.9537C2.05199 23.5665 2.24564 23.1146 2.43928 22.6628C2.76202 21.8237 3.08476 20.8555 3.79478 20.21C3.98842 20.0163 4.24661 19.8227 4.31116 19.5C4.37571 19.1127 4.11752 18.7899 3.92388 18.4672C3.66568 17.8217 3.34295 16.8535 3.92388 16.4017C4.18207 16.208 4.50481 16.0144 4.82754 15.8207C5.21483 15.5625 5.53757 15.3043 5.86031 14.9816C6.37669 14.5298 7.15126 14.0134 7.40945 13.3679C7.53855 13.0452 7.53855 12.7224 7.40945 12.4643C7.28036 12.077 7.02217 11.7542 6.95762 11.4315C6.89307 10.6569 7.79674 10.2051 8.37767 9.88234C8.44222 9.88234 8.44222 9.81779 8.50676 9.81779C8.57131 9.81779 8.57131 9.81779 8.63586 9.81779C9.08769 9.62415 9.53953 9.30141 9.99136 9.17232C10.5723 8.97867 11.1532 8.97867 11.7987 8.97867C12.3796 8.97867 12.9606 8.97867 13.5415 8.97867C14.1224 8.97867 14.6388 8.78503 15.2197 8.84958C15.607 8.91413 15.607 8.26865 15.2197 8.2041C14.6388 8.13955 14.0579 8.3332 13.4769 8.3332C12.8315 8.3332 12.186 8.3332 11.5405 8.3332C11.0887 8.3332 10.7014 8.3332 10.2496 8.46229C10.6368 8.01046 10.9596 7.42953 11.0241 6.78405C11.2178 5.81584 10.6368 4.97672 11.2823 4.33124C11.5405 4.07305 11.8632 3.8794 12.186 3.68576C12.5733 3.49212 12.896 3.23393 13.2833 3.10483C14.0579 2.78209 14.9615 2.58845 15.8007 2.653C17.4789 2.78209 19.4799 3.75031 20.319 5.23491C20.319 5.23491 20.319 5.29945 20.3835 5.29945C19.9317 5.29945 19.5444 5.364 19.0926 5.364C18.6408 5.42855 18.2535 5.364 17.8016 5.23491C17.4143 5.10581 16.9625 4.91217 16.5752 4.84762C16.1879 4.78307 15.9943 5.364 16.3816 5.4931C17.2207 5.68674 17.9953 6.07403 18.8989 6.07403C19.6735 6.00948 20.4481 5.88038 21.2227 6.00948C21.5454 6.13857 21.8681 6.20312 22.1909 6.20312C23.03 6.33222 23.8046 6.39677 24.45 7.10679C24.7082 7.42953 24.9019 7.75227 24.9664 8.13955C25.031 8.52684 25.031 8.91413 25.2246 9.23687C25.3537 9.36596 25.4828 9.49506 25.6119 9.5596C25.8056 9.75325 25.8701 9.94689 25.9992 10.1405C26.0637 10.2051 26.0637 10.2696 26.1283 10.3987C25.9992 10.3342 25.8701 10.2696 25.6765 10.2051C25.3537 10.1405 24.9664 10.1405 24.5791 10.2051C24.0628 9.49506 23.4173 8.91413 22.7073 8.46229C21.9327 8.01046 20.9645 7.81682 20.1899 7.36498C19.8026 7.17134 19.4799 7.68772 19.8672 7.94591C20.6417 8.39774 21.4809 8.59139 22.2554 8.97867C22.9009 9.30141 23.4173 9.75325 23.8691 10.3342C23.6109 10.3342 23.2882 10.3987 23.03 10.3987C22.6427 10.3987 22.1909 10.3342 21.8681 10.076C21.5454 9.81779 21.0936 10.2696 21.4163 10.5278C22.0618 11.1733 23.1591 11.0442 23.9982 10.9797C24.3855 10.9151 24.8373 10.8506 25.2246 10.8506C25.6765 10.8506 25.9992 11.0442 26.1928 11.4315C26.1928 11.496 26.2574 11.496 26.2574 11.5606V11.6251C26.2574 11.7542 26.2574 11.8833 26.3865 12.0124C27.032 12.3997 27.5483 12.9806 28.1938 13.4325C28.7102 13.8198 29.4848 14.0779 29.6139 14.788C29.6784 15.1107 29.6784 15.4334 29.743 15.7562C29.8075 16.0789 29.8075 16.4017 29.8721 16.7244C29.9366 17.4344 29.8721 18.1444 29.4202 18.7254C29.3557 18.8545 29.3557 18.919 29.4202 18.9836C29.162 19.2418 29.0329 19.629 28.9038 19.9518C28.7102 20.2745 28.452 20.5973 28.1938 20.92C27.9356 21.1136 27.8711 21.1136 27.5483 20.9845ZM32.1958 23.7601C32.0667 24.1474 31.9376 24.4701 31.6148 24.7283C31.2921 24.9865 30.9048 24.922 30.5175 24.8574C29.8721 24.6638 28.9684 24.2765 28.2584 24.4056C28.5811 23.7601 28.9038 23.1146 28.7747 22.4046C28.7102 22.0819 28.5811 21.8237 28.3875 21.63C28.452 21.5655 28.5166 21.5655 28.5811 21.5009C28.9684 21.1136 29.3557 20.5973 29.6139 20.0809C29.6784 19.8872 29.8075 19.6936 29.9366 19.5C30.0657 19.3063 30.1948 19.3709 30.3884 19.5C30.5821 19.6936 30.7112 19.8872 30.8403 20.1454C31.0339 20.4682 31.163 20.7264 31.3567 21.0491C31.6794 21.5009 32.1312 22.0173 32.2603 22.5982C32.3249 22.9855 32.2603 23.3728 32.1958 23.7601Z"/>
</mask>
<path d="M32.9058 22.7919C32.8413 22.211 32.5831 21.7591 32.2603 21.3073C32.0667 20.9845 31.8085 20.6618 31.6148 20.3391C31.4212 20.0809 31.2921 19.7581 31.163 19.5C30.9694 19.1772 30.5821 18.7899 30.1948 18.7254C30.453 18.209 30.5821 17.5635 30.5175 16.9826C30.5175 16.5953 30.453 16.2726 30.3884 15.8853C30.3239 15.498 30.3239 15.1107 30.2593 14.7234C30.0657 13.9488 29.4202 13.6261 28.8393 13.2388C28.1293 12.787 27.6129 12.1415 26.9029 11.6897C26.9674 10.9797 26.7092 10.2696 26.3219 9.62415C26.1283 9.30141 25.741 9.10777 25.6765 8.78503C25.5474 8.39774 25.6119 8.01046 25.4183 7.55862C25.1601 6.91315 24.5791 6.26767 23.9337 6.00948C23.2882 5.75129 22.5782 5.68674 21.8681 5.55764C21.739 5.4931 21.6099 5.4931 21.4809 5.42855C21.1581 5.29945 21.029 5.17036 20.7708 4.78307C20.5126 4.39579 20.1254 4.0085 19.8026 3.68576C19.0926 3.10483 18.318 2.653 17.4789 2.33026C15.7361 1.74933 13.8642 1.94297 12.3151 2.84664C11.6696 3.23393 10.8305 3.62121 10.5077 4.33124C10.1205 5.10581 10.7659 5.88038 10.5723 6.7195C10.3786 7.55862 9.73317 8.13955 9.02315 8.65594C8.37767 9.10777 7.6031 9.43051 7.08671 9.94689C6.50578 10.4633 6.37669 11.2378 6.76398 11.9479C6.95762 12.3352 7.21581 12.6579 6.95762 13.1097C6.76398 13.497 6.37669 13.7552 6.05395 14.0134C5.66666 14.3361 5.34393 14.6589 4.95664 14.9171C4.6339 15.1753 4.24661 15.3689 3.85933 15.6271C3.1493 16.0789 3.02021 16.7244 3.1493 17.499C3.21385 17.8863 3.34295 18.2735 3.53659 18.6608C3.66569 18.919 3.92388 19.1772 3.73023 19.4354C3.60114 19.629 3.34295 19.7581 3.21385 19.9518C2.50383 20.8555 2.18109 21.9528 1.72925 22.921C1.40652 23.5665 0.567395 24.5347 1.27742 25.1802C1.72925 25.632 2.37473 25.7611 2.95566 25.9547C2.82656 26.4066 2.89111 26.9229 3.08476 27.3748C3.21385 27.8912 3.53659 28.2139 3.92388 28.2784C4.37571 28.343 4.69845 28.2139 4.95664 27.9557C5.73121 27.9557 6.50578 28.2139 7.28036 28.4075C7.86129 28.5366 8.57131 28.7303 9.15224 28.5366C9.41043 29.1176 10.1205 29.1821 10.7659 29.1821C11.476 29.1821 12.4442 29.2467 12.7024 28.4075C12.7669 28.0848 12.7669 27.6975 12.7669 27.3102C12.7669 26.9229 12.7024 26.5357 12.6378 26.1484C12.5733 25.7611 12.4442 25.3738 12.2505 25.1156C12.186 25.0511 12.1214 24.9865 12.0569 24.922C12.4442 24.922 12.8315 24.9865 13.2187 24.922C13.7997 24.922 14.3806 24.8574 14.9615 24.8574C15.2843 24.8574 15.6716 24.8574 15.9943 24.8574C16.317 24.7929 16.5752 24.6638 16.7043 24.4056C16.7689 24.2119 16.6398 24.0183 16.8334 23.9537C16.9625 23.8892 17.2853 23.9537 17.4143 24.0183C18.5117 24.1474 19.609 24.1474 20.7063 24.2765C20.6417 24.4056 20.7063 24.5347 20.7708 24.5992C20.7708 25.1802 21.3518 25.632 21.9327 25.6965C22.3845 25.7611 22.8364 25.6965 23.2236 25.5674C23.2882 26.5357 24.45 27.052 25.2892 27.052C25.8056 27.1166 26.3865 26.9229 26.7738 26.5357C27.0965 26.2129 27.3547 25.8256 27.5483 25.4383C27.6129 25.4383 27.6129 25.3738 27.6774 25.3738C28.3229 24.5347 29.743 25.4383 30.5175 25.5674C31.4857 25.7611 32.2603 25.1156 32.6476 24.2119C32.9058 23.7601 32.9703 23.2437 32.9058 22.7919ZM4.69845 27.3102C4.56935 27.3748 4.50481 27.4393 4.50481 27.5039C4.37571 27.5684 4.31116 27.633 4.18207 27.633C3.92388 27.633 3.66568 27.4393 3.60114 27.1811C3.2784 26.4066 3.66569 25.6965 4.05297 25.0511C4.37571 24.5992 4.69845 24.1474 5.02119 23.6956C5.34393 23.2437 5.66666 22.7919 6.1185 22.4691L6.18305 22.4046C6.31214 22.4046 6.37669 22.4691 6.50578 22.4691C6.69943 22.5337 6.82852 22.6628 6.89307 22.8564C7.15126 23.3083 7.15126 23.7601 6.95762 24.2119C6.76398 24.6638 6.44124 24.9865 6.18305 25.3738C5.79576 25.8256 5.40847 26.2775 5.08573 26.7293C4.95664 26.9229 4.82754 27.1811 4.69845 27.3102ZM9.28134 27.7621C8.9586 28.2139 7.99038 27.9557 7.6031 27.8266C6.89307 27.633 6.24759 27.4393 5.53757 27.3748C5.92485 26.9229 6.24759 26.4711 6.63488 26.0193C7.02217 25.5674 7.40945 25.1156 7.6031 24.5992C8.31312 24.6638 8.70041 25.3738 9.02315 25.9547C9.21679 26.4066 9.66862 27.2457 9.28134 27.7621ZM12.1214 27.8266C12.1214 27.9557 12.1214 28.0848 12.0569 28.2139C11.9923 28.343 11.9923 28.4075 11.9278 28.4075C11.7341 28.5366 11.4114 28.5366 11.1532 28.5366C10.8305 28.5366 10.5077 28.5366 10.2496 28.5366C10.1205 28.5366 9.99136 28.4721 9.86227 28.4075C9.79772 28.343 9.73317 28.2784 9.73317 28.2139C10.3141 27.5039 9.86227 26.2129 9.41043 25.4383C9.47498 25.4383 9.47498 25.3738 9.47498 25.3738C9.60407 25.1802 9.86227 25.1156 10.1205 25.1156C10.4432 25.0511 10.7659 25.1156 11.0241 25.1802C11.1532 25.1802 11.2823 25.2447 11.4114 25.3092C11.476 25.3092 11.6051 25.3738 11.6051 25.4383C11.7341 25.5674 11.8632 25.8902 11.9278 26.0838C12.1214 26.6002 12.1214 27.2457 12.1214 27.8266ZM21.2227 21.7591C21.1581 20.8555 20.9645 20.0163 20.5772 19.2418C20.1254 18.3381 19.3508 17.8217 18.6408 17.2408C17.9307 16.7244 17.3498 16.0144 17.0271 15.1753C16.8334 14.7234 16.5752 14.0134 15.9943 14.0134C15.7361 14.0134 15.4779 14.207 15.3488 14.4007C15.2197 14.5943 15.2197 14.8525 15.0906 15.0462C14.9615 15.3044 14.7033 15.4334 14.5097 15.6271C14.0579 15.8853 13.6706 15.9498 13.1542 15.8853C12.7024 15.8207 12.186 15.8207 11.7987 16.0789C11.2178 16.4662 10.895 17.1762 10.7014 17.8217C10.3786 18.8545 10.2496 19.9518 10.185 21.0491C10.1205 22.0173 10.5077 23.0501 10.2496 24.0183C10.185 24.0183 10.185 24.0183 10.1205 24.0183C9.79772 23.9537 9.60407 24.341 9.79772 24.5347C9.53953 24.5992 9.28134 24.7283 9.08769 24.922C8.9586 24.7929 8.8295 24.5992 8.70041 24.4701C8.57131 24.341 8.44222 24.2765 8.31312 24.2119C8.37767 24.1474 8.44222 24.0828 8.44222 23.9537C8.44222 23.3728 8.57131 22.7919 8.50676 22.211C8.44222 21.63 8.37767 21.0491 8.44222 20.4682C8.44222 19.9518 8.50676 19.3709 8.50676 18.8545C8.50676 18.4026 8.31312 17.8217 8.63586 17.4344C8.89405 17.1117 9.28134 16.8535 9.60407 16.5953C9.99136 16.2726 10.3141 15.9498 10.7014 15.6271C11.476 14.9816 12.3151 14.4007 12.896 13.6261C13.1542 13.2388 13.3478 12.8515 13.606 12.4643C13.9933 11.9479 14.4452 11.9479 15.0261 11.8833C16.0588 11.8188 17.1562 11.7542 18.1889 11.9479C18.5762 12.0124 18.9635 12.1415 19.2862 12.3997C19.6735 12.7224 19.8672 13.3034 20.0608 13.7552C20.1899 14.207 20.319 14.7234 20.3835 15.1753C20.4481 15.6271 20.6417 16.0144 20.8999 16.4017C21.2227 16.7889 21.5454 17.1117 21.8036 17.5635C22.1263 18.0799 22.1909 18.5963 22.2554 19.2418C22.32 19.8227 22.4491 20.3391 22.7073 20.8555C22.8364 21.2427 22.9654 21.63 23.0945 22.0173C23.03 22.0173 22.9655 22.0819 22.9009 22.0819C22.8364 22.0819 22.8364 22.0819 22.7718 22.0819C22.5136 22.0819 22.32 22.211 22.1909 22.4046C21.9972 22.5982 21.8681 22.7273 21.6745 22.921C21.5454 23.0501 21.4163 23.2437 21.3518 23.3728C21.3518 22.8564 21.2872 22.2755 21.2227 21.7591ZM23.6755 24.5347C23.4173 24.8574 22.9009 25.0511 22.4491 25.0511C22.1909 25.0511 21.9972 25.0511 21.739 24.8574C21.6745 24.7929 21.5454 24.7283 21.4809 24.5992C21.4163 24.5347 21.4163 24.4701 21.4809 24.341C21.5454 24.2765 21.5454 24.2119 21.5454 24.1474C21.8681 23.631 22.1909 23.1792 22.6427 22.7273C22.7073 22.6628 22.7073 22.6628 22.7718 22.5982H22.9009C22.9655 22.5982 23.03 22.6628 23.0945 22.6628C23.2882 22.7919 23.4818 22.921 23.5464 23.1146C23.6755 23.3083 23.74 23.5665 23.74 23.8246C23.8046 24.2119 23.74 24.341 23.6755 24.5347ZM27.4838 24.341C27.0965 24.9865 26.8383 25.9547 26.0637 26.2775C25.4183 26.5357 23.8691 26.2129 23.9337 25.2447C23.9337 25.1802 23.9337 25.1802 23.9337 25.1156C24.321 24.7929 24.45 24.4056 24.45 23.9537C25.3537 23.9537 26.3219 23.7601 26.451 22.7273C26.451 22.4691 26.3865 21.8237 26.7092 21.7591C27.032 21.6946 27.5483 21.8237 27.8065 22.0173C28.5166 22.5982 27.8065 23.7601 27.4838 24.341ZM27.5483 20.9845C27.3547 20.92 27.2256 20.9845 27.1611 21.1136C26.8383 21.0491 26.5801 21.1136 26.3219 21.2427C25.741 21.5655 25.9992 22.2755 25.8701 22.7919C25.6765 23.3728 24.9664 23.3728 24.5146 23.3083C24.45 23.3083 24.45 23.3083 24.45 23.3083C24.321 22.9855 24.1273 22.6628 23.8691 22.4691C23.8691 22.4691 23.8691 22.4691 23.8046 22.4691C23.9337 22.4046 23.9337 22.211 23.8691 22.0173C23.6109 21.5655 23.5464 20.9845 23.3527 20.4682C23.0945 19.8872 23.03 19.3063 22.9655 18.7254C22.9009 18.209 22.8364 17.7572 22.5782 17.3053C22.32 16.918 21.9972 16.5308 21.739 16.208C21.3518 15.7562 21.1581 15.3689 21.0936 14.788C21.029 14.2716 20.8999 13.7552 20.7063 13.2388C20.3835 12.3352 19.9317 11.6251 18.9635 11.3669C17.9953 11.0442 16.8334 11.1087 15.8007 11.1733C15.2843 11.1733 14.6388 11.1733 14.1224 11.3024C13.6706 11.4315 13.3478 11.7542 13.0897 12.2061C12.7669 12.6579 12.5733 13.1097 12.186 13.5616C11.7987 13.9488 11.4114 14.3361 10.9596 14.6589C10.5077 14.9816 10.1205 15.3689 9.66862 15.7562C9.34588 16.0789 8.89405 16.3371 8.57131 16.6599C8.18403 16.9826 7.86129 17.3699 7.86129 17.9508C7.86129 18.5963 7.92583 19.1772 7.86129 19.8227C7.86129 20.5327 7.79674 21.1782 7.92583 21.8237C7.99038 22.1464 8.05493 22.5337 7.99038 22.8564C7.99038 23.2437 7.86129 23.5665 7.86129 23.9537C7.86129 24.0183 7.86129 24.0183 7.86129 24.0183C7.79674 24.0183 7.79674 24.0183 7.73219 24.0183C7.79674 23.5665 7.73219 23.1792 7.53855 22.7273C7.40945 22.4046 7.21581 22.1464 6.95762 22.0173C6.69943 21.8882 6.44124 21.8882 6.18305 21.8237C5.9894 21.7591 5.86031 21.8882 5.79576 22.0173C5.27938 22.4046 4.95664 22.8564 4.56935 23.3083C4.18207 23.8247 3.79478 24.2765 3.40749 24.8574C3.2784 25.0511 3.1493 25.3092 3.02021 25.5029C2.56837 25.3738 1.98744 25.2447 1.60016 24.922C1.34197 24.6638 1.72925 24.2119 1.85835 23.9537C2.05199 23.5665 2.24564 23.1146 2.43928 22.6628C2.76202 21.8237 3.08476 20.8555 3.79478 20.21C3.98842 20.0163 4.24661 19.8227 4.31116 19.5C4.37571 19.1127 4.11752 18.7899 3.92388 18.4672C3.66568 17.8217 3.34295 16.8535 3.92388 16.4017C4.18207 16.208 4.50481 16.0144 4.82754 15.8207C5.21483 15.5625 5.53757 15.3043 5.86031 14.9816C6.37669 14.5298 7.15126 14.0134 7.40945 13.3679C7.53855 13.0452 7.53855 12.7224 7.40945 12.4643C7.28036 12.077 7.02217 11.7542 6.95762 11.4315C6.89307 10.6569 7.79674 10.2051 8.37767 9.88234C8.44222 9.88234 8.44222 9.81779 8.50676 9.81779C8.57131 9.81779 8.57131 9.81779 8.63586 9.81779C9.08769 9.62415 9.53953 9.30141 9.99136 9.17232C10.5723 8.97867 11.1532 8.97867 11.7987 8.97867C12.3796 8.97867 12.9606 8.97867 13.5415 8.97867C14.1224 8.97867 14.6388 8.78503 15.2197 8.84958C15.607 8.91413 15.607 8.26865 15.2197 8.2041C14.6388 8.13955 14.0579 8.3332 13.4769 8.3332C12.8315 8.3332 12.186 8.3332 11.5405 8.3332C11.0887 8.3332 10.7014 8.3332 10.2496 8.46229C10.6368 8.01046 10.9596 7.42953 11.0241 6.78405C11.2178 5.81584 10.6368 4.97672 11.2823 4.33124C11.5405 4.07305 11.8632 3.8794 12.186 3.68576C12.5733 3.49212 12.896 3.23393 13.2833 3.10483C14.0579 2.78209 14.9615 2.58845 15.8007 2.653C17.4789 2.78209 19.4799 3.75031 20.319 5.23491C20.319 5.23491 20.319 5.29945 20.3835 5.29945C19.9317 5.29945 19.5444 5.364 19.0926 5.364C18.6408 5.42855 18.2535 5.364 17.8016 5.23491C17.4143 5.10581 16.9625 4.91217 16.5752 4.84762C16.1879 4.78307 15.9943 5.364 16.3816 5.4931C17.2207 5.68674 17.9953 6.07403 18.8989 6.07403C19.6735 6.00948 20.4481 5.88038 21.2227 6.00948C21.5454 6.13857 21.8681 6.20312 22.1909 6.20312C23.03 6.33222 23.8046 6.39677 24.45 7.10679C24.7082 7.42953 24.9019 7.75227 24.9664 8.13955C25.031 8.52684 25.031 8.91413 25.2246 9.23687C25.3537 9.36596 25.4828 9.49506 25.6119 9.5596C25.8056 9.75325 25.8701 9.94689 25.9992 10.1405C26.0637 10.2051 26.0637 10.2696 26.1283 10.3987C25.9992 10.3342 25.8701 10.2696 25.6765 10.2051C25.3537 10.1405 24.9664 10.1405 24.5791 10.2051C24.0628 9.49506 23.4173 8.91413 22.7073 8.46229C21.9327 8.01046 20.9645 7.81682 20.1899 7.36498C19.8026 7.17134 19.4799 7.68772 19.8672 7.94591C20.6417 8.39774 21.4809 8.59139 22.2554 8.97867C22.9009 9.30141 23.4173 9.75325 23.8691 10.3342C23.6109 10.3342 23.2882 10.3987 23.03 10.3987C22.6427 10.3987 22.1909 10.3342 21.8681 10.076C21.5454 9.81779 21.0936 10.2696 21.4163 10.5278C22.0618 11.1733 23.1591 11.0442 23.9982 10.9797C24.3855 10.9151 24.8373 10.8506 25.2246 10.8506C25.6765 10.8506 25.9992 11.0442 26.1928 11.4315C26.1928 11.496 26.2574 11.496 26.2574 11.5606V11.6251C26.2574 11.7542 26.2574 11.8833 26.3865 12.0124C27.032 12.3997 27.5483 12.9806 28.1938 13.4325C28.7102 13.8198 29.4848 14.0779 29.6139 14.788C29.6784 15.1107 29.6784 15.4334 29.743 15.7562C29.8075 16.0789 29.8075 16.4017 29.8721 16.7244C29.9366 17.4344 29.8721 18.1444 29.4202 18.7254C29.3557 18.8545 29.3557 18.919 29.4202 18.9836C29.162 19.2418 29.0329 19.629 28.9038 19.9518C28.7102 20.2745 28.452 20.5973 28.1938 20.92C27.9356 21.1136 27.8711 21.1136 27.5483 20.9845ZM32.1958 23.7601C32.0667 24.1474 31.9376 24.4701 31.6148 24.7283C31.2921 24.9865 30.9048 24.922 30.5175 24.8574C29.8721 24.6638 28.9684 24.2765 28.2584 24.4056C28.5811 23.7601 28.9038 23.1146 28.7747 22.4046C28.7102 22.0819 28.5811 21.8237 28.3875 21.63C28.452 21.5655 28.5166 21.5655 28.5811 21.5009C28.9684 21.1136 29.3557 20.5973 29.6139 20.0809C29.6784 19.8872 29.8075 19.6936 29.9366 19.5C30.0657 19.3063 30.1948 19.3709 30.3884 19.5C30.5821 19.6936 30.7112 19.8872 30.8403 20.1454C31.0339 20.4682 31.163 20.7264 31.3567 21.0491C31.6794 21.5009 32.1312 22.0173 32.2603 22.5982C32.3249 22.9855 32.2603 23.3728 32.1958 23.7601Z" fill="#1E1A1A"/>
<path d="M32.9058 22.7919C32.8413 22.211 32.5831 21.7591 32.2603 21.3073C32.0667 20.9845 31.8085 20.6618 31.6148 20.3391C31.4212 20.0809 31.2921 19.7581 31.163 19.5C30.9694 19.1772 30.5821 18.7899 30.1948 18.7254C30.453 18.209 30.5821 17.5635 30.5175 16.9826C30.5175 16.5953 30.453 16.2726 30.3884 15.8853C30.3239 15.498 30.3239 15.1107 30.2593 14.7234C30.0657 13.9488 29.4202 13.6261 28.8393 13.2388C28.1293 12.787 27.6129 12.1415 26.9029 11.6897C26.9674 10.9797 26.7092 10.2696 26.3219 9.62415C26.1283 9.30141 25.741 9.10777 25.6765 8.78503C25.5474 8.39774 25.6119 8.01046 25.4183 7.55862C25.1601 6.91315 24.5791 6.26767 23.9337 6.00948C23.2882 5.75129 22.5782 5.68674 21.8681 5.55764C21.739 5.4931 21.6099 5.4931 21.4809 5.42855C21.1581 5.29945 21.029 5.17036 20.7708 4.78307C20.5126 4.39579 20.1254 4.0085 19.8026 3.68576C19.0926 3.10483 18.318 2.653 17.4789 2.33026C15.7361 1.74933 13.8642 1.94297 12.3151 2.84664C11.6696 3.23393 10.8305 3.62121 10.5077 4.33124C10.1205 5.10581 10.7659 5.88038 10.5723 6.7195C10.3786 7.55862 9.73317 8.13955 9.02315 8.65594C8.37767 9.10777 7.6031 9.43051 7.08671 9.94689C6.50578 10.4633 6.37669 11.2378 6.76398 11.9479C6.95762 12.3352 7.21581 12.6579 6.95762 13.1097C6.76398 13.497 6.37669 13.7552 6.05395 14.0134C5.66666 14.3361 5.34393 14.6589 4.95664 14.9171C4.6339 15.1753 4.24661 15.3689 3.85933 15.6271C3.1493 16.0789 3.02021 16.7244 3.1493 17.499C3.21385 17.8863 3.34295 18.2735 3.53659 18.6608C3.66569 18.919 3.92388 19.1772 3.73023 19.4354C3.60114 19.629 3.34295 19.7581 3.21385 19.9518C2.50383 20.8555 2.18109 21.9528 1.72925 22.921C1.40652 23.5665 0.567395 24.5347 1.27742 25.1802C1.72925 25.632 2.37473 25.7611 2.95566 25.9547C2.82656 26.4066 2.89111 26.9229 3.08476 27.3748C3.21385 27.8912 3.53659 28.2139 3.92388 28.2784C4.37571 28.343 4.69845 28.2139 4.95664 27.9557C5.73121 27.9557 6.50578 28.2139 7.28036 28.4075C7.86129 28.5366 8.57131 28.7303 9.15224 28.5366C9.41043 29.1176 10.1205 29.1821 10.7659 29.1821C11.476 29.1821 12.4442 29.2467 12.7024 28.4075C12.7669 28.0848 12.7669 27.6975 12.7669 27.3102C12.7669 26.9229 12.7024 26.5357 12.6378 26.1484C12.5733 25.7611 12.4442 25.3738 12.2505 25.1156C12.186 25.0511 12.1214 24.9865 12.0569 24.922C12.4442 24.922 12.8315 24.9865 13.2187 24.922C13.7997 24.922 14.3806 24.8574 14.9615 24.8574C15.2843 24.8574 15.6716 24.8574 15.9943 24.8574C16.317 24.7929 16.5752 24.6638 16.7043 24.4056C16.7689 24.2119 16.6398 24.0183 16.8334 23.9537C16.9625 23.8892 17.2853 23.9537 17.4143 24.0183C18.5117 24.1474 19.609 24.1474 20.7063 24.2765C20.6417 24.4056 20.7063 24.5347 20.7708 24.5992C20.7708 25.1802 21.3518 25.632 21.9327 25.6965C22.3845 25.7611 22.8364 25.6965 23.2236 25.5674C23.2882 26.5357 24.45 27.052 25.2892 27.052C25.8056 27.1166 26.3865 26.9229 26.7738 26.5357C27.0965 26.2129 27.3547 25.8256 27.5483 25.4383C27.6129 25.4383 27.6129 25.3738 27.6774 25.3738C28.3229 24.5347 29.743 25.4383 30.5175 25.5674C31.4857 25.7611 32.2603 25.1156 32.6476 24.2119C32.9058 23.7601 32.9703 23.2437 32.9058 22.7919ZM4.69845 27.3102C4.56935 27.3748 4.50481 27.4393 4.50481 27.5039C4.37571 27.5684 4.31116 27.633 4.18207 27.633C3.92388 27.633 3.66568 27.4393 3.60114 27.1811C3.2784 26.4066 3.66569 25.6965 4.05297 25.0511C4.37571 24.5992 4.69845 24.1474 5.02119 23.6956C5.34393 23.2437 5.66666 22.7919 6.1185 22.4691L6.18305 22.4046C6.31214 22.4046 6.37669 22.4691 6.50578 22.4691C6.69943 22.5337 6.82852 22.6628 6.89307 22.8564C7.15126 23.3083 7.15126 23.7601 6.95762 24.2119C6.76398 24.6638 6.44124 24.9865 6.18305 25.3738C5.79576 25.8256 5.40847 26.2775 5.08573 26.7293C4.95664 26.9229 4.82754 27.1811 4.69845 27.3102ZM9.28134 27.7621C8.9586 28.2139 7.99038 27.9557 7.6031 27.8266C6.89307 27.633 6.24759 27.4393 5.53757 27.3748C5.92485 26.9229 6.24759 26.4711 6.63488 26.0193C7.02217 25.5674 7.40945 25.1156 7.6031 24.5992C8.31312 24.6638 8.70041 25.3738 9.02315 25.9547C9.21679 26.4066 9.66862 27.2457 9.28134 27.7621ZM12.1214 27.8266C12.1214 27.9557 12.1214 28.0848 12.0569 28.2139C11.9923 28.343 11.9923 28.4075 11.9278 28.4075C11.7341 28.5366 11.4114 28.5366 11.1532 28.5366C10.8305 28.5366 10.5077 28.5366 10.2496 28.5366C10.1205 28.5366 9.99136 28.4721 9.86227 28.4075C9.79772 28.343 9.73317 28.2784 9.73317 28.2139C10.3141 27.5039 9.86227 26.2129 9.41043 25.4383C9.47498 25.4383 9.47498 25.3738 9.47498 25.3738C9.60407 25.1802 9.86227 25.1156 10.1205 25.1156C10.4432 25.0511 10.7659 25.1156 11.0241 25.1802C11.1532 25.1802 11.2823 25.2447 11.4114 25.3092C11.476 25.3092 11.6051 25.3738 11.6051 25.4383C11.7341 25.5674 11.8632 25.8902 11.9278 26.0838C12.1214 26.6002 12.1214 27.2457 12.1214 27.8266ZM21.2227 21.7591C21.1581 20.8555 20.9645 20.0163 20.5772 19.2418C20.1254 18.3381 19.3508 17.8217 18.6408 17.2408C17.9307 16.7244 17.3498 16.0144 17.0271 15.1753C16.8334 14.7234 16.5752 14.0134 15.9943 14.0134C15.7361 14.0134 15.4779 14.207 15.3488 14.4007C15.2197 14.5943 15.2197 14.8525 15.0906 15.0462C14.9615 15.3044 14.7033 15.4334 14.5097 15.6271C14.0579 15.8853 13.6706 15.9498 13.1542 15.8853C12.7024 15.8207 12.186 15.8207 11.7987 16.0789C11.2178 16.4662 10.895 17.1762 10.7014 17.8217C10.3786 18.8545 10.2496 19.9518 10.185 21.0491C10.1205 22.0173 10.5077 23.0501 10.2496 24.0183C10.185 24.0183 10.185 24.0183 10.1205 24.0183C9.79772 23.9537 9.60407 24.341 9.79772 24.5347C9.53953 24.5992 9.28134 24.7283 9.08769 24.922C8.9586 24.7929 8.8295 24.5992 8.70041 24.4701C8.57131 24.341 8.44222 24.2765 8.31312 24.2119C8.37767 24.1474 8.44222 24.0828 8.44222 23.9537C8.44222 23.3728 8.57131 22.7919 8.50676 22.211C8.44222 21.63 8.37767 21.0491 8.44222 20.4682C8.44222 19.9518 8.50676 19.3709 8.50676 18.8545C8.50676 18.4026 8.31312 17.8217 8.63586 17.4344C8.89405 17.1117 9.28134 16.8535 9.60407 16.5953C9.99136 16.2726 10.3141 15.9498 10.7014 15.6271C11.476 14.9816 12.3151 14.4007 12.896 13.6261C13.1542 13.2388 13.3478 12.8515 13.606 12.4643C13.9933 11.9479 14.4452 11.9479 15.0261 11.8833C16.0588 11.8188 17.1562 11.7542 18.1889 11.9479C18.5762 12.0124 18.9635 12.1415 19.2862 12.3997C19.6735 12.7224 19.8672 13.3034 20.0608 13.7552C20.1899 14.207 20.319 14.7234 20.3835 15.1753C20.4481 15.6271 20.6417 16.0144 20.8999 16.4017C21.2227 16.7889 21.5454 17.1117 21.8036 17.5635C22.1263 18.0799 22.1909 18.5963 22.2554 19.2418C22.32 19.8227 22.4491 20.3391 22.7073 20.8555C22.8364 21.2427 22.9654 21.63 23.0945 22.0173C23.03 22.0173 22.9655 22.0819 22.9009 22.0819C22.8364 22.0819 22.8364 22.0819 22.7718 22.0819C22.5136 22.0819 22.32 22.211 22.1909 22.4046C21.9972 22.5982 21.8681 22.7273 21.6745 22.921C21.5454 23.0501 21.4163 23.2437 21.3518 23.3728C21.3518 22.8564 21.2872 22.2755 21.2227 21.7591ZM23.6755 24.5347C23.4173 24.8574 22.9009 25.0511 22.4491 25.0511C22.1909 25.0511 21.9972 25.0511 21.739 24.8574C21.6745 24.7929 21.5454 24.7283 21.4809 24.5992C21.4163 24.5347 21.4163 24.4701 21.4809 24.341C21.5454 24.2765 21.5454 24.2119 21.5454 24.1474C21.8681 23.631 22.1909 23.1792 22.6427 22.7273C22.7073 22.6628 22.7073 22.6628 22.7718 22.5982H22.9009C22.9655 22.5982 23.03 22.6628 23.0945 22.6628C23.2882 22.7919 23.4818 22.921 23.5464 23.1146C23.6755 23.3083 23.74 23.5665 23.74 23.8246C23.8046 24.2119 23.74 24.341 23.6755 24.5347ZM27.4838 24.341C27.0965 24.9865 26.8383 25.9547 26.0637 26.2775C25.4183 26.5357 23.8691 26.2129 23.9337 25.2447C23.9337 25.1802 23.9337 25.1802 23.9337 25.1156C24.321 24.7929 24.45 24.4056 24.45 23.9537C25.3537 23.9537 26.3219 23.7601 26.451 22.7273C26.451 22.4691 26.3865 21.8237 26.7092 21.7591C27.032 21.6946 27.5483 21.8237 27.8065 22.0173C28.5166 22.5982 27.8065 23.7601 27.4838 24.341ZM27.5483 20.9845C27.3547 20.92 27.2256 20.9845 27.1611 21.1136C26.8383 21.0491 26.5801 21.1136 26.3219 21.2427C25.741 21.5655 25.9992 22.2755 25.8701 22.7919C25.6765 23.3728 24.9664 23.3728 24.5146 23.3083C24.45 23.3083 24.45 23.3083 24.45 23.3083C24.321 22.9855 24.1273 22.6628 23.8691 22.4691C23.8691 22.4691 23.8691 22.4691 23.8046 22.4691C23.9337 22.4046 23.9337 22.211 23.8691 22.0173C23.6109 21.5655 23.5464 20.9845 23.3527 20.4682C23.0945 19.8872 23.03 19.3063 22.9655 18.7254C22.9009 18.209 22.8364 17.7572 22.5782 17.3053C22.32 16.918 21.9972 16.5308 21.739 16.208C21.3518 15.7562 21.1581 15.3689 21.0936 14.788C21.029 14.2716 20.8999 13.7552 20.7063 13.2388C20.3835 12.3352 19.9317 11.6251 18.9635 11.3669C17.9953 11.0442 16.8334 11.1087 15.8007 11.1733C15.2843 11.1733 14.6388 11.1733 14.1224 11.3024C13.6706 11.4315 13.3478 11.7542 13.0897 12.2061C12.7669 12.6579 12.5733 13.1097 12.186 13.5616C11.7987 13.9488 11.4114 14.3361 10.9596 14.6589C10.5077 14.9816 10.1205 15.3689 9.66862 15.7562C9.34588 16.0789 8.89405 16.3371 8.57131 16.6599C8.18403 16.9826 7.86129 17.3699 7.86129 17.9508C7.86129 18.5963 7.92583 19.1772 7.86129 19.8227C7.86129 20.5327 7.79674 21.1782 7.92583 21.8237C7.99038 22.1464 8.05493 22.5337 7.99038 22.8564C7.99038 23.2437 7.86129 23.5665 7.86129 23.9537C7.86129 24.0183 7.86129 24.0183 7.86129 24.0183C7.79674 24.0183 7.79674 24.0183 7.73219 24.0183C7.79674 23.5665 7.73219 23.1792 7.53855 22.7273C7.40945 22.4046 7.21581 22.1464 6.95762 22.0173C6.69943 21.8882 6.44124 21.8882 6.18305 21.8237C5.9894 21.7591 5.86031 21.8882 5.79576 22.0173C5.27938 22.4046 4.95664 22.8564 4.56935 23.3083C4.18207 23.8247 3.79478 24.2765 3.40749 24.8574C3.2784 25.0511 3.1493 25.3092 3.02021 25.5029C2.56837 25.3738 1.98744 25.2447 1.60016 24.922C1.34197 24.6638 1.72925 24.2119 1.85835 23.9537C2.05199 23.5665 2.24564 23.1146 2.43928 22.6628C2.76202 21.8237 3.08476 20.8555 3.79478 20.21C3.98842 20.0163 4.24661 19.8227 4.31116 19.5C4.37571 19.1127 4.11752 18.7899 3.92388 18.4672C3.66568 17.8217 3.34295 16.8535 3.92388 16.4017C4.18207 16.208 4.50481 16.0144 4.82754 15.8207C5.21483 15.5625 5.53757 15.3043 5.86031 14.9816C6.37669 14.5298 7.15126 14.0134 7.40945 13.3679C7.53855 13.0452 7.53855 12.7224 7.40945 12.4643C7.28036 12.077 7.02217 11.7542 6.95762 11.4315C6.89307 10.6569 7.79674 10.2051 8.37767 9.88234C8.44222 9.88234 8.44222 9.81779 8.50676 9.81779C8.57131 9.81779 8.57131 9.81779 8.63586 9.81779C9.08769 9.62415 9.53953 9.30141 9.99136 9.17232C10.5723 8.97867 11.1532 8.97867 11.7987 8.97867C12.3796 8.97867 12.9606 8.97867 13.5415 8.97867C14.1224 8.97867 14.6388 8.78503 15.2197 8.84958C15.607 8.91413 15.607 8.26865 15.2197 8.2041C14.6388 8.13955 14.0579 8.3332 13.4769 8.3332C12.8315 8.3332 12.186 8.3332 11.5405 8.3332C11.0887 8.3332 10.7014 8.3332 10.2496 8.46229C10.6368 8.01046 10.9596 7.42953 11.0241 6.78405C11.2178 5.81584 10.6368 4.97672 11.2823 4.33124C11.5405 4.07305 11.8632 3.8794 12.186 3.68576C12.5733 3.49212 12.896 3.23393 13.2833 3.10483C14.0579 2.78209 14.9615 2.58845 15.8007 2.653C17.4789 2.78209 19.4799 3.75031 20.319 5.23491C20.319 5.23491 20.319 5.29945 20.3835 5.29945C19.9317 5.29945 19.5444 5.364 19.0926 5.364C18.6408 5.42855 18.2535 5.364 17.8016 5.23491C17.4143 5.10581 16.9625 4.91217 16.5752 4.84762C16.1879 4.78307 15.9943 5.364 16.3816 5.4931C17.2207 5.68674 17.9953 6.07403 18.8989 6.07403C19.6735 6.00948 20.4481 5.88038 21.2227 6.00948C21.5454 6.13857 21.8681 6.20312 22.1909 6.20312C23.03 6.33222 23.8046 6.39677 24.45 7.10679C24.7082 7.42953 24.9019 7.75227 24.9664 8.13955C25.031 8.52684 25.031 8.91413 25.2246 9.23687C25.3537 9.36596 25.4828 9.49506 25.6119 9.5596C25.8056 9.75325 25.8701 9.94689 25.9992 10.1405C26.0637 10.2051 26.0637 10.2696 26.1283 10.3987C25.9992 10.3342 25.8701 10.2696 25.6765 10.2051C25.3537 10.1405 24.9664 10.1405 24.5791 10.2051C24.0628 9.49506 23.4173 8.91413 22.7073 8.46229C21.9327 8.01046 20.9645 7.81682 20.1899 7.36498C19.8026 7.17134 19.4799 7.68772 19.8672 7.94591C20.6417 8.39774 21.4809 8.59139 22.2554 8.97867C22.9009 9.30141 23.4173 9.75325 23.8691 10.3342C23.6109 10.3342 23.2882 10.3987 23.03 10.3987C22.6427 10.3987 22.1909 10.3342 21.8681 10.076C21.5454 9.81779 21.0936 10.2696 21.4163 10.5278C22.0618 11.1733 23.1591 11.0442 23.9982 10.9797C24.3855 10.9151 24.8373 10.8506 25.2246 10.8506C25.6765 10.8506 25.9992 11.0442 26.1928 11.4315C26.1928 11.496 26.2574 11.496 26.2574 11.5606V11.6251C26.2574 11.7542 26.2574 11.8833 26.3865 12.0124C27.032 12.3997 27.5483 12.9806 28.1938 13.4325C28.7102 13.8198 29.4848 14.0779 29.6139 14.788C29.6784 15.1107 29.6784 15.4334 29.743 15.7562C29.8075 16.0789 29.8075 16.4017 29.8721 16.7244C29.9366 17.4344 29.8721 18.1444 29.4202 18.7254C29.3557 18.8545 29.3557 18.919 29.4202 18.9836C29.162 19.2418 29.0329 19.629 28.9038 19.9518C28.7102 20.2745 28.452 20.5973 28.1938 20.92C27.9356 21.1136 27.8711 21.1136 27.5483 20.9845ZM32.1958 23.7601C32.0667 24.1474 31.9376 24.4701 31.6148 24.7283C31.2921 24.9865 30.9048 24.922 30.5175 24.8574C29.8721 24.6638 28.9684 24.2765 28.2584 24.4056C28.5811 23.7601 28.9038 23.1146 28.7747 22.4046C28.7102 22.0819 28.5811 21.8237 28.3875 21.63C28.452 21.5655 28.5166 21.5655 28.5811 21.5009C28.9684 21.1136 29.3557 20.5973 29.6139 20.0809C29.6784 19.8872 29.8075 19.6936 29.9366 19.5C30.0657 19.3063 30.1948 19.3709 30.3884 19.5C30.5821 19.6936 30.7112 19.8872 30.8403 20.1454C31.0339 20.4682 31.163 20.7264 31.3567 21.0491C31.6794 21.5009 32.1312 22.0173 32.2603 22.5982C32.3249 22.9855 32.2603 23.3728 32.1958 23.7601Z" stroke="#1F2224" stroke-width="0.4" mask="url(#path-3-outside-1_2186_23218)"/>
<path d="M25.6794 13.1306C25.4213 13.5825 25.1631 14.0988 25.1631 14.6152C25.1631 14.7443 25.1631 14.8734 25.1631 15.0671C25.1631 15.0671 25.1631 15.0671 25.0985 15.0671C25.034 15.0671 25.034 15.0025 24.9694 15.0025C25.034 15.0671 24.9694 15.0025 24.9694 15.0025L24.9049 14.938C24.8403 14.8734 24.7112 14.8089 24.6467 14.6798C24.453 14.4861 24.2594 14.357 24.0658 14.1634C24.0012 14.0988 23.9367 13.9697 23.8076 13.9052C23.8076 13.9052 23.8076 13.8406 23.743 13.8406C23.743 13.7761 23.6785 13.7761 23.6785 13.7116C23.6785 13.7116 23.6785 13.647 23.6139 13.647V13.5825C23.6785 13.4534 23.6785 13.3243 23.6139 13.1952C23.4848 13.0661 23.2912 13.0661 23.1621 13.1952C22.7748 13.647 23.1621 14.1634 23.4848 14.5507C23.8076 14.938 24.2594 15.3252 24.7112 15.648C24.8403 15.7771 25.034 15.9062 25.1631 15.9707C25.2276 16.0353 25.2922 16.0353 25.3567 16.0353C25.4213 16.2289 25.4213 16.358 25.4858 16.5517C25.6149 17.1326 25.6149 17.7135 25.2922 18.2299C25.034 18.7463 24.7112 19.1981 24.7112 19.779C24.7112 20.1663 25.3567 20.1663 25.3567 19.779C25.3567 19.1981 25.8085 18.8108 26.0022 18.2944C26.1958 17.8426 26.2604 17.2617 26.1958 16.7453C26.1313 16.2289 25.9376 15.7125 25.8085 15.1316C25.744 14.5507 25.9376 14.0343 26.2604 13.5825C26.454 13.1306 25.9376 12.8079 25.6794 13.1306Z" fill="#1F2224"/>
</svg>
