<svg width="1440" height="380" viewBox="0 0 1440 380" fill="none" xmlns="http://www.w3.org/2000/svg">
<rect x="325" y="177" width="29" height="11" rx="5.5" fill="url(#paint0_linear_2085_23530)"/>
<rect x="253" y="174" width="26" height="11" rx="5.5" fill="url(#paint1_linear_2085_23530)"/>
<rect x="230" y="266" width="21" height="11" rx="5.5" fill="url(#paint2_linear_2085_23530)"/>
<rect x="282.512" y="268.772" width="21" height="11" rx="5.5" transform="rotate(13.0416 282.512 268.772)" fill="url(#paint3_linear_2085_23530)"/>
<rect x="267" y="185" width="11" height="27" fill="url(#paint4_linear_2085_23530)"/>
<rect x="336" y="190" width="11" height="31" fill="url(#paint5_linear_2085_23530)"/>
<rect x="287.592" y="242.642" width="9.24075" height="26.0358" transform="rotate(3.25794 287.592 242.642)" fill="url(#paint6_linear_2085_23530)"/>
<rect x="239.996" y="238.473" width="9" height="26" transform="rotate(8.60659 239.996 238.473)" fill="url(#paint7_linear_2085_23530)"/>
<circle cx="266" cy="32" r="7" fill="url(#paint8_linear_2085_23530)"/>
<circle cx="82" cy="327" r="7" fill="url(#paint9_linear_2085_23530)"/>
<ellipse cx="1022" cy="19" rx="9" ry="8" fill="url(#paint10_linear_2085_23530)"/>
<circle cx="1356" cy="147" r="7" fill="url(#paint11_linear_2085_23530)"/>
<ellipse cx="1102" cy="177.5" rx="8" ry="5.5" fill="url(#paint12_linear_2085_23530)"/>
<ellipse cx="1126" cy="183.5" rx="8" ry="5.5" fill="url(#paint13_linear_2085_23530)"/>
<ellipse cx="1156" cy="189.5" rx="8" ry="5.5" fill="url(#paint14_linear_2085_23530)"/>
<ellipse cx="1182" cy="195.5" rx="8" ry="5.5" fill="url(#paint15_linear_2085_23530)"/>
<ellipse cx="1207" cy="200.5" rx="8" ry="5.5" fill="url(#paint16_linear_2085_23530)"/>
<path d="M1219.5 214.5L1080 186L1073 200L1216.5 230.5L1219.5 214.5Z" fill="url(#paint17_linear_2085_23530)"/>
<path d="M243.5 197L207 250L278.5 239L306.5 257.5L359.5 229L318.5 227L316 212.5L259.5 218L243.5 197Z" fill="url(#paint18_linear_2085_23530)"/>
<ellipse cx="700" cy="120.5" rx="71" ry="51.5" fill="url(#paint19_linear_2085_23530)"/>
<path fill-rule="evenodd" clip-rule="evenodd" d="M1031.56 14.2801C1031.42 14.0144 1031.21 13.7884 1030.96 13.6225C1030.71 13.4566 1030.42 13.3561 1030.12 13.3301C1030.2 12.8783 1030.09 12.4148 1029.83 12.0404C1029.56 11.6659 1029.16 11.4107 1028.71 11.3301C1024.19 10.3301 1019.31 9.27011 1014.78 10.8801C1010.78 12.3101 1007.53 15.7101 1007.38 20.1501C1007.23 24.5901 1010.83 27.9401 1014.9 28.8601C1019.32 29.8327 1023.94 29.0127 1027.76 26.5801C1031.71 23.8101 1033.75 18.7701 1031.56 14.2801ZM1026.01 22.9001C1023.38 24.7202 1020.18 25.5169 1017.01 25.1401C1014.52 24.9001 1011.46 23.3901 1011.36 20.5401C1011.26 17.6901 1013.36 15.5401 1015.82 14.7001C1019.68 13.3201 1023.82 14.2701 1027.63 15.1501H1027.84C1027.83 15.5372 1027.91 15.9212 1028.08 16.2701C1029.23 18.6101 1027.89 21.4301 1026.01 22.9001ZM826.621 160.47L840.371 166.84C840.601 166.97 840.803 167.144 840.965 167.352C841.127 167.561 841.247 167.799 841.317 168.054C841.386 168.309 841.405 168.575 841.371 168.837C841.338 169.099 841.252 169.351 841.121 169.58C840.844 170.03 840.405 170.355 839.895 170.49C839.385 170.624 838.842 170.556 838.381 170.3L819.921 161.75L819.211 161.88C818.197 165.071 817.362 168.316 816.711 171.6C816.211 174.12 812.331 173.16 812.851 170.53C813.371 167.9 814.021 165.29 814.781 162.72L798.891 165.72C796.371 166.19 795.301 162.33 797.821 161.86L813.691 158.86L801.431 153.18C801.204 153.047 801.006 152.87 800.847 152.661C800.689 152.451 800.573 152.212 800.508 151.957C800.442 151.703 800.427 151.438 800.463 151.177C800.5 150.917 800.587 150.667 800.721 150.44C800.99 149.985 801.428 149.655 801.939 149.522C802.451 149.389 802.994 149.464 803.451 149.73L816.971 155.98C818.132 152.916 819.447 149.912 820.911 146.98C822.061 144.65 825.511 146.68 824.361 148.98C822.976 151.765 821.741 154.623 820.661 157.54L835.071 154.82C837.591 154.34 838.661 158.2 836.141 158.68L826.621 160.47ZM1220.6 209.68C1220.48 209.433 1220.3 209.22 1220.08 209.059C1219.86 208.899 1219.6 208.796 1219.33 208.76L1213.02 207.55C1213.43 207.406 1213.82 207.218 1214.19 206.99C1214.99 206.484 1215.66 205.8 1216.15 204.992C1216.65 204.184 1216.95 203.273 1217.03 202.33C1217.51 198.23 1214.64 195.33 1211.69 192.98C1211.42 192.76 1211.14 192.54 1210.87 192.34C1210.55 192.135 1210.18 192.033 1209.8 192.047C1209.42 192.061 1209.06 192.191 1208.76 192.42C1205.35 192.087 1201.91 192.699 1198.83 194.19C1197.92 194.625 1197.14 195.292 1196.57 196.124C1196 196.956 1195.66 197.924 1195.58 198.93C1195.56 199.929 1195.76 200.92 1196.16 201.834C1196.57 202.748 1197.17 203.562 1197.92 204.22C1198.1 204.389 1198.3 204.544 1198.49 204.696L1198.49 204.697L1198.6 204.78C1195.03 204.113 1191.47 203.413 1187.9 202.68C1188.92 202.274 1189.84 201.641 1190.58 200.83C1191.31 200.074 1191.84 199.153 1192.13 198.146C1192.42 197.14 1192.47 196.077 1192.26 195.05C1191.68 193.044 1190.48 191.273 1188.84 189.99C1188.71 189.614 1188.47 189.288 1188.15 189.06C1187.82 188.831 1187.44 188.712 1187.04 188.72L1180.7 188.62C1178.54 188.456 1176.36 188.533 1174.22 188.85C1170.43 189.67 1167.75 193.67 1170.01 197.27C1170.55 198.117 1171.22 198.868 1172.01 199.49C1171.57 199.403 1171.14 199.317 1170.71 199.23L1169.83 199.056C1168 198.696 1166.18 198.336 1164.36 197.95L1159.91 197.03C1160.56 196.782 1161.17 196.427 1161.7 195.98C1162.36 195.381 1162.88 194.653 1163.24 193.84C1163.6 193.027 1163.79 192.149 1163.79 191.26C1163.91 186.67 1159.79 183.79 1156.29 181.75C1156.02 181.603 1155.72 181.52 1155.42 181.506C1155.11 181.493 1154.81 181.55 1154.53 181.673C1154.25 181.795 1154 181.98 1153.8 182.214C1153.6 182.448 1153.46 182.723 1153.39 183.02C1150.9 182.893 1148.42 183.366 1146.15 184.4C1145.37 184.754 1144.69 185.289 1144.15 185.961C1143.62 186.632 1143.26 187.42 1143.09 188.26C1142.97 189.257 1143.11 190.268 1143.51 191.191C1143.9 192.114 1144.54 192.914 1145.35 193.51C1145.67 193.757 1146 193.984 1146.35 194.19C1140.25 192.903 1134.15 191.6 1128.06 190.28C1129.62 190.174 1131.13 189.645 1132.42 188.75C1133.21 188.181 1133.84 187.409 1134.23 186.515C1134.62 185.622 1134.77 184.639 1134.65 183.67C1134.34 181.75 1133.42 179.978 1132.04 178.61C1131.95 178.302 1131.78 178.024 1131.55 177.806C1131.32 177.587 1131.03 177.436 1130.72 177.37C1127.27 176.731 1123.72 176.789 1120.29 177.54C1117.06 178.36 1114.2 181.34 1115.29 184.87C1115.7 186.121 1116.48 187.215 1117.54 188C1116.47 187.766 1115.41 187.537 1114.34 187.308L1114.34 187.308C1112.81 186.979 1111.29 186.652 1109.76 186.31L1105.45 185.31C1107.76 184.76 1109.75 183.52 1110.45 180.88C1111.71 176.37 1108.38 172.64 1104.76 170.53C1104.4 170.306 1103.98 170.21 1103.57 170.257C1103.15 170.304 1102.76 170.492 1102.47 170.79C1101.38 170.566 1100.28 170.422 1099.18 170.36C1097.11 170.13 1095.02 170.408 1093.08 171.17C1089.46 172.8 1088.56 177.4 1090.39 180.7C1090.69 181.225 1091.05 181.718 1091.45 182.17C1088.94 181.566 1086.44 181.003 1083.94 180.44C1082.29 180.07 1080.65 179.7 1079.01 179.32C1078.5 179.196 1077.95 179.28 1077.5 179.553C1077.05 179.827 1076.73 180.268 1076.6 180.78C1076.21 180.842 1075.86 181.04 1075.6 181.34C1072.32 185.173 1069.77 189.58 1068.09 194.34C1067.99 194.646 1067.99 194.974 1068.09 195.28C1068.05 195.718 1068.17 196.156 1068.43 196.51C1068.69 196.865 1069.07 197.111 1069.5 197.2C1087.99 201.833 1106.54 206.22 1125.15 210.36C1143.76 214.5 1162.5 218.406 1181.37 222.08C1191.94 224.126 1202.52 226.1 1213.11 228C1213.6 228.121 1214.13 228.054 1214.58 227.812C1215.02 227.57 1215.37 227.17 1215.54 226.69C1215.74 226.858 1215.98 226.981 1216.23 227.05C1216.48 227.12 1216.75 227.139 1217.01 227.106C1217.27 227.074 1217.52 226.99 1217.75 226.86C1217.98 226.73 1218.18 226.556 1218.34 226.348C1218.5 226.141 1218.62 225.903 1218.69 225.65C1220.19 221.003 1221.13 216.191 1221.48 211.32C1221.49 210.993 1221.41 210.669 1221.26 210.381C1221.11 210.093 1220.88 209.851 1220.6 209.68ZM1200.6 197.68C1203.13 196.23 1206.81 195.99 1209.73 196.42C1210.45 196.996 1211.12 197.632 1211.73 198.32C1212.12 198.757 1212.46 199.244 1212.73 199.77C1212.81 199.918 1212.86 200.076 1212.9 200.24C1212.95 200.383 1212.99 200.53 1213.02 200.68C1213.02 200.68 1213.02 200.93 1213.08 200.98C1213.09 201.226 1213.09 201.473 1213.08 201.72V202.02C1213.08 202.073 1213.08 202.127 1213.08 202.18C1213.01 202.551 1212.84 202.897 1212.59 203.18C1211.7 203.838 1210.6 204.157 1209.49 204.08C1206.74 204.2 1204.03 203.474 1201.71 202C1200.73 201.492 1199.99 200.624 1199.65 199.58C1199.57 199.21 1199.62 198.824 1199.79 198.487C1199.96 198.15 1200.24 197.883 1200.59 197.73L1200.6 197.68ZM1176.12 192.52C1178.64 192.363 1181.21 192.453 1183.76 192.542L1183.76 192.542C1184.11 192.554 1184.46 192.567 1184.81 192.578C1185.15 192.59 1185.49 192.6 1185.83 192.61C1187.24 193.83 1189.32 195.78 1187.91 197.71C1186.36 199.83 1183.19 199.5 1180.91 199.01C1178.47 198.47 1175.52 197.52 1173.77 195.64C1172.02 193.76 1174.28 192.69 1176.11 192.57L1176.12 192.52ZM1147.29 188.331C1147.36 188.258 1147.43 188.188 1147.46 188.17C1147.57 188.089 1147.69 188.019 1147.81 187.952C1147.85 187.928 1147.89 187.904 1147.93 187.88C1148.42 187.641 1148.94 187.463 1149.47 187.35C1150.17 187.19 1150.89 187.08 1151.61 187.02C1153.28 186.888 1154.96 186.979 1156.61 187.29C1156.92 187.36 1157.24 187.36 1157.55 187.29C1158.46 187.989 1159.16 188.937 1159.55 190.02C1159.7 190.428 1159.76 190.866 1159.72 191.301C1159.68 191.736 1159.55 192.156 1159.32 192.53C1159.04 192.867 1158.68 193.126 1158.27 193.282C1157.86 193.438 1157.41 193.485 1156.98 193.42C1154.32 193.264 1151.73 192.541 1149.38 191.3L1149.32 191.268C1148.4 190.804 1147.25 190.226 1146.97 189.19C1146.95 189.085 1146.95 188.977 1146.98 188.873C1147 188.769 1147.05 188.672 1147.12 188.59V188.52C1147.12 188.52 1147.21 188.423 1147.29 188.331ZM1119.34 182.42C1119.93 181.779 1120.72 181.359 1121.58 181.23C1124.01 180.752 1126.5 180.685 1128.95 181.03C1128.95 181.064 1128.97 181.098 1129 181.131C1129.01 181.15 1129.03 181.169 1129.05 181.187L1129.07 181.209L1129.08 181.222C1129.09 181.228 1129.09 181.234 1129.1 181.24C1129.78 181.895 1130.29 182.7 1130.6 183.59C1130.69 183.95 1130.69 184.329 1130.6 184.69C1130.56 184.842 1130.48 184.984 1130.39 185.11C1130.39 185.11 1130.31 185.188 1130.24 185.257C1130.2 185.305 1130.15 185.349 1130.14 185.36C1129.9 185.535 1129.63 185.683 1129.35 185.8C1128.9 185.948 1128.43 186.062 1127.96 186.14H1127.44L1126.56 186.19C1125.87 186.207 1125.18 186.183 1124.5 186.12C1122.69 185.96 1120.19 185.51 1119.3 183.93C1119.13 183.666 1119.04 183.354 1119.06 183.04C1119.12 182.842 1119.22 182.656 1119.34 182.49V182.42ZM1094.94 174.67C1096.33 174.223 1097.8 174.096 1099.25 174.3C1101.06 174.429 1102.84 174.809 1104.55 175.43C1104.71 175.485 1104.87 175.513 1105.04 175.51C1105.33 175.768 1105.6 176.053 1105.84 176.36C1106.09 176.713 1106.31 177.087 1106.5 177.48C1106.72 177.979 1106.81 178.526 1106.77 179.07C1106.74 179.458 1106.65 179.839 1106.5 180.2C1106.42 180.383 1106.31 180.547 1106.16 180.68C1105.96 180.885 1105.72 181.048 1105.46 181.16C1104.25 181.569 1102.97 181.736 1101.7 181.65C1099.02 181.7 1096.12 181.35 1094.36 179.28C1093.14 177.93 1093.08 175.55 1094.94 174.74V174.67ZM1214.88 224.4C1214.68 224.232 1214.44 224.121 1214.18 224.08C1195.42 220.746 1176.71 217.136 1158.04 213.25C1139.37 209.363 1120.68 205.28 1101.96 201C1092.15 198.7 1082.36 196.33 1072.58 193.89C1073.19 192.395 1073.91 190.945 1074.72 189.55C1075.8 187.663 1077.06 185.879 1078.47 184.22C1078.67 183.991 1078.81 183.726 1078.91 183.44C1096.81 187.573 1114.74 191.573 1132.71 195.44C1150.89 199.34 1169.1 203.093 1187.35 206.7C1197.35 208.7 1207.35 210.636 1217.35 212.51C1216.96 216.574 1216.13 220.584 1214.88 224.47V224.4ZM437.451 344.58C437.352 344.228 437.169 343.905 436.918 343.638C436.667 343.372 436.356 343.17 436.011 343.05C436.103 342.701 436.106 342.335 436.019 341.985C435.931 341.636 435.756 341.314 435.511 341.05C435.325 340.864 435.104 340.716 434.861 340.616C434.619 340.515 434.358 340.463 434.096 340.463C433.833 340.463 433.572 340.515 433.33 340.616C433.087 340.716 432.866 340.864 432.681 341.05C430.191 343.1 427.751 345.22 425.331 347.37C423.791 344.97 422.331 342.51 420.971 339.99C420.823 339.715 420.609 339.48 420.349 339.307C420.089 339.135 419.79 339.029 419.478 339.001C419.167 338.972 418.854 339.021 418.566 339.143C418.279 339.265 418.026 339.456 417.831 339.7C417.596 339.458 417.299 339.285 416.973 339.199C416.648 339.112 416.304 339.116 415.981 339.21C415.458 339.374 415.018 339.732 414.751 340.21C414.364 340.01 413.925 339.937 413.495 340.002C413.065 340.067 412.667 340.267 412.357 340.572C412.048 340.877 411.842 341.273 411.771 341.702C411.7 342.13 411.766 342.571 411.961 342.96C413.908 346.628 416.075 350.174 418.451 353.58C415.451 356.41 412.451 359.3 409.611 362.27C409.324 362.546 409.134 362.908 409.069 363.3C409.004 363.693 409.068 364.096 409.251 364.45C407.961 365.62 408.911 367.29 410.251 367.66C410.294 367.966 410.416 368.256 410.604 368.501C410.792 368.747 411.041 368.94 411.325 369.061C411.609 369.183 411.92 369.229 412.228 369.196C412.535 369.162 412.829 369.05 413.081 368.87C416.791 366.29 420.421 363.58 423.991 360.8C426.191 363.41 428.511 365.93 430.991 368.31C431.254 368.568 431.583 368.749 431.942 368.832C432.302 368.915 432.677 368.897 433.027 368.78C433.377 368.664 433.687 368.452 433.924 368.17C434.161 367.887 434.316 367.545 434.371 367.18C434.611 367.179 434.849 367.129 435.071 367.035C435.292 366.94 435.493 366.803 435.661 366.63C436.008 366.268 436.211 365.791 436.231 365.29C436.505 365.147 436.743 364.942 436.925 364.692C437.108 364.442 437.229 364.152 437.281 363.847C437.332 363.542 437.312 363.228 437.222 362.932C437.131 362.636 436.973 362.365 436.761 362.14C434.714 359.92 432.767 357.623 430.921 355.25C433.821 352.84 436.701 350.4 439.501 347.86C441.131 346.34 439.181 344 437.451 344.58ZM763.889 92.64C767.831 97.4115 770.663 103 772.179 109C773.658 115.43 773.294 122.147 771.129 128.38C766.619 141.6 755.869 151.23 744.449 158.6C732.946 166.152 719.976 171.186 706.389 173.37C693.642 175.401 680.587 174.162 668.449 169.77C656.743 165.56 646.457 158.141 638.769 148.36C630.497 137.552 626.225 124.212 626.679 110.61C626.875 104.379 628.42 98.2651 631.209 92.69C634.104 87.1455 638.571 82.5782 644.049 79.56C649.689 76.42 656.039 74.76 662.359 73.69C669.597 72.4844 676.906 71.7562 684.239 71.51C695.397 71.1318 706.565 71.8284 717.589 73.59C717.589 73.0596 717.8 72.5509 718.175 72.1758C718.55 71.8007 719.059 71.59 719.589 71.59C722.899 72.02 726.189 72.55 729.449 73.27C742.449 76.15 755.379 82 763.889 92.64ZM728.849 79.84C725.436 79.04 721.996 78.3433 718.529 77.75C714.449 77.07 710.449 76.55 706.299 76.2C709.161 81.1815 711.073 86.6508 711.939 92.33C712.529 95.72 712.979 99.13 713.329 102.56C728.406 101.094 743.191 97.4461 757.219 91.73C757.33 91.6802 757.448 91.6497 757.569 91.64C756.749 90.83 755.919 90.05 755.049 89.31C748.269 83.58 739.959 80.03 731.339 77.84C731.349 78.1495 731.286 78.4569 731.157 78.7381C731.027 79.0193 730.834 79.2666 730.593 79.4605C730.351 79.6544 730.068 79.7896 729.766 79.8554C729.463 79.9213 729.149 79.916 728.849 79.84ZM710.659 130.51C701.876 129.658 693.036 129.581 684.239 130.28C680.199 130.61 676.179 131.12 672.189 131.8C672.246 138.685 673.452 145.513 675.759 152C686.804 149.483 698.129 148.411 709.449 148.81C710.29 143.418 710.695 137.967 710.659 132.51V130.51ZM677.319 106C674.358 112.891 672.638 120.251 672.239 127.74H672.259C684.956 125.707 697.859 125.294 710.659 126.51C710.613 121.403 710.409 116.31 710.049 111.23C709.949 109.77 709.839 108.32 709.719 106.86C700.53 107.533 691.3 107.426 682.129 106.54C680.529 106.39 678.919 106.2 677.319 106ZM709.349 102.85C708.969 99.05 708.469 95.26 707.719 91.52H707.739C706.867 86.4091 704.991 81.5216 702.219 77.14C696.281 80.8174 690.981 85.438 686.529 90.82C683.634 94.3184 681.132 98.1246 679.069 102.17C689.119 103.346 699.257 103.574 709.349 102.85ZM655.979 79.15C650.339 80.68 644.779 83.06 640.449 87.06C639.138 88.2866 637.955 89.6436 636.919 91.11C645.008 94.5096 653.371 97.2128 661.919 99.19C666.199 100.19 670.549 100.99 674.919 101.62C680.036 91.1526 687.76 82.1781 697.349 75.56C690.046 75.2581 682.732 75.4217 675.449 76.05C668.881 76.5107 662.366 77.548 655.979 79.15ZM673.239 105.4C660.027 103.389 647.117 99.7372 634.809 94.53H634.789C630.909 101.92 630.049 110.9 631.099 119.05C631.979 126.237 634.27 133.18 637.839 139.48C637.714 138.969 637.79 138.429 638.05 137.971C638.31 137.514 638.736 137.174 639.239 137.02C647.319 133.661 655.687 131.041 664.239 129.19C665.539 128.9 666.889 128.65 668.239 128.4C668.562 120.502 670.253 112.719 673.239 105.4ZM647.369 152C650.022 154.593 652.907 156.936 655.989 159C656.114 158.705 656.3 158.439 656.534 158.221C656.769 158.002 657.046 157.835 657.349 157.73C662.092 155.86 666.945 154.281 671.879 153C671.83 152.862 671.78 152.725 671.73 152.589L671.699 152.506C671.637 152.337 671.575 152.168 671.519 152C669.427 145.694 668.314 139.104 668.219 132.46C658.625 134.313 649.244 137.134 640.219 140.88C639.86 140.987 639.477 140.983 639.12 140.869C638.763 140.755 638.449 140.536 638.219 140.24C640.727 144.554 643.804 148.509 647.369 152ZM659.449 161.15C665.003 164.351 670.978 166.758 677.199 168.3C678.946 168.733 680.713 169.093 682.499 169.38C678.576 165.865 675.47 161.534 673.399 156.69C668.666 157.901 664.008 159.39 659.449 161.15ZM697.699 170.23C697.861 169.727 698.18 169.289 698.609 168.98V169C703.819 165.07 706.969 159 708.619 152.79C708.615 152.774 708.615 152.756 708.619 152.74C698.102 152.446 687.589 153.454 677.319 155.74C679.465 160.725 682.951 165.017 687.389 168.14C687.706 168.346 687.957 168.638 688.115 168.981C688.272 169.325 688.329 169.706 688.279 170.08C691.413 170.33 694.559 170.38 697.699 170.23ZM703.749 169.7C707.118 169.277 710.457 168.65 713.749 167.82C722.581 165.548 731.046 162.033 738.889 157.38C733.187 155.759 727.375 154.552 721.499 153.77C718.539 153.38 715.599 153.11 712.599 152.93C711.049 159.2 708.379 165.07 703.749 169.7ZM748.859 150.68C758.789 143.15 767.899 132.53 769.009 119.6C769.829 110.05 765.929 101 759.769 93.89C759.694 94.2694 759.52 94.6224 759.266 94.9137C759.012 95.205 758.685 95.4244 758.319 95.55C749.664 99.0856 740.708 101.833 731.559 103.76C725.674 104.998 719.725 105.913 713.739 106.5C713.939 108.89 714.109 111.29 714.259 113.68C714.519 118.09 714.699 122.52 714.699 126.94C728.819 128.64 742.625 132.344 755.699 137.94C756.154 138.209 756.484 138.647 756.618 139.159C756.751 139.67 756.676 140.213 756.409 140.67C756.132 141.115 755.694 141.437 755.187 141.571C754.68 141.705 754.14 141.64 753.679 141.39C745.854 138.047 737.745 135.413 729.449 133.52C724.587 132.41 719.67 131.552 714.719 130.95C714.706 132.757 714.676 134.567 714.629 136.38C714.534 140.609 714.14 144.826 713.449 149C722.502 149.575 731.468 151.103 740.199 153.56C740.656 153.674 741.052 153.955 741.312 154.348C741.571 154.74 741.673 155.216 741.599 155.68C744.093 154.127 746.513 152.46 748.859 150.68ZM147.19 133.8L131 133.63L130.86 133.45C136.131 129.774 141.628 126.434 147.32 123.45C149.6 122.25 147.58 118.8 145.32 120C139.551 123.034 133.983 126.434 128.65 130.18C127.98 129.06 127.34 127.92 126.77 126.73C126.503 126.273 126.065 125.941 125.554 125.806C125.042 125.671 124.498 125.745 124.04 126.01C123.583 126.277 123.251 126.715 123.116 127.226C122.981 127.738 123.054 128.283 123.32 128.74C123.946 130.039 124.64 131.304 125.4 132.53L123.99 133.6L108.24 133.44C105.67 133.44 105.66 137.44 108.24 137.44L118.99 137.55C117.27 138.98 115.57 140.44 113.91 141.94C111.99 143.66 114.83 146.48 116.73 144.76C119.503 142.267 122.357 139.887 125.29 137.62H129.07C132.006 141.133 135.487 144.151 139.38 146.56C141.58 147.92 143.59 144.46 141.38 143.11C138.886 141.57 136.581 139.744 134.51 137.67L147.18 137.81C149.77 137.82 149.77 133.82 147.19 133.8ZM347.381 221.15L360.221 221.42C362.131 221.46 363.041 224.19 361.201 225.15L306.041 254.28L305.851 254.35C305.563 254.624 305.186 254.785 304.789 254.803C304.393 254.821 304.003 254.696 303.691 254.45L297.481 250.1C296.846 256.563 296.595 263.057 296.731 269.55C298.356 269.925 299.896 270.604 301.271 271.55C302.261 272.212 303.049 273.135 303.549 274.216C304.048 275.298 304.239 276.497 304.101 277.68C303.911 278.898 303.454 280.059 302.763 281.079C302.071 282.099 301.162 282.953 300.101 283.58C298.067 284.792 295.789 285.537 293.432 285.762C291.075 285.986 288.697 285.685 286.471 284.88C282.061 283.32 277.651 279.7 277.161 274.75C277.019 273.505 277.207 272.245 277.708 271.097C278.208 269.949 279.002 268.953 280.011 268.21C280.817 267.656 281.748 267.312 282.721 267.21C283.074 258.423 283.104 249.64 282.811 240.86C282.796 240.554 282.855 240.249 282.981 239.97L277.141 235.89C271.967 236.683 266.807 237.51 261.661 238.37C257.301 239.1 252.951 239.88 248.601 240.67C248.803 240.963 248.902 241.315 248.881 241.67C248.147 249.777 247.421 257.887 246.701 266L247.021 266.1C248.891 266.79 250.891 267.83 251.891 269.68C252.393 270.631 252.626 271.7 252.564 272.774C252.502 273.847 252.148 274.883 251.541 275.77C248.871 279.77 243.411 279.91 239.151 279.67C234.891 279.43 229.711 278.13 227.541 274.02C226.862 272.708 226.62 271.214 226.85 269.755C227.081 268.296 227.771 266.949 228.821 265.91C228.906 265.439 229.152 265.012 229.517 264.702C229.881 264.392 230.342 264.218 230.821 264.21C230.895 264.204 230.97 264.198 231.045 264.191L231.065 264.19L231.066 264.19C231.607 264.145 232.155 264.1 232.711 264.1C232.979 257.084 233.751 250.096 235.021 243.19C225.654 245.003 216.304 246.937 206.971 248.99C206.59 249.065 206.196 249.034 205.832 248.899C205.468 248.764 205.149 248.53 204.909 248.225C204.67 247.919 204.52 247.553 204.476 247.167C204.432 246.782 204.496 246.391 204.661 246.04C204.326 245.75 204.105 245.351 204.035 244.914C203.966 244.477 204.053 244.029 204.281 243.65C210.777 232.186 218.234 221.294 226.571 211.09C228.917 202.561 234.27 195.169 241.641 190.28C242.023 190.055 242.469 189.963 242.909 190.019C243.349 190.075 243.757 190.276 244.071 190.59C246.483 193.276 248.07 196.425 249.662 199.587L249.662 199.587C250.571 201.391 251.482 203.2 252.551 204.93C254.831 208.62 258.121 212 262.741 212.08C263.068 212.085 263.395 212.07 263.724 212.056H263.724C264.008 212.043 264.293 212.03 264.581 212.03C264.558 211.921 264.542 211.811 264.531 211.7L263.361 187.01C261.575 187.21 259.772 187.19 257.991 186.95C253.551 186.28 249.351 182.66 250.231 177.8C250.468 176.732 250.967 175.74 251.682 174.912C252.398 174.085 253.308 173.448 254.331 173.06C256.497 172.148 258.843 172.229 261.138 172.308C261.259 172.312 261.38 172.316 261.501 172.32L269.501 172.58L269.645 172.584L269.819 172.59L270.069 172.597C272.361 172.665 274.706 172.734 276.821 173.75C277.778 174.176 278.616 174.83 279.263 175.655C279.909 176.479 280.344 177.449 280.531 178.48C280.689 179.492 280.538 180.528 280.097 181.452C279.656 182.376 278.947 183.146 278.061 183.66V183.72C278.06 184.113 277.94 184.496 277.717 184.819C277.494 185.142 277.178 185.39 276.811 185.53C277.484 193.768 277.708 202.037 277.481 210.3L279.911 209.96L315.181 205.13C315.478 205.048 315.789 205.036 316.092 205.095C316.394 205.154 316.679 205.281 316.924 205.468C317.169 205.655 317.367 205.896 317.504 206.172C317.64 206.448 317.711 206.752 317.711 207.06C317.891 211.553 318.067 216.05 318.241 220.55L332.901 220.86C332.722 220.557 332.632 220.211 332.641 219.86L332.501 189.86V189.65C329.371 189.47 326.121 189.06 323.601 187.06C321.361 185.29 319.841 182.2 320.601 179.29C322.246 173.044 330.059 173.717 335.102 174.15C335.299 174.167 335.492 174.184 335.681 174.2C339.051 174.5 342.421 174.9 345.741 175.5C347.481 175.82 349.201 176.18 350.911 176.61C352.233 176.856 353.484 177.396 354.571 178.19C356.791 180.01 356.681 183.05 355.411 185.4C353.98 187.734 351.786 189.501 349.201 190.4C348.311 190.748 347.39 191.013 346.451 191.19L347.621 220.15C347.633 220.499 347.55 220.844 347.381 221.15ZM331.471 185.334C331.724 185.31 331.98 185.339 332.221 185.42L333.261 185.77H333.521C333.921 185.779 334.309 185.912 334.631 186.15C338.811 187.35 343.191 188.26 347.411 186.84C349.23 186.313 350.807 185.167 351.871 183.6C352.261 183.053 352.423 182.374 352.321 181.71C352.096 181.078 351.242 180.874 350.602 180.72C350.502 180.696 350.407 180.673 350.321 180.65C345.445 179.408 340.469 178.601 335.451 178.24C333.064 177.932 330.653 177.848 328.251 177.99C326.781 178.15 324.691 178.88 324.431 180.56C324.171 182.24 325.631 183.84 327.021 184.56C328.192 185.119 329.457 185.458 330.751 185.56C330.972 185.435 331.218 185.358 331.471 185.334ZM342.521 191.53C340.499 191.464 338.489 191.196 336.521 190.73L336.511 190.72C336.551 200.44 336.611 210.173 336.691 219.92C336.689 220.274 336.588 220.62 336.401 220.92L343.941 221.08C343.774 220.794 343.682 220.471 343.671 220.14C343.284 210.607 342.901 201.07 342.521 191.53ZM255.071 181.31C256.531 182.91 258.981 183.15 260.981 183.15L260.971 183.14C262.764 183.111 264.52 182.915 266.286 182.718L266.288 182.717L266.29 182.717C266.965 182.642 267.641 182.566 268.321 182.5L275.021 181.82C275.015 181.486 275.107 181.159 275.285 180.876C275.462 180.594 275.718 180.369 276.021 180.23C277.471 179.46 276.141 177.84 275.141 177.35C273.611 176.558 271.693 176.556 269.918 176.555H269.917C269.452 176.555 268.996 176.554 268.561 176.54L261.071 176.29L260.983 176.285L260.89 176.28L260.795 176.275L260.577 176.263C258.725 176.157 256.566 176.034 255.071 177.19C253.681 178.26 253.991 180.14 255.071 181.31ZM271.291 211.14L273.541 210.83L273.531 210.82C273.5 210.645 273.486 210.467 273.491 210.29C273.711 202.184 273.5 194.073 272.861 185.99L267.361 186.55C267.761 194.897 268.154 203.23 268.541 211.55C268.635 211.536 268.729 211.521 268.822 211.507C268.898 211.496 268.973 211.484 269.048 211.473L269.384 211.421L269.385 211.42C270.025 211.321 270.658 211.223 271.291 211.14ZM242.171 275.69C244.231 275.63 248.791 275.33 248.651 272.27L248.641 272.26C248.581 271.13 247.291 270.47 246.391 270.08C244.905 269.511 243.368 269.086 241.801 268.81C239.031 268.249 236.206 268.001 233.381 268.07C233.155 268.341 232.839 268.522 232.491 268.58C231.994 268.642 231.539 268.888 231.215 269.27C230.891 269.651 230.722 270.14 230.741 270.64C230.771 271.257 230.951 271.858 231.267 272.39C231.582 272.921 232.023 273.368 232.551 273.69C235.261 275.69 238.961 275.78 242.171 275.69ZM236.731 264.11C238.771 264.205 240.8 264.459 242.801 264.87C243.527 257.13 244.224 249.383 244.891 241.63C244.941 241.52 244.941 241.41 244.941 241.3C244.259 241.426 243.576 241.552 242.892 241.677L242.891 241.677L242.889 241.678L242.888 241.678L242.887 241.678C241.627 241.909 240.367 242.14 239.111 242.38C239.135 242.586 239.135 242.794 239.111 243C237.782 249.966 236.987 257.023 236.731 264.11ZM293.831 247.52L286.901 242.67L286.891 242.66C287.137 251.127 287.091 259.587 286.751 268.04C288.762 268.158 290.766 268.392 292.751 268.74C292.634 261.792 292.968 254.844 293.751 247.94C293.761 247.797 293.788 247.656 293.831 247.52ZM300.163 277.369C300.246 276.717 300.108 276.055 299.771 275.49L299.761 275.48C298.823 274.508 297.607 273.851 296.281 273.6C296.027 273.816 295.726 273.97 295.402 274.048C295.078 274.126 294.74 274.127 294.415 274.05C294.091 273.973 293.789 273.821 293.535 273.605C293.28 273.39 293.08 273.117 292.951 272.81C289.984 272.24 286.971 271.949 283.951 271.94C283.694 271.947 283.438 271.899 283.2 271.801C282.963 271.703 282.748 271.556 282.571 271.37C282.069 271.617 281.672 272.036 281.451 272.55C280.711 274.22 281.461 276.1 282.511 277.44C284.557 279.892 287.491 281.435 290.671 281.73C293.581 282.01 297.311 281.42 299.311 279.09C299.779 278.628 300.079 278.022 300.163 277.369ZM278.191 231.7L304.891 250.4L352.461 225.27L316.321 224.5C315.79 224.5 315.282 224.289 314.906 223.914C314.531 223.539 314.321 223.03 314.321 222.5C314.141 218.107 313.967 213.71 313.801 209.31L295.531 211.82L277.281 214.32L267.911 215.6L267.789 215.615C264.988 215.971 262.16 216.329 259.381 215.6C254.731 214.4 251.251 210.52 248.911 206.6C247.988 205.054 247.191 203.439 246.396 201.826L246.396 201.826C245.174 199.348 243.956 196.878 242.291 194.68C237.184 198.508 233.319 203.757 231.181 209.77C231.374 210.13 231.453 210.54 231.407 210.946C231.36 211.352 231.191 211.733 230.921 212.04L230.861 212.113C230.831 212.151 230.8 212.188 230.77 212.227C230.727 212.28 230.684 212.333 230.642 212.387C230.509 212.554 230.377 212.72 230.241 212.88L230.211 213.002L230.211 213.003C230.092 213.495 229.983 213.949 229.891 214.42C229.856 214.651 229.775 214.872 229.651 215.07C229.528 215.268 229.365 215.439 229.173 215.571C228.98 215.703 228.763 215.795 228.534 215.839C228.304 215.884 228.069 215.881 227.841 215.83C220.627 224.902 214.117 234.514 208.371 244.58C212.751 243.63 217.141 242.69 221.531 241.79C239.537 238.097 257.624 234.85 275.791 232.05C275.92 231.863 276.087 231.705 276.28 231.585C276.474 231.466 276.69 231.387 276.915 231.354C277.14 231.321 277.369 231.335 277.589 231.394C277.808 231.454 278.013 231.558 278.191 231.7ZM1065.37 295.47C1062.61 296.87 1059.91 298.39 1057.27 299.99C1057.84 299.16 1058.44 298.34 1059.09 297.55C1059.46 297.175 1059.67 296.669 1059.67 296.14C1059.67 295.612 1059.46 295.105 1059.09 294.73C1058.91 294.544 1058.68 294.397 1058.44 294.296C1058.2 294.195 1057.94 294.144 1057.68 294.144C1057.41 294.144 1057.15 294.195 1056.91 294.296C1056.67 294.397 1056.45 294.544 1056.26 294.73C1054.55 296.806 1053.03 299.043 1051.75 301.41C1051.11 300.083 1050.6 298.701 1050.21 297.28C1049.55 294.79 1045.69 295.85 1046.36 298.34C1047.01 300.761 1047.98 303.082 1049.25 305.24C1046.83 306.947 1044.47 308.733 1042.16 310.6C1041.97 310.786 1041.83 311.006 1041.73 311.249C1041.63 311.492 1041.57 311.752 1041.57 312.015C1041.57 312.278 1041.63 312.538 1041.73 312.781C1041.83 313.024 1041.97 313.244 1042.16 313.43C1042.54 313.794 1043.05 313.997 1043.58 313.997C1044.1 313.997 1044.61 313.794 1044.99 313.43C1045.99 312.61 1046.99 311.8 1048.09 311.01C1047.89 311.863 1047.72 312.723 1047.58 313.59C1047.45 314.1 1047.53 314.64 1047.78 315.098C1048.04 315.556 1048.47 315.897 1048.97 316.05C1049.22 316.12 1049.49 316.139 1049.75 316.106C1050.01 316.074 1050.26 315.99 1050.49 315.86C1050.72 315.73 1050.92 315.556 1051.08 315.349C1051.24 315.141 1051.36 314.904 1051.43 314.65C1051.7 312.996 1052.09 311.362 1052.58 309.76C1054.2 311.585 1056.06 313.191 1058.09 314.54C1058.32 314.685 1058.57 314.782 1058.84 314.826C1059.11 314.87 1059.38 314.859 1059.64 314.795C1059.9 314.731 1060.15 314.614 1060.36 314.452C1060.58 314.291 1060.76 314.087 1060.9 313.853C1061.03 313.62 1061.12 313.361 1061.15 313.093C1061.18 312.826 1061.16 312.554 1061.08 312.295C1061.01 312.036 1060.88 311.795 1060.71 311.586C1060.54 311.377 1060.33 311.205 1060.09 311.08C1058.09 309.749 1056.3 308.12 1054.79 306.25C1058.85 303.576 1063.05 301.129 1067.37 298.92C1069.68 297.75 1067.66 294.3 1065.37 295.47ZM1351.1 288.07L1359.52 282.81C1361.71 281.44 1363.72 284.9 1361.56 286.33L1349.66 293.76C1352.07 297.547 1354.92 301.044 1358.13 304.18C1359.97 306 1357.14 308.8 1355.3 307C1352.78 304.541 1350.49 301.864 1348.45 299C1348.28 301.966 1348.57 304.941 1349.3 307.82C1349.95 310.31 1346.09 311.37 1345.44 308.88C1344.43 304.966 1344.13 300.9 1344.57 296.88L1340.36 299.51C1338.19 300.88 1336.18 297.42 1338.36 296.06L1344.24 292.38C1342.96 290.059 1341.82 287.661 1340.84 285.2C1340.77 284.947 1340.75 284.682 1340.78 284.421C1340.82 284.16 1340.9 283.908 1341.03 283.68C1341.16 283.451 1341.33 283.251 1341.54 283.09C1341.75 282.928 1341.99 282.81 1342.24 282.74C1342.75 282.615 1343.29 282.69 1343.75 282.951C1344.21 283.211 1344.55 283.637 1344.7 284.14C1345.27 285.58 1345.93 286.99 1346.63 288.38C1347.55 285.967 1348.75 283.674 1350.22 281.55C1351.67 279.43 1355.14 281.43 1353.67 283.55C1352.68 284.98 1351.82 286.492 1351.1 288.07ZM1360.6 138.27C1360.22 137.908 1359.71 137.707 1359.19 137.707C1358.66 137.707 1358.15 137.908 1357.77 138.27C1357.52 138.556 1357.33 138.899 1357.24 139.27C1355.98 138.928 1354.66 138.891 1353.38 139.162C1352.1 139.433 1350.9 140.005 1349.89 140.83C1347.28 142.99 1346.89 146.73 1348.11 149.73C1348.74 151.268 1349.85 152.563 1351.27 153.426C1352.69 154.29 1354.35 154.676 1356.01 154.53C1357.73 154.386 1359.36 153.752 1360.73 152.704C1362.1 151.657 1363.14 150.239 1363.72 148.62C1364.28 146.78 1364.29 144.814 1363.73 142.971C1363.18 141.129 1362.09 139.492 1360.6 138.27ZM1360.16 146.13V146.53V146.78C1360.15 146.859 1360.13 146.938 1360.11 147.017C1360.09 147.102 1360.07 147.186 1360.04 147.27C1360.04 147.343 1360.01 147.416 1359.98 147.485L1359.98 147.487L1359.96 147.523C1359.96 147.546 1359.95 147.568 1359.94 147.59L1359.82 147.87C1359.79 147.925 1359.76 147.98 1359.73 148.036C1359.65 148.183 1359.57 148.332 1359.48 148.47C1359.48 148.47 1359.33 148.67 1359.3 148.72L1359.1 148.96C1358.91 149.159 1358.71 149.338 1358.51 149.518L1358.51 149.518L1358.51 149.52H1358.44L1358.1 149.74C1357.85 149.887 1357.6 150.02 1357.34 150.14L1356.72 150.34L1356.09 150.47H1355.49H1354.85H1354.59L1354.12 150.34L1353.82 150.22L1353.64 150.13L1353.31 149.93C1353.24 149.881 1353.17 149.828 1353.1 149.77C1352.94 149.638 1352.79 149.498 1352.65 149.35C1352.61 149.305 1352.56 149.255 1352.52 149.204C1352.5 149.176 1352.48 149.148 1352.45 149.12L1352.3 148.9C1352.21 148.759 1352.13 148.615 1352.06 148.469C1352.01 148.386 1351.97 148.303 1351.92 148.22V148.17L1351.82 147.87C1351.74 147.601 1351.67 147.327 1351.61 147.05L1351.61 147.03C1351.61 147.02 1351.61 147.01 1351.61 147V146.5V145.86C1351.64 145.671 1351.68 145.484 1351.73 145.3C1351.73 145.226 1351.76 145.157 1351.8 145.088C1351.82 145.045 1351.84 145.003 1351.85 144.96C1351.88 144.906 1351.91 144.85 1351.94 144.793C1351.99 144.715 1352.03 144.636 1352.08 144.56C1352.12 144.493 1352.17 144.429 1352.22 144.37C1352.38 144.193 1352.54 144.026 1352.72 143.87L1352.91 143.72C1353.04 143.633 1353.18 143.552 1353.32 143.48L1353.6 143.35L1353.87 143.25C1354.13 143.17 1354.4 143.11 1354.67 143.07H1354.91H1355.39H1355.67L1355.97 143.12L1356.43 143.24L1356.63 143.31C1356.7 143.357 1356.77 143.401 1356.84 143.443C1356.87 143.462 1356.91 143.481 1356.94 143.5L1357.03 143.554C1357.19 143.643 1357.35 143.733 1357.5 143.84C1357.87 144.051 1358.29 144.14 1358.71 144.096C1359.13 144.051 1359.53 143.874 1359.84 143.59V143.65C1360.01 144.102 1360.14 144.567 1360.23 145.04V145.32V145.74C1360.23 145.817 1360.21 145.888 1360.19 145.958L1360.19 145.959C1360.18 146.016 1360.17 146.072 1360.16 146.13ZM266.951 25.4002C267.097 25.4099 267.242 25.4402 267.381 25.4902C269.122 26.1849 270.594 27.4213 271.579 29.0167C272.564 30.6121 273.01 32.482 272.851 34.3502C272.649 36.0244 271.957 37.6016 270.861 38.8829C269.765 40.1642 268.314 41.0923 266.691 41.5502C265.085 42.0435 263.368 42.0422 261.762 41.5464C260.157 41.0506 258.739 40.0832 257.691 38.7702C256.584 37.4414 255.89 35.8186 255.693 34.1008C255.496 32.383 255.804 30.6451 256.581 29.1002C257.41 27.569 258.651 26.3004 260.164 25.438C261.677 24.5756 263.401 24.1537 265.141 24.2202C265.521 24.2344 265.89 24.3517 266.209 24.5595C266.528 24.7674 266.784 25.0579 266.951 25.4002ZM268.881 34.0902V33.8302L268.911 33.3702V32.9302V32.7702C268.862 32.5135 268.798 32.2598 268.721 32.0102C268.681 31.8702 268.631 31.7302 268.581 31.5902V31.5402L268.522 31.4312L268.521 31.43L268.521 31.4294C268.413 31.2292 268.309 31.0361 268.191 30.8502L268.001 30.5602C267.936 30.4908 267.876 30.4173 267.821 30.3402C267.641 30.1502 267.451 29.9702 267.261 29.8002L267.091 29.6702L266.901 29.5402C266.889 29.533 266.877 29.5254 266.865 29.5175C266.837 29.4993 266.808 29.4793 266.779 29.4593C266.679 29.39 266.577 29.3202 266.521 29.3202C266.481 29.3202 266.368 29.2827 266.312 29.2639C266.297 29.259 266.286 29.2554 266.282 29.2541C265.802 29.0341 265.407 28.6606 265.161 28.1902H264.231L263.911 28.2402L263.551 28.3302L263.011 28.5002H262.891L262.791 28.5502C262.509 28.6911 262.235 28.848 261.971 29.0202C261.961 29.0202 261.671 29.2102 261.671 29.2102L261.401 29.4502C261.166 29.6618 260.945 29.889 260.741 30.1302L260.541 30.4002L260.341 30.7102C260.297 30.7836 260.251 30.8775 260.207 30.9646L260.206 30.9672L260.205 30.9682C260.149 31.0813 260.099 31.1821 260.071 31.2102C260.021 31.2602 260.021 31.3102 260.021 31.3102V31.4302C259.994 31.5303 259.966 31.6294 259.938 31.7284C259.883 31.926 259.827 32.1237 259.781 32.3302V32.8602V33.4802C259.781 33.5039 259.777 33.5173 259.774 33.5304C259.767 33.5561 259.761 33.581 259.781 33.6802C259.792 33.7347 259.808 33.7893 259.824 33.8438C259.852 33.9393 259.881 34.0347 259.881 34.1302C259.952 34.3884 260.039 34.6422 260.141 34.8902L260.231 35.0902C260.277 35.1829 260.332 35.2801 260.382 35.3671C260.407 35.4114 260.43 35.4531 260.451 35.4902C260.488 35.5584 260.529 35.6229 260.569 35.6858L260.57 35.6868C260.594 35.7249 260.618 35.7626 260.641 35.8002L260.811 36.0402L261.001 36.2602L261.241 36.5202L261.641 36.8902H261.691H261.741C261.961 37.0486 262.191 37.1923 262.431 37.3202L262.681 37.4402L262.951 37.5402C263.076 37.5802 263.203 37.6077 263.331 37.6352C263.458 37.6627 263.586 37.6902 263.711 37.7302H264.711H264.971H265.231L265.581 37.6402L265.921 37.5302L266.221 37.4202C266.451 37.3102 266.681 37.1902 266.901 37.0602L267.281 36.8202H267.341L267.368 36.7956C267.538 36.6447 267.699 36.5015 267.861 36.3402C267.979 36.2207 268.089 36.0938 268.191 35.9602C268.351 35.7102 268.501 35.4602 268.641 35.1902L268.691 35.1102C268.689 35.0769 268.689 35.0435 268.691 35.0102C268.702 34.9702 268.718 34.9302 268.734 34.8902C268.762 34.8202 268.791 34.7502 268.791 34.6802L268.881 34.3402V34.0902ZM266.282 29.2541C266.274 29.252 266.282 29.2556 266.316 29.2695C266.305 29.2645 266.293 29.2593 266.282 29.2541ZM266.316 29.2695C266.341 29.2798 266.38 29.2957 266.437 29.3189L266.441 29.3202C266.417 29.3113 266.394 29.3021 266.37 29.2926C266.352 29.2851 266.334 29.2774 266.316 29.2695ZM88.0896 319.53C87.8116 319.082 87.3727 318.758 86.863 318.624C86.3533 318.49 85.8117 318.557 85.3496 318.81C85.0926 318.967 84.8767 319.183 84.7196 319.44C81.3896 320.44 77.9396 321.63 75.5296 324.22C73.1196 326.81 71.9996 330.92 73.5296 334.28C75.0596 337.64 78.9896 338.73 82.3596 337.86C84.0761 337.375 85.6454 336.472 86.9266 335.231C88.2077 333.99 89.1606 332.45 89.6996 330.75C90.3408 328.886 90.5292 326.897 90.2492 324.946C89.9692 322.995 89.229 321.138 88.0896 319.53ZM86.3496 327.53V327.83C86.3496 327.786 86.3374 327.88 86.3227 327.994C86.3076 328.111 86.2897 328.25 86.2796 328.28C86.0814 329.528 85.5877 330.711 84.8396 331.73L84.7396 331.85L84.4696 332.18C84.3205 332.337 84.1658 332.482 84.0097 332.629L84.0095 332.629L83.9392 332.695C83.9093 332.723 83.8795 332.752 83.8496 332.78L83.7596 332.87L83.6596 332.94L83.3396 333.16C83.0171 333.365 82.6833 333.552 82.3396 333.72C82.16 333.794 81.9764 333.857 81.7896 333.91C81.5184 334 81.241 334.07 80.9596 334.12H80.6996H80.4696H79.9096H79.5896C79.4034 334.084 79.2274 334.038 79.0544 333.993C78.9858 333.975 78.9177 333.957 78.8496 333.94H78.7696L78.3396 333.72L78.1396 333.58C78.0689 333.536 78.0019 333.486 77.9396 333.43L77.6096 333.1L77.4496 333C77.4521 332.963 77.4521 332.927 77.4496 332.89C77.3696 332.76 77.2896 332.63 77.2196 332.49C77.1908 332.439 77.1673 332.386 77.1496 332.33C77.0577 332.054 76.981 331.774 76.9196 331.49V330.93V330.55V330.22C76.9686 329.934 77.032 329.65 77.1096 329.37C77.1096 329.254 77.162 329.144 77.2136 329.035C77.2334 328.993 77.253 328.952 77.2696 328.91C77.3296 328.76 77.3296 328.75 77.3596 328.68C77.4891 328.406 77.6326 328.139 77.7896 327.88C77.8296 327.807 77.8785 327.733 77.9275 327.66C77.9519 327.623 77.9763 327.587 77.9996 327.55L78.0696 327.43L78.1596 327.34C79.2295 326.152 80.5519 325.22 82.0296 324.61C83.2411 324.09 84.4875 323.656 85.7596 323.31C85.8367 323.489 85.9034 323.673 85.9596 323.86C86.0807 324.203 86.1776 324.554 86.2496 324.91C86.2496 325.017 86.2774 325.12 86.3054 325.224L86.3055 325.225C86.322 325.286 86.3385 325.347 86.3496 325.41V325.47C86.3496 325.648 86.3671 325.827 86.3848 326.007C86.3999 326.16 86.415 326.314 86.4196 326.47C86.4271 326.725 86.4009 326.98 86.3746 327.235C86.3659 327.32 86.3571 327.405 86.3496 327.49V327.53ZM1427.71 39.4371C1427.82 39.5168 1427.9 39.6164 1427.97 39.7301C1428.04 39.8437 1428.08 39.9692 1428.1 40.0996C1428.12 40.23 1428.11 40.3626 1428.07 40.4899C1428.04 40.6171 1427.98 40.7366 1427.9 40.8413C1427.82 40.946 1427.72 41.034 1427.61 41.1001L1412.19 52.9701C1411.96 53.1013 1411.69 53.1371 1411.44 53.0697C1411.18 53.0023 1410.96 52.8372 1410.83 52.6101C1410.69 52.382 1410.65 52.1096 1410.72 51.8527C1410.79 51.5957 1410.95 51.3754 1411.18 51.2401L1426.6 39.3701C1426.71 39.3036 1426.84 39.2601 1426.97 39.2422C1427.1 39.2243 1427.23 39.2323 1427.36 39.2657C1427.49 39.2992 1427.61 39.3574 1427.71 39.4371ZM1394.05 63.8402C1388 66.8271 1381.68 69.2249 1375.17 71.0002C1374.91 71.0705 1374.7 71.2395 1374.56 71.4702C1374.43 71.7009 1374.4 71.9743 1374.47 72.2302C1374.54 72.4861 1374.71 72.7036 1374.94 72.8349C1375.17 72.9662 1375.44 73.0005 1375.7 72.9302C1382.37 71.1108 1388.86 68.6528 1395.06 65.5902C1396.22 65.0002 1395.2 63.2702 1394.05 63.8402ZM4.26083 72.7L25.5308 75.57C26.8008 75.75 26.2508 77.67 24.9908 77.5L3.73083 74.63C2.46083 74.46 3.00083 72.53 4.26083 72.7ZM42.1007 81.2101L63.1007 84.2101C64.3707 84.3901 63.8207 86.3201 62.5707 86.1401L41.5707 83.1401C40.3007 82.9601 40.8407 81.0301 42.1007 81.2101ZM109.45 92L84.3704 87.07C83.1104 86.83 82.5704 88.75 83.8304 89L108.9 93.89C110.16 94.14 110.7 92.21 109.45 92ZM119.449 93.44C128.734 94.8246 137.943 96.6803 147.039 99C147.297 99.0755 147.513 99.2502 147.642 99.4856C147.77 99.721 147.8 99.9977 147.724 100.255C147.649 100.512 147.474 100.729 147.239 100.857C147.003 100.986 146.727 101.016 146.469 100.94C137.385 98.6208 128.19 96.7584 118.919 95.36C117.649 95.17 118.199 93.25 119.449 93.44ZM195.74 106.66L172.12 101.66C170.86 101.4 170.32 103.32 171.59 103.59L195.21 108.59C196.45 108.86 197 106.93 195.74 106.66ZM218.45 108.63L238.83 110.84C240.1 111 240.11 113 238.88 112.84L218.45 110.63C217.18 110.49 217.17 108.49 218.45 108.63ZM278.899 115.87L256.269 113.25C254.999 113.1 255.009 115.1 256.269 115.25L278.899 117.87C280.169 118 280.159 116 278.899 115.87ZM344.32 129.53C352.927 131.783 361.65 133.566 370.45 134.87C371.68 135.06 371.13 137 369.91 136.8C361.114 135.49 352.395 133.707 343.79 131.46C343.534 131.39 343.317 131.221 343.186 130.99C343.054 130.759 343.02 130.486 343.09 130.23C343.161 129.974 343.33 129.756 343.56 129.625C343.791 129.494 344.064 129.46 344.32 129.53ZM418.65 144.82C411.005 143.492 403.447 141.699 396.02 139.45C395.764 139.379 395.49 139.412 395.259 139.542C395.027 139.672 394.857 139.889 394.785 140.145C394.714 140.401 394.746 140.675 394.877 140.907C395.007 141.138 395.224 141.309 395.48 141.38C402.912 143.624 410.472 145.417 418.12 146.75C419.37 147 419.92 145.05 418.65 144.82ZM436.84 148.63L467.92 157C468.047 157.035 468.165 157.094 468.269 157.175C468.373 157.255 468.46 157.356 468.525 157.47C468.59 157.584 468.632 157.71 468.648 157.84C468.664 157.971 468.655 158.103 468.62 158.23C468.585 158.357 468.526 158.475 468.445 158.579C468.364 158.683 468.264 158.77 468.15 158.835C468.036 158.9 467.91 158.942 467.779 158.958C467.649 158.974 467.517 158.965 467.39 158.93L436.31 150.56C436.054 150.49 435.836 150.321 435.705 150.09C435.574 149.859 435.54 149.586 435.61 149.33C435.68 149.074 435.849 148.856 436.08 148.725C436.311 148.594 436.584 148.56 436.84 148.63ZM518.011 168.82L487.551 160.46C487.295 160.39 487.022 160.424 486.791 160.555C486.56 160.687 486.391 160.904 486.321 161.16C486.251 161.416 486.285 161.689 486.416 161.92C486.547 162.151 486.765 162.32 487.021 162.39L517.451 170.75C517.707 170.824 517.982 170.794 518.215 170.665C518.449 170.537 518.622 170.321 518.696 170.065C518.77 169.809 518.74 169.534 518.611 169.301C518.483 169.067 518.267 168.894 518.011 168.82ZM545.05 173L572.3 175.9C573.57 176 573.58 178 572.3 177.88L545.05 175C543.78 174.86 543.77 172.86 545.05 173ZM618.58 182.91L588.64 177.31C587.38 177.07 586.84 179 588.11 179.23L618.04 184.84C619.3 185.08 619.84 183.15 618.58 182.91ZM646.681 184.76L682.101 186.41C683.381 186.47 683.391 188.47 682.101 188.41L646.681 186.76C645.401 186.7 645.401 184.7 646.681 184.76ZM744.45 192.12L711.76 190.74C710.47 190.68 710.47 192.68 711.76 192.74L744.45 194.12C745.78 194.18 745.77 192.18 744.45 192.12ZM758.93 194L791.34 194.14C791.606 194.14 791.862 194.246 792.05 194.434C792.239 194.623 792.345 194.878 792.345 195.145C792.345 195.412 792.239 195.667 792.05 195.856C791.862 196.044 791.606 196.15 791.34 196.15L758.93 196C758.664 196 758.41 195.895 758.223 195.707C758.035 195.52 757.93 195.265 757.93 195C757.93 194.735 758.035 194.48 758.223 194.293C758.41 194.105 758.664 194 758.93 194ZM836.3 193.88L812.59 193.56C812.325 193.56 812.07 193.665 811.883 193.853C811.695 194.04 811.59 194.295 811.59 194.56C811.59 194.825 811.695 195.08 811.883 195.267C812.07 195.455 812.325 195.56 812.59 195.56L836.3 195.88C836.565 195.88 836.819 195.775 837.007 195.587C837.195 195.4 837.3 195.145 837.3 194.88C837.3 194.615 837.195 194.36 837.007 194.173C836.819 193.985 836.565 193.88 836.3 193.88ZM922.07 184L948.5 183.51C948.765 183.51 949.02 183.615 949.207 183.803C949.395 183.99 949.5 184.245 949.5 184.51C949.5 184.775 949.395 185.03 949.207 185.217C949.02 185.405 948.765 185.51 948.5 185.51L922.07 186C921.805 186 921.55 185.895 921.363 185.707C921.175 185.52 921.07 185.265 921.07 185C921.07 184.735 921.175 184.48 921.363 184.293C921.55 184.105 921.805 184 922.07 184ZM863.811 190.99L890.241 190.5C890.506 190.5 890.76 190.605 890.948 190.793C891.135 190.98 891.241 191.235 891.241 191.5C891.241 191.765 891.135 192.02 890.948 192.207C890.76 192.395 890.506 192.5 890.241 192.5L863.811 192.99C863.545 192.99 863.291 192.885 863.103 192.697C862.916 192.51 862.811 192.255 862.811 191.99C862.811 191.725 862.916 191.47 863.103 191.283C863.291 191.095 863.545 190.99 863.811 190.99ZM1019.94 173.06L982.6 174.85C981.32 174.91 981.31 176.91 982.6 176.85L1019.94 175.06C1021.22 175 1021.23 173 1019.94 173.06ZM1037.65 168.33C1049.26 164.741 1061.07 161.839 1073.02 159.64C1074.28 159.4 1074.81 161.33 1073.55 161.56C1061.6 163.767 1049.79 166.672 1038.18 170.26C1036.95 170.64 1036.42 168.71 1037.65 168.33ZM1130.25 149.6C1118.27 150.444 1106.47 152.927 1095.17 156.98C1093.97 157.41 1094.49 159.34 1095.7 158.91C1106.83 154.905 1118.45 152.445 1130.25 151.6C1131.53 151.51 1131.54 149.51 1130.25 149.6ZM1146.07 150.34L1163.75 146.67C1165.01 146.41 1165.55 148.33 1164.29 148.6L1146.6 152.26C1145.35 152.53 1144.81 150.6 1146.07 150.34ZM1229.06 125.64C1219.27 130.198 1208.8 133.094 1198.06 134.21C1196.79 134.34 1196.78 136.34 1198.06 136.21C1209.15 135.066 1219.96 132.074 1230.06 127.36C1231.23 126.82 1230.22 125.09 1229.06 125.64ZM1247.97 120.46C1254.97 117.227 1262.14 114.363 1269.45 111.88C1270.7 111.47 1271.22 113.4 1269.97 113.81C1262.83 116.228 1255.82 119.025 1248.97 122.19C1247.82 122.72 1246.8 121 1247.97 120.46ZM1306.45 97.7499C1297.47 99.6153 1288.95 103.253 1281.39 108.45C1280.33 109.17 1281.33 110.91 1282.39 110.17C1289.8 105.073 1298.16 101.504 1306.97 99.6699C1308.27 99.4099 1307.74 97.4799 1306.45 97.7499ZM1328.84 92.1798L1351.19 82.1798C1352.36 81.6498 1353.37 83.3798 1352.19 83.9098L1329.84 93.9098C1328.68 94.4298 1327.66 92.7098 1328.84 92.1798ZM29.7694 241.4C22.0584 244.7 13.7462 246.361 5.35938 246.28C5.09416 246.28 4.8398 246.386 4.65227 246.573C4.46473 246.761 4.35938 247.015 4.35938 247.28C4.35938 247.545 4.46473 247.8 4.65227 247.987C4.8398 248.175 5.09416 248.28 5.35938 248.28C14.0982 248.345 22.7549 246.591 30.7794 243.13C31.9594 242.62 30.9394 240.9 29.7694 241.4ZM47.1608 229.76C53.7675 225.993 60.5308 222.533 67.4508 219.38C68.5808 218.86 69.6008 220.58 68.4508 221.11C61.5241 224.257 54.7608 227.717 48.1608 231.49C47.9323 231.61 47.6664 231.636 47.4186 231.564C47.1709 231.492 46.9606 231.328 46.8315 231.104C46.7024 230.881 46.6646 230.616 46.726 230.366C46.7873 230.115 46.9431 229.898 47.1608 229.76ZM113.95 203.26C107.464 206.92 101.084 210.757 94.8102 214.77C93.7302 215.46 94.7302 217.2 95.8102 216.5C102.084 212.5 108.464 208.66 114.95 204.98C115.15 204.835 115.289 204.62 115.341 204.378C115.392 204.135 115.351 203.883 115.227 203.669C115.102 203.455 114.903 203.294 114.667 203.219C114.431 203.144 114.176 203.158 113.95 203.26ZM147.6 192.92C154.6 189.1 161.6 185.283 168.6 181.47C169.73 180.85 170.74 182.58 169.6 183.19L148.6 194.64C147.48 195.26 146.47 193.53 147.6 192.92ZM213.2 162.51C206.233 165.95 199.45 169.727 192.85 173.84C191.76 174.52 192.76 176.25 193.85 175.57C200.443 171.463 207.226 167.687 214.2 164.24C215.36 163.67 214.35 162 213.2 162.51ZM233.119 153.56C240.639 150.56 247.989 147.2 255.169 143.48C256.309 142.89 257.319 144.62 256.179 145.21C248.833 149.003 241.323 152.43 233.649 155.49C232.459 155.97 231.939 154.04 233.119 153.56ZM303.371 124.89C296.366 128.094 289.056 130.58 281.551 132.31C280.301 132.6 280.831 134.53 282.091 134.24C289.758 132.457 297.226 129.904 304.381 126.62C305.551 126.08 304.531 124.36 303.371 124.89ZM333.88 113.58C341.586 108.679 349.83 104.683 358.451 101.67C359.62 101.25 360.14 103.18 358.97 103.6C350.518 106.562 342.434 110.487 334.88 115.3C333.8 116 332.8 114.27 333.88 113.58ZM395.59 84.8402C388.44 89.3696 380.936 93.3125 373.15 96.6302C371.97 97.1302 372.98 98.8502 374.15 98.3502C381.937 95.04 389.442 91.1002 396.59 86.5702C397.69 85.8802 396.68 84.1502 395.59 84.8402ZM427.71 76.0798L454.89 63.6998C456.06 63.1698 457.07 64.8898 455.9 65.4298L428.71 77.8098C427.55 78.3398 426.54 76.6098 427.71 76.0798ZM502.031 49.2501C494.294 52.1361 486.365 54.4752 478.301 56.2501C477.051 56.5301 477.581 58.4501 478.841 58.1801C486.902 56.4051 494.828 54.066 502.561 51.1801C503.761 50.7301 503.241 48.8001 502.031 49.2501ZM518.36 46.4202C526.283 46.8755 534.233 46.4157 542.05 45.0502C543.31 44.8302 543.85 46.7602 542.59 47.0002C534.595 48.4019 526.465 48.8783 518.36 48.4202C517.08 48.3502 517.08 46.3502 518.36 46.4202ZM635.77 47.92L614.28 43.92C613.02 43.68 612.49 45.61 613.75 45.84L635.23 49.84C636.45 50.08 637.03 48.16 635.77 47.92ZM561.849 46.4152L583.52 43.5515C584.792 43.3888 584.836 45.394 583.602 45.5443L561.941 48.4049C560.671 48.5771 560.577 46.5779 561.849 46.4152ZM692.17 53C681.798 51.4275 671.337 50.5223 660.85 50.29C660.584 50.29 660.33 50.3954 660.142 50.5829C659.955 50.7705 659.85 51.0248 659.85 51.29C659.85 51.5553 659.955 51.8096 660.142 51.9971C660.33 52.1847 660.584 52.29 660.85 52.29C671.16 52.5374 681.444 53.4426 691.64 55C692.9 55.14 693.45 53.21 692.17 53ZM712.609 54.8999H746.939C747.205 54.8999 747.459 55.0053 747.646 55.1928C747.834 55.3803 747.939 55.6347 747.939 55.8999C747.939 56.1651 747.834 56.4195 747.646 56.607C747.459 56.7945 747.205 56.8999 746.939 56.8999H712.609C712.344 56.8999 712.09 56.7945 711.902 56.607C711.715 56.4195 711.609 56.1651 711.609 55.8999C711.609 55.6347 711.715 55.3803 711.902 55.1928C712.09 55.0053 712.344 54.8999 712.609 54.8999ZM795.451 52.7201C785.891 53.2401 776.357 54.0667 766.851 55.2001C765.581 55.3501 765.571 57.3501 766.851 57.2001C776.351 56.0667 785.884 55.2401 795.451 54.7201C796.711 54.6501 796.721 52.6501 795.451 52.7201ZM818.311 50.1401L840.381 49.6401C840.646 49.6401 840.9 49.7455 841.088 49.933C841.275 50.1206 841.381 50.3749 841.381 50.6401C841.381 50.9054 841.275 51.1597 841.088 51.3472C840.9 51.5348 840.646 51.6401 840.381 51.6401L818.311 52.1401C818.045 52.1401 817.791 52.0348 817.603 51.8472C817.416 51.6597 817.311 51.4054 817.311 51.1401C817.311 50.8749 817.416 50.6206 817.603 50.433C817.791 50.2455 818.045 50.1401 818.311 50.1401ZM898.69 46.7498C888.524 48.0264 878.431 49.8255 868.45 52.1398C867.2 52.4298 867.73 54.3598 868.98 54.0698C878.792 51.787 888.715 50.0113 898.71 48.7498C899.95 48.5898 899.96 46.5898 898.69 46.7498ZM917.749 46.3702L948.809 45.3702C950.099 45.3302 950.099 47.3302 948.809 47.3702L917.749 48.3702C916.459 48.3702 916.469 46.3702 917.749 46.3702ZM986.89 55.9202C979.138 52.786 971.015 50.6652 962.72 49.6102C961.45 49.4502 961.46 51.4502 962.72 51.6102C970.833 52.6613 978.776 54.7588 986.35 57.8502C987.55 58.3302 988.07 56.4002 986.89 55.9202ZM1005.99 67.2798L1029.72 74.8398C1030.94 75.2298 1030.45 77.1598 1029.19 76.7698L1005.46 69.2098C1004.24 68.8198 1004.77 66.8898 1005.99 67.2798ZM1062.87 88.6702L1044.09 79.9102C1042.94 79.3702 1041.92 81.0902 1043.09 81.6402L1061.86 90.4002C1063.02 90.9402 1064.04 89.2202 1062.87 88.6702ZM1076.56 91.7799C1083.99 94.24 1091.16 97.4184 1097.97 101.27C1098.2 101.404 1098.37 101.623 1098.43 101.88C1098.5 102.137 1098.46 102.411 1098.33 102.64C1098.2 102.869 1097.98 103.036 1097.72 103.104C1097.46 103.171 1097.19 103.134 1096.96 103C1090.3 99.2295 1083.29 96.1181 1076.03 93.7099C1074.81 93.2999 1075.34 91.3699 1076.56 91.7799ZM1140.58 123.14L1122.58 113.31C1121.45 112.69 1120.44 114.42 1121.58 115.04L1139.58 124.87C1140.7 125.48 1141.71 123.76 1140.58 123.14ZM1157.45 130.72L1178.38 139.91C1179.56 140.43 1178.54 142.15 1177.34 141.64L1156.45 132.45C1155.26 131.93 1156.28 130.21 1157.45 130.72ZM1212.45 157.23C1204.81 151.949 1196.62 147.513 1188.02 144C1186.83 143.51 1186.31 145.45 1187.49 145.93C1195.94 149.381 1203.99 153.74 1211.49 158.93C1212.53 159.69 1213.53 158 1212.45 157.23ZM1220.45 162.54C1228 166.824 1235.24 171.626 1242.13 176.91C1243.14 177.68 1242.14 179.42 1241.11 178.63C1234.23 173.35 1226.99 168.549 1219.45 164.26C1219.25 164.114 1219.11 163.9 1219.06 163.657C1219.01 163.415 1219.05 163.163 1219.17 162.949C1219.3 162.735 1219.5 162.574 1219.73 162.499C1219.97 162.423 1220.23 162.438 1220.45 162.54ZM1276.21 194.33L1257.98 183.33C1257.75 183.21 1257.48 183.184 1257.24 183.255C1256.99 183.327 1256.78 183.492 1256.65 183.715C1256.52 183.939 1256.48 184.203 1256.54 184.454C1256.61 184.704 1256.76 184.921 1256.98 185.06L1275.21 196.01C1275.43 196.083 1275.66 196.079 1275.88 196C1276.09 195.92 1276.27 195.77 1276.39 195.573C1276.5 195.377 1276.55 195.146 1276.52 194.92C1276.49 194.694 1276.38 194.485 1276.21 194.33ZM1290.84 200.2L1317.32 214.54C1318.45 215.16 1317.45 216.88 1316.32 216.27L1289.84 201.92C1288.7 201.31 1289.71 199.58 1290.84 200.2ZM1348.51 235.81C1342.31 232.637 1336.62 228.555 1331.63 223.7C1330.7 222.8 1329.29 224.21 1330.21 225.11C1335.32 230.089 1341.15 234.278 1347.5 237.54C1348.64 238.12 1349.66 236.4 1348.51 235.81ZM1361.44 242.38C1366.55 247.018 1371.95 251.326 1377.6 255.28C1378.65 256 1377.65 257.75 1376.59 257C1370.8 252.951 1365.26 248.539 1360.03 243.79C1359.07 242.92 1360.44 241.51 1361.44 242.38ZM1409.45 278.86C1404.95 273.747 1400.12 268.927 1395 264.43C1394 263.59 1392.62 264.99 1393.59 265.85C1398.71 270.341 1403.54 275.158 1408.04 280.27C1408.85 281.24 1410.26 279.82 1409.45 278.86ZM1422.34 289C1428.22 293.396 1433.36 298.71 1437.55 304.74C1438.28 305.8 1436.55 306.8 1435.83 305.73C1431.84 299.985 1426.94 294.921 1421.34 290.73C1420.34 290 1421.34 288.23 1422.34 289ZM1066.53 185.21C1057.47 184.161 1048.31 184.238 1039.27 185.44C1038.01 185.61 1037.99 187.61 1039.27 187.44C1048.31 186.238 1057.47 186.161 1066.53 187.21C1067.81 187.35 1067.8 185.35 1066.53 185.21ZM998.4 193.34C1007.26 190.589 1016.39 188.821 1025.64 188.07C1026.92 188 1026.91 190 1025.64 190.07C1016.57 190.818 1007.62 192.562 998.93 195.27C997.7 195.65 997.18 193.72 998.4 193.34ZM979.611 199.35L958.611 204.5C958.355 204.572 958.138 204.742 958.008 204.974C957.877 205.205 957.844 205.479 957.916 205.735C957.988 205.991 958.158 206.208 958.389 206.338C958.621 206.469 958.895 206.502 959.151 206.43L980.151 201.28C981.391 201 980.861 199.05 979.611 199.35ZM921.01 212.75C927.802 210.14 934.836 208.214 942.01 207C943.27 206.73 943.8 208.66 942.54 208.93C935.366 210.144 928.332 212.07 921.54 214.68C920.33 215.14 919.82 213.21 921.01 212.75ZM901.129 216.75C893.542 219.65 885.875 222.317 878.129 224.75C876.899 225.13 877.429 227.07 878.659 226.68C886.419 224.26 894.085 221.593 901.659 218.68C902.849 218.22 902.339 216.29 901.129 216.75ZM845.57 231.5L863.84 227.76C865.1 227.5 865.63 229.43 864.37 229.69L846.1 233.43C844.84 233.68 844.31 231.76 845.57 231.5ZM826.27 235.45C821.37 237.081 816.333 238.269 811.22 239C811.094 239.035 810.975 239.094 810.871 239.175C810.82 239.214 810.773 239.259 810.73 239.308C810.721 239.318 810.712 239.329 810.704 239.339L810.689 239.358L810.677 239.374C810.67 239.384 810.663 239.394 810.656 239.405C810.641 239.426 810.628 239.448 810.615 239.47C810.55 239.584 810.508 239.71 810.492 239.84C810.476 239.971 810.485 240.103 810.52 240.23C810.537 240.292 810.56 240.353 810.589 240.411C810.619 240.47 810.654 240.526 810.695 240.579C810.776 240.683 810.876 240.77 810.99 240.835C811.104 240.9 811.23 240.942 811.361 240.958C811.491 240.974 811.624 240.965 811.75 240.93C816.862 240.21 821.899 239.032 826.8 237.41C828.02 237 827.5 235 826.27 235.45ZM777.97 247.79C784.194 245.85 790.59 244.51 797.07 243.79C798.35 243.65 798.34 245.65 797.07 245.84C790.77 246.536 784.552 247.836 778.5 249.72C777.27 250.1 776.75 248.17 777.97 247.79ZM771.19 251.52L754.71 255.72C754.454 255.79 754.237 255.959 754.106 256.19C753.974 256.421 753.94 256.694 754.01 256.95C754.081 257.206 754.25 257.424 754.48 257.555C754.711 257.686 754.984 257.72 755.24 257.65L771.72 253.45C771.976 253.38 772.194 253.211 772.325 252.98C772.456 252.749 772.491 252.476 772.42 252.22C772.35 251.964 772.181 251.747 771.95 251.615C771.72 251.484 771.446 251.45 771.19 251.52ZM724.059 266.93C730.134 264.155 736.368 261.744 742.729 259.71C743.959 259.32 744.449 261.25 743.249 261.65C737.053 263.621 730.979 265.958 725.059 268.65C723.899 269.19 722.889 267.46 724.059 266.93ZM712.78 268.79C706.566 271.523 701.194 275.866 697.22 281.37C696.46 282.37 698.22 283.37 698.95 282.37C702.747 277.165 707.867 273.07 713.78 270.51C714.96 270 713.94 268.28 712.78 268.79ZM691.84 310.93C689.877 304.919 690.093 298.408 692.45 292.54C692.93 291.36 694.86 291.88 694.38 293.07C692.132 298.589 691.916 304.727 693.77 310.39C694.17 311.62 692.24 312.14 691.84 310.93ZM703.12 325.8C702.331 325.2 701.694 324.422 701.26 323.53C700.973 322.997 700.707 322.464 700.442 321.931C700.21 321.464 699.978 320.997 699.73 320.53L696.31 313.81C695.73 312.66 694.01 313.67 694.59 314.81L698.22 321.97C698.266 322.061 698.312 322.153 698.357 322.244L698.455 322.442C699.382 324.313 700.368 326.302 702.11 327.51C703.18 328.25 704.19 326.52 703.12 325.8ZM716.165 335.398C718.234 336.467 720.506 337.085 722.831 337.21C724.111 337.27 724.121 339.27 722.791 339.21C720.21 339.087 717.685 338.419 715.381 337.25C713.076 336.082 711.045 334.439 709.421 332.43C709.327 332.337 709.253 332.226 709.202 332.105C709.151 331.983 709.125 331.852 709.125 331.72C709.125 331.588 709.151 331.457 709.202 331.335C709.253 331.214 709.327 331.103 709.421 331.01C709.608 330.824 709.862 330.719 710.126 330.719C710.39 330.719 710.643 330.824 710.831 331.01C712.278 332.834 714.096 334.33 716.165 335.398ZM755.93 340.45C748.422 340.888 740.891 340.193 733.59 338.39C733.334 338.32 733.061 338.354 732.83 338.485C732.599 338.617 732.43 338.834 732.36 339.09C732.29 339.346 732.324 339.62 732.455 339.85C732.586 340.081 732.804 340.25 733.06 340.32C740.534 342.172 748.243 342.89 755.93 342.45C757.21 342.38 757.22 340.38 755.93 340.45ZM762.6 340.45C767.692 338.619 772.591 336.295 777.23 333.51C777.46 333.376 777.733 333.339 777.99 333.406C778.247 333.474 778.466 333.641 778.6 333.87C778.734 334.1 778.772 334.373 778.704 334.63C778.637 334.887 778.47 335.106 778.24 335.24C773.451 338.109 768.389 340.497 763.13 342.37C761.92 342.81 761.4 340.88 762.6 340.45ZM782.659 313.09C782.659 312.825 782.554 312.57 782.367 312.383C782.179 312.195 781.925 312.09 781.659 312.09C781.394 312.09 781.14 312.195 780.952 312.383C780.765 312.57 780.659 312.825 780.659 313.09C780.776 318.415 780.512 323.742 779.869 329.03C779.719 330.31 781.719 330.3 781.869 329.03C782.512 323.742 782.776 318.415 782.659 313.09ZM768.51 293.28C772.17 296.429 775.54 299.9 778.58 303.65C778.674 303.743 778.748 303.853 778.799 303.975C778.85 304.097 778.876 304.228 778.876 304.36C778.876 304.492 778.85 304.623 778.799 304.744C778.748 304.866 778.674 304.977 778.58 305.07C778.393 305.256 778.139 305.361 777.875 305.361C777.611 305.361 777.358 305.256 777.17 305.07C774.13 301.32 770.76 297.849 767.1 294.7C766.912 294.513 766.806 294.259 766.805 293.993C766.804 293.728 766.908 293.473 767.095 293.285C767.282 293.097 767.536 292.99 767.802 292.989C768.067 292.988 768.322 293.093 768.51 293.28ZM761.109 288.24L742.719 284.29C741.459 284.02 740.929 285.94 742.189 286.21L760.579 290.21C761.829 290.44 762.369 288.51 761.109 288.24ZM707.87 285.4C714.8 283.936 721.882 283.324 728.96 283.58C730.24 283.62 730.25 285.62 728.96 285.58C722.061 285.316 715.156 285.904 708.4 287.33C707.15 287.59 706.61 285.66 707.87 285.4ZM689.181 289.36L675.981 291.63C674.721 291.84 675.261 293.77 676.521 293.55L689.711 291.28C690.981 291.07 690.451 289.14 689.181 289.36ZM653.891 296.79L664.681 294.21C665.941 293.91 666.451 295.84 665.211 296.14L654.421 298.72C653.161 299.01 652.631 297.09 653.891 296.79ZM644.65 297.7L630.89 302.35C629.68 302.76 630.2 304.69 631.43 304.28L645.18 299.63C646.39 299.22 645.87 297.28 644.65 297.7ZM601.451 309.25C607.702 307.346 613.822 305.034 619.771 302.33C620.931 301.8 621.951 303.52 620.771 304.05C614.671 306.838 608.394 309.22 601.981 311.18C601.725 311.25 601.451 311.216 601.221 311.085C600.99 310.954 600.821 310.736 600.751 310.48C600.68 310.224 600.715 309.951 600.846 309.72C600.977 309.49 601.195 309.32 601.451 309.25ZM585.63 311.41L567.03 319.86C565.86 320.39 566.88 322.11 568.03 321.58L586.63 313.14C587.81 312.61 586.8 310.88 585.63 311.41ZM531.589 329.05L553.679 321.76C554.909 321.35 555.449 323.29 554.209 323.69L532.119 330.97C530.889 331.38 530.369 329.45 531.589 329.05ZM515.51 331.08C508.55 333.477 501.735 336.275 495.1 339.46C493.94 340.01 494.95 341.74 496.1 341.18C502.588 338.074 509.249 335.343 516.05 333C517.26 332.6 516.74 330.66 515.51 331.08ZM474.54 347L488.24 341.63C489.45 341.16 489.96 343.09 488.77 343.6L475.07 348.93C473.87 349.4 473.35 347.46 474.54 347ZM460.69 350.46L447.17 356.93C446.01 357.49 447.02 359.21 448.17 358.66L461.69 352.19C462.86 351.63 461.84 349.91 460.69 350.46Z" fill="black"/>
<defs>
<linearGradient id="paint0_linear_2085_23530" x1="335.625" y1="176.422" x2="336.229" y2="188.153" gradientUnits="userSpaceOnUse">
<stop offset="0.0350253" stop-color="#BDC796"/>
<stop offset="0.521771" stop-color="#90C280"/>
<stop offset="1" stop-color="#8FB781"/>
</linearGradient>
<linearGradient id="paint1_linear_2085_23530" x1="262.526" y1="173.422" x2="263.199" y2="185.145" gradientUnits="userSpaceOnUse">
<stop offset="0.0350253" stop-color="#BDC796"/>
<stop offset="0.521771" stop-color="#90C280"/>
<stop offset="1" stop-color="#8FB781"/>
</linearGradient>
<linearGradient id="paint2_linear_2085_23530" x1="237.694" y1="265.422" x2="238.526" y2="277.125" gradientUnits="userSpaceOnUse">
<stop offset="0.0350253" stop-color="#BDC796"/>
<stop offset="0.521771" stop-color="#90C280"/>
<stop offset="1" stop-color="#8FB781"/>
</linearGradient>
<linearGradient id="paint3_linear_2085_23530" x1="290.206" y1="268.194" x2="291.037" y2="279.897" gradientUnits="userSpaceOnUse">
<stop offset="0.0350253" stop-color="#BDC796"/>
<stop offset="0.521771" stop-color="#90C280"/>
<stop offset="1" stop-color="#8FB781"/>
</linearGradient>
<linearGradient id="paint4_linear_2085_23530" x1="269.519" y1="187.093" x2="283.419" y2="199.01" gradientUnits="userSpaceOnUse">
<stop offset="0.0350253" stop-color="#F5AEDD"/>
<stop offset="0.521771" stop-color="#E493C9"/>
<stop offset="1" stop-color="#C97FB0"/>
</linearGradient>
<linearGradient id="paint5_linear_2085_23530" x1="338.519" y1="192.403" x2="354.002" y2="203.964" gradientUnits="userSpaceOnUse">
<stop offset="0.0350253" stop-color="#F5AEDD"/>
<stop offset="0.521771" stop-color="#E493C9"/>
<stop offset="1" stop-color="#C97FB0"/>
</linearGradient>
<linearGradient id="paint6_linear_2085_23530" x1="289.708" y1="244.66" x2="302.713" y2="254.373" gradientUnits="userSpaceOnUse">
<stop offset="0.0350253" stop-color="#F5AEDD"/>
<stop offset="0.521771" stop-color="#E493C9"/>
<stop offset="1" stop-color="#C97FB0"/>
</linearGradient>
<linearGradient id="paint7_linear_2085_23530" x1="243.104" y1="238.464" x2="249.079" y2="257.493" gradientUnits="userSpaceOnUse">
<stop offset="0.0350253" stop-color="#D3E3EF"/>
<stop offset="0.521771" stop-color="#BCD5E8"/>
<stop offset="1" stop-color="#ABC5D8"/>
</linearGradient>
<linearGradient id="paint8_linear_2085_23530" x1="264.13" y1="24.2642" x2="266.123" y2="38.9635" gradientUnits="userSpaceOnUse">
<stop offset="0.0350253" stop-color="#F6E7B9"/>
<stop offset="0.521771" stop-color="#E7EB98"/>
<stop offset="1" stop-color="#EFE995"/>
</linearGradient>
<linearGradient id="paint9_linear_2085_23530" x1="80.1295" y1="319.264" x2="82.123" y2="333.964" gradientUnits="userSpaceOnUse">
<stop offset="0.0350253" stop-color="#F6E7B9"/>
<stop offset="0.521771" stop-color="#E7EB98"/>
<stop offset="1" stop-color="#EFE995"/>
</linearGradient>
<linearGradient id="paint10_linear_2085_23530" x1="1019.6" y1="10.1591" x2="1021.63" y2="27.0222" gradientUnits="userSpaceOnUse">
<stop offset="0.0350253" stop-color="#F6E7B9"/>
<stop offset="0.521771" stop-color="#E7EB98"/>
<stop offset="1" stop-color="#EFE995"/>
</linearGradient>
<linearGradient id="paint11_linear_2085_23530" x1="1354.13" y1="139.264" x2="1356.12" y2="153.964" gradientUnits="userSpaceOnUse">
<stop offset="0.0350253" stop-color="#F6E7B9"/>
<stop offset="0.521771" stop-color="#E7EB98"/>
<stop offset="1" stop-color="#EFE995"/>
</linearGradient>
<linearGradient id="paint12_linear_2085_23530" x1="1099.86" y1="171.422" x2="1100.95" y2="183.082" gradientUnits="userSpaceOnUse">
<stop offset="0.0350253" stop-color="#BDC796"/>
<stop offset="0.521771" stop-color="#90C280"/>
<stop offset="1" stop-color="#8FB781"/>
</linearGradient>
<linearGradient id="paint13_linear_2085_23530" x1="1123.86" y1="177.422" x2="1124.95" y2="189.082" gradientUnits="userSpaceOnUse">
<stop offset="0.0350253" stop-color="#F6E7B9"/>
<stop offset="0.521771" stop-color="#E7EB98"/>
<stop offset="1" stop-color="#EFE995"/>
</linearGradient>
<linearGradient id="paint14_linear_2085_23530" x1="1153.53" y1="183.996" x2="1154.18" y2="192.791" gradientUnits="userSpaceOnUse">
<stop offset="0.0350253" stop-color="#D3E3EF"/>
<stop offset="0.521771" stop-color="#BCD5E8"/>
<stop offset="1" stop-color="#ABC5D8"/>
</linearGradient>
<linearGradient id="paint15_linear_2085_23530" x1="1179.86" y1="189.422" x2="1180.95" y2="201.082" gradientUnits="userSpaceOnUse">
<stop offset="0.0350253" stop-color="#F6E7B9"/>
<stop offset="0.521771" stop-color="#E7EB98"/>
<stop offset="1" stop-color="#EFE995"/>
</linearGradient>
<linearGradient id="paint16_linear_2085_23530" x1="1204.86" y1="194.422" x2="1205.95" y2="206.082" gradientUnits="userSpaceOnUse">
<stop offset="0.0350253" stop-color="#BDC796"/>
<stop offset="0.521771" stop-color="#90C280"/>
<stop offset="1" stop-color="#8FB781"/>
</linearGradient>
<linearGradient id="paint17_linear_2085_23530" x1="1126.68" y1="183.661" x2="1128.63" y2="231.163" gradientUnits="userSpaceOnUse">
<stop offset="0.0350253" stop-color="#BDC796"/>
<stop offset="0.521771" stop-color="#90C280"/>
<stop offset="1" stop-color="#8FB781"/>
</linearGradient>
<linearGradient id="paint18_linear_2085_23530" x1="223.298" y1="204.504" x2="244.851" y2="256.478" gradientUnits="userSpaceOnUse">
<stop offset="0.0350253" stop-color="#FDF0B7"/>
<stop offset="0.521771" stop-color="#FFEA8C"/>
<stop offset="1" stop-color="#FDDE56"/>
</linearGradient>
<linearGradient id="paint19_linear_2085_23530" x1="678.037" y1="68.9649" x2="684.525" y2="151.268" gradientUnits="userSpaceOnUse">
<stop offset="0.0350253" stop-color="#D3E3EF"/>
<stop offset="0.521771" stop-color="#BCD5E8"/>
<stop offset="1" stop-color="#ABC5D8"/>
</linearGradient>
</defs>
</svg>
